<?xml version="1.0" encoding="iso-8859-1"?>
<!-- Generator: Adobe Illustrator 19.0.0, SVG Export Plug-In . SVG Version: 6.00 Build 0)  -->
<svg version="1.1" id="Capa_1" xmlns="http://www.w3.org/2000/svg" xmlns:xlink="http://www.w3.org/1999/xlink" x="0px" y="0px"
	 viewBox="0 0 512 512" style="enable-background:new 0 0 512 512;" xml:space="preserve">
<path style="fill:#FFC342;" d="M415.977,170.001c0,46.9-20.33,89.059-52.61,118.319c-17.42,15.8-27.39,38.16-27.39,61.67V350
	H175.979c0-23.64-10.18-46-27.66-61.92c-37.92-34.54-59.26-86.939-50.31-143.859c10.99-69.82,69.4-125.339,139.629-133.189
	C334.038,0.252,415.977,75.742,415.977,170.001z"/>
<path style="fill:#FFFFFF;" d="M175.979,350h159.999c0,19.249,0,59.64,0,72c0,22.09-17.91,40-40,40h-80c-22.09,0-40-17.91-40-40
	C175.979,409.641,175.979,369.249,175.979,350z"/>
<path style="fill:#BF8BDE;" d="M215.978,462h80c0,22.079-17.919,40-40,40C233.888,502,215.978,484.09,215.978,462z"/>
<path d="M255.978,60.002c5.52,0,10-4.48,10-10s-4.48-10-10-10c-5.52,0-10,4.48-10,10S250.458,60.002,255.978,60.002z"/>
<path d="M141.585,295.474c15.502,14.119,24.394,33.993,24.394,54.527v72c0,24.445,17.638,44.835,40.853,49.147
	C211.142,494.362,231.532,512,255.978,512c24.921,0,44.96-18.046,49.158-40.855c23.21-4.316,40.842-24.703,40.842-49.145v-72
	c0-0.002,0-0.003,0-0.005s0-0.003,0-0.005c0-20.588,8.787-40.367,24.106-54.261c35.521-32.198,55.894-78.024,55.894-125.728
	c0-99.587-86.529-180.417-189.45-168.907C161.868,9.439,99.81,68.458,88.13,142.669C79.163,199.695,99.147,256.818,141.585,295.474z
	 M255.978,492c-13.038,0-24.159-8.459-28.287-20.1h56.585C280.249,483.307,269.274,492,255.978,492z M295.978,452h-80
	c-16.542,0-30-13.458-30-30v-16h30c5.523,0,10-4.477,10-10s-4.477-10-10-10h-30v-26h139.999v26h-30c-5.523,0-10,4.477-10,10
	s4.477,10,10,10h30v16C325.978,438.542,312.52,452,295.978,452z M107.887,145.777C118.116,80.791,173.152,28.302,238.749,20.97
	c92.033-10.287,167.228,62.242,167.228,149.031c0,42.071-17.979,82.496-49.328,110.912c-17.001,15.42-27.675,36.544-30.127,59.087
	H185.426c-2.478-22.506-13.24-43.708-30.374-59.313C117.6,246.574,99.968,196.139,107.887,145.777z"/>
<path d="M292.146,66.045c42.896,14.952,73.831,56.272,73.831,103.956c0,5.523,4.477,10,10,10s10-4.477,10-10
	c0-56.382-36.502-105.155-87.248-122.842c-5.213-1.817-10.916,0.937-12.734,6.152C284.177,58.526,286.931,64.227,292.146,66.045z"/>
<path d="M255.978,240.711c-11.028,0-20-8.972-20-20c0-5.523-4.477-10-10-10c-5.523,0-10,4.477-10,10
	c0,18.604,12.767,34.282,30,38.734v11.266c0,5.523,4.477,10,10,10s10-4.477,10-10v-11.266c17.233-4.452,30-20.13,30-38.734
	c0-20.164-18.766-30.083-35.323-38.835c-14.906-7.879-24.677-13.609-24.677-21.165c0-11.028,8.972-20,20-20c11.028,0,20,8.972,20,20
	c0,5.523,4.477,10,10,10s10-4.477,10-10c0-18.604-12.767-34.282-30-38.734v-11.266c0-5.523-4.477-10-10-10c-5.523,0-10,4.477-10,10
	v11.266c-17.233,4.452-30,20.13-30,38.734c0,20.171,18.77,30.093,35.331,38.847c14.901,7.877,24.669,13.604,24.669,21.153
	C275.978,231.739,267.005,240.711,255.978,240.711z"/>
<g>
</g>
<g>
</g>
<g>
</g>
<g>
</g>
<g>
</g>
<g>
</g>
<g>
</g>
<g>
</g>
<g>
</g>
<g>
</g>
<g>
</g>
<g>
</g>
<g>
</g>
<g>
</g>
<g>
</g>
</svg>
