<?xml version="1.0" encoding="iso-8859-1"?>
<!-- Generator: Adobe Illustrator 19.0.0, SVG Export Plug-In . SVG Version: 6.00 Build 0)  -->
<svg version="1.1" id="Capa_1" xmlns="http://www.w3.org/2000/svg" xmlns:xlink="http://www.w3.org/1999/xlink" x="0px" y="0px"
	 viewBox="0 0 512 512" style="enable-background:new 0 0 512 512;" xml:space="preserve">
<path style="fill:#68D3CA;" d="M296,401.91v-30.66c0-49.29,39.96-89.25,89.25-89.25h29.33c21.35,0,42.14-4.12,61.42-11.97v19.51
	C476,351.55,425.55,402,363.54,402H296V401.91z"/>
<path style="fill:#FFEE8D;" d="M256,10c66.17,0,120,53.83,120,120s-53.83,120-120,120s-120-53.83-120-120S189.83,10,256,10z"/>
<path style="fill:#444B75;" d="M336,502H176c0-22.09,17.91-40,40-40c9.679,0,70.257,0,80,0C318.09,462,336,479.91,336,502z"/>
<path style="fill:#68D3CA;" d="M216,401.91V402h-67.54C86.45,402,36,351.55,36,289.54v-19.51C55.28,277.88,76.07,282,97.42,282
	h29.33c49.29,0,89.25,39.96,89.25,89.25V401.91z"/>
<path d="M416,326c5.52,0,10-4.48,10-10s-4.48-10-10-10s-10,4.48-10,10S410.48,326,416,326z"/>
<path d="M96,326c5.52,0,10-4.48,10-10s-4.48-10-10-10s-10,4.48-10,10S90.48,326,96,326z"/>
<path d="M148.46,412h64.183c14.979,11.929,25.459,22.373,33.357,33.255V452h-30c-24.146,0-44.348,17.205-48.994,40H136
	c-5.523,0-10,4.477-10,10s4.477,10,10,10h240c5.522,0,10-4.477,10-10s-4.478-10-10-10h-31.006c-4.646-22.795-24.847-40-48.994-40
	h-30v-6.744c7.899-10.883,18.378-21.327,33.357-33.256h64.183C431.064,412,486,357.065,486,289.54v-19.51
	c0-3.329-1.657-6.44-4.419-8.298c-2.763-1.857-6.268-2.219-9.353-0.964C453.924,268.221,434.528,272,414.58,272h-29.33
	c-54.727,0-99.25,44.523-99.25,99.25v25.821c-7.646,6.13-14.234,11.953-20,17.692V259.619c67.028-5.123,120-61.301,120-129.619
	C386,58.318,327.683,0,256,0c-71.682,0-130,58.318-130,130c0,68.318,52.972,124.496,120,129.619v155.144
	c-5.766-5.739-12.354-11.561-20-17.692V371.25c0-54.727-44.523-99.25-99.25-99.25H97.42c-19.949,0-39.344-3.779-57.649-11.232
	c-3.084-1.255-6.59-0.894-9.352,0.964S26,266.701,26,270.03v19.51C26,357.065,80.935,412,148.46,412z M385.25,292h29.33
	c17.61,0,34.848-2.609,51.42-7.77v5.31C466,346.037,420.037,392,363.54,392h-37.143c5.53-3.893,11.247-7.855,17.098-11.906
	c13.909-9.633,29.675-20.55,46.015-32.738c4.427-3.302,5.338-9.568,2.036-13.995s-9.567-5.34-13.995-2.037
	c-16.057,11.977-30.995,22.322-45.442,32.327c-9.069,6.28-17.827,12.351-26.108,18.32V371.25C306,327.551,341.552,292,385.25,292z
	 M324.28,492H187.72c4.128-11.639,15.243-20,28.28-20h80C309.036,472,320.152,480.361,324.28,492z M146,130
	c0-60.654,49.346-110,110-110s110,49.346,110,110s-49.346,110-110,110S146,190.654,146,130z M46,284.231
	C62.572,289.391,79.81,292,97.42,292h29.33c43.699,0,79.25,35.551,79.25,79.25v10.722c-8.281-5.969-17.038-12.038-26.105-18.318
	c-14.448-10.005-29.387-20.352-45.445-32.33c-4.427-3.302-10.692-2.391-13.995,2.037c-3.302,4.427-2.391,10.692,2.037,13.995
	c16.34,12.189,32.106,23.107,46.017,32.74c5.849,4.051,11.565,8.012,17.094,11.904H148.46C91.963,392,46,346.037,46,289.54V284.231z
	"/>
<path d="M266,210.71v-11.266c17.233-4.452,30-20.13,30-38.734c0-20.164-18.766-30.083-35.322-38.835
	C245.771,113.996,236,108.266,236,100.71c0-11.028,8.972-20,20-20c11.028,0,20,8.972,20,20c0,5.523,4.478,10,10,10s10-4.477,10-10
	c0-18.604-12.767-34.282-30-38.734V50.71c0-5.523-4.478-10-10-10s-10,4.477-10,10v11.266c-17.233,4.452-30,20.13-30,38.734
	c0,20.171,18.77,30.093,35.331,38.847C266.232,147.434,276,153.161,276,160.71c0,11.028-8.972,20-20,20s-20-8.972-20-20
	c0-5.523-4.477-10-10-10s-10,4.477-10,10c0,18.604,12.767,34.282,30,38.734v11.266c0,5.523,4.478,10,10,10S266,216.233,266,210.71z"
	/>
<g>
</g>
<g>
</g>
<g>
</g>
<g>
</g>
<g>
</g>
<g>
</g>
<g>
</g>
<g>
</g>
<g>
</g>
<g>
</g>
<g>
</g>
<g>
</g>
<g>
</g>
<g>
</g>
<g>
</g>
</svg>
