<?xml version="1.0" encoding="iso-8859-1"?>
<!-- Generator: Adobe Illustrator 19.0.0, SVG Export Plug-In . SVG Version: 6.00 Build 0)  -->
<svg version="1.1" id="Capa_1" xmlns="http://www.w3.org/2000/svg" xmlns:xlink="http://www.w3.org/1999/xlink" x="0px" y="0px"
	 viewBox="0 0 512 512" style="enable-background:new 0 0 512 512;" xml:space="preserve">
<path style="fill:#444B75;" d="M502,295v61c0,11.05-8.95,20-20,20c-21.761,0-433.351,0-452,0c-11.05,0-20-8.95-20-20v-61h1h490.5
	H502z"/>
<path style="fill:#FFFFFF;" d="M502,56v239h-0.5H11h-1V56c0-11.05,8.95-20,20-20h452C493.05,36,502,44.95,502,56z"/>
<path style="fill:#BF8BDE;" d="M395.5,75.29c11.05,0,20,8.95,20,20c0,11.04-8.95,20-20,20c-11.04,0-20-8.96-20-20
	C375.5,84.24,384.45,75.29,395.5,75.29z"/>
<path style="fill:#444B75;" d="M336,476H176c0-22.09,17.91-40,40-40h80C318.09,436,336,453.91,336,476z"/>
<g>
	<rect x="216" y="376" style="fill:#BF8BDE;" width="80" height="60"/>
	<path style="fill:#BF8BDE;" d="M295.5,215.29c0,11.04-8.95,20-20,20s-20-8.96-20-20c0-11.131,9.049-20,20-20
		C286.458,195.29,295.5,204.165,295.5,215.29z"/>
	<path style="fill:#BF8BDE;" d="M215.5,135.29c11.05,0,20,8.95,20,20c0,11.04-8.96,20-20,20s-20-8.96-20-20
		C195.5,144.24,204.45,135.29,215.5,135.29z"/>
	<path style="fill:#BF8BDE;" d="M155.5,235.29c0,11.04-8.95,20-20,20s-20-8.96-20-20c0-11.05,8.95-20,20-20
		C146.458,215.29,155.5,224.165,155.5,235.29z"/>
</g>
<path d="M30,386h176v41.006c-19.563,3.987-35.007,19.431-38.994,38.994H136c-5.522,0-10,4.477-10,10s4.478,10,10,10h240
	c5.522,0,10-4.477,10-10s-4.478-10-10-10h-31.006c-3.987-19.563-19.431-35.007-38.994-38.994V386h176c16.542,0,30-13.458,30-30V56
	c0-16.542-13.458-30-30-30H30C13.458,26,0,39.458,0,56v300C0,372.542,13.458,386,30,386z M324.28,466H187.72
	c4.128-11.639,15.243-20,28.28-20h80C309.036,446,320.152,454.361,324.28,466z M286,426h-60v-40h60V426z M482,366H30
	c-5.514,0-10-4.486-10-10v-51h472v51C492,361.514,487.514,366,482,366z M30,46h452c5.514,0,10,4.486,10,10v229H20V56
	C20,50.486,24.486,46,30,46z"/>
<path d="M277,326h-40c-5.522,0-10,4.477-10,10s4.478,10,10,10h40c5.522,0,10-4.477,10-10S282.522,326,277,326z"/>
<path d="M135.5,265.29c16.542,0,30-13.458,30-30c0-4.557-1.01-8.955-2.917-12.94l39.981-39.98c3.989,1.91,8.385,2.921,12.936,2.921
	s8.948-1.01,12.936-2.921l19.982,19.981c-1.909,3.986-2.918,8.384-2.918,12.94c0,16.542,13.458,30,30,30s30-13.458,30-30
	c0-4.556-1.01-8.953-2.918-12.94l79.982-79.981c3.989,1.91,8.385,2.921,12.936,2.921c16.542,0,30-13.458,30-30s-13.458-30-30-30
	s-30,13.458-30,30c0,4.552,1.01,8.948,2.921,12.937l-79.985,79.984c-3.989-1.91-8.385-2.921-12.936-2.921
	c-4.553,0-8.95,1.011-12.937,2.92l-19.983-19.983c1.91-3.989,2.921-8.385,2.921-12.937c0-16.542-13.458-30-30-30s-30,13.458-30,30
	c0,4.552,1.01,8.948,2.921,12.937l-39.984,39.983c-3.989-1.91-8.385-2.92-12.937-2.92c-16.542,0-30,13.458-30,30
	S118.958,265.29,135.5,265.29z M395.5,85.29c5.514,0,10,4.486,10,10s-4.486,10-10,10c-5.521,0-10-4.479-10-10
	C385.5,89.776,389.986,85.29,395.5,85.29z M285.5,215.29c0,5.514-4.486,10-10,10s-10-4.486-10-10c0-5.584,4.54-10,10-10
	C280.966,205.29,285.5,209.714,285.5,215.29z M215.5,145.29c5.514,0,10,4.486,10,10c0,5.522-4.479,10-10,10s-10-4.479-10-10
	C205.5,149.776,209.986,145.29,215.5,145.29z M135.5,225.29c5.427,0,10,4.381,10,10c0,5.514-4.486,10-10,10s-10-4.486-10-10
	S129.986,225.29,135.5,225.29z"/>
<g>
</g>
<g>
</g>
<g>
</g>
<g>
</g>
<g>
</g>
<g>
</g>
<g>
</g>
<g>
</g>
<g>
</g>
<g>
</g>
<g>
</g>
<g>
</g>
<g>
</g>
<g>
</g>
<g>
</g>
</svg>
