<?xml version="1.0" encoding="iso-8859-1"?>
<!-- Generator: Adobe Illustrator 19.0.0, SVG Export Plug-In . SVG Version: 6.00 Build 0)  -->
<svg version="1.1" id="Capa_1" xmlns="http://www.w3.org/2000/svg" xmlns:xlink="http://www.w3.org/1999/xlink" x="0px" y="0px"
	 viewBox="0 0 512 512" style="enable-background:new 0 0 512 512;" xml:space="preserve">
<path style="fill:#FFEE8D;" d="M502,256v226c0,11.05-8.95,20-20,20H256v-88.35c-5.88,3.4-12.71,5.35-20,5.35
	c-24.86,0-44.43-22.69-39.13-48.49c3.03-14.72,14.91-27,29.56-30.4c10.83-2.51,21.17-0.62,29.57,4.24V256h88.35
	c-3.4,5.88-5.35,12.71-5.35,20c0,24.86,22.69,44.43,48.49,39.13c14.72-3.03,27-14.91,30.4-29.56c2.51-10.83,0.62-21.17-4.24-29.57
	H502z"/>
<path style="fill:#BF8BDE;" d="M502,30v226h-88.35c4.86,8.4,6.75,18.74,4.24,29.57c-3.4,14.65-15.68,26.53-30.4,29.56
	C361.69,320.43,339,300.86,339,276c0-7.29,1.95-14.12,5.35-20H256v-88.35c8.4,4.86,18.74,6.75,29.57,4.24
	c14.65-3.4,26.53-15.68,29.56-30.4C320.43,115.69,300.86,93,276,93c-7.29,0-14.12,1.95-20,5.35V10h226C493.05,10,502,18.95,502,30z"
	/>
<path style="fill:#ED589D;" d="M276,93c24.86,0,44.43,22.69,39.13,48.49c-3.03,14.72-14.91,27-29.56,30.4
	c-10.83,2.51-21.17,0.62-29.57-4.24V256h-88.35c4.86-8.4,6.75-18.74,4.24-29.57c-3.4-14.65-15.68-26.53-30.4-29.56
	C115.69,191.57,93,211.14,93,236c0,7.29,1.95,14.12,5.35,20H10V30c0-11.05,8.95-20,20-20h226v88.35C261.88,94.95,268.71,93,276,93z"
	/>
<path style="fill:#68D3CA;" d="M256,413.65V502H30c-11.05,0-20-8.95-20-20V256h88.35c-3.4-5.88-5.35-12.71-5.35-20
	c0-24.86,22.69-44.43,48.49-39.13c14.72,3.03,27,14.91,30.4,29.56c2.51,10.83,0.62,21.17-4.24,29.57H256v88.35
	c-8.4-4.86-18.74-6.75-29.57-4.24c-14.65,3.4-26.53,15.68-29.56,30.4C191.57,396.31,211.14,419,236,419
	C243.29,419,250.12,417.05,256,413.65z"/>
<path d="M462,143c-5.52,0-10,4.48-10,10s4.48,10,10,10s10-4.48,10-10S467.52,143,462,143z"/>
<path d="M359,452c-5.52,0-10,4.48-10,10s4.48,10,10,10s10-4.48,10-10S364.52,452,359,452z"/>
<path d="M153,60c5.52,0,10-4.48,10-10s-4.48-10-10-10s-10,4.48-10,10S147.48,60,153,60z"/>
<path d="M50,369c5.52,0,10-4.48,10-10s-4.48-10-10-10s-10,4.48-10,10S44.48,369,50,369z"/>
<path d="M30,512h452c16.542,0,30-13.458,30-30V30c0-16.542-13.458-30-30-30H30C13.458,0,0,13.458,0,30v452
	C0,498.542,13.458,512,30,512z M20,482V266h78.337c0.008,0,0.015,0.001,0.023,0.001c0.047,0,0.095-0.009,0.143-0.009
	c7.466-0.113,12.332-8.214,8.555-14.9c-0.018-0.032-0.032-0.066-0.05-0.098C104.386,246.461,103,241.276,103,236
	c0-18.45,16.772-33.386,36.475-29.335c10.859,2.235,20.184,11.292,22.674,22.023c2.305,9.944-0.443,17.618-3.154,22.304
	c-3.849,6.663,0.979,14.928,8.546,15.002c0.037,0,0.073,0.006,0.11,0.006H246v64.022c-27.753-5.62-53.589,12.555-58.926,38.475
	C180.542,400.298,204.607,429,236,429c3.372,0,6.722-0.348,10-1.015V492H30C24.486,492,20,487.514,20,482z M482,492H266v-78.35
	c0-0.035-0.005-0.069-0.005-0.104c-0.066-7.437-8.166-12.404-14.904-8.602c-0.032,0.018-0.064,0.031-0.096,0.049
	C246.461,407.614,241.275,409,236,409c-18.423,0-33.39-16.739-29.335-36.474c3.947-19.178,26.365-29.911,44.327-19.521
	c0.032,0.019,0.066,0.032,0.099,0.051c6.603,3.732,14.909-1.025,14.909-8.706V265.9h64.008c-0.667,3.277-1.008,6.729-1.008,10.1
	c0,31.512,28.821,55.433,60.506,48.925c18.541-3.816,33.862-18.724,38.125-37.097c1.695-7.31,1.783-14.737,0.347-21.828H492v216
	C492,487.514,487.514,492,482,492z M492,30v216h-78.35c-7.692,0-12.431,8.315-8.708,14.907c0.019,0.033,0.032,0.068,0.052,0.1
	c2.711,4.687,5.459,12.36,3.154,22.302c-2.49,10.733-11.814,19.791-22.671,22.025C365.739,309.392,349,294.421,349,276
	c0-5.276,1.386-10.461,4.007-14.995c3.846-6.651-0.959-15.005-8.657-15.005H266v-64.022c27.753,5.62,53.589-12.555,58.926-38.476
	C331.458,111.702,307.393,83,276,83c-3.372,0-6.722,0.348-10,1.015V20h216C487.514,20,492,24.486,492,30z M30,20h216v78.35
	c0,0.035,0.005,0.069,0.005,0.104c0.072,7.653,8.352,12.299,14.904,8.602c0.032-0.018,0.064-0.031,0.096-0.049
	c4.534-2.621,9.72-4.007,14.995-4.007c18.423,0,33.39,16.739,29.335,36.474c-3.947,19.178-26.366,29.912-44.327,19.521
	c-6.585-3.816-15.008,0.903-15.008,8.656V246h-64.022c1.436-7.091,1.348-14.519-0.347-21.83
	c-4.263-18.371-19.584-33.278-38.128-37.095C111.705,180.545,83,204.603,83,236c0,3.372,0.348,6.722,1.015,10H20V30
	C20,24.486,24.486,20,30,20z"/>
<path d="M153,452H70c-5.514,0-10-4.486-10-10v-43c0-5.523-4.478-10-10-10s-10,4.477-10,10v43c0,16.542,13.458,30,30,30h83
	c5.522,0,10-4.477,10-10S158.522,452,153,452z"/>
<path d="M462,349c-5.522,0-10,4.477-10,10v83c0,5.514-4.486,10-10,10h-43c-5.522,0-10,4.477-10,10s4.478,10,10,10h43
	c16.542,0,30-13.458,30-30v-83C472,353.477,467.522,349,462,349z"/>
<path d="M359,60h83c5.514,0,10,4.486,10,10v43c0,5.523,4.478,10,10,10s10-4.477,10-10V70c0-16.542-13.458-30-30-30h-83
	c-5.522,0-10,4.477-10,10S353.478,60,359,60z"/>
<path d="M50,163c5.522,0,10-4.477,10-10V70c0-5.514,4.486-10,10-10h43c5.522,0,10-4.477,10-10s-4.478-10-10-10H70
	c-16.542,0-30,13.458-30,30v83C40,158.523,44.478,163,50,163z"/>
<g>
</g>
<g>
</g>
<g>
</g>
<g>
</g>
<g>
</g>
<g>
</g>
<g>
</g>
<g>
</g>
<g>
</g>
<g>
</g>
<g>
</g>
<g>
</g>
<g>
</g>
<g>
</g>
<g>
</g>
</svg>
