<?xml version="1.0" encoding="iso-8859-1"?>
<!-- Generator: Adobe Illustrator 19.0.0, SVG Export Plug-In . SVG Version: 6.00 Build 0)  -->
<svg version="1.1" id="Capa_1" xmlns="http://www.w3.org/2000/svg" xmlns:xlink="http://www.w3.org/1999/xlink" x="0px" y="0px"
	 viewBox="0 0 512 512" style="enable-background:new 0 0 512 512;" xml:space="preserve">
<rect x="422" y="10" style="fill:#FFFFFF;" width="40" height="492"/>
<path style="fill:#ED589D;" d="M502,216v60c0,11.05-8.95,20-20,20c-5.264,0-44.868,0-60,0v40h-40V10h40v186c9.1,0,44.228,0,60,0
	C493.05,196,502,204.95,502,216z"/>
<path style="fill:#BF8BDE;" d="M462,356v60c0,11.05-8.95,20-20,20c-5.264,0-44.868,0-60,0v66h-40V10c24.041,0,25.019,0,40,0v326
	c9.1,0,44.228,0,60,0C453.05,336,462,344.95,462,356z"/>
<rect x="382" y="436" style="fill:#ED589D;" width="40" height="66"/>
<rect x="50" y="10" style="fill:#FFC342;" width="292" height="492"/>
<rect x="130" y="176" style="fill:#FFFFFF;" width="172" height="60"/>
<polygon style="fill:#ED589D;" points="302,10 302,116 272,96 242,116 242,10 "/>
<g>
	<path style="fill:#444B75;" d="M70,76c11.05,0,20,8.95,20,20c0,11.04-8.96,20-20,20c-13.99,0-26.01,0-40,0c-11.05,0-20-8.95-20-20
		c0-11.04,8.96-20,20-20C43.99,76,56.01,76,70,76z"/>
	<path style="fill:#444B75;" d="M70,176c11.05,0,20,8.95,20,20c0,11.04-8.96,20-20,20c-13.99,0-26.01,0-40,0c-11.05,0-20-8.95-20-20
		c0-11.04,8.96-20,20-20C43.99,176,56.01,176,70,176z"/>
	<path style="fill:#444B75;" d="M70,276c11.05,0,20,8.95,20,20c0,11.04-8.96,20-20,20c-13.99,0-26.01,0-40,0c-11.05,0-20-8.95-20-20
		c0-11.04,8.96-20,20-20C43.99,276,56.01,276,70,276z"/>
	<path style="fill:#444B75;" d="M70,376c11.05,0,20,8.95,20,20c0,11.04-8.96,20-20,20c-13.99,0-26.01,0-40,0c-11.05,0-20-8.95-20-20
		c0-11.04,8.96-20,20-20C43.99,376,56.01,376,70,376z"/>
</g>
<path d="M302,306c-5.52,0-10,4.48-10,10s4.48,10,10,10s10-4.48,10-10S307.52,306,302,306z"/>
<path d="M482,186h-10V10c0-5.523-4.477-10-10-10C448.641,0,89.921,0,50,0c-5.523,0-10,4.477-10,10v56H30C13.424,66,0,79.425,0,96
	c0,16.542,13.458,30,30,30h10v40H30c-16.576,0-30,13.425-30,30c0,16.542,13.458,30,30,30h10v40H30c-16.576,0-30,13.425-30,30
	c0,16.542,13.458,30,30,30h10v40H30c-16.576,0-30,13.425-30,30c0,16.542,13.458,30,30,30h10v76c0,5.523,4.477,10,10,10
	c41.189,0,398.604,0,412,0c5.523,0,10-4.477,10-10c0-5.812,0-191.824,0-196h10c16.542,0,30-13.458,30-30v-60
	C512,199.458,498.542,186,482,186z M452,186h-20V20h20V186z M252,20h40v77.315l-14.453-9.635c-3.358-2.239-7.735-2.239-11.094,0
	L252,97.315V20z M20,96c0-5.521,4.478-10,10-10h40c5.514,0,10,4.486,10,10c0,5.521-4.478,10-10,10H30C24.486,106,20,101.514,20,96z
	 M20,196c0-5.521,4.478-10,10-10h40c5.514,0,10,4.486,10,10c0,5.521-4.478,10-10,10H30C24.486,206,20,201.514,20,196z M20,296
	c0-5.521,4.478-10,10-10h40c5.514,0,10,4.486,10,10c0,5.521-4.478,10-10,10H30C24.486,306,20,301.514,20,296z M20,396
	c0-5.521,4.478-10,10-10h40c5.514,0,10,4.486,10,10c0,5.521-4.478,10-10,10H30C24.486,406,20,401.514,20,396z M60,426h10
	c16.576,0,30-13.425,30-30c0-16.542-13.458-30-30-30H60v-40h10c16.576,0,30-13.425,30-30c0-16.542-13.458-30-30-30H60v-40h10
	c16.576,0,30-13.425,30-30c0-16.542-13.458-30-30-30H60v-40h10c16.576,0,30-13.425,30-30c0-16.542-13.458-30-30-30H60V20h172v96
	c0,3.688,2.03,7.077,5.281,8.817c3.251,1.739,7.197,1.55,10.266-0.497L272,108.019l24.453,16.302
	c3.073,2.049,7.018,2.234,10.266,0.497c3.251-1.74,5.281-5.129,5.281-8.817V20h20v472H60V426z M352,20h20v316
	c0,5.523,4.477,10,10,10h60c5.514,0,10,4.486,10,10v60c0,5.514-4.486,10-10,10h-60c-5.523,0-10,4.477-10,10v56h-20V20z M412,446v46
	h-20v-46H412z M432,492v-46h10c3.506,0,6.87-0.61,10-1.72V492H432z M452,327.72c-3.13-1.11-6.494-1.72-10-1.72h-10v-20h20V327.72z
	 M492,276c0,5.514-4.486,10-10,10h-60c-5.523,0-10,4.477-10,10v30h-20V20h20v176c0,5.523,4.477,10,10,10h60c5.514,0,10,4.486,10,10
	V276z"/>
<path d="M302,266H130c-5.523,0-10,4.477-10,10s4.477,10,10,10h172c5.523,0,10-4.477,10-10S307.523,266,302,266z"/>
<path d="M262,306H130c-5.523,0-10,4.477-10,10s4.477,10,10,10h132c5.523,0,10-4.477,10-10S267.523,306,262,306z"/>
<path d="M302,166H130c-5.523,0-10,4.477-10,10v60c0,5.523,4.477,10,10,10h172c5.523,0,10-4.477,10-10v-60
	C312,170.477,307.523,166,302,166z M292,226H140v-40h152V226z"/>
<g>
</g>
<g>
</g>
<g>
</g>
<g>
</g>
<g>
</g>
<g>
</g>
<g>
</g>
<g>
</g>
<g>
</g>
<g>
</g>
<g>
</g>
<g>
</g>
<g>
</g>
<g>
</g>
<g>
</g>
</svg>
