<?xml version="1.0" encoding="iso-8859-1"?>
<!-- Generator: Adobe Illustrator 19.0.0, SVG Export Plug-In . SVG Version: 6.00 Build 0)  -->
<svg version="1.1" id="Capa_1" xmlns="http://www.w3.org/2000/svg" xmlns:xlink="http://www.w3.org/1999/xlink" x="0px" y="0px"
	 viewBox="0 0 512 512" style="enable-background:new 0 0 512 512;" xml:space="preserve">
<g>
	<rect x="366" y="350" style="fill:#ED589D;" width="100" height="152"/>
	<path style="fill:#ED589D;" d="M416,230c-27.61,0-50,22.39-50,50v10h100v-10C466,252.39,443.61,230,416,230z"/>
	<circle style="fill:#ED589D;" cx="416" cy="200" r="30"/>
</g>
<g>
	<rect x="206" y="190" style="fill:#FFEE8D;" width="100" height="312"/>
	<path style="fill:#FFEE8D;" d="M306,120v10H206v-10c0-27.61,22.39-50,50-50S306,92.39,306,120z"/>
	<circle style="fill:#FFEE8D;" cx="256" cy="40" r="30"/>
</g>
<g>
	<rect x="46" y="270" style="fill:#BF8BDE;" width="100" height="232"/>
	<path style="fill:#BF8BDE;" d="M146,200v10H46v-10c0-27.61,22.39-50,50-50S146,172.39,146,200z"/>
	<circle style="fill:#BF8BDE;" cx="96" cy="120" r="30"/>
</g>
<path d="M426,452c5.52,0,10-4.48,10-10s-4.48-10-10-10s-10,4.48-10,10S420.48,452,426,452z"/>
<path d="M266,280c5.52,0,10-4.48,10-10s-4.48-10-10-10s-10,4.48-10,10S260.48,280,266,280z"/>
<path d="M106,360c5.52,0,10-4.48,10-10s-4.48-10-10-10s-10,4.48-10,10S100.48,360,106,360z"/>
<path d="M476,502V350c0-5.523-4.477-10-10-10H366c-5.523,0-10,4.477-10,10v142h-40V190c0-5.523-4.477-10-10-10H206
	c-5.523,0-10,4.477-10,10v302h-40V270c0-5.523-4.477-10-10-10H46c-5.523,0-10,4.477-10,10v232c0,5.523,4.477,10,10,10h420
	C471.523,512,476,507.523,476,502z M376,360h80v132h-20v-10c0-5.523-4.477-10-10-10s-10,4.477-10,10v10h-40V360z M216,200h80v292
	h-20V310c0-5.523-4.477-10-10-10s-10,4.477-10,10v182h-40V200z M136,280v212h-20V390c0-5.523-4.477-10-10-10s-10,4.477-10,10v102H56
	V280H136z"/>
<path d="M36,200v10c0,5.523,4.477,10,10,10h100c5.523,0,10-4.477,10-10v-10c0-22.568-12.53-42.258-30.994-52.5
	C131.812,140.326,136,130.646,136,120c0-22.056-17.944-40-40-40s-40,17.944-40,40c0,10.646,4.188,20.326,10.994,27.5
	C48.53,157.742,36,177.432,36,200z M76,120c0-11.028,8.972-20,20-20s20,8.972,20,20s-8.972,20-20,20S76,131.028,76,120z M96,160
	c22.056,0,40,17.944,40,40H56C56,177.944,73.944,160,96,160z"/>
<path d="M196,120v10c0,5.523,4.477,10,10,10h100c5.523,0,10-4.477,10-10v-10c0-22.568-12.53-42.258-30.994-52.5
	C291.812,60.326,296,50.646,296,40c0-22.056-17.944-40-40-40s-40,17.944-40,40c0,10.646,4.188,20.326,10.994,27.5
	C208.53,77.742,196,97.432,196,120z M236,40c0-11.028,8.972-20,20-20c11.028,0,20,8.972,20,20s-8.972,20-20,20S236,51.028,236,40z
	 M256,80c22.056,0,40,17.944,40,40h-80C216,97.944,233.944,80,256,80z"/>
<path d="M476,280c0-22.568-12.53-42.258-30.994-52.5C451.812,220.326,456,210.646,456,200c0-22.056-17.944-40-40-40
	s-40,17.944-40,40c0,10.646,4.188,20.326,10.994,27.5C368.53,237.742,356,257.432,356,280v10c0,5.523,4.477,10,10,10h100
	c5.523,0,10-4.477,10-10V280z M396,200c0-11.028,8.972-20,20-20s20,8.972,20,20s-8.972,20-20,20S396,211.028,396,200z M376,280
	c0-22.056,17.944-40,40-40s40,17.944,40,40H376z"/>
<g>
</g>
<g>
</g>
<g>
</g>
<g>
</g>
<g>
</g>
<g>
</g>
<g>
</g>
<g>
</g>
<g>
</g>
<g>
</g>
<g>
</g>
<g>
</g>
<g>
</g>
<g>
</g>
<g>
</g>
</svg>
