<?xml version="1.0" encoding="iso-8859-1"?>
<!-- Generator: Adobe Illustrator 19.0.0, SVG Export Plug-In . SVG Version: 6.00 Build 0)  -->
<svg version="1.1" id="Capa_1" xmlns="http://www.w3.org/2000/svg" xmlns:xlink="http://www.w3.org/1999/xlink" x="0px" y="0px"
	 viewBox="0 0 512 512" style="enable-background:new 0 0 512 512;" xml:space="preserve">
<path style="fill:#ED589D;" d="M369.23,236C431.98,258.43,476,346.16,476,402c0,61.68-53.64,100-140,100s-140-38.32-140-100
	c0-55.84,44.02-143.57,106.77-166l0.01-0.23c3.38,0.15,6.76,0.23,10.14,0.23H356H369.23z"/>
<path style="fill:#FFD5B0;" d="M396,116c11.04,0,20,8.96,20,20c0,11.05-8.95,20-20,20c11.04,0,20,8.96,20,20c0,11.05-8.95,20-20,20
	h-20c11.05,0,20,8.95,20,20c0,11.04-8.96,20-20,20c-13.209,0-49.206,0-63.08,0c-61.288,0-74.047-20-123.24-20H176V116V96
	c25.61,0,50.17-10.17,68.28-28.28c7.76-7.76,16.72-14.22,26.54-19.13L300.8,33.6l0.54-0.12L311,76c15.669,0,67.159,0,85,0
	c11.05,0,20,8.95,20,20c0,5.52-2.24,10.52-5.86,14.14C406.52,113.76,401.52,116,396,116z"/>
<path style="fill:#ED589D;" d="M376,10l-15,66h-50c-0.598-2.632,3.461,15.228-15-66H376z"/>
<path style="fill:#BF8BDE;" d="M176,116v100v20H36V76h140v20V116z"/>
<path d="M416,372c5.52,0,10-4.48,10-10s-4.48-10-10-10s-10,4.48-10,10S410.48,372,416,372z"/>
<path d="M256,352c-5.52,0-10,4.48-10,10s4.48,10,10,10c5.52,0,10-4.48,10-10S261.52,352,256,352z"/>
<path d="M76,106c-5.52,0-10,4.48-10,10s4.48,10,10,10s10-4.48,10-10S81.52,106,76,106z"/>
<path d="M36,246h140c5.523,0,10-4.477,10-10v-10h3.68c16.385,0,32.578,2.627,48.125,7.806c10.552,3.521,21.323,6.287,32.234,8.29
	c-19.715,13.911-37.862,34.161-52.781,59.266C197.685,334.296,186,371.918,186,402c0,33.631,14.455,61.732,41.802,81.267
	C254.117,502.064,291.531,512,336,512s81.883-9.936,108.197-28.733C471.545,463.732,486,435.631,486,402
	c0-30.083-11.685-67.704-31.257-100.638c-16.373-27.55-36.631-49.257-58.584-63.149c0.357-0.325,0.708-0.658,1.052-1.001
	C402.879,231.543,406,224.01,406,216c0-3.904-0.758-7.633-2.121-11.057C416.61,201.473,426,189.815,426,176
	c0-7.457-2.708-14.499-7.655-20.009C423.101,150.68,426,143.673,426,136c0-7.453-2.705-14.491-7.647-20
	c4.942-5.509,7.647-12.547,7.647-20c0-16.542-13.458-30-30-30h-22.473l12.224-53.784c0.675-2.966-0.038-6.078-1.936-8.455
	C381.918,1.384,379.042,0,376,0h-80c-3.042,0-5.918,1.385-7.815,3.762c-1.898,2.377-2.61,5.489-1.936,8.456l3.567,15.694
	l-23.467,11.734c-10.798,5.399-20.602,12.465-29.139,21.003c-13.968,13.966-31.873,22.549-51.21,24.76V76c0-5.523-4.477-10-10-10H36
	c-5.523,0-10,4.477-10,10v160C26,241.523,30.477,246,36,246z M437.55,311.58C455.364,341.556,466,375.358,466,402
	c0,26.898-11.559,49.372-33.428,64.993C409.67,483.353,376.275,492,336,492s-73.67-8.647-96.573-25.007
	C217.559,451.372,206,428.898,206,402c0-26.642,10.636-60.443,28.45-90.42c19.44-32.71,44.446-55.995,70.53-65.731
	c2.687,0.09,5.354,0.151,7.939,0.151h54.503C393.362,255.825,418.21,279.038,437.55,311.58z M363.473,20l-10.455,46h-34.035
	l-10.454-46H363.473z M251.352,74.791c7.015-7.015,15.069-12.821,23.94-17.257l19.087-9.543L298.472,66H296c-5.522,0-10,4.477-10,10
	s4.478,10,10,10c21.954,0,78.309,0,100,0c5.514,0,10,4.486,10,10c0,2.668-1.041,5.179-2.931,7.068
	c-1.89,1.891-4.401,2.932-7.069,2.932h-40c-5.522,0-10,4.477-10,10s4.478,10,10,10h40c5.521,0,10,4.479,10,10
	c0,5.514-4.486,10-10,10h-40c-5.522,0-10,4.477-10,10s4.478,10,10,10h40c5.521,0,10,4.479,10,10c0,5.514-4.486,10-10,10
	c-13.99,0-26.01,0-40,0c-5.522,0-10,4.477-10,10s4.478,10,10,10h20c5.514,0,10,4.486,10,10c0,5.522-4.479,10-10,10h-63.08
	c-3.141,0-6.402-0.074-9.697-0.22c-20.108-0.89-39.987-4.572-59.092-10.947C226.537,208.972,208.217,206,189.68,206H186V105.534
	C210.69,103.252,233.601,92.541,251.352,74.791z M46,86h120v20h-50c-5.523,0-10,4.477-10,10s4.477,10,10,10h50v100H46V86z"/>
<path d="M336.5,312.71c11.028,0,20,8.972,20,20c0,5.523,4.478,10,10,10s10-4.477,10-10c0-18.604-12.767-34.282-30-38.734V282.71
	c0-5.523-4.478-10-10-10s-10,4.477-10,10v11.266c-17.233,4.452-30,20.13-30,38.734c0,20.171,18.771,30.093,35.331,38.847
	c14.901,7.877,24.669,13.604,24.669,21.153c0,11.028-8.972,20-20,20s-20-8.972-20-20c0-5.523-4.478-10-10-10s-10,4.477-10,10
	c0,18.604,12.767,34.282,30,38.734v11.266c0,5.523,4.478,10,10,10s10-4.477,10-10v-11.266c17.233-4.452,30-20.13,30-38.734
	c0-20.164-18.766-30.083-35.322-38.835c-14.907-7.879-24.678-13.609-24.678-21.165C316.5,321.682,325.472,312.71,336.5,312.71z"/>
<g>
</g>
<g>
</g>
<g>
</g>
<g>
</g>
<g>
</g>
<g>
</g>
<g>
</g>
<g>
</g>
<g>
</g>
<g>
</g>
<g>
</g>
<g>
</g>
<g>
</g>
<g>
</g>
<g>
</g>
</svg>
