<?xml version="1.0" encoding="iso-8859-1"?>
<!-- Generator: Adobe Illustrator 19.0.0, SVG Export Plug-In . SVG Version: 6.00 Build 0)  -->
<svg version="1.1" id="Capa_1" xmlns="http://www.w3.org/2000/svg" xmlns:xlink="http://www.w3.org/1999/xlink" x="0px" y="0px"
	 viewBox="0 0 512 512" style="enable-background:new 0 0 512 512;" xml:space="preserve">
<path style="fill:#444B75;" d="M336,502H176c0-22.09,17.91-40,40-40h80C318.09,462,336,479.91,336,502z"/>
<rect x="216" y="396" style="fill:#BF8BDE;" width="80" height="66"/>
<path style="fill:#444B75;" d="M501.5,315H190v-39H10c0,32.019,0,68.558,0,100c0,11.05,8.95,20,20,20c54.395,0,413.792,0,452,0
	c11.05,0,20-8.95,20-20v-61H501.5z"/>
<path style="fill:#FFFFFF;" d="M482,50H190v20H10v206h180v39h311.5h0.5V70C502,58.95,493.05,50,482,50z"/>
<path style="fill:#444B75;" d="M190,70H10V30c0-11.05,8.95-20,20-20h140c11.05,0,20,8.95,20,20C190,43.99,190,56.01,190,70z"/>
<path d="M276,346h-40c-5.523,0-10,4.477-10,10s4.477,10,10,10h40c5.523,0,10-4.477,10-10S281.523,346,276,346z"/>
<path d="M482,40H200V30c0-16.542-13.458-30-30-30H30C13.458,0,0,13.458,0,30c0,21.243,0,336.16,0,346c0,16.542,13.458,30,30,30h176
	v47.006c-19.563,3.987-35.007,19.431-38.994,38.994H136c-5.523,0-10,4.477-10,10s4.477,10,10,10h240c5.523,0,10-4.477,10-10
	s-4.477-10-10-10h-31.006c-3.987-19.563-19.431-35.007-38.994-38.994V406h176c16.542,0,30-13.458,30-30V70
	C512,53.458,498.542,40,482,40z M482,60c5.514,0,10,4.486,10,10v235H200V60H482z M180,266H20V80h160V266z M20,286h160v50
	c0,5.514-4.486,10-10,10H30c-5.514,0-10-4.486-10-10V286z M30,20h140c5.514,0,10,4.486,10,10v30H20V30C20,24.486,24.486,20,30,20z
	 M324.28,492H187.72c4.128-11.639,15.243-20,28.28-20h80C309.036,472,320.152,480.361,324.28,492z M286,452h-60v-46h60V452z
	 M482,386H30c-5.514,0-10-4.486-10-10v-11.72c3.13,1.11,6.494,1.72,10,1.72h140c16.542,0,30-13.458,30-30v-11h292v51
	C492,381.514,487.514,386,482,386z"/>
<path d="M90,326h20c5.523,0,10-4.477,10-10s-4.477-10-10-10H90c-5.523,0-10,4.477-10,10S84.477,326,90,326z"/>
<g>
</g>
<g>
</g>
<g>
</g>
<g>
</g>
<g>
</g>
<g>
</g>
<g>
</g>
<g>
</g>
<g>
</g>
<g>
</g>
<g>
</g>
<g>
</g>
<g>
</g>
<g>
</g>
<g>
</g>
</svg>
