<?xml version="1.0" encoding="iso-8859-1"?>
<!-- Generator: Adobe Illustrator 19.0.0, SVG Export Plug-In . SVG Version: 6.00 Build 0)  -->
<svg version="1.1" id="Capa_1" xmlns="http://www.w3.org/2000/svg" xmlns:xlink="http://www.w3.org/1999/xlink" x="0px" y="0px"
	 viewBox="0 0 512 512" style="enable-background:new 0 0 512 512;" xml:space="preserve">
<path style="fill:#BF8BDE;" d="M315.999,412.081V502H136.001c0,0,0-106.609-0.03-162.399c-48.22-32.27-79.969-87.209-79.969-149.599
	c0-103.379,87.139-186.399,191.978-179.609c85.889,5.56,162.209,75.659,167.959,179.499c0.06,0.11,40.06,100.109,40.06,100.109h-60
	l20,40l-20,40c0,6.98,0,35.6,0,35.6c0,12.62-11.55,22.09-23.92,19.62L315.999,412.081z"/>
<path style="fill:#FFC342;" d="M315.999,150.003c0,17.36-5.59,33.33-15.04,46.36c-7.82,10.78-14.06,22.53-18.34,34.92
	c-4.29,12.38-6.62,25.4-6.62,38.72H196v-0.02c0-25.87-7.88-51.33-23.63-71.839c-13.93-18.13-20.23-42.35-13.91-68.209
	c6.91-28.28,29.99-51.11,58.35-57.7C269.32,60.033,315.999,99.563,315.999,150.003z"/>
<path style="fill:#FFFFFF;" d="M196,270.002H276c0,22.09-17.91,40-40,40c-11.04,0-21.04-4.48-28.28-11.72
	C200.48,291.042,196,281.042,196,270.002z"/>
<path d="M216,380.001c-5.52,0-10,4.48-10,10c0,5.52,4.48,10,10,10s10-4.48,10-10C226,384.481,221.52,380.001,216,380.001z"/>
<path d="M196,140.003c-5.52,0-10,4.48-10,10c0,5.52,4.48,10,10,10c5.52,0,10-4.48,10-10C206,144.483,201.52,140.003,196,140.003z"/>
<path d="M464.279,295.608c1.86-2.748,2.236-6.239,1.004-9.32c-28.897-72.244-37.034-92.585-39.454-98.548
	C419.128,79.848,339.301,6.285,248.626,0.415C136.575-6.845,46.002,82.16,46.002,190.002c0,61.709,29.796,119.194,79.972,154.851
	c0.027,56.95,0.027,157.147,0.027,157.147c0,5.523,4.477,10,10,10h179.999c5.523,0,10-4.477,10-10v-77.305l43.799,10.263
	c0.107,0.025,0.215,0.048,0.323,0.07c8.846,1.765,17.92-0.503,24.897-6.225c6.979-5.723,10.98-14.18,10.98-23.202v-33.239
	l18.944-37.889c1.408-2.815,1.408-6.129,0-8.944l-12.764-25.528h43.82C459.316,300.002,462.418,298.356,464.279,295.608z
	 M395.999,280.002c-3.466,0-6.685,1.794-8.506,4.743c-1.822,2.948-1.988,6.629-0.438,9.729l17.764,35.528l-17.764,35.528
	c-0.694,1.389-1.056,2.92-1.056,4.472v35.6c0,3.008-1.335,5.828-3.663,7.737c-2.292,1.879-5.26,2.643-8.166,2.103
	c-0.122-0.029-116.532-27.296-116.661-27.326c-5.375-1.257-10.758,2.08-12.017,7.457c-1.259,5.377,2.08,10.757,7.457,12.017
	l53.05,12.422v71.99H146c-0.001-27.803-0.005-106.961-0.03-152.404c-0.002-3.335-1.667-6.45-4.438-8.305
	C94.237,299.642,66,246.823,66,190.003c0-97.991,82.395-176.035,181.333-169.63c86.765,5.617,153.475,77.142,158.62,170.073
	c0.063,1.129,0.316,2.236,0.747,3.275c0.726,1.789,20.546,51.33,34.528,86.281h-45.229V280.002z"/>
<path d="M214.547,62.492c-32.139,7.468-57.968,33.009-65.8,65.066c-6.628,27.121-0.908,55.068,15.693,76.674
	C178.344,222.338,186,245.689,186,270.002c0,27.622,22.374,50,50,50c27.57,0,50-22.43,50-50c0-11.899,2.042-23.825,6.072-35.455
	c3.895-11.277,9.609-22.148,16.983-32.314c11.085-15.285,16.945-33.346,16.945-52.231C325.999,92.557,272.774,48.963,214.547,62.492
	z M236,300.002c-13.318,0-24.273-8.706-28.295-20.1h56.575C260.152,291.541,249.036,300.002,236,300.002z M292.865,190.49
	c-8.531,11.761-15.158,24.387-19.694,37.517c-3.636,10.492-5.902,21.215-6.769,31.995H205.63
	c-1.859-25.064-10.689-48.886-25.331-67.952c-13.076-17.018-17.382-38.235-12.125-59.744c6.06-24.799,26.039-44.557,50.899-50.333
	C264.532,71.41,306,105.207,306,150.002C306,164.643,301.458,178.642,292.865,190.49z"/>
<path d="M236,100.003c-8.803,0-17.457,2.32-25.026,6.709c-4.777,2.771-6.405,8.89-3.634,13.667c2.771,4.778,8.89,6.405,13.667,3.634
	c4.524-2.624,9.709-4.011,14.993-4.011c16.542,0,30,13.458,30,30c0,5.523,4.477,10,10,10c5.523,0,10-4.477,10-10
	C286,122.432,263.57,100.003,236,100.003z"/>
<g>
</g>
<g>
</g>
<g>
</g>
<g>
</g>
<g>
</g>
<g>
</g>
<g>
</g>
<g>
</g>
<g>
</g>
<g>
</g>
<g>
</g>
<g>
</g>
<g>
</g>
<g>
</g>
<g>
</g>
</svg>
