<?xml version="1.0" encoding="iso-8859-1"?>
<!-- Generator: Adobe Illustrator 19.0.0, SVG Export Plug-In . SVG Version: 6.00 Build 0)  -->
<svg version="1.1" id="Capa_1" xmlns="http://www.w3.org/2000/svg" xmlns:xlink="http://www.w3.org/1999/xlink" x="0px" y="0px"
	 viewBox="0 0 512 512" style="enable-background:new 0 0 512 512;" xml:space="preserve">
<path style="fill:#444B75;" d="M362,70H30c-11.05,0-20,8.95-20,20v392c0,11.05,8.95,20,20,20h332c11.05,0,20-8.95,20-20V90
	C382,78.95,373.05,70,362,70z"/>
<rect x="50" y="110" style="fill:#FFFFFF;" width="292" height="352"/>
<path style="fill:#FFEE8D;" d="M276,90v20c-16.422,0-143.451,0-160,0V90c0-22.079,17.919-40,40-40c0-22.09,17.91-40,40-40
	c22.079,0,40,17.919,40,40C258.101,50,276,67.919,276,90z"/>
<rect x="442" y="130" style="fill:#444B75;" width="60" height="40"/>
<path style="fill:#ED589D;" d="M502,100v30h-60v-30c0-16.56,13.44-30,30-30C488.492,70,502,83.374,502,100z"/>
<polygon style="fill:#FFFFFF;" points="502,422 472,502 442,422 "/>
<path style="fill:#FFEE8D;" d="M502,422h-60c0-16.966,0-241.286,0-252h60C502,177.509,502,408.16,502,422z"/>
<polygon style="fill:#ED589D;" points="149.97,333 90.03,333 90,333 90,422 120,402 150,422 150,333 "/>
<path style="fill:#FFEE8D;" d="M150,332c0,0.34-0.01,0.67-0.03,1c-0.52,16.11-13.74,29-29.97,29s-29.45-12.89-29.97-29
	c-0.02-0.33-0.03-0.66-0.03-1c0-16.57,13.43-30,30-30S150,315.43,150,332z"/>
<path d="M302,220c-5.52,0-10,4.48-10,10s4.48,10,10,10s10-4.48,10-10S307.52,220,302,220z"/>
<path d="M302,392c-5.52,0-10,4.48-10,10s4.48,10,10,10s10-4.48,10-10S307.52,392,302,392z"/>
<path d="M196,60c5.52,0,10-4.48,10-10s-4.48-10-10-10s-10,4.48-10,10S190.48,60,196,60z"/>
<path d="M130,452c-5.52,0-10,4.48-10,10s4.48,10,10,10c5.52,0,10-4.48,10-10S135.52,452,130,452z"/>
<path d="M30,512h332c16.542,0,30-13.458,30-30V90c0-16.542-13.458-30-30-30h-86.013c-7.532-10.008-18.579-16.845-30.817-19.145
	c-1.815-9.869-6.566-18.953-13.818-26.206C221.904,5.203,209.35,0,196,0c-24.44,0-44.841,17.625-49.157,40.833
	C134.821,43.047,123.79,49.671,116.022,60H30C13.458,60,0,73.458,0,90v392C0,498.542,13.458,512,30,512z M156,60
	c5.522,0,10-4.477,10-10c0-16.542,13.458-30,30-30c8.008,0,15.54,3.122,21.209,8.791S226,41.993,226,50c0,5.523,4.478,10,10,10
	c16.252,0,30,13.151,30,30v10H126V90C126,73.533,139.337,60,156,60z M20,90c0-5.514,4.486-10.1,10-10.1h77.017
	C106.348,83.18,106,86.63,106,90v10H50c-5.522,0-10,4.477-10,10v352c0,5.523,4.478,10,10,10h40c5.522,0,10-4.477,10-10
	s-4.478-10-10-10H60V120c55.299,0,217.186,0,272,0v332H170c-5.522,0-10,4.477-10,10s4.478,10,10,10h172c5.522,0,10-4.477,10-10V110
	c0-5.523-4.478-10-10-10h-56V90c0-3.37-0.348-6.72-1.017-10H362c5.514,0,10,4.486,10,10v392c0,5.514-4.486,10-10,10H30
	c-5.514,0-10-4.486-10-10V90z"/>
<path d="M90,160h212c5.522,0,10-4.477,10-10s-4.478-10-10-10H90c-5.522,0-10,4.477-10,10S84.478,160,90,160z"/>
<path d="M90,200h212c5.522,0,10-4.477,10-10s-4.478-10-10-10H90c-5.522,0-10,4.477-10,10S84.478,200,90,200z"/>
<path d="M90,240h172c5.522,0,10-4.477,10-10s-4.478-10-10-10H90c-5.522,0-10,4.477-10,10S84.478,240,90,240z"/>
<path d="M302,312H190c-5.522,0-10,4.477-10,10s4.478,10,10,10h112c5.522,0,10-4.477,10-10S307.522,312,302,312z"/>
<path d="M302,352H190c-5.522,0-10,4.477-10,10s4.478,10,10,10h112c5.522,0,10-4.477,10-10S307.522,352,302,352z"/>
<path d="M262,392h-72c-5.522,0-10,4.477-10,10s4.478,10,10,10h72c5.522,0,10-4.477,10-10S267.522,392,262,392z"/>
<path d="M512,422V100c0-22.255-18.078-40-40-40c-22.097,0-40,17.898-40,40v322c0,1.23,0.258,2.501,0.637,3.511l30,80
	c1.464,3.903,5.195,6.489,9.363,6.489s7.899-2.586,9.363-6.489l30-80C511.738,424.512,512,423.214,512,422z M452,412V180h40v232H452
	z M492,160h-40v-20h40V160z M457.861,85.861C461.641,82.082,466.662,80,472,80c10.976,0,20,8.89,20,20v20h-40v-20
	C452,94.662,454.082,89.641,457.861,85.861z M472,473.52L456.43,432h31.14L472,473.52z"/>
<path d="M144.453,430.32c3.073,2.049,7.019,2.234,10.266,0.497c3.251-1.74,5.281-5.129,5.281-8.817v-89
	c0-0.119-0.014-0.234-0.018-0.352C159.988,332.432,160,332.22,160,332c0-22.056-17.944-40-40-40s-40,17.944-40,40
	c0,0.22,0.012,0.432,0.018,0.648C80.014,332.766,80,332.881,80,333v89c0,3.688,2.03,7.077,5.281,8.817
	c3.253,1.74,7.198,1.549,10.266-0.497L120,414.019L144.453,430.32z M120,312c11.028,0,20,8.972,20,20
	c0,0.129-0.003,0.254-0.011,0.38c-0.007,0.099-0.011,0.198-0.015,0.298C139.626,343.513,130.852,352,120,352
	s-19.626-8.487-19.975-19.322c-0.004-0.1-0.008-0.199-0.015-0.298c-0.008-0.125-0.011-0.251-0.011-0.38
	C100,320.972,108.972,312,120,312z M100,403.315v-36.614c5.877,3.373,12.701,5.299,20,5.299s14.123-1.926,20-5.299v36.614
	l-14.453-9.635c-3.359-2.239-7.734-2.239-11.094,0L100,403.315z"/>
<g>
</g>
<g>
</g>
<g>
</g>
<g>
</g>
<g>
</g>
<g>
</g>
<g>
</g>
<g>
</g>
<g>
</g>
<g>
</g>
<g>
</g>
<g>
</g>
<g>
</g>
<g>
</g>
<g>
</g>
</svg>
