<?xml version="1.0" encoding="iso-8859-1"?>
<!-- Generator: Adobe Illustrator 19.0.0, SVG Export Plug-In . SVG Version: 6.00 Build 0)  -->
<svg version="1.1" id="Capa_1" xmlns="http://www.w3.org/2000/svg" xmlns:xlink="http://www.w3.org/1999/xlink" x="0px" y="0px"
	 viewBox="0 0 512 512" style="enable-background:new 0 0 512 512;" xml:space="preserve">
<path style="fill:#ED589D;" d="M10,86v340h181.28c15.15,0,29,8.56,35.78,22.11C232.523,459.036,243.715,466,256,466
	c12.265,0,23.468-6.946,28.94-17.89c6.785-13.549,20.62-22.11,35.78-22.11H502V86H10z"/>
<path style="fill:#FFFFFF;" d="M256,66c12.81-12.81,30.17-20,48.28-20H462c0,14.167,0,248.748,0,340H304.28
	c-18.11,0-35.47,7.19-48.28,20c-12.81-12.81-30.17-20-48.28-20H50c0-47.645,0-292.025,0-340h157.72C225.83,46,243.19,53.19,256,66z"
	/>
<g>
	<rect x="296" y="106" style="fill:#BF8BDE;" width="126" height="60"/>
	<rect x="90" y="106" style="fill:#BF8BDE;" width="126" height="60"/>
</g>
<path d="M256,256c5.52,0,10-4.48,10-10s-4.48-10-10-10s-10,4.48-10,10S250.48,256,256,256z"/>
<path d="M10,436h181.28c11.436,0,21.718,6.354,26.835,16.582C225.284,466.918,239.947,476,256,476
	c15.84,0,30.632-8.912,37.882-23.413c2.496-4.985,6.325-9.174,11.058-12.105c4.754-2.932,10.211-4.481,15.78-4.481H502
	c5.522,0,10-4.477,10-10V86c0-5.523-4.478-10-10-10h-30V46c0-5.523-4.478-10-10-10H304.28c-17.729,0-34.558,5.855-48.28,16.649
	C242.277,41.855,225.448,36,207.72,36H50c-5.522,0-10,4.477-10,10v30H10C4.478,76,0,80.477,0,86v340C0,431.523,4.478,436,10,436z
	 M60,56h147.72c14.227,0,27.667,5.078,38.28,14.354V206c0,5.523,4.478,10,10,10s10-4.477,10-10V70.354
	C276.613,61.078,290.053,56,304.28,56H452v320H304.28c-13.628,0-26.718,3.472-38.28,9.976V286c0-5.523-4.478-10-10-10
	s-10,4.477-10,10v99.976c-11.563-6.503-24.652-9.976-38.28-9.976H60V56z M20,96h20v290c0,5.523,4.478,10,10,10h157.72
	c15.566,0,30.201,6.063,41.209,17.071c1.875,1.875,4.419,2.929,7.071,2.929c2.652,0,5.196-1.054,7.071-2.929
	C274.079,402.063,288.714,396,304.28,396H462c5.522,0,10-4.477,10-10V96h20v320H320.72c-9.28,0-18.367,2.579-26.295,7.469
	c-7.899,4.892-14.271,11.865-18.429,20.168C272.268,451.094,264.584,456,256,456c-8.528,0-16.242-4.852-19.997-12.365
	C227.474,426.589,210.338,416,191.28,416H20V96z"/>
<path d="M90,176h126c5.522,0,10-4.477,10-10v-60c0-5.523-4.478-10-10-10H90c-5.522,0-10,4.477-10,10v60
	C80,171.523,84.478,176,90,176z M100,116h106v40H100V116z"/>
<path d="M296,176h126c5.522,0,10-4.477,10-10v-60c0-5.523-4.478-10-10-10H296c-5.522,0-10,4.477-10,10v60
	C286,171.523,290.478,176,296,176z M306,116h106v40H306V116z"/>
<path d="M90,216h126c5.522,0,10-4.477,10-10s-4.478-10-10-10H90c-5.522,0-10,4.477-10,10S84.478,216,90,216z"/>
<path d="M296,216h126c5.522,0,10-4.477,10-10s-4.478-10-10-10H296c-5.522,0-10,4.477-10,10S290.478,216,296,216z"/>
<path d="M90,256h126c5.522,0,10-4.477,10-10s-4.478-10-10-10H90c-5.522,0-10,4.477-10,10S84.478,256,90,256z"/>
<path d="M90,296h126c5.522,0,10-4.477,10-10s-4.478-10-10-10H90c-5.522,0-10,4.477-10,10S84.478,296,90,296z"/>
<path d="M90,336h126c5.522,0,10-4.477,10-10s-4.478-10-10-10H90c-5.522,0-10,4.477-10,10S84.478,336,90,336z"/>
<path d="M296,256h126c5.522,0,10-4.477,10-10s-4.478-10-10-10H296c-5.522,0-10,4.477-10,10S290.478,256,296,256z"/>
<path d="M296,296h126c5.522,0,10-4.477,10-10s-4.478-10-10-10H296c-5.522,0-10,4.477-10,10S290.478,296,296,296z"/>
<path d="M296,336h126c5.522,0,10-4.477,10-10s-4.478-10-10-10H296c-5.522,0-10,4.477-10,10S290.478,336,296,336z"/>
<g>
</g>
<g>
</g>
<g>
</g>
<g>
</g>
<g>
</g>
<g>
</g>
<g>
</g>
<g>
</g>
<g>
</g>
<g>
</g>
<g>
</g>
<g>
</g>
<g>
</g>
<g>
</g>
<g>
</g>
</svg>
