<?xml version="1.0" encoding="iso-8859-1"?>
<!-- Generator: Adobe Illustrator 19.0.0, SVG Export Plug-In . SVG Version: 6.00 Build 0)  -->
<svg version="1.1" id="Capa_1" xmlns="http://www.w3.org/2000/svg" xmlns:xlink="http://www.w3.org/1999/xlink" x="0px" y="0px"
	 viewBox="0 0 512 512" style="enable-background:new 0 0 512 512;" xml:space="preserve">
<path style="fill:#BF8BDE;" d="M315.999,412.081V502H136.001c0,0,0-106.609-0.03-162.399c-48.22-32.27-79.969-87.209-79.969-149.599
	c0-103.379,87.139-186.399,191.978-179.609c85.889,5.56,162.209,75.659,167.959,179.499c0.06,0.11,40.06,100.109,40.06,100.109h-60
	l20,40l-20,40c0,6.98,0,35.6,0,35.6c0,12.62-11.55,22.09-23.92,19.62L315.999,412.081z"/>
<path style="fill:#FFC342;" d="M236,70.003c66.269,0,119.999,53.73,119.999,119.999S302.27,310.001,236,310.001
	s-119.999-53.73-119.999-119.999S169.731,70.003,236,70.003z"/>
<path d="M216,380.001c-5.52,0-10,4.48-10,10c0,5.52,4.48,10,10,10s10-4.48,10-10C226,384.481,221.52,380.001,216,380.001z"/>
<path d="M236,60.003c-71.681,0-129.999,58.318-129.999,129.999S164.319,320.001,236,320.001s129.999-58.318,129.999-129.999
	S307.681,60.003,236,60.003z M236,300.001c-60.654,0-109.999-49.346-109.999-109.999S175.346,80.003,236,80.003
	s109.999,49.346,109.999,109.999S296.654,300.001,236,300.001z"/>
<path d="M236,140.713c11.028,0,20,8.972,20,20c0,5.523,4.477,10,10,10c5.523,0,10-4.477,10-10c0-18.604-12.767-34.282-30-38.734
	v-11.266c0-5.523-4.477-10-10-10c-5.523,0-10,4.477-10,10v11.266c-17.233,4.452-30,20.13-30,38.734
	c0,20.171,18.77,30.093,35.331,38.847C246.232,207.436,256,213.163,256,220.712c0,11.028-8.972,20-20,20c-11.028,0-20-8.972-20-20
	c0-5.523-4.477-10-10-10s-10,4.477-10,10c0,18.604,12.767,34.282,30,38.734v11.266c0,5.523,4.477,10,10,10c5.523,0,10-4.477,10-10
	v-11.266c17.233-4.452,30-20.13,30-38.734c0-20.164-18.766-30.083-35.323-38.835C225.771,173.998,216,168.268,216,160.713
	C216,149.685,224.972,140.713,236,140.713z"/>
<path d="M464.279,295.607c1.86-2.748,2.236-6.239,1.004-9.32c-28.897-72.244-37.034-92.585-39.454-98.548
	C419.128,79.848,339.301,6.285,248.626,0.415C136.574-6.844,46.002,82.159,46.002,190.002c0,61.709,29.796,119.194,79.972,154.851
	c0.027,56.95,0.027,157.147,0.027,157.147c0,5.523,4.477,10,10,10h179.999c5.523,0,10-4.477,10-10v-77.305l43.799,10.263
	c0.107,0.025,0.215,0.048,0.323,0.07c18.574,3.709,35.878-10.515,35.878-29.427v-33.239l18.944-37.889
	c1.408-2.815,1.408-6.129,0-8.944l-12.764-25.528h43.82C459.316,300.001,462.418,298.355,464.279,295.607z M395.999,280.002
	c-3.466,0-6.685,1.794-8.506,4.743c-1.822,2.948-1.988,6.629-0.438,9.729l17.764,35.528l-17.764,35.528
	c-0.694,1.389-1.056,2.92-1.056,4.472v35.6c0,6.276-5.708,10.98-11.828,9.839c-0.122-0.029-116.532-27.296-116.661-27.326
	c-5.377-1.255-10.757,2.079-12.017,7.457c-1.259,5.377,2.08,10.757,7.457,12.017l53.05,12.422V492H146.001
	c-0.001-27.803-0.005-106.961-0.03-152.404c-0.002-3.335-1.667-6.45-4.438-8.305c-47.295-31.651-75.531-84.469-75.531-141.289
	c0-97.99,82.391-176.03,181.333-169.63c86.765,5.617,153.475,77.142,158.62,170.073c0.063,1.129,0.316,2.236,0.747,3.275
	c0.726,1.789,20.546,51.33,34.528,86.281L395.999,280.002L395.999,280.002z"/>
<g>
</g>
<g>
</g>
<g>
</g>
<g>
</g>
<g>
</g>
<g>
</g>
<g>
</g>
<g>
</g>
<g>
</g>
<g>
</g>
<g>
</g>
<g>
</g>
<g>
</g>
<g>
</g>
<g>
</g>
</svg>
