<?xml version="1.0" encoding="iso-8859-1"?>
<!-- Generator: Adobe Illustrator 19.0.0, SVG Export Plug-In . SVG Version: 6.00 Build 0)  -->
<svg version="1.1" id="Capa_1" xmlns="http://www.w3.org/2000/svg" xmlns:xlink="http://www.w3.org/1999/xlink" x="0px" y="0px"
	 viewBox="0 0 512 512" style="enable-background:new 0 0 512 512;" xml:space="preserve">
<path style="fill:#ED589D;" d="M416.055,164.32l-68.23-68.23C313.795,74.5,273.425,62,230.145,62c-121.5,0-220,98.5-220,220
	s98.5,220,220,220s220-98.5,220-220C450.145,238.72,437.645,198.35,416.055,164.32z"/>
<path style="fill:#FFFFFF;" d="M388.845,302.44c-10.07,78.61-77.4,139.56-158.7,139.56c-88.22,0-160-71.77-160-160
	c0-88.22,71.78-160,160-160C324.99,122,401.009,205.03,388.845,302.44z"/>
<path style="fill:#ED589D;" d="M230.145,182c-55.362,0-100,45.123-100,100c0,55.14,44.86,100,100,100c54.987,0,100-44.559,100-100
	C330.145,227.124,285.561,182,230.145,182z"/>
<path style="fill:#BF8BDE;" d="M438.215,73.64L431.145,10c-1.162,1.166,11.461-11.501-83.57,83.86
	c9.685,87.203,6.315,56.864,7.05,63.48l0.02,0.16c6.611,0.734-23.745-2.638,63.64,7.07c95.031-95.361,82.409-82.695,83.57-83.86
	L438.215,73.64z"/>
<path style="fill:#FFFFFF;" d="M270.145,282c0,22.06-17.94,40-40,40s-40-17.94-40-40s17.94-40,40-40
	C252.182,242,270.145,259.919,270.145,282z"/>
<path d="M156.585,214.35c-1.74-1.47-3.99-2.35-6.44-2.35c-5.52,0-10,4.48-10,10c0,3.46,1.76,6.51,4.43,8.3
	c1.59,1.08,3.51,1.7,5.57,1.7c5.52,0,10-4.48,10-10C160.145,218.93,158.765,216.19,156.585,214.35z"/>
<path d="M230.145,512c127.113,0,230-102.871,230-230c0-40.427-10.54-79.833-30.551-114.595
	c90.677-91.011,78.143-78.431,79.349-79.641c2.708-2.722,3.62-6.754,2.344-10.375c-1.275-3.622-4.512-6.194-8.328-6.618
	l-55.688-6.187l-6.187-55.688c-0.425-3.825-3.007-7.066-6.64-8.336c-3.632-1.269-7.671-0.342-10.387,2.385
	c-1.215,1.219,11.364-11.406-79.317,79.607C309.979,62.54,270.572,52,230.145,52c-127.113,0-230,102.871-230,230
	C0.145,409.112,103.016,512,230.145,512z M414.616,154.098l-38.365-4.261c52.869-52.936-15.965,15.986,65.642-65.728l38.242,4.248
	C478.679,89.819,491.484,76.971,414.616,154.098z M300.446,197.449C280.711,180.975,256.103,172,230.145,172
	c-19.348,0-37.333,4.826-54.983,14.754c-4.813,2.708-6.521,8.805-3.813,13.619c2.708,4.813,8.805,6.521,13.619,3.813
	c14.78-8.314,29.135-12.186,45.177-12.186c20.616,0,40.188,6.937,56.09,19.681l-28.55,28.59c-8.102-5.379-17.6-8.27-27.539-8.27
	c-27.57,0-50,22.43-50,50s22.43,50,50,50s50-22.43,50-50c0-9.968-2.906-19.488-8.308-27.6l28.548-28.589
	c12.795,15.92,19.76,35.527,19.76,56.189c0,49.626-40.374,90-90,90s-90-40.374-90-90c0-8.6,1.043-14.849,2.61-21.585
	c1.251-5.379-2.096-10.754-7.475-12.005c-5.377-1.251-10.753,2.096-12.005,7.475c-2.223,9.559-3.13,17.125-3.13,26.115
	c0,60.654,49.346,110,110,110s110-49.346,110-110c0-26.015-9.01-50.665-25.549-70.421l28.321-28.362
	c28.332,32.274,41.409,74.717,36.009,117.952C369.371,375.755,305.41,432,230.145,432c-82.71,0-150-67.29-150-150s67.29-150,150-150
	c36.617,0,71.267,13.104,98.628,37.083L300.446,197.449z M260.145,282c0,16.542-13.458,30-30,30s-30-13.458-30-30s13.458-30,30-30
	c4.541,0,8.929,1.009,12.912,2.918l-19.989,20.016c-3.902,3.908-3.898,10.239,0.01,14.142c3.888,3.883,10.22,3.917,14.142-0.01
	l19.988-20.017C259.129,273.041,260.145,277.442,260.145,282z M423.51,31.845l4.236,38.128
	c-10.324,10.338-60.806,60.891-65.479,65.571l-4.22-38.013C434.761,20.556,422.076,33.284,423.51,31.845z M230.145,72
	c38.34,0,75.669,10.375,108.277,30.038l5.735,51.64l-1.226,1.227C311.77,127.171,272.099,112,230.145,112
	c-93.738,0-170,76.262-170,170s76.262,170,170,170c85.299,0,157.789-63.75,168.623-148.321c6.174-49.442-8.964-97.959-41.684-134.65
	l1.076-1.077l51.945,5.768c19.664,32.609,30.04,69.938,30.04,108.28c0,115.794-94.206,210-210,210s-210-94.206-210-210
	S114.35,72,230.145,72z"/>
<g>
</g>
<g>
</g>
<g>
</g>
<g>
</g>
<g>
</g>
<g>
</g>
<g>
</g>
<g>
</g>
<g>
</g>
<g>
</g>
<g>
</g>
<g>
</g>
<g>
</g>
<g>
</g>
<g>
</g>
</svg>
