<?xml version="1.0" encoding="iso-8859-1"?>
<!-- Generator: Adobe Illustrator 19.0.0, SVG Export Plug-In . SVG Version: 6.00 Build 0)  -->
<svg version="1.1" id="Capa_1" xmlns="http://www.w3.org/2000/svg" xmlns:xlink="http://www.w3.org/1999/xlink" x="0px" y="0px"
	 viewBox="0 0 512 512" style="enable-background:new 0 0 512 512;" xml:space="preserve">
<path style="fill:#BF8BDE;" d="M436,256c0-98.402-79.648-179.365-178.84-179.99C256.78,76,256.39,76,256,76s-0.78,0-1.16,0.01
	C156.002,76.633,76,157.246,76,256c0,98.788,80.041,179.367,178.84,179.99c0.38,0.01,0.77,0.01,1.16,0.01c0.39,0,0.78,0,1.16-0.01
	c69.112-0.436,130.346-40.289,160.06-99.99h0.36c12.02-24.11,18.78-51.28,18.78-80H436z"/>
<g>
	<path style="fill:#ED589D;" d="M462,10c22.09,0,40,17.91,40,40s-17.91,40-40,40c-22.079,0-40-17.919-40-40
		C422,27.91,439.91,10,462,10z"/>
	<path style="fill:#ED589D;" d="M462,422c22.09,0,40,17.91,40,40s-17.91,40-40,40s-40-17.91-40-40C422,439.921,439.919,422,462,422z
		"/>
	<path style="fill:#ED589D;" d="M50,10c22.09,0,40,17.91,40,40c0,22.079-17.919,40-40,40c-22.09,0-40-17.91-40-40S27.91,10,50,10z"
		/>
	<path style="fill:#ED589D;" d="M90,462c0,22.09-17.91,40-40,40s-40-17.91-40-40s17.91-40,40-40C72.079,422,90,439.919,90,462z"/>
</g>
<path d="M256,246c-5.52,0-10,4.48-10,10c0,5.52,4.48,10,10,10c5.52,0,10-4.48,10-10S261.52,246,256,246z"/>
<path d="M397.171,128.971l37.254-37.254C442.536,97.104,452.046,100,462,100c27.57,0,50-22.43,50-50S489.57,0,462,0s-50,22.43-50,50
	c0,9.954,2.896,19.463,8.283,27.574l-37.25,37.25c-34.606-31.213-78.827-48.469-125.616-48.811c-0.001,0-0.002,0-0.003,0
	c-0.001,0-0.001,0-0.002,0c-0.063,0-0.125-0.003-0.188-0.003c-0.022,0-0.043,0-0.064,0c-0.128,0-0.252,0.014-0.379,0.019
	c-0.047,0.002-0.094,0.001-0.141,0.003C256.427,66.019,256.216,66,256,66s-0.427,0.019-0.64,0.032
	c-0.046-0.002-0.092-0.002-0.138-0.003c-0.127-0.005-0.252-0.019-0.381-0.019c-0.021,0-0.043,0-0.064,0
	c-0.063,0-0.125,0.003-0.188,0.003c-0.001,0-0.001,0-0.002,0c-0.001,0-0.002,0-0.003,0c-46.789,0.342-91.009,17.598-125.617,48.811
	l-37.25-37.25C97.104,69.464,100,59.954,100,50c0-27.57-22.43-50-50-50S0,22.43,0,50s22.43,50,50,50
	c9.954,0,19.464-2.896,27.575-8.283l37.254,37.254C83.746,163.503,66,208.233,66,256c0,29.651,6.672,58.068,19.828,84.456
	c7.693,15.457,17.431,29.736,29,42.574l-37.253,37.253C69.464,414.896,59.954,412,50,412c-27.57,0-50,22.43-50,50s22.43,50,50,50
	s50-22.43,50-50c0-9.954-2.896-19.464-8.283-27.575l37.25-37.25c34.605,31.212,78.825,48.468,125.613,48.811
	c0.002,0,0.003,0,0.005,0c0.007,0,0.014,0,0.021,0c0.057,0,0.113,0.003,0.17,0.003c0.022,0,0.043,0,0.064,0h0.001
	c0.001,0,0.002,0,0.003,0c0.164,0,0.323-0.016,0.485-0.024c0.223,0.015,0.444,0.034,0.67,0.034c0.226,0,0.448-0.019,0.67-0.034
	c0.162,0.008,0.321,0.024,0.485,0.024c0.001,0,0.002,0,0.003,0h0.001c0.021,0,0.043,0,0.064,0c0.057,0,0.113-0.003,0.17-0.003
	c0.007,0,0.014,0,0.021,0c0.002,0,0.003,0,0.005,0c46.787-0.343,91.007-17.599,125.613-48.811l37.25,37.25
	C414.896,442.537,412,452.046,412,462c0,27.57,22.43,50,50,50s50-22.43,50-50s-22.43-50-50-50c-9.954,0-19.463,2.896-27.575,8.283
	l-37.253-37.253C427.512,349.364,446,304.853,446,256C446,209.632,429.192,164.545,397.171,128.971z M410.896,326h-61.751
	c3.92-19.137,6.175-39.332,6.72-60.1h69.849C424.516,286.779,419.542,306.994,410.896,326z M376.149,376.148
	c-19.091,19.086-41.922,33.084-66.813,41.306c14.584-17.207,26.715-41.684,35.01-71.554h55.819
	C393.35,356.785,385.314,366.984,376.149,376.148z M111.835,346h55.819c8.295,29.871,20.426,54.248,35.01,71.454
	C163.765,404.605,132.073,378.326,111.835,346z M111.84,166h55.821c-6.837,24.582-10.76,51.83-11.512,80H86.295
	C87.956,217.557,96.691,190.171,111.84,166z M135.847,135.855c0.001-0.001,0.003-0.003,0.004-0.004
	c0.001-0.001,0.002-0.003,0.003-0.004c19.06-19.053,41.847-33.036,66.69-41.263c-11.146,13.226-20.878,30.833-28.457,51.416h-47.581
	C129.489,142.492,132.602,139.1,135.847,135.855z M385.494,146h-47.582c-7.58-20.583-17.311-38.19-28.457-51.416
	C339.474,104.525,365.57,122.573,385.494,146z M296,265.9h39.861c-0.579,20.872-2.983,41.08-7.16,60.1H266v-30
	c0-5.523-4.478-10-10-10s-10,4.477-10,10v30h-62.702c-4.177-19.02-6.581-39.128-7.159-60H216c5.523,0,10-4.477,10-10
	s-4.477-10-10-10h-39.845c0.801-28.444,5.01-55.785,12.328-80H246v50c0,5.523,4.478,10,10,10s10-4.477,10-10v-50h57.517
	c7.318,24.214,11.527,51.555,12.328,80H296c-5.522,0-10,4.477-10,10C286,261.523,290.478,265.9,296,265.9z M246,424.557
	c-23.179-6.608-44.608-35.771-57.516-78.557H246V424.557z M266,345.9h57.515c-12.907,42.786-34.336,72.05-57.515,78.657V345.9z
	 M266,87.404c19.324,5.422,37.377,26.348,50.485,58.596H266V87.404z M246,146h-50.485c13.107-32.248,31.161-53.174,50.485-58.596
	V146z M156.135,266c0.545,20.768,2.8,40.863,6.72,60h-61.751c-8.645-19.003-13.619-39.119-14.817-60H156.135z M355.851,246
	c-0.753-28.171-4.676-55.42-11.512-80h55.82c15.15,24.173,23.885,51.558,25.545,80H355.851z M462,20c16.542,0,30,13.458,30,30
	s-13.458,30-30,30c-16.546,0-30-13.432-30-30C432,33.458,445.458,20,462,20z M20,50c0-16.542,13.458-30,30-30s30,13.458,30,30
	c0,16.545-13.432,30-30,30C33.458,80,20,66.542,20,50z M50,492c-16.542,0-30-13.458-30-30s13.458-30,30-30
	c8.006,0,15.537,3.121,21.205,8.788c0.001,0.001,0.002,0.002,0.003,0.003s0.002,0.002,0.004,0.003C76.879,446.463,80,453.994,80,462
	C80,478.542,66.542,492,50,492z M492,462c0,16.542-13.458,30-30,30s-30-13.458-30-30c0-16.568,13.429-30,30-30
	C478.542,432,492,445.458,492,462z"/>
<g>
</g>
<g>
</g>
<g>
</g>
<g>
</g>
<g>
</g>
<g>
</g>
<g>
</g>
<g>
</g>
<g>
</g>
<g>
</g>
<g>
</g>
<g>
</g>
<g>
</g>
<g>
</g>
<g>
</g>
</svg>
