<?xml version="1.0" encoding="iso-8859-1"?>
<!-- Generator: Adobe Illustrator 19.0.0, SVG Export Plug-In . SVG Version: 6.00 Build 0)  -->
<svg version="1.1" id="Capa_1" xmlns="http://www.w3.org/2000/svg" xmlns:xlink="http://www.w3.org/1999/xlink" x="0px" y="0px"
	 viewBox="0 0 512.001 512.001" style="enable-background:new 0 0 512.001 512.001;" xml:space="preserve">
<polygon style="fill:#FFEE8D;" points="116,296.001 36,502.001 476,256.001 "/>
<path style="fill:#FFC342;" d="M116,216.001l-80,40l80,40l360-40C464.006,254.668,371.762,244.432,116,216.001z"/>
<path style="fill:#FFEE8D;" d="M476,256.001c-29.999-3.332-207.476-23.047-360-40l-80-206L476,256.001z"/>
<path d="M29.439,509.547c3.16,2.748,7.735,3.254,11.441,1.182l440-246c3.161-1.768,5.12-5.106,5.12-8.729
	c0-3.623-1.959-6.961-5.12-8.729l-440-246c-3.68-2.058-8.257-1.584-11.441,1.183c-3.183,2.768-4.287,7.235-2.76,11.167
	l76.703,197.509l-71.853,35.926C28.14,248.75,26,252.213,26,256.001s2.14,7.25,5.528,8.944l71.853,35.926L26.679,498.38
	C25.152,502.312,26.256,506.779,29.439,509.547z M426.199,239.614c-95.578-9.452-207.479-22.26-303.071-32.883L55.386,32.296
	L426.199,239.614z M123.128,305.27l54.117-6.011c5.488-0.61,9.444-5.554,8.834-11.043c-0.608-5.49-5.571-9.437-11.042-8.835
	l-57.205,6.354L58.361,256l59.471-29.735c2.986,0.332,237.605,26.273,259.24,28.502c-35.794,3.517-78.166,8.461-120.26,15.541
	c-5.447,0.916-9.119,6.074-8.203,11.52s6.08,9.124,11.52,8.203c64.25-10.806,129.396-16.597,170.147-19.924L55.386,479.705
	L123.128,305.27z"/>
<path d="M216,276.001c-5.52,0-10,4.48-10,10s4.48,10,10,10s10-4.48,10-10c0-0.76-0.08-1.49-0.25-2.2
	C224.75,279.341,220.76,276.001,216,276.001z"/>
<g>
</g>
<g>
</g>
<g>
</g>
<g>
</g>
<g>
</g>
<g>
</g>
<g>
</g>
<g>
</g>
<g>
</g>
<g>
</g>
<g>
</g>
<g>
</g>
<g>
</g>
<g>
</g>
<g>
</g>
</svg>
