<?xml version="1.0" encoding="iso-8859-1"?>
<!-- Generator: Adobe Illustrator 19.0.0, SVG Export Plug-In . SVG Version: 6.00 Build 0)  -->
<svg version="1.1" id="Capa_1" xmlns="http://www.w3.org/2000/svg" xmlns:xlink="http://www.w3.org/1999/xlink" x="0px" y="0px"
	 viewBox="0 0 511.996 511.996" style="enable-background:new 0 0 511.996 511.996;" xml:space="preserve">
<path style="fill:#FFD5B0;" d="M375.917,309.599l54.01-82.14l-113.14-113.14l-53.76,22.14l-0.25-0.6l-70.71-10.1l-113.14,113.13
	l9.43,47.14l0.01,0.01l-20.04,20.03c-9.77,9.76-9.77,25.59,0,35.35c9.76,9.77,25.59,9.77,35.35,0c-9.76,9.77-9.76,25.6,0,35.36
	c9.77,9.76,25.6,9.76,35.36,0c-9.76,9.76-9.76,25.59,0,35.36c9.76,9.76,25.59,9.76,35.35,0c-9.76,9.76-9.76,25.59,0,35.35
	c9.77,9.76,25.6,9.76,35.36,0l10.61-10.61l24.74,24.75c9.77,9.77,25.6,9.77,35.36,0c9.76-9.76,9.76-25.59,0-35.35
	c9.76,9.76,25.59,9.76,35.36,0c9.76-9.77,9.76-25.59,0-35.36c9.76,9.77,25.59,9.77,35.35,0c9.76-9.76,9.76-25.59,0-35.35
	c9.76,9.76,25.59,9.76,35.36,0c9.76-9.77,9.76-25.6,0-35.36L375.917,309.599z"/>
<path style="fill:#ED589D;" d="M388.859,43.319l113.14,113.14l-70.71,70.71l-113.14-113.14
	C340.786,91.391,366.626,65.552,388.859,43.319z"/>
<path style="fill:#BF8BDE;" d="M193.428,125.469l-113.14,113.13l-70.29-70.28l113.14-113.14
	C123.296,55.337,193.268,125.308,193.428,125.469z"/>
<path style="fill:#A86931;" d="M221.718,436.589l24.74,24.75c9.77,9.77,25.6,9.77,35.36,0c9.76-9.76,9.76-25.59,0-35.35
	c9.76,9.76,25.59,9.76,35.36,0c9.76-9.77,9.76-25.59,0-35.36c9.76,9.77,25.59,9.77,35.35,0c9.76-9.76,9.76-25.59,0-35.35
	c9.76,9.76,25.59,9.76,35.36,0c9.76-9.77,9.76-25.6,0-35.36l-10.61-10.61l-60.28-57.99l-67-119l-56.57-6.85l-113.14,113.13
	l9.43,47.14l0.01,0.01L221.718,436.589z"/>
<g>
	<path style="fill:#FFD5B0;" d="M234.835,389.388L234.835,389.388c-8.251-9.001-21.257-11.198-31.8-6.282
		c3.782-9.475,2.123-20.73-5.2-28.718l0,0c-7.586-8.275-19.191-10.797-29.205-7.33c4.29-9.665,2.775-21.412-4.795-29.67l0,0
		c-7.409-8.082-18.65-10.673-28.5-7.56c2.69-8.956,0.753-19.083-5.991-26.44l0,0c-10.175-11.099-27.581-11.855-38.679-1.68
		l-20.822,19.088c-11.099,10.175-11.855,27.581-1.68,38.68l0,0c7.409,8.082,18.65,10.673,28.5,7.56
		c-2.69,8.956-0.753,19.083,5.991,26.44l0,0c7.586,8.275,19.19,10.797,29.205,7.33c-4.29,9.665-2.775,21.412,4.795,29.67l0,0
		c8.251,9.001,21.257,11.198,31.8,6.281c-3.782,9.475-2.123,20.73,5.2,28.719l0,0c10.175,11.099,27.581,11.855,38.679,1.68
		l20.822-19.088C244.253,417.892,245.009,400.487,234.835,389.388z"/>
	<path style="fill:#FFD5B0;" d="M220.998,153.319l-71,69c0,0-17,51.667,39,36l31-32c0,0,19.667-5.667,31,9c0,0,32.667,31.333,71-11
		l-62-88L220.998,153.319z"/>
</g>
<path d="M452.499,163.529c3.91-3.91,3.91-10.24,0-14.14c-3.9-3.91-10.23-3.91-14.14,0c-3.9,3.9-3.9,10.23,0,14.14
	C442.269,167.429,448.599,167.429,452.499,163.529z"/>
<path d="M59.499,161.249c-3.91,3.9-3.91,10.24,0,14.14c3.9,3.91,10.23,3.91,14.14,0c3.9-3.9,3.9-10.24,0-14.14
	C69.728,157.339,63.398,157.339,59.499,161.249z"/>
<path d="M71.076,243.529l7.788,38.932l-16.243,16.243c-13.68,13.665-13.699,35.814-0.008,49.492
	c6.615,6.622,15.496,10.352,25.131,10.251c-0.094,9.086,3.31,18.2,10.226,25.116c6.826,6.82,15.788,10.229,24.751,10.229
	c0.128,0,0.255-0.008,0.383-0.009c-0.098,9.09,3.305,18.212,10.223,25.137c6.609,6.609,15.397,10.25,24.746,10.25
	c0.127,0,0.253-0.008,0.379-0.009c-0.093,9.083,3.311,18.197,10.228,25.113c13.647,13.635,35.852,13.642,49.499-0.003l3.537-3.537
	l17.67,17.678c13.679,13.678,35.824,13.693,49.503,0c6.919-6.919,10.323-16.039,10.224-25.128c0.126,0.001,0.252,0.009,0.378,0.009
	c8.964,0,17.931-3.411,24.76-10.234c6.908-6.915,10.309-16.026,10.215-25.109c9.621,0.105,18.512-3.621,25.132-10.247
	c6.919-6.919,10.323-16.039,10.224-25.128c0.126,0.001,0.252,0.009,0.378,0.009c8.964,0,17.931-3.411,24.76-10.234
	c13.641-13.653,13.639-35.858-0.003-49.499l-4.85-4.85l48.972-74.479l69.988-69.988c3.905-3.905,3.905-10.237,0-14.142
	L395.931,36.248c-3.904-3.904-10.234-3.904-14.143,0c-10.335,10.335-59.301,59.301-69.296,69.297l-48.365,19.922l-65.984-9.425
	L130.21,48.11c-3.198-3.2-6.964-2.908-7.072-2.93c-2.652,0-5.195,1.054-7.071,2.929L2.928,161.248
	c-3.902,3.903-3.905,10.238,0.001,14.143L71.076,243.529z M76.757,334.054c-5.864-5.859-5.867-15.339,0.002-21.203
	c2.169-2.169-7.858,7.858,21.216-21.215c5.857-5.864,15.344-5.867,21.213,0.004c5.871,5.87,5.849,15.36,0,21.208
	c-0.002,0.002-0.003,0.003-0.005,0.005l-21.219,21.209C92.134,339.896,82.653,339.957,76.757,334.054z M112.109,369.417
	c-5.846-5.846-5.846-15.365-0.003-21.214c0.002-0.002,0.005-0.005,0.007-0.007c0.002-0.002,0.003-0.003,0.005-0.005l21.206-21.197
	c0.002-0.002,0.003-0.003,0.005-0.005c0.001-0.001,0.002-0.002,0.003-0.004c5.857-5.855,15.344-5.857,21.205,0.004
	c5.859,5.859,5.858,15.359,0,21.217l-21.21,21.21C127.48,375.265,117.958,375.263,112.109,369.417z M147.473,404.781
	c-5.849-5.854-5.851-15.374-0.003-21.221l21.214-21.214c5.857-5.864,15.344-5.867,21.213,0.004c5.848,5.847,5.872,15.336,0,21.208
	l-21.22,21.22C162.822,410.633,153.33,410.639,147.473,404.781z M182.82,440.127c-5.847-5.847-5.847-15.361,0-21.208l21.22-21.22
	c5.826-5.826,15.34-5.868,21.201-0.008c5.816,5.829,5.937,15.284,0.007,21.225l-21.21,21.21
	C198.19,445.975,188.669,445.972,182.82,440.127z M320.711,238.599l7.069-7.068c3.905-3.905,3.905-10.237,0-14.142
	s-10.235-3.905-14.143,0c-6.217,6.015-8.228,8.795-13.18,12.09c-15.306,10.24-36.543,8.894-50.458-5.02
	c-11.689-11.691-30.723-11.694-42.434,0.001l-24.737,24.748c-5.872,5.871-15.345,5.875-21.219,0c-5.847-5.847-5.847-15.361,0-21.208
	l65.766-65.767l88.417-36.419L418.458,228.48l-42.79,65.076L320.711,238.599z M360.579,85.741l49.499,49.499
	c3.906,3.905,10.236,3.905,14.143,0c3.905-3.905,3.905-10.237,0-14.143l-49.499-49.499L388.86,57.46l98.997,98.998l-56.567,56.568
	l-98.997-98.998L360.579,85.741z M217.908,144.503c-1.22,0.503-2.328,1.242-3.262,2.175l-67.18,67.18
	c-13.645,13.645-13.645,35.847,0,49.492c13.688,13.686,35.809,13.692,49.504-0.002l24.733-24.744
	c3.907-3.901,10.257-3.902,14.152-0.004c18.863,18.861,46.483,22.176,68.3,11.729l66.029,66.029
	c0.018,0.018,0.036,0.037,0.055,0.055l10.578,10.578c5.847,5.847,5.845,15.366,0.003,21.214c-5.855,5.847-15.37,5.85-21.217,0.006
	c-0.001-0.001-0.002-0.002-0.003-0.003l-10.61-10.61c-3.906-3.905-10.238-3.905-14.143,0s-3.905,10.237,0,14.142l10.61,10.609
	c5.847,5.847,5.847,15.361-0.003,21.211c-5.859,5.864-15.34,5.866-21.201,0.001c-0.002-0.002-0.005-0.005-0.007-0.007l-10.609-10.6
	c-3.909-3.904-10.239-3.901-14.143,0.006c-3.903,3.907-3.9,10.238,0.006,14.142l10.604,10.594
	c5.846,5.852,5.846,15.373,0.007,21.218c-5.854,5.848-15.372,5.851-21.221,0.003l-10.61-10.61c-3.906-3.905-10.238-3.905-14.143,0
	s-3.905,10.237,0,14.142l10.61,10.609c5.847,5.847,5.847,15.361-0.003,21.211c-5.861,5.866-15.347,5.865-21.214-0.002
	l-17.672-17.679l3.538-3.538c13.642-13.669,13.716-35.743-0.007-49.495c-6.916-6.915-16.028-10.318-25.111-10.225
	c0.096-9.777-3.722-18.607-10.24-25.125c-6.624-6.624-15.502-10.344-25.12-10.248c0.097-9.589-3.604-18.477-10.239-25.112
	c-6.621-6.619-15.498-10.337-25.111-10.24c0.106-9.688-3.683-18.553-10.24-25.109c-9.929-9.929-24.33-12.655-36.696-8.171
	l-5.489-27.442l105.819-105.81l30.745,4.392L217.908,144.503z M123.137,69.322l14.143,14.143l-49.503,49.503
	c-3.905,3.905-3.905,10.237,0,14.143c3.906,3.905,10.236,3.905,14.143,0l49.503-49.503l27.862,27.862l-98.997,98.987l-56.147-56.139
	L123.137,69.322z"/>
<g>
</g>
<g>
</g>
<g>
</g>
<g>
</g>
<g>
</g>
<g>
</g>
<g>
</g>
<g>
</g>
<g>
</g>
<g>
</g>
<g>
</g>
<g>
</g>
<g>
</g>
<g>
</g>
<g>
</g>
</svg>
