<?xml version="1.0" encoding="iso-8859-1"?>
<!-- Generator: Adobe Illustrator 19.0.0, SVG Export Plug-In . SVG Version: 6.00 Build 0)  -->
<svg version="1.1" id="Capa_1" xmlns="http://www.w3.org/2000/svg" xmlns:xlink="http://www.w3.org/1999/xlink" x="0px" y="0px"
	 viewBox="0 0 512.001 512.001" style="enable-background:new 0 0 512.001 512.001;" xml:space="preserve">
<path style="fill:#444B75;" d="M498.67,215.993c2.19,13.01,3.33,26.37,3.33,40c0,13.63-1.14,26.99-3.33,40h-46.69
	c-5.19,25.5-15.26,49.25-29.18,70.24l34.75,34.75c-15.57,21.85-34.71,40.99-56.56,56.56l-34.75-34.75
	c-20.98,13.92-44.74,23.99-70.24,29.18v46.69c-13.01,2.19-26.37,3.33-40,3.33s-26.99-1.14-40-3.33v-46.69
	c-25.5-5.19-49.25-15.26-70.24-29.18l-34.75,34.75c-21.85-15.57-40.99-34.71-56.56-56.56l34.75-34.75
	c-13.92-20.98-23.99-44.74-29.18-70.24H13.33c-2.19-13.01-3.33-26.37-3.33-40c0-13.63,1.14-26.99,3.33-40h46.69
	c5.19-25.5,15.26-49.25,29.18-70.24l-34.75-34.75c15.57-21.85,34.71-40.99,56.56-56.56l34.75,34.75
	c20.98-13.92,44.74-23.99,70.24-29.18v-46.69c13.01-2.19,26.37-3.33,40-3.33s26.99,1.14,40,3.33v46.69
	c25.5,5.19,49.25,15.26,70.24,29.18l34.75-34.75c21.85,15.57,40.99,34.71,56.56,56.56l-34.75,34.75
	c13.92,20.99,23.99,44.74,29.18,70.24H498.67z M356,255.993c0-55.23-44.77-100-100-100s-100,44.77-100,100s44.77,100,100,100
	S356,311.222,356,255.993z"/>
<path d="M356,165.993c5.52,0,10-4.48,10-10s-4.48-10-10-10s-10,4.48-10,10C346,161.512,350.48,165.993,356,165.993z"/>
<path d="M156,345.992c-5.52,0-10,4.48-10,10s4.48,10,10,10s10-4.48,10-10C166,350.472,161.52,345.992,156,345.992z"/>
<path d="M498.67,205.993h-38.684c-5.079-20.77-13.275-40.497-24.447-58.838l29.082-29.081c3.453-3.454,3.907-8.897,1.073-12.875
	c-16.262-22.821-36.079-42.638-58.9-58.9c-3.977-2.833-9.419-2.381-12.875,1.073l-29.081,29.082
	C346.497,65.282,326.77,57.085,306,52.007V13.323c0-4.882-3.525-9.051-8.34-9.861c-27.347-4.604-55.973-4.604-83.319,0
	C209.525,4.272,206,8.441,206,13.323v38.683c-20.778,5.08-40.508,13.278-58.839,24.446l-29.08-29.081
	c-3.454-3.454-8.897-3.908-12.875-1.073c-22.821,16.262-42.638,36.079-58.9,58.9c-2.834,3.978-2.38,9.42,1.073,12.875l29.082,29.081
	c-11.172,18.341-19.368,38.068-24.447,58.838H13.33c-4.882,0-9.051,3.525-9.861,8.34C1.167,228.007,0,242.023,0,255.993
	c0,13.97,1.167,27.986,3.469,41.66c0.811,4.815,4.979,8.34,9.861,8.34h38.683c5.08,20.778,13.278,40.508,24.446,58.839
	l-29.081,29.08c-3.453,3.454-3.907,8.897-1.073,12.875c16.262,22.821,36.079,42.638,58.9,58.9c3.977,2.834,9.42,2.381,12.875-1.073
	l29.081-29.082C165.503,446.703,185.23,454.9,206,459.978v38.684c0,4.882,3.525,9.051,8.34,9.861
	c13.671,2.302,27.688,3.469,41.66,3.469c13.972,0,27.989-1.167,41.66-3.469c4.814-0.811,8.34-4.979,8.34-9.861v-38.683
	c20.778-5.08,40.508-13.278,58.839-24.446l29.08,29.081c3.454,3.453,8.896,3.906,12.875,1.073
	c22.821-16.262,42.638-36.079,58.9-58.9c2.834-3.978,2.38-9.42-1.073-12.875L435.54,364.83
	c11.172-18.341,19.368-38.068,24.447-58.838h38.684c4.882,0,9.051-3.525,9.861-8.34c2.302-13.673,3.469-27.69,3.469-41.66
	c0-13.97-1.167-27.986-3.469-41.66C507.721,209.518,503.552,205.993,498.67,205.993z M490.054,285.992H451.98
	c-4.754,0-8.851,3.347-9.799,8.006c-4.855,23.854-14.18,46.298-27.715,66.708c-2.629,3.965-2.101,9.234,1.263,12.598l28.658,28.658
	c-12.254,15.943-26.475,30.163-42.417,42.417l-28.658-28.658c-3.364-3.365-8.634-3.893-12.6-1.261
	c-20.395,13.532-42.837,22.856-66.706,27.714c-4.659,0.948-8.006,5.045-8.006,9.799v38.074c-19.816,2.586-40.184,2.586-60,0v-38.074
	c0-4.754-3.347-8.851-8.006-9.799c-23.854-4.855-46.298-14.18-66.708-27.715c-3.966-2.63-9.234-2.102-12.598,1.263L110.03,444.38
	c-15.943-12.254-30.163-26.475-42.417-42.417l28.658-28.658c3.365-3.364,3.892-8.634,1.261-12.6
	C84,340.311,74.676,317.868,69.818,294c-0.948-4.659-5.045-8.006-9.799-8.006H21.946c-1.293-9.911-1.946-19.967-1.946-30
	c0-10.033,0.653-20.089,1.946-30H60.02c4.754,0,8.851-3.347,9.799-8.006c4.855-23.854,14.18-46.298,27.715-66.708
	c2.629-3.965,2.101-9.234-1.263-12.598l-28.658-28.658c12.255-15.943,26.475-30.163,42.418-42.417l28.658,28.658
	c3.364,3.364,8.634,3.893,12.6,1.261c20.395-13.532,42.837-22.856,66.706-27.714c4.659-0.948,8.006-5.045,8.006-9.799V21.939
	c19.821-2.586,40.179-2.586,60,0v38.074c0,4.754,3.347,8.851,8.006,9.799c23.854,4.855,46.298,14.18,66.708,27.715
	c3.964,2.629,9.233,2.101,12.598-1.263l28.658-28.658c15.943,12.254,30.163,26.475,42.417,42.417L415.73,138.68
	c-3.364,3.364-3.892,8.633-1.263,12.598c13.535,20.41,22.86,42.853,27.715,66.708c0.948,4.659,5.045,8.006,9.799,8.006h38.074
	c1.293,9.911,1.946,19.967,1.946,30C492.001,266.025,491.347,276.081,490.054,285.992z"/>
<path d="M256,125.993c21.782,0,43.342,5.514,62.349,15.946c4.84,2.657,10.921,0.888,13.578-3.955
	c2.658-4.841,0.887-10.92-3.955-13.578c-21.947-12.047-46.835-18.414-71.972-18.414c-82.71,0-150,67.29-150,150
	c0,25.137,6.367,50.024,18.414,71.972c2.665,4.857,8.751,6.604,13.578,3.955c4.842-2.657,6.612-8.736,3.955-13.578
	C131.514,299.335,126,277.774,126,255.993C126,184.311,184.318,125.993,256,125.993z"/>
<path d="M374.008,180.066c-4.842,2.657-6.612,8.736-3.955,13.578C380.486,212.65,386,234.211,386,255.993
	c0,71.682-58.318,130-130,130c-21.782,0-43.342-5.514-62.349-15.946c-4.839-2.656-10.92-0.887-13.578,3.955
	c-2.658,4.841-0.887,10.92,3.955,13.578c21.947,12.047,46.835,18.414,71.972,18.414c82.71,0,150-67.29,150-150
	c0-25.137-6.367-50.024-18.414-71.972C384.929,179.178,378.85,177.409,374.008,180.066z"/>
<path d="M366,255.993c0-60.654-49.346-110-110-110s-110,49.346-110,110s49.346,110,110,110S366,316.646,366,255.993z M166,255.993
	c0-49.626,40.374-90,90-90s90,40.374,90,90s-40.374,90-90,90S166,305.618,166,255.993z"/>
<g>
</g>
<g>
</g>
<g>
</g>
<g>
</g>
<g>
</g>
<g>
</g>
<g>
</g>
<g>
</g>
<g>
</g>
<g>
</g>
<g>
</g>
<g>
</g>
<g>
</g>
<g>
</g>
<g>
</g>
</svg>
