<?xml version="1.0" encoding="iso-8859-1"?>
<!-- Generator: Adobe Illustrator 19.0.0, SVG Export Plug-In . SVG Version: 6.00 Build 0)  -->
<svg version="1.1" id="Capa_1" xmlns="http://www.w3.org/2000/svg" xmlns:xlink="http://www.w3.org/1999/xlink" x="0px" y="0px"
	 viewBox="0 0 512.001 512.001" style="enable-background:new 0 0 512.001 512.001;" xml:space="preserve">
<path style="fill:#444B75;" d="M322.005,10C421.412,10,502,90.588,502,189.995S421.412,369.99,322.005,369.99
	c-99.72,0-179.995-80.886-179.995-179.995C142.01,90.588,222.598,10,322.005,10z"/>
<g>
	<path style="fill:#FFFFFF;" d="M322.005,49.999c77.198,0,139.996,62.798,139.996,139.996s-62.798,139.996-139.996,139.996
		s-139.996-62.798-139.996-139.996S244.807,49.999,322.005,49.999z"/>
	<path style="fill:#FFFFFF;" d="M209.588,330.571l-0.44,0.56l-44.919,44.929L135.94,347.77l45.429-45.429
		C189.709,312.761,199.168,322.231,209.588,330.571z"/>
</g>
<path style="fill:#ED589D;" d="M164.229,376.06c7.81,7.81,7.81,20.469,0,28.279l-85.938,85.928c-15.62,15.63-40.939,15.63-56.558,0
	c-15.63-15.62-15.63-40.939,0-56.558l85.928-85.938c7.81-7.81,20.469-7.81,28.279,0L164.229,376.06z"/>
<path d="M322.005,0C217.242,0,132.01,85.232,132.01,189.995c0,39.969,12.773,79.196,36.119,111.445l-33.405,33.405
	c-11.148-5.309-24.917-3.362-34.134,5.855l-85.925,85.936c-19.543,19.531-19.559,51.159-0.005,70.7
	c19.538,19.551,51.161,19.555,70.702,0.003l85.939-85.929c9.216-9.217,11.164-22.986,5.854-34.134l33.395-33.402
	c32.521,23.655,70.861,36.116,111.455,36.116C426.769,379.99,512,294.758,512,189.995S426.768,0,322.005,0z M164.228,361.917
	l-14.147-14.147l30.695-30.695c4.467,4.96,9.191,9.684,14.143,14.144L164.228,361.917z M157.158,397.268l-85.941,85.93
	c-11.719,11.728-30.683,11.737-42.416-0.005c-11.728-11.719-11.735-30.685,0.002-42.414l85.927-85.938
	c3.897-3.897,10.24-3.899,14.138,0l28.289,28.289C161.056,387.028,161.056,393.37,157.158,397.268z M322.005,359.99
	c-54.699,0-102.084-25.486-132.826-63.893l0,0C164.862,265.69,152.01,229,152.01,189.996C152.01,96.26,228.27,20,322.005,20
	S492,96.26,492,189.996S415.74,359.99,322.005,359.99z"/>
<path d="M322.005,39.999c-82.708,0-149.996,67.288-149.996,149.996s67.288,149.996,149.996,149.996s149.996-67.288,149.996-149.996
	S404.713,39.999,322.005,39.999z M322.005,319.991c-71.681,0-129.996-58.316-129.996-129.996S250.324,59.998,322.005,59.998
	s129.996,58.316,129.996,129.996S393.685,319.991,322.005,319.991z"/>
<path d="M322.505,140.706c11.028,0,19.999,8.972,19.999,19.999c0,5.523,4.478,10,10,10s10-4.477,10-10
	c0-18.603-12.767-34.281-29.999-38.733v-11.266c0-5.523-4.478-10-10-10s-10,4.477-10,10v11.266
	c-17.233,4.452-29.999,20.129-29.999,38.733c0,20.17,18.77,30.092,35.33,38.846c14.901,7.877,24.668,13.604,24.668,21.152
	c0,11.028-8.972,19.999-19.999,19.999s-19.999-8.972-19.999-19.999c0-5.523-4.478-10-10-10s-10,4.477-10,10
	c0,18.604,12.767,34.281,29.999,38.733v11.266c0,5.523,4.478,10,10,10s10-4.477,10-10v-11.266
	c17.233-4.452,29.999-20.129,29.999-38.733c0-20.163-18.765-30.082-35.321-38.834c-14.907-7.879-24.677-13.609-24.677-21.164
	C302.505,149.678,311.476,140.706,322.505,140.706z"/>
<g>
</g>
<g>
</g>
<g>
</g>
<g>
</g>
<g>
</g>
<g>
</g>
<g>
</g>
<g>
</g>
<g>
</g>
<g>
</g>
<g>
</g>
<g>
</g>
<g>
</g>
<g>
</g>
<g>
</g>
</svg>
