<?xml version="1.0" encoding="iso-8859-1"?>
<!-- Generator: Adobe Illustrator 19.0.0, SVG Export Plug-In . SVG Version: 6.00 Build 0)  -->
<svg version="1.1" id="Capa_1" xmlns="http://www.w3.org/2000/svg" xmlns:xlink="http://www.w3.org/1999/xlink" x="0px" y="0px"
	 viewBox="0 0 512 512" style="enable-background:new 0 0 512 512;" xml:space="preserve">
<path style="fill:#444B75;" d="M482,10c11.05,0,20,8.95,20,20s-8.95,20-20,20c-20.409,0-429.853,0-452,0c-11.05,0-20-8.95-20-20
	s8.95-20,20-20H482z"/>
<path style="fill:#FFFFFF;" d="M482,50v312c0,11.05-8.95,20-20,20H256H50c-11.05,0-20-8.95-20-20V50h406H482z"/>
<path style="fill:#ED589D;" d="M416,196h-80v-80C380.18,116,416,151.82,416,196z"/>
<path style="fill:#BF8BDE;" d="M336,196h80c0,44.18-35.82,80-80,80s-80-35.82-80-80c0-44.028,35.653-80,80-80V196z"/>
<path style="fill:#444B75;" d="M256,462c11.05,0,20,8.95,20,20s-8.95,20-20,20c-11.05,0-20-8.95-20-20S244.95,462,256,462z"/>
<path d="M196,126c5.52,0,10-4.48,10-10s-4.48-10-10-10s-10,4.48-10,10S190.48,126,196,126z"/>
<path d="M196,186c-5.52,0-10,4.48-10,10s4.48,10,10,10s10-4.48,10-10S201.52,186,196,186z"/>
<path d="M20,58.28V362c0,16.542,13.458,30,30,30h196v61.72c-11.639,4.128-20,15.243-20,28.28c0,16.542,13.458,30,30,30
	s30-13.458,30-30c0-13.036-8.361-24.152-20-28.28V392h196c16.542,0,30-13.458,30-30V58.28c11.639-4.128,20-15.243,20-28.28
	c0-16.542-13.458-30-30-30H30C13.458,0,0,13.458,0,30C0,43.036,8.361,54.152,20,58.28z M256,492c-5.514,0-10-4.486-10-10
	s4.486-10,10-10s10,4.486,10,10S261.514,492,256,492z M462,372H50c-5.514,0-10-4.486-10-10V60h432v302
	C472,367.514,467.514,372,462,372z M30,20h452c5.514,0,10,4.486,10,10s-4.486,10-10,10H30c-5.514,0-10-4.486-10-10S24.486,20,30,20z
	"/>
<path d="M90,126h66c5.522,0,10-4.477,10-10s-4.478-10-10-10H90c-5.522,0-10,4.477-10,10S84.478,126,90,126z"/>
<path d="M90,166h106c5.522,0,10-4.477,10-10s-4.478-10-10-10H90c-5.522,0-10,4.477-10,10S84.478,166,90,166z"/>
<path d="M90,206h66c5.522,0,10-4.477,10-10s-4.478-10-10-10H90c-5.522,0-10,4.477-10,10S84.478,206,90,206z"/>
<path d="M90,246h106c5.522,0,10-4.477,10-10s-4.478-10-10-10H90c-5.522,0-10,4.477-10,10S84.478,246,90,246z"/>
<path d="M90,286h106c5.522,0,10-4.477,10-10s-4.478-10-10-10H90c-5.522,0-10,4.477-10,10S84.478,286,90,286z"/>
<path d="M416,306H90c-5.522,0-10,4.477-10,10s4.478,10,10,10h326c5.522,0,10-4.477,10-10S421.522,306,416,306z"/>
<path d="M336,106c-50.06,0-90,40.654-90,90c0,49.626,40.374,90,90,90s90-40.374,90-90S385.626,106,336,106z M405.274,186H346
	v-59.274C376.608,131.125,400.875,155.391,405.274,186z M336,266c-38.598,0-70-31.402-70-70c0-35.075,25.831-64.368,60-69.278V196
	c0,5.523,4.478,10,10,10h69.274C400.406,239.877,371.202,266,336,266z"/>
<g>
</g>
<g>
</g>
<g>
</g>
<g>
</g>
<g>
</g>
<g>
</g>
<g>
</g>
<g>
</g>
<g>
</g>
<g>
</g>
<g>
</g>
<g>
</g>
<g>
</g>
<g>
</g>
<g>
</g>
</svg>
