<?xml version="1.0" encoding="iso-8859-1"?>
<!-- Generator: Adobe Illustrator 19.0.0, SVG Export Plug-In . SVG Version: 6.00 Build 0)  -->
<svg version="1.1" id="Capa_1" xmlns="http://www.w3.org/2000/svg" xmlns:xlink="http://www.w3.org/1999/xlink" x="0px" y="0px"
	 viewBox="0 0 511.999 511.999" style="enable-background:new 0 0 511.999 511.999;" xml:space="preserve">
<path style="fill:#FFFFFF;" d="M256,96c132.55,0,246,160,246,160S388.55,416,256,416S10,256,10,256S123.45,96,256,96z"/>
<path style="fill:#68D3CA;" d="M256,136c66.27,0,120,53.73,120,120s-53.73,120-120,120s-120-53.73-120-120S189.73,136,256,136z"/>
<path d="M256,126c-71.682,0-130,58.317-130,130s58.318,130,130,130s130-58.317,130-130S327.682,126,256,126z M256,366
	c-60.654,0-110-49.346-110-110s49.346-110,110-110s110,49.346,110,110S316.654,366,256,366z"/>
<path d="M435.355,168.531C385.522,124.166,322.689,86,256,86c-66.706,0-129.544,38.186-179.355,82.531
	c-45.261,40.293-73.617,80.014-74.802,81.685c-2.457,3.465-2.457,8.104,0,11.568c1.185,1.671,29.541,41.392,74.802,81.685
	C126.478,387.834,189.311,426,256,426c31.835,0,65.115-8.781,98.917-26.101c26.655-13.657,53.718-32.643,80.438-56.431
	c45.261-40.293,73.617-80.014,74.802-81.685c2.457-3.465,2.457-8.104,0-11.568C508.973,248.545,480.616,208.824,435.355,168.531z
	 M256,406c-65.2,0-126.121-41.978-165.746-77.192c-33.784-30.023-58.292-60.414-67.775-72.802C44.136,227.782,144.102,106,256,106
	c65.2,0,126.121,41.978,165.746,77.192c33.781,30.021,58.29,60.411,67.775,72.802C467.864,284.218,367.898,406,256,406z"/>
<path d="M256,206.71c11.028,0,20,8.972,20,20c0,5.522,4.477,10,10,10s10-4.478,10-10c0-18.604-12.767-34.282-30-38.734V176.71
	c0-5.522-4.477-10-10-10c-5.523,0-10,4.478-10,10v11.266c-17.233,4.452-30,20.13-30,38.734c0,20.172,18.77,30.093,35.331,38.847
	C266.232,273.434,276,279.161,276,286.71c0,11.028-8.972,20-20,20c-11.028,0-20-8.972-20-20c0-5.522-4.477-10-10-10s-10,4.478-10,10
	c0,18.604,12.767,34.282,30,38.734v11.266c0,5.522,4.477,10,10,10c5.523,0,10-4.478,10-10v-11.266c17.233-4.452,30-20.13,30-38.734
	c0-20.164-18.766-30.084-35.323-38.835C245.771,239.995,236,234.266,236,226.71C236,215.682,244.972,206.71,256,206.71z"/>
<g>
</g>
<g>
</g>
<g>
</g>
<g>
</g>
<g>
</g>
<g>
</g>
<g>
</g>
<g>
</g>
<g>
</g>
<g>
</g>
<g>
</g>
<g>
</g>
<g>
</g>
<g>
</g>
<g>
</g>
</svg>
