<?xml version="1.0" encoding="iso-8859-1"?>
<!-- Generator: Adobe Illustrator 19.0.0, SVG Export Plug-In . SVG Version: 6.00 Build 0)  -->
<svg version="1.1" id="Capa_1" xmlns="http://www.w3.org/2000/svg" xmlns:xlink="http://www.w3.org/1999/xlink" x="0px" y="0px"
	 viewBox="0 0 512 512" style="enable-background:new 0 0 512 512;" xml:space="preserve">
<path style="fill:#FFFFFF;" d="M476,170v312c0,11.05-8.95,20-20,20H56c-11.05,0-20-8.95-20-20V170H476z"/>
<path style="fill:#ED589D;" d="M456,70H56c-11.05,0-20,8.95-20,20v80h440V90C476,78.95,467.05,70,456,70z"/>
<g>
	<rect x="336" y="396" style="fill:#BF8BDE;" width="80" height="40"/>
	<rect x="336" y="316" style="fill:#BF8BDE;" width="80" height="40"/>
	<rect x="336" y="236" style="fill:#BF8BDE;" width="80" height="40"/>
</g>
<path style="fill:#444B75;" d="M416,90c0,11.04-8.96,20-20,20c-11.05,0-20-8.95-20-20V70V30c0-11.05,8.95-20,20-20s20,8.95,20,20
	C416,39.1,416,74.228,416,90z"/>
<g>
	<rect x="216" y="396" style="fill:#BF8BDE;" width="80" height="40"/>
	<rect x="216" y="316" style="fill:#BF8BDE;" width="80" height="40"/>
	<rect x="216" y="236" style="fill:#BF8BDE;" width="80" height="40"/>
	<rect x="96" y="396" style="fill:#BF8BDE;" width="80" height="40"/>
	<rect x="96" y="316" style="fill:#BF8BDE;" width="80" height="40"/>
	<rect x="96" y="236" style="fill:#BF8BDE;" width="80" height="40"/>
</g>
<path style="fill:#444B75;" d="M136,90c0,11.04-8.96,20-20,20c-11.05,0-20-8.95-20-20c0-5.264,0-44.868,0-60c0-11.05,8.95-20,20-20
	s20,8.95,20,20C136,39.1,136,74.228,136,90z"/>
<path d="M336,140c5.52,0,10-4.48,10-10c0-5.52-4.48-10-10-10s-10,4.48-10,10C326,135.52,330.48,140,336,140z"/>
<path d="M176,140h120c5.522,0,10-4.478,10-10s-4.478-10-10-10H176c-5.523,0-10,4.478-10,10S170.477,140,176,140z"/>
<path d="M116,0C99.458,0,86,13.458,86,30v30H56c-16.542,0-30,13.458-30,30v392c0,16.542,13.458,30,30,30h400
	c16.542,0,30-13.458,30-30V90c0-16.542-13.458-30-30-30h-30V30c0-16.542-13.458-30-30-30s-30,13.458-30,30v30H146V30
	C146,13.458,132.542,0,116,0z M106,30c0-5.514,4.486-10,10-10s10,4.486,10,10v60c0,5.521-4.479,10-10,10c-5.514,0-10-4.486-10-10V30
	z M456,492H56c-5.514,0-10-4.486-10-10V180h420v302C466,487.514,461.514,492,456,492z M386,30c0-5.514,4.486-10,10-10
	s10,4.486,10,10v60c0,5.52-4.479,10-10,10c-5.514,0-10-4.486-10-10V30z M366,80v10c0,16.542,13.458,30,30,30
	c16.575,0,30-13.425,30-30V80h30c5.514,0,10,4.486,10,10v70H46V90c0-5.514,4.486-10,10-10h30v10c0,16.542,13.458,30,30,30
	c16.575,0,30-13.424,30-30V80H366z"/>
<path d="M176,226H96c-5.523,0-10,4.478-10,10v40c0,5.522,4.477,10,10,10h80c5.523,0,10-4.478,10-10v-40
	C186,230.478,181.523,226,176,226z M166,266h-60v-20h60V266z"/>
<path d="M296,226h-80c-5.523,0-10,4.478-10,10v40c0,5.522,4.477,10,10,10h80c5.522,0,10-4.478,10-10v-40
	C306,230.478,301.522,226,296,226z M286,266h-60v-20h60V266z"/>
<path d="M416,226h-80c-5.522,0-10,4.478-10,10v40c0,5.522,4.478,10,10,10h80c5.522,0,10-4.478,10-10v-40
	C426,230.478,421.522,226,416,226z M406,266h-60v-20h60V266z"/>
<path d="M176,306H96c-5.523,0-10,4.478-10,10v40c0,5.522,4.477,10,10,10h80c5.523,0,10-4.478,10-10v-40
	C186,310.478,181.523,306,176,306z M166,346h-60v-20h60V346z"/>
<path d="M296,306h-80c-5.523,0-10,4.478-10,10v40c0,5.522,4.477,10,10,10h80c5.522,0,10-4.478,10-10v-40
	C306,310.478,301.522,306,296,306z M286,346h-60v-20h60V346z"/>
<path d="M416,306h-80c-5.522,0-10,4.478-10,10v40c0,5.522,4.478,10,10,10h80c5.522,0,10-4.478,10-10v-40
	C426,310.478,421.522,306,416,306z M406,346h-60v-20h60V346z"/>
<path d="M176,386H96c-5.523,0-10,4.478-10,10v40c0,5.522,4.477,10,10,10h80c5.523,0,10-4.478,10-10v-40
	C186,390.478,181.523,386,176,386z M166,426h-60v-20h60V426z"/>
<path d="M296,386h-80c-5.523,0-10,4.478-10,10v40c0,5.522,4.477,10,10,10h80c5.522,0,10-4.478,10-10v-40
	C306,390.478,301.522,386,296,386z M286,426h-60v-20h60V426z"/>
<path d="M416,386h-80c-5.522,0-10,4.478-10,10v40c0,5.522,4.478,10,10,10h80c5.522,0,10-4.478,10-10v-40
	C426,390.478,421.522,386,416,386z M406,426h-60v-20h60V426z"/>
<g>
</g>
<g>
</g>
<g>
</g>
<g>
</g>
<g>
</g>
<g>
</g>
<g>
</g>
<g>
</g>
<g>
</g>
<g>
</g>
<g>
</g>
<g>
</g>
<g>
</g>
<g>
</g>
<g>
</g>
</svg>
