<?xml version="1.0" encoding="iso-8859-1"?>
<!-- Generator: Adobe Illustrator 19.0.0, SVG Export Plug-In . SVG Version: 6.00 Build 0)  -->
<svg version="1.1" id="Capa_1" xmlns="http://www.w3.org/2000/svg" xmlns:xlink="http://www.w3.org/1999/xlink" x="0px" y="0px"
	 viewBox="0 0 512 512" style="enable-background:new 0 0 512 512;" xml:space="preserve">
<g>
	<path style="fill:#444B75;" d="M96,10h320c0,22.079-17.919,40-40,40H136C113.91,50,96,32.09,96,10z"/>
	<path style="fill:#444B75;" d="M416,502H96c0-22.09,17.91-40,40-40c9.862,0,229.357,0,240,0C398.079,462,416,479.919,416,502z"/>
</g>
<path style="fill:#FFFFFF;" d="M295.51,229.2C342.36,212.88,376,168.41,376,116V50H136v66c0,52.41,33.64,96.88,80.49,113.2
	C228.04,233.22,236,243.77,236,256c0,12.19-7.905,22.757-19.51,26.8C169.64,299.12,136,346.59,136,399v63h240v-63
	c0-52.41-33.64-99.88-80.49-116.2C283.96,278.78,276,268.23,276,256C276,243.81,283.905,233.243,295.51,229.2z"/>
<g>
	<path style="fill:#FFC342;" d="M336,462H176c0-33.94,21.56-47.25,53.65-58.43c10.17-3.54,19.1-9.27,26.35-16.53
		c7.25,7.26,16.19,13,26.36,16.53C314.44,414.75,336,428.06,336,462z"/>
	<path style="fill:#FFC342;" d="M336,116c0,33.93-21.549,64.25-53.65,75.43c-10.17,3.54-19.1,9.27-26.35,16.53
		c-7.25-7.26-16.19-13-26.36-16.53C197.56,180.25,176,149.94,176,116c25.18,12.59,52.59,18.88,80,18.88S310.82,128.59,336,116z"/>
</g>
<path d="M256,339c-5.52,0-10,4.48-10,10s4.48,10,10,10c5.52,0,10-4.48,10-10S261.52,339,256,339z"/>
<path d="M298.8,238.644C350.957,220.475,386,171.188,386,116V59.001c22.603-4.569,40-24.597,40-49.001c0-5.522-4.478-10-10-10H96
	c-5.522,0-10,4.478-10,10c0,24.146,17.205,44.348,40,48.994V116c0,55.188,35.043,104.475,87.203,122.645
	C220.978,241.35,226,248.162,226,256c0,7.899-5.176,14.701-12.8,17.356C161.858,291.241,126,342.908,126,399v54.006
	c-22.795,4.646-40,24.847-40,48.994c0,5.522,4.478,10,10,10h320c5.522,0,10-4.478,10-10c0-13.349-5.202-25.903-14.649-35.352
	c-7.042-7.042-15.813-11.721-25.351-13.649V399c0-56.092-35.858-107.759-87.203-125.645C291.022,270.65,286,263.838,286,256
	C286,248.101,291.176,241.299,298.8,238.644z M107.714,19.9h296.585C400.104,31.779,389.003,40,376,40H136
	C122.963,40,111.841,31.541,107.714,19.9z M404.298,492H107.714c4.127-11.641,15.249-20,28.286-20h240
	c8.008,0,15.54,3.122,21.209,8.79C400.429,484.011,402.827,487.832,404.298,492z M186.858,452
	c3.731-20.3,19.643-29.776,46.079-38.985c8.306-2.891,16.143-7.195,23.062-12.631c6.929,5.444,14.77,9.748,23.07,12.63
	c26.433,9.211,42.342,18.687,46.072,38.986H186.858z M292.22,292.243C335.66,307.376,366,351.275,366,399v53h-20.624
	c-4.466-35.537-32.91-48.528-59.736-57.877c-8.444-2.931-16.247-7.824-22.563-14.149c-1.876-1.878-4.422-2.934-7.076-2.934
	s-5.2,1.056-7.076,2.934c-6.398,6.407-13.988,11.169-22.563,14.153c-26.821,9.344-55.27,22.334-59.736,57.873H146v-53
	c0-47.725,30.34-91.624,73.779-106.757C235.388,286.806,246,272.477,246,256c0-16.221-10.538-30.785-26.22-36.243
	C175.649,204.384,146,162.688,146,116V60h220v56c0,46.688-29.649,88.384-73.779,103.757C276.612,225.194,266,239.523,266,256
	C266,272.221,276.538,286.785,292.22,292.243z"/>
<path d="M329.359,168.045C340.246,152.735,346,134.739,346,116c0-3.466-1.795-6.685-4.743-8.507
	c-2.948-1.821-6.63-1.986-9.729-0.438C308.207,118.717,282.09,124.88,256,124.88s-52.207-6.163-75.528-17.824
	c-3.099-1.55-6.78-1.385-9.729,0.438S166,112.534,166,116c0,38.186,24.252,72.293,60.36,84.877
	c8.444,2.931,16.247,7.824,22.563,14.149c1.876,1.878,4.422,2.934,7.076,2.934s5.2-1.056,7.076-2.934
	c6.398-6.407,13.988-11.169,22.563-14.153C303.357,194.702,318.476,183.351,329.359,168.045z M256.001,194.616
	c-6.929-5.444-14.77-9.748-23.07-12.63c-22.844-7.96-39.587-27.002-45.03-49.816c21.661,8.349,44.89,12.71,68.1,12.71
	c23.214,0,46.449-4.364,68.113-12.716c-2.061,8.661-5.783,16.88-11.053,24.291c-8.465,11.904-20.223,20.732-33.998,25.53
	C270.757,184.876,262.92,189.181,256.001,194.616z"/>
<path d="M256,276c-5.522,0-10,4.478-10,10v23c0,5.522,4.478,10,10,10s10-4.478,10-10v-23C266,280.478,261.522,276,256,276z"/>
<g>
</g>
<g>
</g>
<g>
</g>
<g>
</g>
<g>
</g>
<g>
</g>
<g>
</g>
<g>
</g>
<g>
</g>
<g>
</g>
<g>
</g>
<g>
</g>
<g>
</g>
<g>
</g>
<g>
</g>
</svg>
