<?xml version="1.0" encoding="iso-8859-1"?>
<!-- Generator: Adobe Illustrator 19.0.0, SVG Export Plug-In . SVG Version: 6.00 Build 0)  -->
<svg version="1.1" id="Capa_1" xmlns="http://www.w3.org/2000/svg" xmlns:xlink="http://www.w3.org/1999/xlink" x="0px" y="0px"
	 viewBox="0 0 512 512" style="enable-background:new 0 0 512 512;" xml:space="preserve">
<g>
	<path style="fill:#444B75;" d="M472,156c16.57,0,30,13.43,30,30c0,16.56-13.44,30-30,30H270v-60H472z"/>
	<path style="fill:#444B75;" d="M270,456v20H30v-20c0-22.09,17.91-40,40-40h160C252.09,416,270,433.91,270,456z"/>
</g>
<path style="fill:#FFFFFF;" d="M270,156v60h-57.96c-2.72-19.91-2.72-40.09,0-60H270z"/>
<g>
	<path style="fill:#444B75;" d="M250,296v40H50v-40c0-11.05,8.95-20,20-20h159.1h0.9C241.05,276,250,284.95,250,296z"/>
	<path style="fill:#444B75;" d="M250,36v40c0,11.05-8.95,20-20,20h-0.9H70c-11.05,0-20-8.95-20-20V36H250z"/>
</g>
<path style="fill:#FFC342;" d="M70,96h159.1c-8.58,19.29-14.26,39.49-17.06,60c-2.72,19.91-2.72,40.09,0,60
	c2.8,20.51,8.48,40.71,17.06,60H70C95.47,218.7,95.47,153.3,70,96z"/>
<path d="M125,146c5.52,0,10-4.48,10-10s-4.48-10-10-10s-10,4.48-10,10S119.48,146,125,146z"/>
<path d="M230,406H70c-27.57,0-50,22.43-50,50v10H10c-5.523,0-10,4.478-10,10s4.477,10,10,10c13.4,0,260.384,0,280,0
	c5.523,0,10-4.478,10-10s-4.477-10-10-10h-10v-10C280,428.43,257.57,406,230,406z M40,456c0-16.542,13.458-30,30-30h160
	c16.542,0,30,13.458,30,30v10H40V456z"/>
<path d="M128.473,165.828c-5.519,0.214-9.819,4.86-9.605,10.38c0.752,19.41-0.739,38.885-4.433,57.883
	c-1.054,5.422,2.486,10.671,7.907,11.726c5.433,1.053,10.672-2.495,11.725-7.907c3.988-20.509,5.599-41.528,4.787-62.477
	C138.639,169.915,134.017,165.578,128.473,165.828z"/>
<path d="M472,146c-10.581,0-244.563,0-248.184,0c2.675-13.907,6.744-27.502,12.142-40.596C249.656,102.633,260,90.502,260,76V36
	c0-5.522-4.477-10-10-10H50c-5.523,0-10,4.478-10,10v40c0,14.152,9.853,26.038,23.056,29.18c21.35,51.672,21.35,109.968,0,161.64
	C49.853,269.962,40,281.848,40,296v40c0,5.522,4.477,10,10,10h200c5.523,0,10-4.478,10-10v-40c0-14.502-10.344-26.633-24.042-29.404
	c-5.398-13.094-9.467-26.688-12.142-40.596c3.621,0,237.603,0,248.184,0c22.097,0,40-17.898,40-40C512,163.944,494.056,146,472,146z
	 M202.132,154.646c-2.842,20.805-2.842,41.902,0,62.706c2.271,16.635,6.344,32.938,12.129,48.647H84.82
	c18.969-51.569,18.969-108.531,0-160.1h129.441C208.476,121.61,204.403,138.012,202.132,154.646z M220.955,166H260v40h-39.045
	C219.692,192.697,219.692,179.304,220.955,166z M60,46h180v30c0,5.514-4.486,10-10,10h-0.69c-0.023,0-0.047,0-0.07,0H70
	c-5.514,0-10-4.486-10-10V46z M240,326H60v-30c0-5.503,4.469-9.981,9.969-9.998c0.009,0,0.017,0.001,0.026,0.001
	c0.014,0,0.027-0.003,0.041-0.003c10.341,0,149.882,0,159.965,0c5.514,0,10,4.486,10,10v30H240z M472,206H280v-40h192
	c11.028,0,20,8.972,20,20C492,197.045,483.046,206,472,206z"/>
<g>
</g>
<g>
</g>
<g>
</g>
<g>
</g>
<g>
</g>
<g>
</g>
<g>
</g>
<g>
</g>
<g>
</g>
<g>
</g>
<g>
</g>
<g>
</g>
<g>
</g>
<g>
</g>
<g>
</g>
</svg>
