<?xml version="1.0" encoding="iso-8859-1"?>
<!-- Generator: Adobe Illustrator 19.0.0, SVG Export Plug-In . SVG Version: 6.00 Build 0)  -->
<svg version="1.1" id="Capa_1" xmlns="http://www.w3.org/2000/svg" xmlns:xlink="http://www.w3.org/1999/xlink" x="0px" y="0px"
	 viewBox="0 0 512 512" style="enable-background:new 0 0 512 512;" xml:space="preserve">
<rect x="10" y="46" style="fill:#68D3CA;" width="492" height="420"/>
<path style="fill:#FFFFFF;" d="M296,466h-80c0-36.04,0-144.089,0-180h40h40C296,327.294,296,429.776,296,466z"/>
<g>
	<rect x="296" y="346" style="fill:#FFEE8D;" width="206" height="60"/>
	<path style="fill:#FFEE8D;" d="M10,46h80c0,44.18-35.82,80-80,80V46z"/>
	<path style="fill:#FFEE8D;" d="M90,286H10v-80C54.18,206,90,241.82,90,286z"/>
	<path style="fill:#FFEE8D;" d="M502,46v80c-44.18,0-80-35.82-80-80H502z"/>
	<path style="fill:#FFEE8D;" d="M502,206v80h-80C422,241.82,457.82,206,502,206z"/>
	<path style="fill:#FFEE8D;" d="M256,46c-29.997,0-52.798,23.908-65.48,51.09C180.593,118.325,176,142.618,176,166
		c0,66.27,35.82,120,80,120c26.178,0,48.357-19.285,60.82-42.06c0.03-0.03,0.05-0.07,0.06-0.11
		c10.116-17.269,18.01-42.921,19.02-71.79C338.166,107.252,304.05,46,256,46z"/>
	<rect x="10" y="346" style="fill:#FFEE8D;" width="206" height="60"/>
</g>
<path d="M376,336c-5.52,0-10,4.48-10,10s4.48,10,10,10s10-4.48,10-10S381.52,336,376,336z"/>
<path d="M186,96c-5.52,0-10,4.48-10,10c0,5.603,4.577,10,10,10c5.52,0,10-4.48,10-10C196,100.436,191.458,96,186,96z"/>
<path d="M136,396c-5.52,0-10,4.48-10,10s4.48,10,10,10s10-4.48,10-10S141.52,396,136,396z"/>
<path d="M256,176c5.519,0,10,4.479,10,10c0,5.519-4.479,10-10,10c-2.668,0-5.178-1.041-7.068-2.932
	c-3.905-3.903-10.236-3.903-14.143,0c-3.905,3.905-3.905,10.237,0,14.143c3.22,3.22,7.042,5.615,11.211,7.086V226
	c0,5.522,4.478,10,10,10s10-4.478,10-10v-11.703c11.39-4.019,20-14.966,20-28.297c0-16.575-13.425-30-30-30c-5.519,0-10-4.479-10-10
	c0-5.519,4.479-10,10-10c2.668,0,5.178,1.041,7.068,2.932c3.906,3.904,10.236,3.904,14.143,0c3.905-3.905,3.905-10.237,0-14.143
	c-3.22-3.22-7.042-5.615-11.211-7.086V106c0-5.522-4.478-10-10-10s-10,4.478-10,10v11.703c-11.39,4.019-20,14.966-20,28.297
	C226,162.575,239.425,176,256,176z"/>
<path d="M502,36H10C4.477,36,0,40.478,0,46c0,25.183,0,405.26,0,420c0,5.522,4.477,10,10,10h492c5.522,0,10-4.478,10-10V286V46
	C512,40.478,507.522,36,502,36z M200.081,79.314c4.216,3.565,10.526,3.04,14.093-1.176c11.8-13.948,24.841-20.374,36.083-21.764
	v-0.003C252.178,56.135,253.899,56,256,56c17.916,0,35.051,10.901,48.247,30.696C318.274,107.737,326,135.901,326,166
	c0,26.579-6.409,55.479-20.529,77.425c-10.993,17.292-27.307,31.621-47.856,32.545c-0.532,0.023-1.073,0.03-1.614,0.03
	c-17.916,0-35.051-10.901-48.247-30.696C193.725,224.263,186,196.099,186,166c0-6.451,0.379-13.252,1.151-19.799
	c0.647-5.484-3.275-10.455-8.76-11.103c-5.493-0.651-10.456,3.276-11.103,8.761c-0.255,2.164-0.458,4.186-0.621,6.179l-0.021,0.226
	c-0.005,0.051-0.009,0.101-0.014,0.151C166.233,155.318,166,160.619,166,166c0,34.004,8.918,66.107,25.112,90.398
	c5.044,7.567,10.621,14.117,16.612,19.602H99.441C94.815,234.348,61.652,201.185,20,196.559v-61.117
	C61.652,130.815,94.815,97.652,99.441,56h108.346c-3.075,2.804-6.046,5.869-8.881,9.221
	C195.338,69.438,195.865,75.747,200.081,79.314z M20,216.726c30.609,4.399,54.875,28.666,59.274,59.274H20V216.726z M20,296h186v40
	H20V296z M226,296h60v160h-60V296z M306,356h30c5.522,0,10-4.478,10-10s-4.478-10-10-10h-30v-40h186v40h-76c-5.522,0-10,4.478-10,10
	s4.478,10,10,10h76v40H306V356z M492,276h-59.274c4.399-30.608,28.666-54.875,59.274-59.274V276z M492,115.274
	c-30.608-4.399-54.875-28.666-59.274-59.274H492V115.274z M412.559,56c4.626,41.652,37.789,74.815,79.441,79.441v61.117
	c-41.652,4.626-74.815,37.789-79.441,79.441H304.214C333.273,249.544,346,205.154,346,166c0-34.003-8.918-66.107-25.112-90.398
	c-5.044-7.567-10.621-14.117-16.612-19.602H412.559z M79.274,56C74.875,86.608,50.609,110.875,20,115.274V56H79.274z M20,416h76
	c5.523,0,10-4.478,10-10s-4.477-10-10-10H20v-40h186v40h-30c-5.523,0-10,4.478-10,10s4.477,10,10,10h30v40H20V416z M306,456v-40h186
	v40H306z"/>
<g>
</g>
<g>
</g>
<g>
</g>
<g>
</g>
<g>
</g>
<g>
</g>
<g>
</g>
<g>
</g>
<g>
</g>
<g>
</g>
<g>
</g>
<g>
</g>
<g>
</g>
<g>
</g>
<g>
</g>
</svg>
