<?xml version="1.0" encoding="iso-8859-1"?>
<!-- Generator: Adobe Illustrator 19.0.0, SVG Export Plug-In . SVG Version: 6.00 Build 0)  -->
<svg version="1.1" id="Capa_1" xmlns="http://www.w3.org/2000/svg" xmlns:xlink="http://www.w3.org/1999/xlink" x="0px" y="0px"
	 viewBox="0 0 512 512" style="enable-background:new 0 0 512 512;" xml:space="preserve">
<rect x="316" y="462" style="fill:#444B75;" width="186" height="40"/>
<g>
	<path style="fill:#BF8BDE;" d="M456,290v100c-12.022,0-384.528,0-400,0V290C73.022,290,402.091,290,456,290z"/>
	<path style="fill:#BF8BDE;" d="M456,150v100c-54.38,0-385.648,0-400,0V150C73.022,150,402.091,150,456,150z"/>
	<path style="fill:#BF8BDE;" d="M456,10v100c-54.38,0-385.648,0-400,0V10H456z"/>
</g>
<g>
	<rect x="96" y="250" style="fill:#444B75;" width="300" height="40"/>
	<rect x="96" y="110" style="fill:#444B75;" width="300" height="40"/>
</g>
<path style="fill:#FFC342;" d="M316,462v40H196v-40C208.697,462,303.529,462,316,462z"/>
<g>
	<rect x="236" y="390" style="fill:#444B75;" width="40" height="72"/>
	<rect x="10" y="462" style="fill:#444B75;" width="186" height="40"/>
</g>
<path d="M176,60c5.52,0,10-4.48,10-10s-4.48-10-10-10s-10,4.48-10,10S170.48,60,176,60z"/>
<path d="M176,200c5.52,0,10-4.48,10-10s-4.48-10-10-10s-10,4.48-10,10S170.48,200,176,200z"/>
<path d="M176,320c-5.52,0-10,4.48-10,10s4.48,10,10,10s10-4.48,10-10S181.52,320,176,320z"/>
<path d="M136,60c5.52,0,10-4.48,10-10s-4.48-10-10-10s-10,4.48-10,10S130.48,60,136,60z"/>
<path d="M136,200c5.52,0,10-4.48,10-10s-4.48-10-10-10s-10,4.48-10,10S130.48,200,136,200z"/>
<path d="M136,320c-5.52,0-10,4.48-10,10s4.48,10,10,10s10-4.48,10-10S141.52,320,136,320z"/>
<path d="M106,50c0-5.52-4.48-10-10-10s-10,4.48-10,10s4.48,10,10,10S106,55.52,106,50z"/>
<path d="M106,190c0-5.52-4.48-10-10-10s-10,4.48-10,10s4.48,10,10,10S106,195.52,106,190z"/>
<path d="M96,320c-5.52,0-10,4.48-10,10s4.48,10,10,10s10-4.48,10-10S101.52,320,96,320z"/>
<path d="M276,340h20c5.522,0,10-4.478,10-10s-4.478-10-10-10h-20c-5.522,0-10,4.478-10,10S270.478,340,276,340z"/>
<path d="M336,340h20c5.522,0,10-4.478,10-10s-4.478-10-10-10h-20c-5.522,0-10,4.478-10,10S330.478,340,336,340z"/>
<path d="M396,340h20c5.522,0,10-4.478,10-10s-4.478-10-10-10h-20c-5.522,0-10,4.478-10,10S390.478,340,396,340z"/>
<path d="M276,200h20c5.522,0,10-4.478,10-10s-4.478-10-10-10h-20c-5.522,0-10,4.478-10,10S270.478,200,276,200z"/>
<path d="M336,200h20c5.522,0,10-4.478,10-10s-4.478-10-10-10h-20c-5.522,0-10,4.478-10,10S330.478,200,336,200z"/>
<path d="M396,200h20c5.522,0,10-4.478,10-10s-4.478-10-10-10h-20c-5.522,0-10,4.478-10,10S390.478,200,396,200z"/>
<path d="M276,60h20c5.522,0,10-4.478,10-10s-4.478-10-10-10h-20c-5.522,0-10,4.478-10,10S270.478,60,276,60z"/>
<path d="M336,60h20c5.522,0,10-4.478,10-10s-4.478-10-10-10h-20c-5.522,0-10,4.478-10,10S330.478,60,336,60z"/>
<path d="M396,60h20c5.522,0,10-4.478,10-10s-4.478-10-10-10h-20c-5.522,0-10,4.478-10,10S390.478,60,396,60z"/>
<path d="M10,512h492c5.522,0,10-4.478,10-10v-40c0-5.522-4.478-10-10-10c-15.049,0-207.708,0-216,0v-52h170c5.522,0,10-4.478,10-10
	V290c0-5.522-4.478-10-10-10h-50v-20h50c5.522,0,10-4.478,10-10V150c0-5.522-4.478-10-10-10h-50v-20h50c5.522,0,10-4.478,10-10V10
	c0-5.522-4.478-10-10-10H56c-5.522,0-10,4.478-10,10v100c0,5.522,4.478,10,10,10h30v20H56c-5.522,0-10,4.478-10,10v100
	c0,5.522,4.478,10,10,10h30v20H56c-5.522,0-10,4.478-10,10v100c0,5.522,4.478,10,10,10h170v52c-8.297,0-200.956,0-216,0
	c-5.522,0-10,4.478-10,10v40C0,507.522,4.478,512,10,512z M492,492H326v-20h166V492z M306,492H206v-20h100V492z M66,20h380v80H66V20
	z M106,120h280v20H106V120z M66,160h380v80H66V160z M106,260h280v20H106V260z M66,300h380v80H66V300z M246,400h20v52h-20V400z
	 M20,472h166v20H20V472z"/>
<g>
</g>
<g>
</g>
<g>
</g>
<g>
</g>
<g>
</g>
<g>
</g>
<g>
</g>
<g>
</g>
<g>
</g>
<g>
</g>
<g>
</g>
<g>
</g>
<g>
</g>
<g>
</g>
<g>
</g>
</svg>
