<?xml version="1.0" encoding="iso-8859-1"?>
<!-- Generator: Adobe Illustrator 19.0.0, SVG Export Plug-In . SVG Version: 6.00 Build 0)  -->
<svg version="1.1" id="Capa_1" xmlns="http://www.w3.org/2000/svg" xmlns:xlink="http://www.w3.org/1999/xlink" x="0px" y="0px"
	 viewBox="0 0 512 512" style="enable-background:new 0 0 512 512;" xml:space="preserve">
<path style="fill:#444B75;" d="M481.95,245.39H30.05l-0.05,0.1V456c0,11.05,8.95,20,20,20c11.613,0,400.387,0,412,0
	c11.05,0,20-8.95,20-20V245.49L481.95,245.39z"/>
<path style="fill:#BF8BDE;" d="M502,156v67.35c0,7.73-4.45,14.76-11.42,18.07c-0.388,0.178,3.21-1.469-191.32,87.95l-26.11,12.39
	c-10.85,5.15-23.45,5.15-34.3,0c-128.896-59.79,140.262,64.103-217.43-100.34C14.45,238.11,10,231.08,10,223.35V156
	c0-11.05,8.95-20,20-20c54.356,0,397.764,0,452,0C493.05,136,502,144.95,502,156z"/>
<path style="fill:#444B75;" d="M376,76v60h-40V76H176v60h-40V76c0-22.09,17.91-40,40-40h160C358.09,36,376,53.91,376,76z"/>
<g>
	<path style="fill:#FFFFFF;" d="M395.96,284.92l-40.22,18.49l0.26,0.57c0,8.918,0,82.859,0,92.02l20,20l20-20
		c0-13.522,0-98.325,0-111L395.96,284.92z"/>
	<path style="fill:#FFFFFF;" d="M116,285c0,12.642,0,97.502,0,111l20,20l20-20c0-9.151,0-83.099,0-92.02l0.26-0.57l-40.22-18.49
		L116,285z"/>
</g>
<path d="M368.93,168.93c-3.91,3.9-3.91,10.24,0,14.14c3.9,3.91,10.24,3.91,14.14,0c3.91-3.9,3.91-10.24,0-14.14
	C379.17,165.02,372.83,165.02,368.93,168.93z"/>
<path d="M482,126h-96V76c0-27.57-22.43-50-50-50H176c-27.57,0-50,22.43-50,50v50H30c-16.542,0-30,13.458-30,30v67.35
	c0,11.523,6.724,22.162,17.13,27.104c0.037,0.018,0.074,0.035,0.11,0.052l2.76,1.267V456c0,16.542,13.458,30,30,30h412
	c16.542,0,30-13.458,30-30V251.773c0.254-0.215,20-6.937,20-28.424V156C512,139.458,498.542,126,482,126z M146,76
	c0-16.542,13.458-30,30-30h160c16.542,0,30,13.458,30,30v50h-20V76c0-5.522-4.477-10-10-10H176c-5.523,0-10,4.478-10,10v50h-20V76z
	 M186,126V86h140v40H186z M472,456c0,5.514-4.486,10-10,10H266v-70c0-5.522-4.477-10-10-10s-10,4.478-10,10v70H50
	c-5.514,0-10-4.486-10-10V260.967l66,30.34V366H96c-5.523,0-10,4.478-10,10s4.477,10,10,10h10v10c0,2.652,1.054,5.195,2.929,7.071
	l20,20c1.953,1.952,4.512,2.929,7.071,2.929s5.119-0.977,7.071-2.929l20-20c1.875-1.876,2.929-4.419,2.929-7.071v-10h10
	c5.523,0,10-4.478,10-10s-4.477-10-10-10h-10v-47.11l42.513,19.543l26.049,12.361c13.651,6.479,29.277,6.456,42.875,0l26.05-12.361
	L346,318.89V366h-10c-5.523,0-10,4.478-10,10s4.477,10,10,10h10v10c0,2.652,1.054,5.195,2.929,7.071l20,20
	c1.953,1.952,4.512,2.929,7.071,2.929s5.119-0.977,7.071-2.929l20-20c1.875-1.876,2.929-4.419,2.929-7.071v-10h10
	c5.523,0,10-4.478,10-10s-4.477-10-10-10h-10v-74.692l66-30.34V456z M126,386h20v5.857l-10,10l-10-10V386z M126,366v-65.499
	l20,9.194V366H126z M366,386h20v5.857l-10,10l-10-10V386z M366,366v-56.304l20-9.194V366H366z M492,223.35
	c0,3.825-2.221,7.357-5.662,9.015c-204.845,94.168-188.007,86.274-217.477,100.361c-8.174,3.882-17.55,3.882-25.725,0
	c-23.225-11.021,3.679,1.13-217.476-100.361c-3.439-1.658-5.66-5.19-5.66-9.015V156c0-5.514,4.486-10,10-10h452
	c5.514,0,10,4.486,10,10V223.35z"/>
<path d="M336,166H136c-5.523,0-10,4.478-10,10s4.477,10,10,10h200c5.523,0,10-4.478,10-10S341.523,166,336,166z"/>
<g>
</g>
<g>
</g>
<g>
</g>
<g>
</g>
<g>
</g>
<g>
</g>
<g>
</g>
<g>
</g>
<g>
</g>
<g>
</g>
<g>
</g>
<g>
</g>
<g>
</g>
<g>
</g>
<g>
</g>
</svg>
