<?xml version="1.0" encoding="iso-8859-1"?>
<!-- Generator: Adobe Illustrator 19.0.0, SVG Export Plug-In . SVG Version: 6.00 Build 0)  -->
<svg version="1.1" id="Capa_1" xmlns="http://www.w3.org/2000/svg" xmlns:xlink="http://www.w3.org/1999/xlink" x="0px" y="0px"
	 viewBox="0 0 511.998 511.998" style="enable-background:new 0 0 511.998 511.998;" xml:space="preserve">
<path style="fill:#444B75;" d="M498.215,254.32c-8.63-31.59-33.51-57.38-64.71-67.31c-34.81-11.07-67.28-2.88-91.59,15.57l0.08-0.58
	c-7.219,0-34.83,0-66,0v-20c0-5.52-2.24-10.52-5.86-14.14s-8.62-5.86-14.14-5.86c-11.05,0-20,8.95-20,20v20c-30.931,0-58.404,0-66,0
	v0.51c-24.3-18.4-56.74-26.56-91.51-15.5c-31.19,9.93-56.07,35.71-64.7,67.29c-8.22,30.09-2.52,58.59,11.92,81.03
	c16.53,25.67,24.29,56,24.29,86.53v27.28c0,26.16,18.82,49.99,44.85,52.6c29.92,3,55.15-20.43,55.15-49.74
	c0-15.08,2-17.71,5.86-37.94c2.17-11.36,9.15-20.75,18.57-26.37h0.01l53.85-5.69h55.42l53.91,5.59l0.01,0.01
	c9.45,5.58,16.48,14.94,18.66,26.29c3.72,19.38,5.71,20.93,5.71,35.26c0,26.15,18.82,49.99,44.84,52.59
	c29.93,3,55.16-20.43,55.16-49.74v-30.71c0-30.16,7.51-60.22,23.98-85.49C500.645,313.3,506.485,284.62,498.215,254.32z"/>
<g>
	<path style="fill:#BF8BDE;" d="M401.995,222c33.14,0,60,26.86,60,60s-26.86,60-60,60s-60-26.86-60-60S368.855,222,401.995,222z"/>
	<path style="fill:#BF8BDE;" d="M341.995,372c0,16.429-13.317,30-30,30c-16.596,0-30-13.46-30-30c0-16.57,13.43-30,30-30
		S341.995,355.43,341.995,372z"/>
	<path style="fill:#BF8BDE;" d="M229.995,372c0,16.53-13.394,30-30,30c-16.636,0-30-13.522-30-30c0-16.57,13.43-30,30-30
		S229.995,355.43,229.995,372z"/>
	<path style="fill:#BF8BDE;" d="M109.995,222c33.14,0,60,26.86,60,60s-26.86,60-60,60s-60-26.86-60-60S76.855,222,109.995,222z"/>
</g>
<path d="M414.925,274.93c-3.91,3.9-3.91,10.24,0,14.14c3.9,3.91,10.24,3.91,14.14,0c3.91-3.9,3.91-10.24,0-14.14
	C425.165,271.02,418.825,271.02,414.925,274.93z"/>
<path d="M409.065,269.07c3.91-3.9,3.91-10.24,0-14.14c-3.9-3.91-10.24-3.91-14.14,0c-3.91,3.9-3.91,10.24,0,14.14
	C398.825,272.98,405.165,272.98,409.065,269.07z"/>
<path d="M394.925,294.93c-3.91,3.9-3.91,10.24,0,14.14c3.9,3.91,10.24,3.91,14.14,0c3.91-3.9,3.91-10.24,0-14.14
	C405.165,291.02,398.825,291.02,394.925,294.93z"/>
<path d="M389.065,274.93c-3.9-3.91-10.24-3.91-14.14,0c-3.91,3.9-3.91,10.24,0,14.14c3.9,3.91,10.24,3.91,14.14,0
	C392.975,285.17,392.975,278.83,389.065,274.93z"/>
<path d="M288.925,254.93c-3.91,3.9-3.91,10.24,0,14.14c3.9,3.91,10.24,3.91,14.14,0c3.91-3.9,3.91-10.24,0-14.14
	C299.165,251.02,292.825,251.02,288.925,254.93z"/>
<path d="M129.995,272h-10v-10c0-5.522-4.477-10-10-10s-10,4.478-10,10v10h-10c-5.523,0-10,4.478-10,10s4.477,10,10,10h10v10
	c0,5.522,4.477,10,10,10s10-4.478,10-10v-10h10c5.523,0,10-4.478,10-10S135.518,272,129.995,272z"/>
<path d="M295.995,292h-20c-5.522,0-10,4.478-10,10s4.478,10,10,10h20c5.522,0,10-4.478,10-10S301.518,292,295.995,292z"/>
<path d="M235.995,292h-20c-5.523,0-10,4.478-10,10s4.477,10,10,10h20c5.522,0,10-4.478,10-10S241.518,292,235.995,292z"/>
<path d="M255.995,252h-40c-5.523,0-10,4.478-10,10s4.477,10,10,10h40c5.522,0,10-4.478,10-10S261.518,252,255.995,252z"/>
<path d="M401.995,212c-38.598,0-70,31.402-70,70s31.402,70,70,70s70-31.402,70-70S440.593,212,401.995,212z M401.995,332
	c-27.57,0-50-22.43-50-50s22.43-50,50-50s50,22.43,50,50S429.565,332,401.995,332z"/>
<path d="M436.535,177.48c-34.059-10.833-68.365-5.66-97.087,14.52h-53.453v-10c0-13.334-8.615-24.28-20-28.297V100
	c0-11.028,8.972-20,20-20h40c22.098,0,40-17.898,40-40c0-22.056-17.944-40-40-40h-170c-5.523,0-10,4.478-10,10s4.477,10,10,10h170
	c11.028,0,20,8.972,20,20c0,11.046-8.954,20-20,20h-40c-22.056,0-40,17.944-40,40v53.72c-11.639,4.128-20,15.243-20,28.28v10
	h-53.441c-28.731-20.184-63.042-25.354-97.103-14.519c-34.483,10.979-61.809,39.404-71.313,74.183
	c-8.487,31.067-3.814,62.702,13.159,89.08c14.849,23.059,22.698,51.108,22.698,81.116v27.279c0,32.047,23.655,59.522,53.853,62.551
	c35.462,3.559,66.147-24.153,66.147-59.69c0-13.857,1.755-15.473,5.682-36.064c1.035-5.417,3.617-10.389,7.352-14.39
	c7.255,6.662,16.769,10.454,26.966,10.454c14.441,0,27.591-7.807,34.64-20h42.721c7.052,12.196,20.2,20,34.639,20
	c10.268,0,19.828-3.834,27.087-10.556c3.753,3.981,6.346,8.933,7.383,14.33c3.797,19.786,5.53,20.363,5.53,33.376
	c0,32.052,23.651,59.522,53.843,62.54c35.691,3.569,66.157-24.378,66.157-59.69v-30.71c0-29.915,7.731-57.589,22.357-80.028
	c17.255-26.465,22.053-58.276,13.509-89.577C498.357,216.892,471.026,188.458,436.535,177.48z M245.995,182c0-5.514,4.486-10,10-10
	c5.52,0,10,4.479,10,10v10h-20V182z M199.995,392c-11.363,0-20-9.271-20-20c0-11.028,8.972-20,20-20s20,8.972,20,20
	C219.995,383.147,210.926,392,199.995,392z M311.995,392c-8.464,0-16.044-5.357-18.861-13.332c-0.001-0.004-0.003-0.008-0.004-0.012
	c-0.753-2.122-1.135-4.361-1.135-6.656c0-11.028,8.972-20,20-20s20,8.972,20,20c0,3.676-1.006,7.261-2.926,10.397
	C325.416,388.41,319.033,392,311.995,392z M477.598,330.34c-16.749,25.698-25.603,57.148-25.603,90.95V452
	c0,23.055-19.765,42.223-44.166,39.79c-20.094-2.009-35.834-20.738-35.834-42.64c0-15.662-2.225-18.064-5.89-37.146
	c-2.075-10.808-7.792-20.538-16.066-27.719c1.276-3.947,1.956-8.085,1.956-12.285c0-22.056-17.944-40-40-40s-40,17.944-40,40h-32
	c0-22.056-17.944-40-40-40s-40,17.944-40,40c0,4.256,0.696,8.445,2.002,12.434c-8.22,7.202-13.9,16.942-15.965,27.751
	c-3.788,19.856-6.037,23.502-6.037,39.814c0,23.095-19.833,42.244-44.152,39.79c-20.102-2.016-35.848-20.75-35.848-42.65V421.86
	c0-33.856-8.95-65.65-25.881-91.941c-13.861-21.542-17.655-47.461-10.683-72.983c7.736-28.31,29.994-51.452,58.085-60.396
	c29.075-9.247,58.353-4.298,82.442,13.943c2.649,2.004,6.091,2.545,9.189,1.518h165.41c3.137,1.119,6.682,0.611,9.403-1.454
	c24.099-18.29,53.402-23.266,82.511-14.007c28.098,8.942,50.359,32.093,58.096,60.414
	C495.586,282.664,491.69,308.726,477.598,330.34z"/>
<path d="M109.995,212c-38.598,0-70,31.402-70,70s31.402,70,70,70s70-31.402,70-70S148.593,212,109.995,212z M109.995,332
	c-27.57,0-50-22.43-50-50s22.43-50,50-50s50,22.43,50,50S137.566,332,109.995,332z"/>
<g>
</g>
<g>
</g>
<g>
</g>
<g>
</g>
<g>
</g>
<g>
</g>
<g>
</g>
<g>
</g>
<g>
</g>
<g>
</g>
<g>
</g>
<g>
</g>
<g>
</g>
<g>
</g>
<g>
</g>
</svg>
