<?xml version="1.0" encoding="iso-8859-1"?>
<!-- Generator: Adobe Illustrator 19.0.0, SVG Export Plug-In . SVG Version: 6.00 Build 0)  -->
<svg version="1.1" id="Capa_1" xmlns="http://www.w3.org/2000/svg" xmlns:xlink="http://www.w3.org/1999/xlink" x="0px" y="0px"
	 viewBox="0 0 512 512" style="enable-background:new 0 0 512 512;" xml:space="preserve">
<g>
	<path style="fill:#FFEE8D;" d="M342,270c0,22.09,17.91,40,40,40h80c22.079,0,40-17.919,40-40H342z"/>
	<path style="fill:#FFEE8D;" d="M170,270H10c0,22.09,17.91,40,40,40h80C152.079,310,170,292.081,170,270z"/>
</g>
<path style="fill:#FFC342;" d="M396,462h-60l-34.97-93.43c-3.04-7.59-10.39-12.57-18.57-12.57H276V90h86c22.06,0,40,17.94,40,40
	c0,11.03,8.97,20,20,20s20-8.97,20-20c0-44.11-35.89-80-80-80H256H150c-42.1,0-76.71,32.69-79.78,74.02l0.68,0.03
	c-0.58,1.88-0.9,3.88-0.9,5.95c0,11.03,8.97,20,20,20s20-8.97,20-20c0-22.06,17.94-40,40-40h86v266h-6.46
	c-8.18,0-15.53,4.98-18.57,12.57L176,462h-60c-11.05,0-20,8.95-20,20v20h320v-20C416,470.95,407.05,462,396,462z"/>
<path style="fill:#FFEE8D;" d="M276,30c0-11.03-8.97-20-20-20s-20,8.97-20,20s8.97,20,20,20S276,41.03,276,30z"/>
<path d="M236,452c-5.52,0-10,4.48-10,10s4.48,10,10,10s10-4.48,10-10S241.52,452,236,452z"/>
<path d="M0.003,270.126C0.072,297.638,22.472,320,50,320h80c27.467,0,49.931-22.201,49.997-49.878c0-0.033,0.002-0.067,0.002-0.1
	c0-0.007,0-0.014,0-0.021c0-6.585-3.694-7.06-74.287-114.458C114.278,150.254,120,140.784,120,130c0-16.542,13.458-30,30-30h76
	v246.226c-10.849,1.268-20.172,8.284-24.313,18.626c-0.028,0.07-0.056,0.141-0.082,0.212L169.065,452H116c-16.542,0-30,13.458-30,30
	v20c0,5.522,4.478,10,10,10h320c5.522,0,10-4.478,10-10v-20c0-16.542-13.458-30-30-30h-53.065l-32.539-86.936
	c-0.026-0.071-0.054-0.142-0.082-0.212c-4.142-10.342-13.464-17.358-24.313-18.626V100h76c16.542,0,30,13.458,30,30
	c0,10.784,5.722,20.254,14.287,25.542C336.477,261.393,332,263.5,332,270c0,0.007,0,0.014,0,0.021c0,0.035,0.002,0.07,0.003,0.105
	C332.072,297.638,354.472,320,382,320h80c27.467,0,49.931-22.201,49.997-49.878c0-0.033,0.002-0.067,0.002-0.1
	c0-0.007,0-0.014,0-0.021c0-0.057-0.008-0.111-0.008-0.167c-0.09-5.691,1.547,0.424-74.278-114.29
	C446.279,150.254,452,140.784,452,130c0-49.626-40.374-90-90-90h-77.72c1.11-3.13,1.72-6.494,1.72-10c0-16.542-13.458-30-30-30
	s-30,13.458-30,30c0,3.506,0.61,6.87,1.72,10H150c-46.859,0-86.283,36.58-89.753,83.278c-0.057,0.761-0.018,1.506,0.09,2.23
	C60.113,126.994,60,128.495,60,130c0,10.784,5.722,20.254,14.287,25.542C0.878,266.819,0,263.876,0,270c0,0.007,0,0.014,0,0.021
	C0.001,270.056,0.003,270.091,0.003,270.126z M130,300H50c-13.037,0-24.159-8.459-28.286-20.1h136.584
	C154.095,291.81,142.974,300,130,300z M28.685,260L90,168.027L151.315,260H28.685z M80,130c0-1.012,0.153-2.021,0.445-2.968
	C81.739,122.892,85.668,120,90,120c5.514,0,10,4.486,10,10c0,5.514-4.486,10-10,10S80,135.514,80,130z M266,70v276h-20V70
	c0-5.514,4.486-10,10-10S266,64.486,266,70z M291.711,372.2L321.58,452H276c-5.522,0-10,4.478-10,10s4.478,10,10,10
	c14.053,0,105.717,0,120,0c5.514,0,10,4.486,10,10v10H106v-10c0-5.514,4.486-10,10-10h80c5.522,0,10-4.478,10-10s-4.478-10-10-10
	h-5.58l29.869-79.8c1.55-3.77,5.171-6.2,9.251-6.2h52.92C286.54,366,290.161,368.431,291.711,372.2z M432,130
	c0,5.514-4.486,10-10,10s-10-4.486-10-10s4.486-10,10-10S432,124.486,432,130z M422,168.027L483.315,260h-122.63L422,168.027z
	 M462,300h-80c-13.037,0-24.159-8.459-28.286-20.1h136.584C486.095,291.81,474.974,300,462,300z M425.317,100.188
	c-1.09-0.12-2.195-0.188-3.317-0.188c-6.169,0-11.908,1.874-16.681,5.079C396.671,90.106,380.499,80,362,80h-76V70
	c0-3.506-0.61-6.87-1.72-10H362C389.941,60,414.1,76.46,425.317,100.188z M246,30c0-5.514,4.486-10,10-10s10,4.486,10,10
	s-4.486,10-10,10S246,35.514,246,30z M150,59.9h77.72c-1.11,3.13-1.72,6.494-1.72,10V80h-76c-18.499,0-34.671,10.106-43.319,25.079
	C101.908,101.874,96.169,100,90,100c-1.113,0-2.208,0.082-3.294,0.2C98.001,76.408,122.327,59.9,150,59.9z"/>
<g>
</g>
<g>
</g>
<g>
</g>
<g>
</g>
<g>
</g>
<g>
</g>
<g>
</g>
<g>
</g>
<g>
</g>
<g>
</g>
<g>
</g>
<g>
</g>
<g>
</g>
<g>
</g>
<g>
</g>
</svg>
