<?xml version="1.0" encoding="iso-8859-1"?>
<!-- Generator: Adobe Illustrator 19.0.0, SVG Export Plug-In . SVG Version: 6.00 Build 0)  -->
<svg version="1.1" id="Capa_1" xmlns="http://www.w3.org/2000/svg" xmlns:xlink="http://www.w3.org/1999/xlink" x="0px" y="0px"
	 viewBox="0 0 512 512" style="enable-background:new 0 0 512 512;" xml:space="preserve">
<g>
	<path style="fill:#FFFFFF;" d="M492.48,190H361.57h-0.01c-10.27-15.69-23.87-29.29-39.56-39.56v-0.01V19.52
		c3.34,0.98,6.66,2.03,9.95,3.16c73.1,24.91,132.46,84.27,157.37,157.37C490.45,183.34,491.5,186.66,492.48,190z"/>
	<path style="fill:#FFFFFF;" d="M361.57,322h130.91c-0.98,3.34-2.03,6.66-3.16,9.95c-24.91,73.1-84.27,132.46-157.37,157.37
		c-3.29,1.13-6.61,2.18-9.95,3.16V361.57v-0.01c15.69-10.27,29.29-23.87,39.56-39.56H361.57z"/>
</g>
<path style="fill:#ED589D;" d="M256,130c-23.62,0-46.43,7.62-66,20.44V19.52c21.12-6.19,43.28-9.52,66-9.52s44.88,3.33,66,9.52
	v130.91v0.01C302.43,137.62,279.62,130,256,130z"/>
<g>
	<path style="fill:#FFFFFF;" d="M190,361.57V491l-0.18,1.43c-3.28-0.97-6.54-2-9.77-3.11c-73.1-24.91-132.46-84.27-157.37-157.37
		c-1.13-3.29-2.18-6.61-3.16-9.95h130.91h0.01c10.27,15.69,23.87,29.29,39.56,39.56V361.57z"/>
	<path style="fill:#FFFFFF;" d="M190,19.52v130.92c-15.69,10.27-29.29,23.87-39.56,39.56h-0.01H19.52c0.98-3.34,2.03-6.66,3.16-9.95
		c24.91-73.1,84.27-132.46,157.37-157.37C183.34,21.55,186.66,20.5,190,19.52z"/>
</g>
<g>
	<path style="fill:#ED589D;" d="M382,256c0-23.62-7.62-46.43-20.44-66h0.01h130.91c6.19,21.12,9.52,43.28,9.52,66
		s-3.33,44.88-9.52,66H361.57h-0.01C374.38,302.43,382,279.62,382,256z"/>
	<path style="fill:#ED589D;" d="M256,382c23.62,0,46.43-7.62,66-20.44v0.01v130.91c-21.12,6.19-43.28,9.52-66,9.52
		c-22.78,0-45-3.35-66.18-9.57L190,491V361.57v-0.01C209.57,374.38,232.38,382,256,382z"/>
	<path style="fill:#ED589D;" d="M130,256c0,23.62,7.62,46.43,20.44,66h-0.01H19.52C13.33,300.88,10,278.72,10,256
		s3.33-44.88,9.52-66h130.91h0.01C137.62,209.57,130,232.38,130,256z"/>
</g>
<path d="M462,246c-5.52,0-10,4.48-10,10c0,5.52,4.48,10,10,10s10-4.48,10-10S467.52,246,462,246z"/>
<path d="M256,60c5.52,0,10-4.48,10-10s-4.48-10-10-10c-5.52,0-10,4.48-10,10S250.48,60,256,60z"/>
<path d="M256,452c-5.52,0-10,4.48-10,10s4.48,10,10,10c5.52,0,10-4.48,10-10S261.52,452,256,452z"/>
<path d="M50,266c5.52,0,10-4.48,10-10s-4.48-10-10-10s-10,4.48-10,10C40,261.52,44.48,266,50,266z"/>
<path d="M500.777,182.911C508.22,166.218,512,148.42,512,130C512,58.317,453.682,0,382,0c-18.419,0-36.216,3.78-52.91,11.223
	c-1.348-0.422-2.709-0.838-4.086-1.243c-0.026-0.008-0.052-0.015-0.078-0.023c-0.038-0.011-0.075-0.023-0.113-0.034
	C302.344,3.339,279.192,0,256,0s-46.344,3.339-68.817,9.925c-0.032,0.009-0.063,0.019-0.094,0.028
	c-0.034,0.01-0.068,0.02-0.102,0.031c-1.373,0.404-2.732,0.819-4.076,1.24C166.216,3.78,148.419,0,130,0C58.318,0,0,58.317,0,130
	c0,18.42,3.78,36.218,11.223,52.911c-0.421,1.346-0.836,2.705-1.24,4.078c-0.01,0.031-0.019,0.063-0.028,0.094
	c-0.01,0.035-0.021,0.069-0.031,0.103C3.339,209.655,0,232.807,0,256s3.339,46.345,9.924,68.815
	c0.011,0.037,0.022,0.073,0.033,0.109c0.008,0.027,0.016,0.053,0.024,0.08c0.405,1.376,0.821,2.737,1.242,4.084
	C3.78,345.782,0,363.58,0,382c0,71.683,58.318,130,130,130c18.419,0,36.216-3.78,52.91-11.223c1.331,0.417,2.684,0.832,4.092,1.248
	C209.539,508.644,232.753,512,256,512c23.192,0,46.344-3.339,68.817-9.925c0.032-0.009,0.063-0.019,0.094-0.028
	c0.034-0.01,0.068-0.02,0.102-0.031c1.373-0.404,2.732-0.819,4.076-1.24C345.784,508.22,363.581,512,382,512
	c71.682,0,130-58.317,130-130c0-18.42-3.78-36.218-11.223-52.911c0.421-1.346,0.836-2.705,1.24-4.078
	c0.01-0.031,0.019-0.063,0.028-0.094c0.01-0.035,0.021-0.069,0.031-0.103C508.661,302.345,512,279.193,512,256
	s-3.339-46.345-9.924-68.813c0-0.001,0-0.002,0-0.003c-0.011-0.037-0.022-0.073-0.033-0.109c-0.008-0.027-0.016-0.053-0.024-0.08
	C501.614,185.619,501.198,184.259,500.777,182.911z M256,372c-60.575,0-116-55.294-116-116c0-37.839,21.583-73.788,52.837-95.415
	c1.901-0.562,3.564-1.671,4.809-3.148C215.863,146.032,235.982,140,256,140c60.575,0,116,55.294,116,116
	C372,316.588,316.694,372,256,372z M180,33.316v111.858c-13.406,9.526-25.302,21.422-34.826,34.826H33.316
	C57.591,112.053,112.035,57.604,180,33.316z M120.427,246H90c-5.523,0-10,4.478-10,10s4.477,10,10,10h30.427
	c1.303,15.712,5.664,31.272,12.855,46H27.141C22.403,293.628,20,274.825,20,256c0-18.826,2.403-37.629,7.141-56h106.141
	C126.09,214.729,121.729,230.289,120.427,246z M145.174,332c9.526,13.406,21.422,25.302,34.826,34.826v111.858
	C112.053,454.409,57.605,399.966,33.316,332H145.174z M391.573,266H422c5.523,0,10-4.478,10-10s-4.477-10-10-10h-30.427
	c-1.303-15.712-5.664-31.272-12.855-46h106.141c4.738,18.372,7.141,37.175,7.141,56c0,18.826-2.403,37.629-7.141,56H378.718
	C385.91,297.271,390.271,281.711,391.573,266z M366.826,180c-9.526-13.406-21.422-25.302-34.826-34.826V33.316
	C399.947,57.591,454.395,112.034,478.684,180H366.826z M332,478.684V366.826c13.406-9.526,25.302-21.522,34.826-34.926h111.858
	C454.409,399.847,399.965,454.396,332,478.684z M492,130c0,7.998-0.843,15.854-2.51,23.516
	C464.091,97.818,418.309,49.79,358.488,22.509C366.148,20.843,374.004,20,382,20C442.654,20,492,69.346,492,130z M312,27.141
	v106.141c-14.729-7.192-30.289-11.553-46-12.855V90c0-5.522-4.477-10-10-10s-10,4.478-10,10v30.427
	c-15.712,1.303-31.272,5.664-46,12.855V27.141C218.372,22.403,237.175,20,256,20C274.826,20,293.63,22.404,312,27.141z M130,20
	c7.997,0,15.853,0.843,23.514,2.51C97.814,47.911,49.789,93.693,22.509,153.513C20.843,145.853,20,137.997,20,130
	C20,69.346,69.346,20,130,20z M20,382c0-7.998,0.843-15.854,2.51-23.516C47.909,414.182,93.691,462.21,153.512,489.49
	C145.851,491.157,137.996,492,130,492C69.346,492,20,442.654,20,382z M200,484.859V378.718c14.729,7.192,30.289,11.553,46,12.855
	V422c0,5.522,4.477,10,10,10c5.523,0,10-4.478,10-10v-30.427c15.712-1.303,31.272-5.664,46-12.855v106.139
	C275.253,494.316,236.752,494.314,200,484.859z M382,492c-7.997,0-15.853-0.843-23.514-2.51
	c55.699-25.401,103.725-71.183,131.005-131.004C491.157,366.147,492,374.003,492,382C492,442.654,442.654,492,382,492z"/>
<g>
</g>
<g>
</g>
<g>
</g>
<g>
</g>
<g>
</g>
<g>
</g>
<g>
</g>
<g>
</g>
<g>
</g>
<g>
</g>
<g>
</g>
<g>
</g>
<g>
</g>
<g>
</g>
<g>
</g>
</svg>
