<?xml version="1.0" encoding="iso-8859-1"?>
<!-- Generator: Adobe Illustrator 19.0.0, SVG Export Plug-In . SVG Version: 6.00 Build 0)  -->
<svg version="1.1" id="Capa_1" xmlns="http://www.w3.org/2000/svg" xmlns:xlink="http://www.w3.org/1999/xlink" x="0px" y="0px"
	 viewBox="0 0 512 512" style="enable-background:new 0 0 512 512;" xml:space="preserve">
<path style="fill:#BF8BDE;" d="M316,412.081V502H136.002c0,0,0-106.609-0.03-162.398c-48.22-32.27-79.969-87.209-79.969-149.599
	c0-103.379,87.139-186.398,191.978-179.608c85.889,5.56,162.208,75.659,167.958,179.498c0.06,0.11,40.06,100.109,40.06,100.109
	h-59.999l20,40l-20,40c0,6.98,0,35.6,0,35.6c0,12.62-11.55,22.09-23.92,19.62L316,412.081z"/>
<path style="fill:#FFFFFF;" d="M356,180.403v20l-22.2,7.4c-2.63,14.52-8.33,27.92-16.52,39.54l10.36,20.72l-14.14,14.15
	l-20.74-10.38c-11.72,8.22-25.27,13.86-39.91,16.43l-7.25,21.74h-20l-7.25-21.74c-14.8-2.6-28.44-8.35-40.25-16.7l-20.17,10.08
	l-14.14-14.14l10.1-20.19c-8.38-11.91-14.07-25.7-16.6-40.61l-21.29-7.1v-20l21.37-7.12c2.66-14.9,8.57-28.59,17.05-40.43
	l-10.06-20.12l14.14-14.14l20.25,10.13c11.86-8.25,25.61-13.79,40.43-16.26l7.22-21.66h20l7.27,21.83
	c14.62,2.69,28.06,8.55,39.73,16.86l20.66-10.33l14.15,14.14l-10.4,20.8c8.09,11.68,13.56,25.18,16.07,39.73L356,180.403z"/>
<path style="fill:#BF8BDE;" d="M235.601,170.004c11.05,0,20,8.95,20,20s-8.95,20-20,20s-20-8.95-20-20
	S224.551,170.004,235.601,170.004z"/>
<path d="M216.001,380.001c-5.52,0-10,4.48-10,10c0,5.52,4.48,10,10,10c5.52,0,10-4.48,10-10
	C226.001,384.481,221.521,380.001,216.001,380.001z"/>
<path d="M175.601,180.003c-5.52,0-10,4.48-10,10c0,5.52,4.48,10,10,10c5.52,0,10-4.48,10-10
	C185.601,184.483,181.121,180.003,175.601,180.003z"/>
<path d="M464.279,295.609c1.86-2.748,2.236-6.239,1.004-9.32c-28.917-72.293-37.043-92.608-39.454-98.551
	C419.127,79.848,339.305,6.287,248.627,0.415C136.579-6.848,46.003,82.164,46.003,190.003c0,61.708,29.796,119.194,79.972,154.85
	C126.002,401.803,126.002,502,126.002,502c0,5.522,4.477,10,10,10H316c5.523,0,10-4.478,10-10v-77.305l43.799,10.262
	c0.107,0.025,0.215,0.049,0.323,0.07c18.581,3.707,35.878-10.517,35.878-29.427v-33.239l18.944-37.888
	c1.408-2.815,1.408-6.13,0-8.944l-12.764-25.528h43.82C459.317,300.002,462.419,298.356,464.279,295.609z M395.999,280.002
	c-3.466,0-6.685,1.795-8.506,4.743c-1.822,2.947-1.988,6.629-0.438,9.729l17.764,35.527l-17.764,35.528
	c-0.694,1.388-1.056,2.919-1.056,4.472v35.6c0,6.263-5.695,10.981-11.827,9.84c-0.153-0.036-116.559-27.302-116.662-27.326
	c-5.372-1.258-10.758,2.078-12.017,7.456c-1.259,5.378,2.08,10.758,7.457,12.017L306,420.01V492H146.002
	c-0.001-27.803-0.005-106.962-0.03-152.404c-0.002-3.336-1.667-6.451-4.438-8.306c-47.295-31.651-75.531-84.469-75.531-141.288
	c0-97.964,82.396-176.064,181.332-169.629c86.765,5.617,153.475,77.143,158.619,170.071c0.063,1.131,0.317,2.239,0.749,3.28
	c0.766,1.889,20.559,51.361,34.526,86.276L395.999,280.002L395.999,280.002z"/>
<path d="M359.161,170.917l-16.614-5.535c-2.663-11.744-7.096-22.71-13.231-32.73l7.838-15.676c1.925-3.851,1.17-8.502-1.876-11.545
	l-14.15-14.14c-3.043-3.042-7.692-3.794-11.541-1.871l-15.45,7.725c-10.168-6.442-21.155-11.101-32.789-13.9l-5.461-16.399
	c-1.36-4.085-5.183-6.841-9.488-6.841h-20c-4.304,0-8.126,2.754-9.487,6.838l-5.373,16.119c-12.019,2.657-23.229,7.164-33.453,13.45
	l-15.114-7.561c-3.85-1.927-8.501-1.172-11.544,1.872l-14.14,14.14c-3.044,3.044-3.798,7.693-1.874,11.543l7.448,14.896
	c-6.583,10.345-11.314,21.576-14.118,33.516l-15.906,5.299c-4.084,1.36-6.839,5.183-6.839,9.487v20c0,4.304,2.753,8.125,6.836,9.486
	l15.771,5.26c2.71,12.059,7.319,23.339,13.752,33.661l-7.513,15.02c-1.926,3.85-1.172,8.501,1.873,11.545l14.14,14.14
	c3.043,3.043,7.691,3.8,11.541,1.874l14.985-7.488c10.253,6.432,21.412,11.058,33.306,13.808l5.422,16.259
	c1.361,4.083,5.183,6.837,9.486,6.837h20c4.304,0,8.125-2.754,9.486-6.837l5.421-16.257c11.775-2.717,22.814-7.257,32.94-13.55
	l15.577,7.796c3.853,1.929,8.505,1.174,11.549-1.874l14.14-14.15c3.042-3.044,3.795-7.692,1.871-11.541l-7.771-15.541
	c6.292-10.058,10.848-20.972,13.597-32.575l16.752-5.583c4.083-1.361,6.838-5.183,6.838-9.487v-20
	C365.999,176.099,363.245,172.278,359.161,170.917z M346,193.195l-15.362,5.12c-3.466,1.156-6.027,4.109-6.678,7.705
	c-2.343,12.938-7.341,24.902-14.854,35.562c-2.121,3.009-2.417,6.94-0.771,10.233l7.138,14.275l-3.949,3.951l-14.29-7.151
	c-3.287-1.645-7.209-1.354-10.218,0.755c-10.685,7.494-22.762,12.463-35.896,14.768c-3.618,0.635-6.596,3.202-7.758,6.687
	l-4.97,14.903h-5.587l-4.97-14.903c-1.162-3.484-4.14-6.051-7.756-6.687c-13.216-2.321-25.398-7.373-36.207-15.016
	c-3.01-2.129-6.948-2.429-10.244-0.78l-13.724,6.858l-3.947-3.946l6.875-13.743c1.646-3.29,1.352-7.22-0.765-10.229
	c-7.626-10.837-12.646-23.127-14.919-36.527c-0.618-3.641-3.192-6.646-6.695-7.813l-14.454-4.82v-5.585l14.531-4.841
	c3.476-1.158,6.04-4.124,6.684-7.73c2.359-13.216,7.519-25.451,15.335-36.364c2.16-3.016,2.473-6.979,0.814-10.295l-6.837-13.674
	l3.946-3.945l13.803,6.904c3.273,1.636,7.18,1.355,10.184-0.734c10.719-7.456,22.954-12.37,36.363-14.604
	c3.654-0.609,6.672-3.188,7.843-6.702l4.94-14.822h5.583l4.992,14.989c1.152,3.459,4.094,6.017,7.679,6.676
	c12.914,2.376,24.938,7.479,35.738,15.171c3.013,2.145,6.964,2.452,10.273,0.799l14.216-7.108l3.953,3.95l-7.175,14.352
	c-1.633,3.266-1.356,7.163,0.724,10.165c7.309,10.554,12.166,22.577,14.436,35.737c0.626,3.63,3.198,6.622,6.693,7.787l15.281,5.092
	v5.58H346z"/>
<path d="M235.601,120.004c-21.23,0-41.074,9.473-54.442,25.988c-3.475,4.293-2.812,10.59,1.481,14.064
	c4.292,3.474,10.588,2.811,14.064-1.48c9.553-11.803,23.731-18.572,38.897-18.572c27.57,0,49.999,22.43,49.999,50s-22.43,50-50,50
	c-5.523,0-10,4.478-10,10c0,5.522,4.477,10,10,10c38.598,0,69.999-31.402,69.999-69.999S274.198,120.004,235.601,120.004z"/>
<path d="M265.6,190.003c0-16.542-13.458-30-30-30s-30,13.458-30,30s13.458,30,30,30S265.6,206.545,265.6,190.003z M225.601,190.003
	c0-5.514,4.486-10,10-10c5.514,0,10,4.486,10,10c0,5.514-4.486,10-10,10C230.087,200.003,225.601,195.517,225.601,190.003z"/>
<g>
</g>
<g>
</g>
<g>
</g>
<g>
</g>
<g>
</g>
<g>
</g>
<g>
</g>
<g>
</g>
<g>
</g>
<g>
</g>
<g>
</g>
<g>
</g>
<g>
</g>
<g>
</g>
<g>
</g>
</svg>
