<?xml version="1.0" encoding="iso-8859-1"?>
<!-- Generator: Adobe Illustrator 19.0.0, SVG Export Plug-In . SVG Version: 6.00 Build 0)  -->
<svg version="1.1" id="Capa_1" xmlns="http://www.w3.org/2000/svg" xmlns:xlink="http://www.w3.org/1999/xlink" x="0px" y="0px"
	 viewBox="0 0 512 512" style="enable-background:new 0 0 512 512;" xml:space="preserve">
<path style="fill:#BF8BDE;" d="M386,362c11.05,0,20,8.95,20,20c0,11.04-8.96,20-20,20H206v-40H386z"/>
<g>
	<polygon style="fill:#FFFFFF;" points="246,90 246,230 266,290 346,290 366,230 366,90 	"/>
	<path style="fill:#FFFFFF;" d="M366,10v40c-24.401,0-91.556,0-120,0V10H366z"/>
</g>
<rect x="266" y="50" style="fill:#444B75;" width="80" height="40"/>
<path style="fill:#BF8BDE;" d="M246,110c22.09,0,40,17.91,40,40s-17.91,40-40,40c-22.101,0-40-17.919-40-40
	C206,127.898,223.919,110,246,110z"/>
<path style="fill:#444B75;" d="M386,462H126c0-15.489,0-217.017,0-232c0-33.14,26.86-60,60-60h25.35v-40H186
	c-55.23,0-100,44.77-100,100c0,8.576,0,257.462,0,272h340C426,479.91,408.09,462,386,462z"/>
<path style="fill:#FFFFFF;" d="M206,362v40c0,11.05-8.95,20-20,20h-60v-80h60C197.05,342,206,350.95,206,362z"/>
<path d="M326,220c-5.52,0-10,4.48-10,10s4.48,10,10,10s10-4.48,10-10S331.52,220,326,220z"/>
<path d="M256,150c0-5.52-4.48-10-10-10s-10,4.48-10,10s4.48,10,10,10S256,155.52,256,150z"/>
<path d="M166,392c5.52,0,10-4.48,10-10s-4.48-10-10-10s-10,4.48-10,10S160.48,392,166,392z"/>
<path d="M246,80c-5.522,0-10,4.478-10,10v11.023c-11.903,2.447-22.616,9.196-29.98,18.977H186c-60.654,0-110,49.346-110,110
	c0,9.264,0,248.973,0,262H46c-5.522,0-10,4.478-10,10s4.478,10,10,10h420c5.522,0,10-4.478,10-10s-4.478-10-10-10h-31.006
	c-4.646-22.795-24.847-40-48.994-40H136v-20h50c13.036,0,24.152-8.361,28.28-20H386c16.575,0,30-13.425,30-30
	c0-16.542-13.458-30-30-30H214.28c-4.128-11.639-15.243-20-28.28-20h-50V230c0-27.57,22.43-50,50-50h20.02
	c7.361,9.779,18.075,16.529,29.98,18.977V230c0,3.855,1.871,5.781,20.513,63.162c1.361,4.084,5.183,6.838,9.487,6.838h80
	c4.305,0,8.126-2.754,9.487-6.838C376.193,230.492,376,232.942,376,230V90c0-5.522-4.478-10-10-10h-10V60h10c5.522,0,10-4.478,10-10
	V10c0-5.522-4.478-10-10-10H246c-5.522,0-10,4.478-10,10v40c0,5.522,4.478,10,10,10h10v20H246z M414.28,492H96v-20
	c12.752,0,277.401,0,290,0C399.036,472,410.152,480.361,414.28,492z M396,382c0,5.52-4.479,10-10,10H216v-20h170
	C391.514,372,396,376.486,396,382z M196,362v40c0,5.514-4.486,10-10,10h-50v-60h50C191.514,352,196,356.486,196,362z M116,230
	c0,27.057,0,195.262,0,222H96V230c0-49.626,40.374-90.1,90-90.1h11.017c-0.668,3.28-1.017,6.729-1.017,10.1
	c0,3.37,0.348,6.72,1.017,10H186C147.401,160,116,191.402,116,230z M220.011,165.001C217.387,160.455,216,155.269,216,150
	s1.387-10.455,4.005-14.992C225.361,125.751,235.322,120,246,120c16.542,0,30,13.458,30,30s-13.458,30-30,30
	C235.322,180,225.361,174.249,220.011,165.001z M356,228.377L338.792,280h-65.584l-13.333-40H286c5.522,0,10-4.478,10-10
	s-4.478-10-10-10h-30v-21.006c22.795-4.646,40-24.847,40-48.994s-17.205-44.348-40-48.994V100h100V228.377z M256,20h100v20H256V20z
	 M276,60h60v20h-60V60z"/>
<g>
</g>
<g>
</g>
<g>
</g>
<g>
</g>
<g>
</g>
<g>
</g>
<g>
</g>
<g>
</g>
<g>
</g>
<g>
</g>
<g>
</g>
<g>
</g>
<g>
</g>
<g>
</g>
<g>
</g>
</svg>
