<?xml version="1.0" encoding="iso-8859-1"?>
<!-- Generator: Adobe Illustrator 19.0.0, SVG Export Plug-In . SVG Version: 6.00 Build 0)  -->
<svg version="1.1" id="Capa_1" xmlns="http://www.w3.org/2000/svg" xmlns:xlink="http://www.w3.org/1999/xlink" x="0px" y="0px"
	 viewBox="0 0 512 512" style="enable-background:new 0 0 512 512;" xml:space="preserve">
<path style="fill:#BF8BDE;" d="M456,90c0,3.58,0,158.7,0,165.39C456,408.74,335.04,441.11,256,502c-78.53-60.5-200-93.06-200-246.61
	c0-4.27,0-157.18,0-165.39c44.18,0,80-35.82,80-80c36.295,0,203.748,0,240,0C376,54.18,411.82,90,456,90z"/>
<path style="fill:#FFC342;" d="M256,96c77.2,0,140,62.8,140,140s-62.8,140-140,140s-140-62.8-140-140S178.8,96,256,96z"/>
<path d="M46,255.39c0,125.726,79.21,174.786,149.097,218.071c19.606,12.145,38.126,23.614,54.801,36.461
	c1.798,1.386,3.95,2.078,6.103,2.078s4.305-0.692,6.103-2.078c16.8-12.941,35.379-24.466,55.049-36.666
	C388.89,428.759,466,380.338,466,255.39V90c0-0.01-0.001-0.02-0.001-0.03S466,89.95,466,89.94c0-5.522-4.478-10-10-10
	c-0.265,0-0.525,0.02-0.785,0.04C416.979,79.556,386,48.334,386,10c0-5.522-4.478-10-10-10H136c-5.522,0-10,4.478-10,10
	c0,38.598-31.402,70-70,70c-5.522,0-10,4.478-10,10V255.39z M66,99.448c41.652-4.626,74.822-37.796,79.448-79.448h221.104
	c4.626,41.652,37.796,74.822,79.448,79.448V255.39c0,114.413-70.862,158.365-139.391,200.87
	c-17.037,10.567-34.587,21.453-50.61,33.229c-15.918-11.691-33.4-22.52-50.371-33.031C136.982,413.941,66,369.978,66,255.39V99.448z
	"/>
<path d="M256,386c82.71,0,150-67.29,150-150S338.71,86,256,86s-150,67.29-150,150S173.29,386,256,386z M256,106
	c71.683,0,130,58.317,130,130s-58.317,130-130,130s-130-58.317-130-130S184.317,106,256,106z"/>
<path d="M256,286.71c-11.028,0-20-8.972-20-20c0-5.522-4.478-10-10-10s-10,4.478-10,10c0,18.604,12.767,34.282,30,38.734v11.266
	c0,5.522,4.478,10,10,10s10-4.478,10-10v-11.266c17.233-4.452,30-20.13,30-38.734c0-20.164-18.766-30.084-35.323-38.835
	C245.771,219.995,236,214.266,236,206.71c0-11.028,8.972-20,20-20c11.028,0,20,8.972,20,20c0,5.522,4.478,10,10,10s10-4.478,10-10
	c0-18.604-12.767-34.282-30-38.734V156.71c0-5.522-4.478-10-10-10s-10,4.478-10,10v11.266c-17.233,4.452-30,20.13-30,38.734
	c0,20.172,18.771,30.093,35.331,38.847C266.232,253.434,276,259.161,276,266.71C276,277.738,267.028,286.71,256,286.71z"/>
<g>
</g>
<g>
</g>
<g>
</g>
<g>
</g>
<g>
</g>
<g>
</g>
<g>
</g>
<g>
</g>
<g>
</g>
<g>
</g>
<g>
</g>
<g>
</g>
<g>
</g>
<g>
</g>
<g>
</g>
</svg>
