<?xml version="1.0" encoding="iso-8859-1"?>
<!-- Generator: Adobe Illustrator 19.0.0, SVG Export Plug-In . SVG Version: 6.00 Build 0)  -->
<svg version="1.1" id="Capa_1" xmlns="http://www.w3.org/2000/svg" xmlns:xlink="http://www.w3.org/1999/xlink" x="0px" y="0px"
	 viewBox="0 0 512 512" style="enable-background:new 0 0 512 512;" xml:space="preserve">
<path style="fill:#ED589D;" d="M482,246h-28.8c-4.29-24.04-13.69-46.28-26.92-65.69L456,106c-27.69,0-52.07,14.08-66.44,35.45
	c-15.87-12.27-33.95-21.82-53.56-27.9l-2.2-0.06l-135.39,0.74h-0.01l-2.41,0.67c-65.14,21.28-115.02,78.72-119.62,149.78
	C71.6,338.37,113.85,402.75,176,430.89V466c0,11.04,8.95,20,20,20h20c11.05,0,20-8.96,20-20v-20.52c3.33,0.19,6.62,0.52,10,0.52h40
	c10.25,0,20.25-0.97,30-2.71V466c0,11.04,8.95,20,20,20h20c11.05,0,20-8.96,20-20v-45.81c34.27-21.45,60.38-54.75,72.5-94.19H482
	c11.05,0,20-8.96,20-20v-40C502,254.95,493.05,246,482,246z"/>
<path style="fill:#444B75;" d="M376,226c11.05,0,20,8.95,20,20c0,11.05-8.95,20-20,20s-20-8.95-20-20C356,234.95,364.95,226,376,226
	z"/>
<path style="fill:#FFC342;" d="M336,96c0,38.664-31.34,70-70,70c-32.35,0-59.58-21.95-67.59-51.77h-0.01
	c-1.57-5.81-2.4-11.92-2.4-18.23c0-38.66,31.34-70,70-70S336,57.34,336,96z"/>
<path d="M126,266c0-5.52-4.48-10-10-10s-10,4.48-10,10s4.48,10,10,10S126,271.52,126,266z"/>
<path d="M482,236h-20.626c-4.577-20.146-12.581-39.209-23.866-56.835l27.777-69.451c1.232-3.081,0.856-6.572-1.004-9.32
	S459.318,96,456,96c-26.531,0-51.441,11.646-68.461,31.597c-13.108-9.029-27.239-16.226-42.177-21.481
	C345.786,102.764,346,99.384,346,96c0-44.112-35.888-80-80-80s-80,35.888-80,80c0,3.863,0.285,7.702,0.83,11.491
	c-66.437,24.173-115.741,83.981-120.439,156.543c-0.241,3.716-0.364,7.422-0.381,11.115c-12.35-2.005-24.922-7.35-31.366-13.788
	C25.201,251.91,20,239.352,20,226c0-13.124,5.1-25.819,14.641-35.358c3.905-3.905,3.905-10.237,0-14.143
	c-3.905-3.904-10.237-3.904-14.143,0C7.701,189.298,0,206.864,0,226c0,18.69,7.279,36.269,20.502,49.504
	c11.753,11.742,30.774,18.148,46.541,19.955c2.84,26.425,11.471,51.798,25.531,74.648c17.824,28.968,43.121,52.06,73.427,67.105V466
	c0,16.542,13.458,30,30,30h20c16.542,0,30-13.458,30-30v-10h40c6.586,0,13.277-0.385,20-1.148V466c0,16.542,13.458,30,30,30h20
	c16.542,0,30-13.458,30-30v-40.373c32.368-21.673,56.826-53.128,69.727-89.627H482c16.542,0,30-13.458,30-30v-40
	C512,249.458,498.542,236,482,236z M266,36c33.084,0,60,26.916,60,60c0,33.378-27.022,60-60,60c-33.035,0-60-26.793-60-60
	C206,62.916,232.916,36,266,36z M492,306c0,5.514-4.486,10-10,10h-33.5c-4.391,0-8.269,2.865-9.559,7.063
	c-11.271,36.676-35.508,68.159-68.247,88.651c-2.92,1.828-4.694,5.031-4.694,8.477V466c0,5.514-4.486,10-10,10h-20
	c-5.514,0-10-4.486-10-10v-22.71c0-2.96-1.311-5.768-3.58-7.667c-2.27-1.899-5.263-2.698-8.177-2.178
	C304.747,435.141,295.244,436,286,436c-43.262-0.143-38.279,0.261-46.325-0.3c-1.035-0.072-2.069-0.145-3.107-0.203
	c-2.745-0.167-5.435,0.825-7.435,2.714c-2,1.89-3.133,4.519-3.133,7.27V466c0,5.514-4.486,10-10,10h-20c-5.514,0-10-4.486-10-10
	v-35.11c0-3.927-2.298-7.49-5.875-9.109c-61.321-27.765-98.13-89.177-93.775-156.454c4.03-62.251,45.278-115.875,105.821-138.49
	c4.738,11.356,11.98,21.268,20.953,29.164H196c-5.523,0-10,4.478-10,10s4.477,10,10,10h140c5.523,0,10-4.478,10-10s-4.477-10-10-10
	h-17.073c9.287-8.184,16.715-18.533,21.434-30.426c15.447,5.625,29.911,13.603,43.082,23.788c2.189,1.692,4.981,2.401,7.713,1.961
	c2.731-0.442,5.158-1.996,6.702-4.292c10.12-15.05,25.442-25.401,42.682-29.305l-23.545,58.87c-1.236,3.092-0.854,6.595,1.021,9.346
	c12.861,18.869,21.387,39.667,25.339,61.815c0.851,4.77,4.999,8.243,9.844,8.243H482c5.514,0,10,4.486,10,10V306z"/>
<path d="M196.616,385.331c-34.426-15.591-59.016-45.382-67.465-81.734c-1.25-5.379-6.625-8.725-12.004-7.477
	c-5.379,1.25-8.727,6.625-7.477,12.004c9.869,42.465,38.553,77.246,78.695,95.426c5.031,2.28,10.957,0.047,13.235-4.984
	C203.878,393.535,201.646,387.609,196.616,385.331z"/>
<path d="M376,216c-16.542,0-30,13.458-30,30s13.458,30,30,30s30-13.458,30-30S392.542,216,376,216z M376,256
	c-5.514,0-10-4.486-10-10s4.486-10,10-10s10,4.486,10,10S381.514,256,376,256z"/>
<path d="M266,126c5.523,0,10-4.478,10-10V76c0-5.522-4.477-10-10-10s-10,4.478-10,10v40C256,121.522,260.477,126,266,126z"/>
<g>
</g>
<g>
</g>
<g>
</g>
<g>
</g>
<g>
</g>
<g>
</g>
<g>
</g>
<g>
</g>
<g>
</g>
<g>
</g>
<g>
</g>
<g>
</g>
<g>
</g>
<g>
</g>
<g>
</g>
</svg>
