<?xml version="1.0" encoding="iso-8859-1"?>
<!-- Generator: Adobe Illustrator 19.0.0, SVG Export Plug-In . SVG Version: 6.00 Build 0)  -->
<svg version="1.1" id="Capa_1" xmlns="http://www.w3.org/2000/svg" xmlns:xlink="http://www.w3.org/1999/xlink" x="0px" y="0px"
	 viewBox="0 0 512 512" style="enable-background:new 0 0 512 512;" xml:space="preserve">
<path style="fill:#BF8BDE;" d="M502,70v372c0,33.14-26.86,60-60,60H70c-33.14,0-60-26.86-60-60V70c0-33.14,26.86-60,60-60h372
	C475.14,10,502,36.86,502,70z"/>
<path style="fill:#FFC342;" d="M436.14,75.86C432.52,72.24,427.52,70,422,70c-17.691,0-313.429,0-332,0
	c-5.52,0-10.52,2.24-14.14,5.86C72.24,79.48,70,84.48,70,90c0,18.447,0,313.553,0,332c0,5.52,2.24,10.52,5.86,14.14
	C79.48,439.76,84.48,442,90,442c18.447,0,313.553,0,332,0c5.52,0,10.52-2.24,14.14-5.86c3.62-3.62,5.86-8.62,5.86-14.14
	c0-18.447,0-313.553,0-332C442,84.48,439.76,79.48,436.14,75.86z"/>
<path style="fill:#FFFFFF;" d="M110,110c0,16.2,0,275.8,0,292c16.2,0,275.8,0,292,0c0-16.2,0-275.8,0-292
	C390.096,110,120.155,110,110,110z"/>
<path style="fill:#FFEE8D;" d="M256,236c11.05,0,20,8.95,20,20c0,5.52-2.24,10.52-5.86,14.14c-3.62,3.62-8.62,5.86-14.14,5.86
	c-11.05,0-20-8.95-20-20C236,244.95,244.95,236,256,236z"/>
<path d="M170,120c5.52,0,10-4.48,10-10s-4.48-10-10-10s-10,4.48-10,10S164.48,120,170,120z"/>
<path d="M256,286c4.552,0,8.948-1.01,12.937-2.921l39.992,39.992c3.906,3.905,10.237,3.905,14.142,0s3.906-10.237,0-14.143
	l-39.992-39.992c1.91-3.989,2.921-8.385,2.921-12.936c0-13.036-8.361-24.152-20-28.28V150c0-5.522-4.477-10-10-10s-10,4.478-10,10
	v77.72c-11.639,4.128-20,15.243-20,28.28C226,272.542,239.458,286,256,286z M253.59,246.306c0.773,0.192,1.577,0.305,2.41,0.305
	s1.636-0.113,2.41-0.305c4.352,1.083,7.59,5.013,7.59,9.694c0,2.668-1.041,5.179-2.931,7.068c-1.89,1.891-4.401,2.932-7.069,2.932
	c-5.514,0-10-4.486-10-10C246,251.318,249.239,247.389,253.59,246.306z"/>
<path d="M442,0H70C31.402,0,0,31.402,0,70v372c0,38.598,31.402,70,70,70h372c38.598,0,70-31.402,70-70V70
	C512,31.402,480.598,0,442,0z M492,442c0,27.57-22.43,50-50,50H70c-27.57,0-50-22.43-50-50V70c0-27.57,22.43-50,50-50h372
	c27.57,0,50,22.43,50,50V442z"/>
<path d="M422,60H90c-16.559,0-30,13.424-30,30v332c0,8.01,3.121,15.542,8.789,21.211C74.457,448.879,81.99,452,90,452h332
	c16.333,0,30-13.21,30-30V90C452,73.425,438.576,60,422,60z M412,114.142l20-20V246h-20V114.142z M397.858,100H266V80h151.858
	L397.858,100z M246,100h-36c-5.523,0-10,4.478-10,10s4.477,10,10,10h182v272H120V120h10c5.523,0,10-4.478,10-10s-4.477-10-10-10
	h-15.858l-20-20H246V100z M100,114.142V246H80V94.142L100,114.142z M80,266h20v131.858l-20,20V266z M114.142,412H246v20H94.142
	L114.142,412z M266,412h131.858l20,20H266V412z M412,397.858V266h20v151.858L412,397.858z"/>
<g>
</g>
<g>
</g>
<g>
</g>
<g>
</g>
<g>
</g>
<g>
</g>
<g>
</g>
<g>
</g>
<g>
</g>
<g>
</g>
<g>
</g>
<g>
</g>
<g>
</g>
<g>
</g>
<g>
</g>
</svg>
