<?xml version="1.0" encoding="iso-8859-1"?>
<!-- Generator: Adobe Illustrator 19.0.0, SVG Export Plug-In . SVG Version: 6.00 Build 0)  -->
<svg version="1.1" id="Capa_1" xmlns="http://www.w3.org/2000/svg" xmlns:xlink="http://www.w3.org/1999/xlink" x="0px" y="0px"
	 viewBox="0 0 512 512" style="enable-background:new 0 0 512 512;" xml:space="preserve">
<path style="fill:#FFC342;" d="M56,380v62c0,33.14,44.77,60,100,60s100-26.86,100-60c0,33.14,44.77,60,100,60s100-26.86,100-60
	c0-11.05,0-14.73,0-14.73V380H56z"/>
<path style="fill:#FFEE8D;" d="M56,318v62c0,33.14,44.77,60,100,60s100-26.86,100-60c0,33.14,44.77,60,100,60s100-26.86,100-60v-62
	H56z"/>
<path style="fill:#FFC342;" d="M56,256v62c0,33.14,44.77,60,100,60s100-26.86,100-60c0,33.14,44.77,60,100,60s100-26.86,100-60v-62
	H56z"/>
<path style="fill:#FFEE8D;" d="M56,194v62c0,33.14,44.77,60,100,60s100-26.86,100-60c0,33.14,44.77,60,100,60s100-26.86,100-60v-62
	H56z"/>
<g>
	<path style="fill:#FFC342;" d="M356,134c55.23,0,100,26.86,100,60s-44.77,60-100,60s-100-26.86-100-60S300.77,134,356,134z"/>
	<path style="fill:#FFC342;" d="M56,132v62c0,33.14,44.77,60,100,60s100-26.86,100-60v-62H56z"/>
</g>
<path style="fill:#FFEE8D;" d="M56,70v62c0,33.14,44.77,60,100,60s100-26.86,100-60V70H56z"/>
<path style="fill:#FFC342;" d="M156,10c55.23,0,100,26.86,100,60s-44.77,60-100,60S56,103.14,56,70S100.77,10,156,10z"/>
<path d="M336,184c5.52,0,10-4.48,10-10s-4.48-10-10-10s-10,4.48-10,10S330.48,184,336,184z"/>
<path d="M136,60c5.52,0,10-4.48,10-10s-4.48-10-10-10s-10,4.48-10,10S130.48,60,136,60z"/>
<path d="M431.856,142.998C411.438,130.747,384.498,124,356,124c-31.621,0-67.025,8.717-90,29.346V70
	c0-19.679-12.126-37.792-34.144-51.002C211.437,6.747,184.498,0,156,0s-55.438,6.747-75.856,18.998C58.126,32.208,46,50.321,46,70
	v372c0,19.679,12.126,37.792,34.144,51.002C100.562,505.253,127.502,512,156,512c36.134,0,79.546-11.983,100-40.371
	C276.337,499.855,319.539,512,356,512c28.498,0,55.438-6.747,75.856-18.998C453.874,479.792,466,461.679,466,442V194
	C466,174.321,453.874,156.208,431.856,142.998z M446,380c0,27.103-41.215,50-90,50s-90-22.897-90-50v-21.346
	C288.962,379.271,324.306,388,356,388c31.621,0,67.025-8.717,90-29.346V380z M246,132c0,27.103-41.215,50-90,50s-90-22.897-90-50
	v-21.347C88.962,131.27,124.296,140,156,140c28.498,0,55.437-6.747,75.856-18.998c5.3-3.18,10.021-6.647,14.144-10.349V132z
	 M156,202c31.584,0,67.007-8.702,90-29.347V194c0,27.103-41.215,50-90,50s-90-22.897-90-50v-21.347
	C88.962,193.27,124.296,202,156,202z M156,264c31.584,0,67.007-8.702,90-29.347V256c0,27.103-41.215,50-90,50s-90-22.897-90-50
	v-21.347C88.962,255.27,124.296,264,156,264z M156,326c31.584,0,67.007-8.702,90-29.347V318c0,27.103-41.215,50-90,50
	s-90-22.897-90-50v-21.347C88.962,317.27,124.296,326,156,326z M66,358.653C88.962,379.27,124.296,388,156,388
	c31.584,0,67.007-8.702,90-29.347V380c0,27.103-41.215,50-90,50s-90-22.897-90-50V358.653z M446,318c0,27.103-41.215,50-90,50
	s-90-22.897-90-50v-21.346C288.962,317.271,324.306,326,356,326c31.621,0,67.025-8.717,90-29.346V318z M446,256
	c0,27.103-41.215,50-90,50s-90-22.897-90-50v-21.346C288.962,255.271,324.306,264,356,264c31.621,0,67.025-8.717,90-29.346V256z
	 M356,144c48.785,0,90,22.897,90,50s-41.215,50-90,50s-90-22.897-90-50S307.215,144,356,144z M156,20c48.785,0,90,22.897,90,50
	s-41.215,50-90,50S66,97.103,66,70S107.215,20,156,20z M156,492c-48.785,0-90-22.897-90-50v-21.347
	C88.962,441.27,124.296,450,156,450c31.584,0,67.007-8.702,90-29.347V442C246,469.103,204.785,492,156,492z M356,492
	c-48.785,0-90-22.897-90-50v-21.346C288.962,441.271,324.306,450,356,450c31.621,0,67.025-8.717,90-29.346V442
	C446,469.103,404.785,492,356,492z"/>
<path d="M356,224c39.641,0,64.92-16.378,69.067-24.733c1.205-2.427,1.373-5.239,0.467-7.793
	c-3.83-10.785-24.437-21.852-47.932-25.74c-5.455-0.895-10.597,2.785-11.499,8.233c-0.901,5.448,2.784,10.597,8.233,11.499
	c11.942,1.977,20.716,5.602,26.215,8.728C392.319,198.548,377.368,204,356,204c-24.653,0-40.154-7.198-47.074-11.789
	c0.729-2.889,0.163-6.071-1.811-8.602c-3.397-4.356-9.683-5.132-14.035-1.734c-2.974,2.319-4.973,4.538-6.11,6.784
	c-1.236,2.44-1.42,5.281-0.506,7.86C290.546,208.04,316.981,224,356,224z"/>
<path d="M156,100c39.643,0,64.921-16.379,69.067-24.734c1.205-2.427,1.373-5.238,0.466-7.792
	c-3.83-10.785-24.436-21.851-47.93-25.74c-5.441-0.896-10.597,2.785-11.499,8.233s2.784,10.597,8.233,11.499
	c11.942,1.977,20.715,5.602,26.214,8.728C192.319,74.548,177.37,80,156,80c-24.655,0-40.155-7.198-47.074-11.79
	c0.728-2.889,0.163-6.071-1.812-8.602c-3.397-4.354-9.681-5.13-14.036-1.732c-2.975,2.32-4.973,4.541-6.11,6.787
	c-1.235,2.439-1.417,5.278-0.504,7.855C90.545,84.04,116.98,100,156,100z"/>
<g>
</g>
<g>
</g>
<g>
</g>
<g>
</g>
<g>
</g>
<g>
</g>
<g>
</g>
<g>
</g>
<g>
</g>
<g>
</g>
<g>
</g>
<g>
</g>
<g>
</g>
<g>
</g>
<g>
</g>
</svg>
