<?xml version="1.0" encoding="iso-8859-1"?>
<!-- Generator: Adobe Illustrator 19.0.0, SVG Export Plug-In . SVG Version: 6.00 Build 0)  -->
<svg version="1.1" id="Capa_1" xmlns="http://www.w3.org/2000/svg" xmlns:xlink="http://www.w3.org/1999/xlink" x="0px" y="0px"
	 viewBox="0 0 512 512" style="enable-background:new 0 0 512 512;" xml:space="preserve">
<path style="fill:#BF8BDE;" d="M482,46H196c-11.05,0-20,8.95-20,20v120l160,80h146c11.05,0,20-8.95,20-20V66
	C502,54.95,493.05,46,482,46z"/>
<path style="fill:#FFC342;" d="M336,386c0,11.05-8.95,20-20,20H147.88L70,466v-60H30c-11.05,0-20-8.95-20-20V206
	c0-11.05,8.95-20,20-20c15.647,0,270.264,0,286,0c11.05,0,20,8.95,20,20C336,216.627,336,376.108,336,386z"/>
<path d="M442,176c-5.52,0-10,4.48-10,10s4.48,10,10,10s10-4.48,10-10S447.52,176,442,176z"/>
<path d="M276,316c-5.52,0-10,4.48-10,10s4.48,10,10,10s10-4.48,10-10S281.52,316,276,316z"/>
<path d="M276,256H70c-5.522,0-10,4.478-10,10s4.478,10,10,10h206c5.522,0,10-4.478,10-10S281.522,256,276,256z"/>
<path d="M236,316H70c-5.522,0-10,4.478-10,10s4.478,10,10,10h166c5.522,0,10-4.478,10-10S241.522,316,236,316z"/>
<path d="M482,36H196c-16.542,0-30,13.458-30,30v110H30c-16.542,0-30,13.458-30,30v180c0,16.542,13.458,30,30,30h30v50
	c0,3.812,2.166,7.291,5.586,8.973c3.417,1.683,7.501,1.274,10.517-1.051L151.285,416H316c16.542,0,30-13.458,30-30V276h136
	c16.542,0,30-13.458,30-30V66C512,49.458,498.542,36,482,36z M326,386c0,5.514-4.486,10-10,10H147.88
	c-2.208,0-4.354,0.73-6.103,2.078L80,445.672V406c0-5.522-4.478-10-10-10H30c-5.514,0-10-4.486-10-10V206c0-5.514,4.486-10,10-10
	h286c5.514,0,10,4.486,10,10V386z M492,246c0,5.514-4.486,10-10,10H346v-50c0-3.506-0.61-6.87-1.72-10H402c5.522,0,10-4.478,10-10
	s-4.478-10-10-10c-8.024,0-208.025,0-216,0V66c0-5.514,4.486-10,10-10h286c5.514,0,10,4.486,10,10V246z"/>
<path d="M442,116H236c-5.522,0-10,4.478-10,10c0,5.522,4.478,10,10,10h206c5.522,0,10-4.478,10-10C452,120.478,447.522,116,442,116z
	"/>
<g>
</g>
<g>
</g>
<g>
</g>
<g>
</g>
<g>
</g>
<g>
</g>
<g>
</g>
<g>
</g>
<g>
</g>
<g>
</g>
<g>
</g>
<g>
</g>
<g>
</g>
<g>
</g>
<g>
</g>
</svg>
