<svg id="Capa_1" enable-background="new 0 0 512 512" height="512" viewBox="0 0 512 512" width="512" xmlns="http://www.w3.org/2000/svg"><g><g><path d="m343.25 437c0 20.711-16.789 37.5-37.5 37.5h-213c-20.711 0-37.5-16.789-37.5-37.5v-392c0-20.711 16.789-37.5 37.5-37.5h213c20.711 0 37.5 16.789 37.5 37.5z" fill="#f8f7f7"/><path d="m338.37 455.5c-6.44 11.34-18.64 19-32.62 19h-213c-20.71 0-37.5-16.79-37.5-37.5v-392c0-13.98 7.65-26.18 19-32.62v424.62c0 10.2 8.3 18.5 18.5 18.5z" fill="#e8e8e8"/><path d="m292.75 276.5h-187c-8.284 0-15-6.716-15-15v-174c0-8.284 6.716-15 15-15h187c8.284 0 15 6.716 15 15v174c0 8.284-6.716 15-15 15z" fill="#94d8e6"/><path d="m456.75 399.5c0-54.927-42.175-100.003-95.907-104.612-2.997-.257-6.03.203-9.093.203-57.99 0-101.722 46.418-101.722 104.408s43.79 104.05 101.78 104.05c3.097 0 6.105.816 9.133.553 53.685-4.654 95.809-49.709 95.809-104.602z" fill="#9e959e"/><path d="m361.75 504.02c-3.29.32-6.63.48-10 .48-57.99 0-105-47.01-105-105s47.01-105 105-105c3.37 0 6.71.16 10 .48-53.3 5.03-95 49.9-95 104.52s41.7 99.49 95 104.52z" fill="#8e868e"/><path d="m348.752 364.208c1.693 1.596 4.35 1.549 6.052-.038 6.065-5.654 14.275-9.118 23.256-9.092 18.418.055 33.448 15.178 33.187 33.355-.349 24.296-26.587 45.042-44.099 56.203-5.899 3.759-10.795 5.267-13.391 6.62-1.254.654-2.745.67-4.014.044-10.48-5.171-56.684-28.652-56.009-62.136.329-16.292 11.428-31.319 27.385-33.73 1.483-.224 2.996-.346 4.53-.356 8.983-.063 17.097 3.468 23.103 9.13z" fill="#df646e"/><path d="m367.15 444.64c-5.9 3.76-10.81 6.43-13.41 7.78-1.25.65-2.74.67-4.01.04-10.48-5.17-58.15-30.54-57.47-64.03.33-16.29 12.91-30.58 28.86-32.99-7.07 6.2-11.66 15.24-11.86 24.99-.68 33.49 46.99 58.86 57.47 64.03.14.07.28.13.42.18z" fill="#dc4955"/><g><path d="m181.182 104.803 18.964 6.46 19.139-5.92c2.348-.726 4.898.142 6.314 2.151l11.545 16.373 18.964 6.46c2.327.793 3.879 2.994 3.844 5.452l-.284 20.032 11.545 16.373c1.417 2.009 1.378 4.702-.095 6.67l-12.004 16.039-.284 20.032c-.035 2.458-1.648 4.614-3.997 5.34l-19.139 5.92-12.004 16.039c-1.473 1.968-4.046 2.764-6.373 1.971l-18.964-6.46-19.139 5.92c-2.348.726-4.898-.142-6.314-2.151l-11.545-16.373-18.964-6.46c-2.327-.793-3.879-2.994-3.844-5.452l.284-20.032-11.545-16.373c-1.417-2.009-1.378-4.702.095-6.67l12.004-16.039.284-20.032c.035-2.458 1.648-4.614 3.997-5.34l19.139-5.92 12.004-16.039c1.474-1.967 4.046-2.763 6.373-1.971z" fill="#d6ccf2"/><circle cx="198.979" cy="174.584" fill="#bae6ef" r="17.023"/></g></g><g><path d="m212.25 30h-50c-4.143 0-7.5 3.358-7.5 7.5s3.357 7.5 7.5 7.5h50c4.143 0 7.5-3.358 7.5-7.5s-3.357-7.5-7.5-7.5z"/><path d="m171.287 72.584c0 4.142 3.357 7.5 7.5 7.5h113.691c4.136 0 7.5 3.364 7.5 7.5v64.522c0 4.142 3.357 7.5 7.5 7.5s7.5-3.358 7.5-7.5v-64.522c0-12.407-10.094-22.5-22.5-22.5h-113.691c-4.142 0-7.5 3.358-7.5 7.5z"/><path d="m143.766 65.084h-38.287c-12.406 0-22.5 10.093-22.5 22.5v174c0 12.407 10.094 22.5 22.5 22.5h187c12.406 0 22.5-10.093 22.5-22.5v-74.329c0-4.142-3.357-7.5-7.5-7.5s-7.5 3.358-7.5 7.5v74.329c0 4.136-3.364 7.5-7.5 7.5h-187c-4.136 0-7.5-3.364-7.5-7.5v-174c0-4.136 3.364-7.5 7.5-7.5h38.287c4.143 0 7.5-3.358 7.5-7.5s-3.358-7.5-7.5-7.5z"/><path d="m159.75 313h-69c-4.143 0-7.5 3.358-7.5 7.5s3.357 7.5 7.5 7.5h69c4.143 0 7.5-3.358 7.5-7.5s-3.357-7.5-7.5-7.5z"/><path d="m90.75 378h29c4.143 0 7.5-3.358 7.5-7.5s-3.357-7.5-7.5-7.5h-29c-4.143 0-7.5 3.358-7.5 7.5s3.357 7.5 7.5 7.5z"/><path d="m142.25 370.5c0 4.142 3.357 7.5 7.5 7.5h49c4.143 0 7.5-3.358 7.5-7.5s-3.357-7.5-7.5-7.5h-49c-4.143 0-7.5 3.358-7.5 7.5z"/><path d="m90.75 408h110c4.143 0 7.5-3.358 7.5-7.5s-3.357-7.5-7.5-7.5h-110c-4.143 0-7.5 3.358-7.5 7.5s3.357 7.5 7.5 7.5z"/><path d="m351.75 287c-.334 0-.667.01-1 .013v-242.013c0-24.813-20.187-45-45-45h-213c-24.813 0-45 20.187-45 45v324.213c0 4.142 3.357 7.5 7.5 7.5s7.5-3.358 7.5-7.5v-324.213c0-16.542 13.458-30 30-30h213c16.542 0 30 13.458 30 30v243.143c-54.481 7.792-96.5 54.756-96.5 111.357 0 8.058.859 15.918 2.477 23.5h-150.977c-4.143 0-7.5 3.358-7.5 7.5s3.357 7.5 7.5 7.5h155.288c3.829 10.48 9.175 20.235 15.769 29h-169.057c-16.542 0-30-13.458-30-30v-32.809c0-4.142-3.357-7.5-7.5-7.5s-7.5 3.358-7.5 7.5v32.809c0 24.813 20.187 45 45 45h182.602c20.078 18.606 46.93 30 76.398 30 35.813 0 68.671-16.469 90.146-45.185 2.481-3.317 1.803-8.017-1.514-10.498-3.319-2.48-8.018-1.802-10.498 1.515-18.615 24.892-47.095 39.168-78.134 39.168-53.762 0-97.5-43.738-97.5-97.5s43.738-97.5 97.5-97.5 97.5 43.738 97.5 97.5c0 10.099-1.535 20.047-4.563 29.571-1.255 3.947.928 8.165 4.875 9.42 3.946 1.253 8.164-.928 9.42-4.875 3.496-10.995 5.269-22.474 5.269-34.116-.001-62.033-50.468-112.5-112.501-112.5z"/><path d="m351.766 356.874c-7.321-6.019-16.398-9.296-25.878-9.296-21.148-.11-40.795 18.677-41.129 40.706-.75 37.198 47 63.677 61.653 70.906 1.659.819 3.471 1.228 5.281 1.228 1.898 0 3.796-.449 5.518-1.346 14.305-7.457 61.019-34.581 61.535-70.529.779-21.045-18.433-41.452-40.791-40.963-9.619-.001-18.814 3.278-26.189 9.294zm51.982 31.452c-.311 21.579-27.938 43.839-52.092 56.716-24.541-12.406-52.347-34.325-51.901-56.457.153-13.533 12.358-25.99 26.131-26.008 6.581 0 12.869 2.513 17.722 7.088 0 0 .001 0 .001.001 4.547 4.284 11.71 4.279 16.31-.01 4.898-4.566 11.302-7.078 18.038-7.078 12.754-.294 26.221 11.352 25.791 25.748z"/><path d="m132.171 133.968-.25 17.595-10.542 14.087c-3.433 4.583-3.521 10.808-.222 15.487l10.141 14.381-.249 17.594c-.082 5.725 3.504 10.812 8.925 12.659l16.656 5.674 10.142 14.382c3.298 4.677 9.188 6.686 14.66 4.994l16.811-5.2 16.656 5.674c1.404.479 2.843.709 4.265.709 4.065 0 7.989-1.89 10.532-5.286l10.543-14.088 16.812-5.2c5.471-1.692 9.2-6.675 9.279-12.399l.25-17.595 10.542-14.087c3.433-4.583 3.521-10.808.222-15.487l-10.141-14.381.249-17.594c.082-5.725-3.504-10.812-8.925-12.659l-16.656-5.674-10.142-14.382c-3.298-4.678-9.188-6.687-14.66-4.994l-16.811 5.2-16.657-5.674c-5.417-1.845-11.364-.007-14.796 4.577l-10.543 14.088-16.812 5.2c-5.471 1.692-9.2 6.676-9.279 12.399zm58.737 98.221-12.642 3.911-10.78-15.289c-.913-1.294-2.212-2.267-3.712-2.778l-17.707-6.032.188-13.258 32.64-10.096c2.723 3.569 6.517 7.266 12.354 9.205zm10.886-48.508c-2.43.752-5.008.513-7.259-.675-2.249-1.187-3.901-3.178-4.653-5.608s-.512-5.007.675-7.257 3.178-3.903 5.608-4.654c.929-.288 1.88-.43 2.825-.43 1.527 0 3.042.372 4.432 1.105 2.25 1.187 3.902 3.179 4.654 5.608.752 2.43.513 5.008-.675 7.258-1.186 2.249-3.177 3.902-5.607 4.653zm49.556 29.812-17.872 5.528c-1.513.468-2.839 1.403-3.788 2.671l-11.209 14.978-12.573-4.283.34-34.383c5.053-1.568 9.347-4.669 12.428-8.851l32.862 11.099zm-11.481-80.774 12.564 4.28-.265 18.706c-.022 1.584.457 3.134 1.369 4.428l10.781 15.289-7.954 10.627-32.862-11.098c-.017-4.025-.912-9.245-4.498-14.508zm-59.849-20.388 17.709 6.033c1.499.51 3.122.534 4.635.065l17.871-5.528 7.632 10.824-20.839 27.691c-4.907-1.717-10.213-1.826-15.274-.266l-19.693-28.185zm-33.135 41.882.266-18.706 12.643-3.911 19.678 28.162c-2.451 3.036-4.851 8.654-5.019 14.561l-32.631 10.094-7.64-10.835 11.21-14.978c.947-1.268 1.47-2.804 1.493-4.387z"/><circle cx="237.25" cy="37.503" r="7.5"/></g></g></svg>