<svg id="Capa_1" enable-background="new 0 0 512 512" height="512" viewBox="0 0 512 512" width="512" xmlns="http://www.w3.org/2000/svg"><g><g><path d="m48.75 396.362c-20.711 0-37.5-16.789-37.5-37.5l.729-207.16c0-12.268 1.412-25.362 10.52-32.204 6.267-4.708 14.058-7.498 22.501-7.498h422c20.711 0 37.5 16.789 37.5 37.5v219c0 6.481-1.644 11.99-4.538 16.501-6.354 9.905-22.009 12.382-36.239 12.382z" fill="#8e868e"/><path d="m499.96 385c-6.35 9.9-18.73 15-32.96 15h-422c-20.71 0-37.5-16.79-37.5-37.5v-213c0-12.27 5.89-23.16 15-30v243c0 12.41 10.09 22.5 22.5 22.5z" fill="#766d78"/><path d="m464.5 141.5h-417c-5.523 0-10 4.477-10 10v27.972c0 5.015 2.507 9.699 6.679 12.481l16.641 11.094c4.173 2.782 6.679 7.465 6.679 12.481v79.944c0 5.015-2.507 9.699-6.679 12.481l-16.641 11.094c-4.173 2.782-6.679 7.465-6.679 12.481v27.972c0 5.523 4.477 10 10 10h417c5.523 0 10-4.477 10-10v-208c0-5.523-4.477-10-10-10z" fill="#f8f7f7"/><path d="m331.5 256c0-39.444-30.247-71.823-68.812-75.208-2.204-.193-4.434.084-6.688.084-41.697 0-74.064 33.784-74.064 75.482s32.367 74.422 74.064 74.422c2.236 0 4.45.623 6.637.432 38.589-3.361 68.863-35.751 68.863-75.212z" fill="#b3e59f"/><path d="m263.5 331.13c-2.47.25-4.97.37-7.5.37-41.7 0-75.5-33.8-75.5-75.5s33.8-75.5 75.5-75.5c2.53 0 5.03.12 7.5.37-38.18 3.76-68 35.96-68 75.13s29.82 71.37 68 75.13z" fill="#95d6a4"/></g><g><path d="m138.873 392.5h-93.873c-16.542 0-30-13.458-30-30v-213c0-16.542 13.458-30 30-30h303.042c4.142 0 7.5-3.358 7.5-7.5s-3.358-7.5-7.5-7.5h-303.042c-24.813 0-45 20.187-45 45v213c0 24.813 20.187 45 45 45h93.873c4.142 0 7.5-3.358 7.5-7.5s-3.358-7.5-7.5-7.5z"/><path d="m467 104.5h-84.17c-4.142 0-7.5 3.358-7.5 7.5s3.358 7.5 7.5 7.5h84.17c16.542 0 30 13.458 30 30v213c0 16.542-13.458 30-30 30h-293.021c-4.142 0-7.5 3.358-7.5 7.5s3.358 7.5 7.5 7.5h293.021c24.813 0 45-20.187 45-45v-213c0-24.813-20.187-45-45-45z"/><path d="m30 293c0 4.142 3.358 7.5 7.5 7.5s7.5-3.358 7.5-7.5v-50c0-4.142-3.358-7.5-7.5-7.5s-7.5 3.358-7.5 7.5z"/><path d="m30 359.5c0 9.649 7.851 17.5 17.5 17.5h417c9.649 0 17.5-7.851 17.5-17.5v-208c0-9.649-7.851-17.5-17.5-17.5h-417c-9.649 0-17.5 7.851-17.5 17.5v27.972c0 7.54 3.746 14.539 10.02 18.721l16.641 11.094c2.091 1.395 3.34 3.728 3.34 6.241v22.259c0 4.142 3.358 7.5 7.5 7.5s7.5-3.358 7.5-7.5v-22.259c0-7.54-3.746-14.539-10.02-18.721l-16.641-11.094c-2.091-1.395-3.34-3.728-3.34-6.241v-27.972c0-1.378 1.122-2.5 2.5-2.5h417c1.378 0 2.5 1.122 2.5 2.5v208c0 1.378-1.122 2.5-2.5 2.5h-417c-1.378 0-2.5-1.122-2.5-2.5v-27.972c0-2.513 1.249-4.846 3.34-6.241l16.641-11.094c6.273-4.182 10.019-11.181 10.019-18.721v-22.366c0-4.142-3.358-7.5-7.5-7.5s-7.5 3.358-7.5 7.5v22.366c0 2.513-1.249 4.846-3.34 6.241l-16.64 11.094c-6.274 4.182-10.02 11.181-10.02 18.721z"/><path d="m314.661 304.121c3.445 2.301 8.102 1.374 10.402-2.07 9.118-13.65 13.937-29.573 13.937-46.051 0-45.766-37.234-83-83-83s-83 37.234-83 83 37.234 83 83 83c14.458 0 28.697-3.776 41.177-10.919 3.595-2.058 4.841-6.64 2.783-10.235-2.057-3.596-6.641-4.84-10.235-2.783-10.214 5.846-21.876 8.937-33.725 8.937-37.495 0-68-30.505-68-68s30.505-68 68-68 68 30.505 68 68c0 13.501-3.945 26.544-11.41 37.718-2.3 3.445-1.374 8.102 2.071 10.403z"/><path d="m244 285c4.142 0 7.5-3.358 7.5-7.5v-43c0-4.142-3.358-7.5-7.5-7.5s-7.5 3.358-7.5 7.5v13.263h-15v-13.263c0-4.142-3.358-7.5-7.5-7.5s-7.5 3.358-7.5 7.5v43c0 4.142 3.358 7.5 7.5 7.5s7.5-3.358 7.5-7.5v-14.737h15v14.737c0 4.142 3.358 7.5 7.5 7.5z"/><path d="m285.814 227h-12.314c-4.142 0-7.5 3.358-7.5 7.5v43c0 4.142 3.358 7.5 7.5 7.5h12.678c.043 0 .086 0 .128-.001 14.309-.246 24.694-12.441 24.694-28.999 0-17.075-10.356-29-25.186-29zm.29 43h-5.104v-28h4.814c9.451 0 10.186 10.716 10.186 14 0 6.866-3.061 13.846-9.896 14z"/><circle cx="37.5" cy="218.002" r="7.498"/></g></g></svg>