<svg id="Capa_1" enable-background="new 0 0 512 512" height="512" viewBox="0 0 512 512" width="512" xmlns="http://www.w3.org/2000/svg"><g><g><path d="m410 467c0 20.711-16.789 37.5-37.5 37.5h-233c-20.711 0-37.5-16.789-37.5-37.5v-422c0-20.711 16.789-37.5 37.5-37.5h233c20.711 0 37.5 16.789 37.5 37.5z" fill="#f8f7f7"/><path d="m405.93 484c-6.2 12.17-18.84 20.5-33.43 20.5h-233c-20.71 0-37.5-16.79-37.5-37.5v-422c0-14.61 8.35-27.26 20.54-33.45v447.45c0 13.81 11.19 25 25 25z" fill="#e8e8e8"/><g><path d="m344.681 240.143h-46.328c-5.773 0-11.273 2.459-15.122 6.762l-20.116 23.601c-3.785 4.23-10.415 4.203-14.165-.057l-19.618-23.422c-3.852-4.376-9.401-6.884-15.231-6.884h-46.782c-18.678 0-33.819-15.141-33.819-33.819l1.775-101.782c0-11.278 2.745-24.649 11.23-30.794 5.568-4.032 12.413-6.409 19.814-6.409h179.362c18.678 0 33.819 15.141 33.819 33.819v106.166c0 7.399-2.376 14.243-6.407 19.811-6.144 8.487-17.134 13.008-28.412 13.008z" fill="#bae6ef"/><path d="m373.1 227.14c-6.16 8.48-16.14 14-27.42 14h-46.33c-5.77 0-11.27 2.46-15.12 6.76l-21.12 23.61c-3.78 4.23-10.41 4.2-14.16-.06l-20.62-23.42c-3.85-4.38-9.4-6.89-15.23-6.89h-46.78c-18.68 0-33.82-15.14-33.82-33.82v-106.16c0-11.28 5.52-21.26 14-27.42v133.58c0 10.95 8.87 19.82 19.82 19.82h46.78c9.85 0 19.23 4.24 25.74 11.64l15.01 17.05c1.19 1.35 3.29 1.36 4.49.02l15.46-17.28c6.5-7.27 15.8-11.43 25.55-11.43z" fill="#94d8e6"/><path d="m334.287 121c0-10.448-6.677-19.337-15.996-22.633-2.503-.885-4.833-.651-7.64-.651-13.255 0-22.569 10.03-22.569 23.284s8.95 22.073 22.205 22.073c2.807 0 5.501 1.445 8.004.56 9.32-3.296 15.996-12.185 15.996-22.633z" fill="#f2d1a5"/><path d="m318.29 143.63c-2.5.89-5.19 1.37-8 1.37-13.26 0-24-10.75-24-24s10.74-24 24-24c2.81 0 5.5.48 8 1.37-9.33 3.29-16 12.19-16 22.63s6.67 19.34 16 22.63z" fill="#f2bb88"/><path d="m324.787 175h-30c-4.762 0-9.213 1.332-13.002 3.643-7.195 4.389-10.998 12.312-10.998 21.357v5c0 2.761 2.239 5 5 5h69c2.209 0 4-1.791 4-4l1-6c0-13.807-11.193-25-25-25z" fill="#c8b8f4"/><path d="m349.79 200v7c0 2.21-1.79 4-4 4h-71c-2.76 0-5-2.24-5-5v-6c0-9.05 4.8-16.97 12-21.35v16.35c0 2.76 2.24 5 5 5z" fill="#b09eef"/></g><path d="m296.5 345.5c0-19.174-13.491-35.197-31.499-39.095-2.74-.593-5.584.154-8.501.154-22.091 0-37.5 16.504-37.5 38.595s15.409 38.689 37.5 38.689c2.761 0 5.457 1.376 8.061.843 18.228-3.729 31.939-19.856 31.939-39.186z" fill="#ffd163"/><path d="m265 384.59c-2.74.6-5.58.91-8.5.91-22.09 0-40-17.91-40-40s17.91-40 40-40c2.92 0 5.76.31 8.5.91-18.01 3.89-31.5 19.92-31.5 39.09s13.49 35.2 31.5 39.09z" fill="#ffb65f"/></g><g><path d="m410 384.862c-4.143 0-7.5 3.358-7.5 7.5v74.638c0 16.542-13.458 30-30 30h-233c-16.542 0-30-13.458-30-30v-422c0-16.542 13.458-30 30-30h147.713c4.143 0 7.5-3.358 7.5-7.5s-3.357-7.5-7.5-7.5h-147.713c-24.813 0-45 20.187-45 45v422c0 24.813 20.187 45 45 45h233c24.813 0 45-20.187 45-45v-74.638c0-4.142-3.357-7.5-7.5-7.5z"/><path d="m372.5 0h-50.309c-4.143 0-7.5 3.358-7.5 7.5s3.357 7.5 7.5 7.5h50.309c16.542 0 30 13.458 30 30v312.383c0 4.142 3.357 7.5 7.5 7.5s7.5-3.358 7.5-7.5v-312.383c0-24.813-20.187-45-45-45z"/><path d="m269 45c4.143 0 7.5-3.358 7.5-7.5s-3.357-7.5-7.5-7.5h-50c-4.142 0-7.5 3.358-7.5 7.5s3.358 7.5 7.5 7.5z"/><path d="m387 101.158c0-22.784-18.536-41.319-41.319-41.319h-179.362c-22.784 0-41.319 18.536-41.319 41.319v15.034c0 4.142 3.358 7.5 7.5 7.5s7.5-3.358 7.5-7.5v-15.034c0-14.513 11.807-26.319 26.319-26.319h179.361c14.513 0 26.319 11.807 26.319 26.319v106.166c0 14.513-11.807 26.319-26.319 26.319h-46.328c-7.896 0-15.446 3.375-20.712 9.261l-21.116 23.602c-.487.545-1.035.688-1.475.656-.404-.001-.986-.119-1.47-.668l-20.618-23.422c-5.274-5.992-12.877-9.428-20.86-9.428h-46.782c-14.513 0-26.319-11.807-26.319-26.319v-56.325c0-4.142-3.358-7.5-7.5-7.5s-7.5 3.358-7.5 7.5v56.324c0 22.784 18.536 41.319 41.319 41.319h46.782c3.674 0 7.174 1.582 9.602 4.339l20.617 23.422c3.204 3.639 7.821 5.737 12.669 5.757h.068c4.823 0 9.429-2.059 12.646-5.655l21.116-23.601c2.423-2.709 5.897-4.263 9.532-4.263h46.328c22.783 0 41.319-18.536 41.319-41.319v-106.165z"/><path d="m341.787 121c0-17.369-14.131-31.5-31.5-31.5s-31.5 14.131-31.5 31.5 14.131 31.5 31.5 31.5 31.5-14.131 31.5-31.5zm-48 0c0-9.098 7.402-16.5 16.5-16.5s16.5 7.402 16.5 16.5-7.402 16.5-16.5 16.5-16.5-7.402-16.5-16.5z"/><path d="m262.287 200v6c0 6.893 5.607 12.5 12.5 12.5h71c6.341 0 11.5-5.159 11.5-11.5v-7c0-17.92-14.579-32.5-32.5-32.5h-30c-17.921 0-32.5 14.58-32.5 32.5zm15 0c0-9.649 7.851-17.5 17.5-17.5h30c9.649 0 17.5 7.851 17.5 17.5v3.5h-65z"/><path d="m236.866 201.5c4.142 0 7.5-3.358 7.5-7.5v-80c0-4.142-3.358-7.5-7.5-7.5h-17.099c-4.142 0-7.5 3.358-7.5 7.5s3.358 7.5 7.5 7.5h9.599v72.5c0 4.142 3.358 7.5 7.5 7.5z"/><path d="m182.5 126.5c-4.142 0-7.5 3.358-7.5 7.5v12.5h-12.5c-4.142 0-7.5 3.358-7.5 7.5s3.358 7.5 7.5 7.5h12.5v12.5c0 4.142 3.358 7.5 7.5 7.5s7.5-3.358 7.5-7.5v-12.5h12.5c4.142 0 7.5-3.358 7.5-7.5s-3.358-7.5-7.5-7.5h-12.5v-12.5c0-4.142-3.358-7.5-7.5-7.5z"/><path d="m256.5 298c-12.194 0-23.786 4.614-32.64 12.991-3.009 2.847-3.141 7.594-.294 10.603 2.846 3.009 7.593 3.141 10.603.294 6.058-5.731 13.988-8.887 22.332-8.887 17.921 0 32.5 14.58 32.5 32.5s-14.58 32.499-32.501 32.499c-17.034 0-31.276-13.294-32.425-30.265-.28-4.132-3.848-7.263-7.989-6.977-4.133.28-7.256 3.857-6.977 7.989 1.68 24.815 22.496 44.253 47.391 44.253 26.191 0 47.5-21.309 47.5-47.5s-21.309-47.5-47.5-47.5z"/><path d="m294 425.5c0-4.142-3.357-7.5-7.5-7.5h-60c-4.142 0-7.5 3.358-7.5 7.5s3.358 7.5 7.5 7.5h60c4.143 0 7.5-3.358 7.5-7.5z"/><path d="m204 425.5c0-4.142-3.358-7.5-7.5-7.5h-60c-4.142 0-7.5 3.358-7.5 7.5s3.358 7.5 7.5 7.5h60c4.142 0 7.5-3.358 7.5-7.5z"/><path d="m384 425.5c0-4.142-3.357-7.5-7.5-7.5h-60c-4.143 0-7.5 3.358-7.5 7.5s3.357 7.5 7.5 7.5h60c4.143 0 7.5-3.358 7.5-7.5z"/><path d="m246.5 448c-4.142 0-7.5 3.358-7.5 7.5s3.358 7.5 7.5 7.5h20c4.143 0 7.5-3.358 7.5-7.5s-3.357-7.5-7.5-7.5z"/><path d="m156.5 448c-4.142 0-7.5 3.358-7.5 7.5s3.358 7.5 7.5 7.5h20c4.142 0 7.5-3.358 7.5-7.5s-3.358-7.5-7.5-7.5z"/><path d="m336.5 448c-4.143 0-7.5 3.358-7.5 7.5s3.357 7.5 7.5 7.5h20c4.143 0 7.5-3.358 7.5-7.5s-3.357-7.5-7.5-7.5z"/><circle cx="294" cy="37.5" r="7.5"/></g></g></svg>