<svg id="Capa_1" enable-background="new 0 0 512 512" height="512" viewBox="0 0 512 512" width="512" xmlns="http://www.w3.org/2000/svg"><g><g><path d="m410 467c0 20.711-16.789 37.5-37.5 37.5h-233c-20.711 0-37.5-16.789-37.5-37.5v-422c0-20.711 16.789-37.5 37.5-37.5h233c20.711 0 37.5 16.789 37.5 37.5z" fill="#f8f7f7"/><path d="m405.93 484c-6.2 12.17-18.84 20.5-33.43 20.5h-233c-20.71 0-37.5-16.79-37.5-37.5v-422c0-14.61 8.35-27.26 20.54-33.45v447.45c0 13.81 11.19 25 25 25z" fill="#e8e8e8"/><path d="m357.872 284.872-204.44.743c-8.284 0-15-6.716-15-15l-.11-182.257c0-7.948 5.361-15.31 13.178-15.825.331-.022.664-.033 1-.033h207c8.284 0 15 6.716 15 15v184c0 .336-.011.67-.033 1-.515 7.818-8.647 12.372-16.595 12.372z" fill="#b3e59f"/><path d="m374.46 272.5c-.51 7.82-7.02 14-14.96 14h-207c-8.28 0-15-6.72-15-15v-184c0-7.94 6.18-14.45 14-14.96v193.96c0 3.31 2.69 6 6 6z" fill="#95d6a4"/><path d="m159.143 324.953c.64.603 1.645.586 2.289-.014 2.293-2.138 5.398-3.448 8.794-3.438 6.965.021 12.648 5.739 12.55 12.613-.176 12.282-17.849 22.166-21.745 24.197-.474.247-1.038.253-1.518.017-3.963-1.955-21.989-11.551-21.734-24.213.136-6.733 5.804-12.565 12.627-12.613 3.397-.026 6.466 1.309 8.737 3.451z" fill="#df646e"/><path d="m213.5 331.5v17c0 5.523 4.477 10 10 10h27.365c3.652 0 7.2 1.217 10.082 3.459l5.483 4.264c3.284 2.554 8.07.214 8.07-3.947v-30.776c0-5.523-4.477-10-10-10h-41c-5.523 0-10 4.477-10 10z" fill="#b3e59f"/></g><g><path d="m102 356.117c4.143 0 7.5-3.358 7.5-7.5v-303.617c0-16.542 13.458-30 30-30h37.415c4.143 0 7.5-3.358 7.5-7.5s-3.357-7.5-7.5-7.5h-37.415c-24.813 0-45 20.187-45 45v303.617c0 4.142 3.357 7.5 7.5 7.5z"/><path d="m372.5 0h-160.691c-4.143 0-7.5 3.358-7.5 7.5s3.357 7.5 7.5 7.5h160.691c16.542 0 30 13.458 30 30v422c0 16.542-13.458 30-30 30h-233c-16.542 0-30-13.458-30-30v-83.276c0-4.142-3.357-7.5-7.5-7.5s-7.5 3.358-7.5 7.5v83.276c0 24.813 20.187 45 45 45h233c24.813 0 45-20.187 45-45v-422c0-24.813-20.187-45-45-45z"/><path d="m269 45c4.143 0 7.5-3.358 7.5-7.5s-3.357-7.5-7.5-7.5h-50c-4.143 0-7.5 3.358-7.5 7.5s3.357 7.5 7.5 7.5z"/><circle cx="294" cy="37.5" r="7.5"/><path d="m382 154.149c0-4.142-3.357-7.5-7.5-7.5s-7.5 3.358-7.5 7.5v117.351c0 4.136-3.364 7.5-7.5 7.5h-132.372c-4.143 0-7.5 3.358-7.5 7.5s3.357 7.5 7.5 7.5h132.372c12.406 0 22.5-10.093 22.5-22.5z"/><path d="m130 87.5v184c0 12.407 10.094 22.5 22.5 22.5h39.394c4.143 0 7.5-3.358 7.5-7.5s-3.357-7.5-7.5-7.5h-39.394c-4.136 0-7.5-3.364-7.5-7.5v-184c0-4.136 3.364-7.5 7.5-7.5h207c4.136 0 7.5 3.364 7.5 7.5v31.585c0 4.142 3.357 7.5 7.5 7.5s7.5-3.358 7.5-7.5v-31.585c0-12.407-10.094-22.5-22.5-22.5h-207c-12.406 0-22.5 10.093-22.5 22.5z"/><path d="m170.248 314c-3.548-.034-6.942.879-9.955 2.556-3.014-1.691-6.392-2.563-9.939-2.556-10.848.076-19.853 9.031-20.072 19.962-.34 16.818 19.748 28.049 25.91 31.089 1.277.631 2.671.945 4.063.945 1.46 0 2.919-.346 4.241-1.035 7.675-4 25.552-15 25.778-30.74.268-9.677-8.363-20.284-20.026-20.221zm-10.062 36.206c-7.852-4.41-15.011-10.868-14.908-15.941.056-2.737 2.562-5.247 5.219-5.265 1.294 0 2.536.5 3.502 1.41.001 0 .001.001.002.001 3.5 3.298 9.012 3.305 12.547.012.984-.918 2.276-1.423 3.64-1.423 1.401.217 4.543.646 5.09 5.005-.074 5.015-7.279 11.61-15.092 16.201z"/><path d="m374.5 333h-70c-4.143 0-7.5 3.358-7.5 7.5s3.357 7.5 7.5 7.5h70c4.143 0 7.5-3.358 7.5-7.5s-3.357-7.5-7.5-7.5z"/><path d="m137.5 402h19c4.143 0 7.5-3.358 7.5-7.5s-3.357-7.5-7.5-7.5h-19c-4.143 0-7.5 3.358-7.5 7.5s3.357 7.5 7.5 7.5z"/><path d="m179 394.5c0 4.142 3.357 7.5 7.5 7.5h69c4.143 0 7.5-3.358 7.5-7.5s-3.357-7.5-7.5-7.5h-69c-4.143 0-7.5 3.358-7.5 7.5z"/><path d="m381.5 424.5c0-4.142-3.357-7.5-7.5-7.5h-137.5c-4.143 0-7.5 3.358-7.5 7.5s3.357 7.5 7.5 7.5h137.5c4.143 0 7.5-3.358 7.5-7.5z"/><path d="m137.5 432h69c4.143 0 7.5-3.358 7.5-7.5s-3.357-7.5-7.5-7.5h-69c-4.143 0-7.5 3.358-7.5 7.5s3.357 7.5 7.5 7.5z"/><path d="m137.5 462h99c4.143 0 7.5-3.358 7.5-7.5s-3.357-7.5-7.5-7.5h-99c-4.143 0-7.5 3.358-7.5 7.5s3.357 7.5 7.5 7.5z"/><path d="m206 331.5v17c0 9.649 7.851 17.5 17.5 17.5h27.365c1.975 0 3.919.667 5.478 1.88l5.483 4.264c2.251 1.75 4.939 2.647 7.656 2.647 1.867 0 3.749-.424 5.51-1.285 4.322-2.114 7.008-6.417 7.008-11.229v-30.777c0-9.649-7.851-17.5-17.5-17.5h-41c-9.649 0-17.5 7.851-17.5 17.5zm15 0c0-1.378 1.121-2.5 2.5-2.5h41c1.379 0 2.5 1.122 2.5 2.5v25.666l-1.447-1.125c-4.178-3.25-9.394-5.04-14.688-5.04h-27.365c-1.379 0-2.5-1.122-2.5-2.5z"/><path d="m220.344 202.249-18.475-49.001c-1.317-3.5-4.717-5.853-8.458-5.853-3.729 0-7.125 2.342-8.447 5.824l-18.647 49.009c-1.473 3.871.472 8.204 4.343 9.677s8.204-.471 9.677-4.343l2.967-7.796h20.075l2.932 7.775c1.133 3.004 3.987 4.856 7.019 4.856.88 0 1.773-.156 2.645-.484 3.873-1.461 5.831-5.788 4.369-9.664zm-31.334-17.483 4.376-11.5 4.336 11.5z"/><path d="m257.556 212.395c.043 0 .086 0 .128-.001 15.989-.274 27.595-13.918 27.595-32.444 0-19.472-11.312-32.555-28.146-32.555h-14.376c-4.143 0-7.5 3.358-7.5 7.5v50c0 4.142 3.357 7.5 7.5 7.5zm-7.3-50h6.876c12.198 0 13.146 13.437 13.146 17.555 0 8.556-3.956 17.257-12.794 17.445h-7.229v-35z"/><path d="m323.627 197.395c-4.622 0-9.059-1.85-11.868-4.949-2.78-3.07-7.523-3.301-10.594-.521-3.068 2.782-3.302 7.525-.52 10.594 5.688 6.276 14.064 9.875 22.981 9.875 11.145 0 20.511-7.158 22.271-17.019 1.334-7.47-1.994-17.205-15.334-22.125-6.505-2.399-10.658-4.146-11.587-4.542-1.853-.982-1.979-2.076-1.907-2.822.112-1.178.981-2.583 2.426-2.988 6.998-1.968 12.298 2.527 12.531 2.729 3.108 2.733 7.845 2.429 10.58-.679 2.737-3.109 2.435-7.849-.675-10.585-1.178-1.036-11.919-10-26.493-5.906-7.238 2.033-12.584 8.467-13.302 16.008-.706 7.417 3.237 14.215 10.292 17.742 3.191 1.586 6.599 2.702 12.943 5.117 3.051 1.125 6.165 3.139 5.759 5.416-.333 1.877-2.95 4.655-7.503 4.655z"/></g></g></svg>