<svg id="Capa_1" enable-background="new 0 0 512 512" height="512" viewBox="0 0 512 512" width="512" xmlns="http://www.w3.org/2000/svg"><g><g><path d="m504.5 142.75v292c0 13.807-11.193 25-25 25h-447c-13.807 0-25-11.193-25-25v-292z" fill="#f8f7f7"/><path d="m504.5 142.75v15h-476c-3.31 0-6 2.69-6 6v293.91c-8.83-3.85-15-12.66-15-22.91v-292z" fill="#e8e8e8"/><path d="m504.5 75.75v67.5h-497v-67.5c0-13.807 11.193-25 25-25h447c13.807 0 25 11.193 25 25z" fill="#855b51"/><g fill="#724d44"><path d="m250.258 126.75c-8.255 0-14.947-6.716-14.947-15s6.692-15 14.947-15h186.315c8.255 0 14.947 6.716 14.947 15s-6.692 15-14.947 15z"/><ellipse cx="172.369" cy="110.75" rx="14.947" ry="15"/><path d="m182.861 121.434 12.874-12.869-13.139 1.179z"/><path d="m162.092 99.858 12.562-12.516-2.693 10.408z"/><ellipse cx="111.534" cy="110.75" rx="14.947" ry="15"/><path d="m122.053 121.407 12.382-12.499-12.674.836z"/><path d="m101.257 99.858 12.371-12.459-2.502 10.351z"/><ellipse cx="52.447" cy="110.75" rx="14.947" ry="15"/><path d="m63.269 121.096 12.721-13.186-13.139 1.381z"/><path d="m42.17 99.858 11.622-12.038-1.753 9.93z"/></g><ellipse cx="185.349" cy="97.75" fill="#b3e59f" rx="14.947" ry="15"/><path d="m240.416 100.461 13.037-12.859-3.025 14.276z" fill="#724d44"/><path d="m447.33 122.165 13.149-13.179-10.185 3.381z" fill="#724d44"/><ellipse cx="124.446" cy="97.75" fill="#ffd163" rx="14.947" ry="15"/><ellipse cx="64.995" cy="97.75" fill="#dc4955" rx="14.947" ry="15"/><path d="m263.237 113.75c-8.255 0-14.947-6.716-14.947-15s6.692-15 14.947-15h186.315c8.255 0 14.947 6.716 14.947 15s-6.692 15-14.947 15z" fill="#f8f7f7"/><path d="m176.5 301.5h-118c-5.523 0-10-4.477-10-10v-68c0-5.523 3.477-10 9-10l36.65-1h83.35c5.523 0 10 4.477 10 10v70c0 5.523-5.477 9-11 9z" fill="#b3e59f"/><path d="m350.5 418.5h-118c-5.523 0-10-4.477-10-10v-68c0-5.523 4.477-10 10-10l1-1h118c5.523 0 10 4.477 10 10v70c0 5.523-5.477 9-11 9z" fill="#bae6ef"/><path d="m97.5 227.5c0 19.33-15.67 35-35 35-1.011 0-2.011-.043-2.999-.126-3.824-.323-6.471-2.26-9.841-3.714-.03-.01-.47-.22-1.16-.54v-34.62c0-5.52 3.48-10 9-10l2-1h34.65c.34.77.57 1.31.59 1.36 1.78 4.19 2.76 8.8 2.76 13.64z" fill="#ffd163"/><path d="m186.284 293.376c0 5.52-3.397 7.874-8.917 7.874l-92.89.3-15.977.95c6.55-1.18 18.28-4.23 30-13 12.92-9.67 19.6-21.65 22.93-29.49 1.42-3.35 4.73-5.51 8.37-5.51h7.97c3.62 0 6.93 2.12 8.35 5.46 1.74 4.09 4.86 9.38 9.38 14.54 6.287 7.185 18.298 13.065 25.753 15.993 3.17 1.245 4.3 2.832 5.031 2.883z" fill="#9e959e"/><path d="m97.12 290.5c-3.229 2.299-4.102 5.06-7.193 6.592-7.68 3.804-16.942 4.603-21.427 5.408h-11c-5.52 0-10-4.48-10-10v-33.38c.69.32 5.518 0 5.518 0l6.482 3.26v24.12c0 2.21 1.79 4 4 4z" fill="#95d6a4"/><path d="m59.5 212.5v49.88c-3.83-.33-7.47-1.27-10.84-2.72-.03-.01-.47-.22-1.16-.54v-36.62c0-5.52 4.48-10 10-10z" fill="#ffb65f"/><path d="m187.5 292.5c0 5.52-4.48 10-10 10h-109c6.29-1.13 17.37-3.99 28.62-12h84.13c3.18 1.24 5.52 1.95 6.25 2z" fill="#8e868e"/><path d="m309.48 402.34v17.16l-76.98-1c-5.52 0-10-4.48-10-10l.032-10.592 10.97-10.165 24.948-19.803c1.79-1.43 4.33-1.46 6.16-.06l21.731 16.689 1.999 3.171z" fill="#ffd163"/><path d="m309.48 402.34v17.16h-49.67l26.53-34.93z" fill="#ffb65f"/><path d="m360.939 409.974c0 5.52-5.07 8.948-10.591 8.948l-74.023-.165 7.404-11.257 32.93-43c1.96-2.55 5.8-2.62 7.84-.12l35.422 43.119z" fill="#ffd163"/><path d="m233.5 329.5v58.24l-6 6.453-6 3.077v-57.77c0-5.52 4.48-10 10-10z" fill="#94d8e6"/><path d="m283.73 407.5-9.19 11-14.73 1h-28.31c-5.52 0-10-4.48-10-10v-12.23l12-9.53v15.76c0 2.21 1.79 4 4 4z" fill="#ffb65f"/><path d="m287.596 407.5-1.073 10.72-11.983 1.28h-14.73l9.11-12z" fill="#ff9350"/><path d="m361.5 409.42v.08c0 5.52-4.48 10-10 10h-76.96l9.19-12h76.19z" fill="#ffb65f"/></g><g><path d="m504.5 376.521c-4.143 0-7.5 3.358-7.5 7.5v50.979c0 9.649-7.851 17.5-17.5 17.5h-447c-9.649 0-17.5-7.851-17.5-17.5v-155.979c0-4.142-3.357-7.5-7.5-7.5s-7.5 3.358-7.5 7.5v155.979c0 17.92 14.579 32.5 32.5 32.5h447c17.921 0 32.5-14.58 32.5-32.5v-50.979c0-4.142-3.357-7.5-7.5-7.5z"/><path d="m479.5 44.5h-337.309c-4.143 0-7.5 3.358-7.5 7.5s3.357 7.5 7.5 7.5h337.309c9.649 0 17.5 7.851 17.5 17.5v57.947h-482v-57.947c0-9.649 7.851-17.5 17.5-17.5h74.713c4.143 0 7.5-3.358 7.5-7.5s-3.357-7.5-7.5-7.5h-74.713c-17.921 0-32.5 14.58-32.5 32.5v166.979c0 4.142 3.357 7.5 7.5 7.5s7.5-3.358 7.5-7.5v-94.032h482v199.181c0 4.142 3.357 7.5 7.5 7.5s7.5-3.358 7.5-7.5v-272.128c0-17.92-14.579-32.5-32.5-32.5z"/><path d="m43.745 97.447c0 12.407 10.094 22.5 22.5 22.5s22.5-10.093 22.5-22.5-10.094-22.5-22.5-22.5-22.5 10.093-22.5 22.5zm30 0c0 4.136-3.364 7.5-7.5 7.5s-7.5-3.364-7.5-7.5 3.364-7.5 7.5-7.5 7.5 3.364 7.5 7.5z"/><path d="m103.745 97.447c0 12.407 10.094 22.5 22.5 22.5s22.5-10.093 22.5-22.5-10.094-22.5-22.5-22.5-22.5 10.093-22.5 22.5zm22.5-7.5c4.136 0 7.5 3.364 7.5 7.5s-3.364 7.5-7.5 7.5-7.5-3.364-7.5-7.5 3.364-7.5 7.5-7.5z"/><path d="m208.745 97.447c0-12.407-10.094-22.5-22.5-22.5s-22.5 10.093-22.5 22.5 10.094 22.5 22.5 22.5 22.5-10.093 22.5-22.5zm-30 0c0-4.136 3.364-7.5 7.5-7.5s7.5 3.364 7.5 7.5-3.364 7.5-7.5 7.5-7.5-3.364-7.5-7.5z"/><path d="m450 104.947h-49.043c-4.143 0-7.5 3.358-7.5 7.5s3.357 7.5 7.5 7.5h49.043c12.406 0 22.5-10.093 22.5-22.5s-10.094-22.5-22.5-22.5h-185c-12.406 0-22.5 10.093-22.5 22.5s10.094 22.5 22.5 22.5h100.979c4.143 0 7.5-3.358 7.5-7.5s-3.357-7.5-7.5-7.5h-100.979c-4.136 0-7.5-3.364-7.5-7.5s3.364-7.5 7.5-7.5h185c4.136 0 7.5 3.364 7.5 7.5s-3.364 7.5-7.5 7.5z"/><path d="m137.5 190c4.143 0 7.5-3.358 7.5-7.5s-3.357-7.5-7.5-7.5h-90c-4.143 0-7.5 3.358-7.5 7.5s3.357 7.5 7.5 7.5z"/><path d="m40 292.5c0 9.649 7.851 17.5 17.5 17.5h120c9.435 0 17.13-7.511 17.468-16.866.096-.923-.001-69.806.032-70.634 0-9.649-7.851-17.5-17.5-17.5h-120c-9.649 0-17.5 7.851-17.5 17.5zm63.64 2.5c13.543-10.368 20.903-23.121 24.692-32.064.24-.568.817-.936 1.471-.936h7.963c.642 0 1.225.358 1.451.893 2.341 5.504 6.119 11.38 10.639 16.546 5.692 6.504 14.93 11.922 22.852 15.561zm76.36-72.5v59.332c-6.407-2.89-14.574-7.378-18.855-12.271-3.452-3.945-6.413-8.515-8.123-12.537-2.589-6.089-8.577-10.024-15.256-10.024h-7.963c-6.688 0-12.688 3.958-15.282 10.083-3.13 7.386-9.229 17.963-20.516 26.413-7.651 5.728-16.725 9.69-26.27 11.504h-10.235c-1.379 0-2.5-1.122-2.5-2.5v-23.171c2.458.437 4.96.671 7.5.671 23.435 0 42.5-19.065 42.5-42.5 0-2.54-.233-5.042-.671-7.5h73.171c1.379 0 2.5 1.122 2.5 2.5zm-122.5-2.5h31.461c.686 2.422 1.039 4.931 1.039 7.5 0 15.164-12.337 27.5-27.5 27.5-2.569 0-5.078-.353-7.5-1.039v-31.461c0-1.378 1.121-2.5 2.5-2.5z"/><path d="m214 339.5v70c0 9.649 7.851 17.5 17.5 17.5h120c9.396 0 17.065-7.45 17.462-16.75.113-1.065-.001-69.781.038-70.75 0-9.649-7.851-17.5-17.5-17.5h-120c-9.649 0-17.5 7.851-17.5 17.5zm15 70v-8.395l32.604-26.083 23.669 18.099-14.474 18.879h-39.299c-1.379 0-2.5-1.122-2.5-2.5zm60.701 2.5 30.997-40.431 32.559 39.706c-.452.447-1.072.725-1.757.725zm-58.201-75h120c1.379 0 2.5 1.122 2.5 2.5v49.026l-23.703-28.906c-2.39-2.915-5.9-4.574-9.66-4.574-.069 0-.14 0-.21.002-3.838.063-7.379 1.846-9.715 4.893l-16.313 21.277-25.236-19.298c-4.575-3.499-10.908-3.429-15.402.168l-24.761 19.807v-42.395c0-1.378 1.121-2.5 2.5-2.5z"/><path d="m391.5 190h32c4.143 0 7.5-3.358 7.5-7.5s-3.357-7.5-7.5-7.5h-32c-4.143 0-7.5 3.358-7.5 7.5s3.357 7.5 7.5 7.5z"/><path d="m391.5 220h72c4.143 0 7.5-3.358 7.5-7.5s-3.357-7.5-7.5-7.5h-72c-4.143 0-7.5 3.358-7.5 7.5s3.357 7.5 7.5 7.5z"/><path d="m463.5 235h-10c-4.143 0-7.5 3.358-7.5 7.5s3.357 7.5 7.5 7.5h10c4.143 0 7.5-3.358 7.5-7.5s-3.357-7.5-7.5-7.5z"/><path d="m391.5 250h32c4.143 0 7.5-3.358 7.5-7.5s-3.357-7.5-7.5-7.5h-32c-4.143 0-7.5 3.358-7.5 7.5s3.357 7.5 7.5 7.5z"/><path d="m391.5 337h32c4.143 0 7.5-3.358 7.5-7.5s-3.357-7.5-7.5-7.5h-32c-4.143 0-7.5 3.358-7.5 7.5s3.357 7.5 7.5 7.5z"/><path d="m391.5 280h32c4.143 0 7.5-3.358 7.5-7.5s-3.357-7.5-7.5-7.5h-32c-4.143 0-7.5 3.358-7.5 7.5s3.357 7.5 7.5 7.5z"/><path d="m463.5 352h-21.437c-4.143 0-7.5 3.358-7.5 7.5s3.357 7.5 7.5 7.5h21.437c4.143 0 7.5-3.358 7.5-7.5s-3.357-7.5-7.5-7.5z"/><path d="m391.5 367h20.563c4.143 0 7.5-3.358 7.5-7.5s-3.357-7.5-7.5-7.5h-20.563c-4.143 0-7.5 3.358-7.5 7.5s3.357 7.5 7.5 7.5z"/><path d="m391.5 397h72c4.143 0 7.5-3.358 7.5-7.5s-3.357-7.5-7.5-7.5h-72c-4.143 0-7.5 3.358-7.5 7.5s3.357 7.5 7.5 7.5z"/><path d="m391.5 427h51c4.143 0 7.5-3.358 7.5-7.5s-3.357-7.5-7.5-7.5h-51c-4.143 0-7.5 3.358-7.5 7.5s3.357 7.5 7.5 7.5z"/><path d="m346.5 235c4.143 0 7.5-3.358 7.5-7.5s-3.357-7.5-7.5-7.5h-68.437c-4.143 0-7.5 3.358-7.5 7.5s3.357 7.5 7.5 7.5z"/><path d="m236.5 235h11.563c4.143 0 7.5-3.358 7.5-7.5s-3.357-7.5-7.5-7.5h-11.563c-4.143 0-7.5 3.358-7.5 7.5s3.357 7.5 7.5 7.5z"/><path d="m236.5 265h110c4.143 0 7.5-3.358 7.5-7.5s-3.357-7.5-7.5-7.5h-110c-4.143 0-7.5 3.358-7.5 7.5s3.357 7.5 7.5 7.5z"/><path d="m346.5 280h-23.5c-4.143 0-7.5 3.358-7.5 7.5s3.357 7.5 7.5 7.5h23.5c4.143 0 7.5-3.358 7.5-7.5s-3.357-7.5-7.5-7.5z"/><path d="m236.5 295h56.5c4.143 0 7.5-3.358 7.5-7.5s-3.357-7.5-7.5-7.5h-56.5c-4.143 0-7.5 3.358-7.5 7.5s3.357 7.5 7.5 7.5z"/><path d="m172.5 337h-110c-4.143 0-7.5 3.358-7.5 7.5s3.357 7.5 7.5 7.5h110c4.143 0 7.5-3.358 7.5-7.5s-3.357-7.5-7.5-7.5z"/><path d="m180 374.5c0-4.142-3.357-7.5-7.5-7.5h-31.255c-4.143 0-7.5 3.358-7.5 7.5s3.357 7.5 7.5 7.5h31.255c4.143 0 7.5-3.358 7.5-7.5z"/><path d="m62.5 382h48.745c4.143 0 7.5-3.358 7.5-7.5s-3.357-7.5-7.5-7.5h-48.745c-4.143 0-7.5 3.358-7.5 7.5s3.357 7.5 7.5 7.5z"/><path d="m62.5 412h80c4.143 0 7.5-3.358 7.5-7.5s-3.357-7.5-7.5-7.5h-80c-4.143 0-7.5 3.358-7.5 7.5s3.357 7.5 7.5 7.5z"/></g></g></svg>