<svg id="Capa_1" enable-background="new 0 0 512 512" height="512" viewBox="0 0 512 512" width="512" xmlns="http://www.w3.org/2000/svg"><g><g><g><path d="m504.5 158v263c0 13.807-11.193 25-25 25h-447c-13.807 0-25-11.193-25-25v-263z" fill="#f8f7f7"/><path d="m504.5 158v15h-476c-3.31 0-6 2.69-6 6v264.91c-8.83-3.85-15-12.66-15-22.91v-263z" fill="#e8e8e8"/><path d="m504.5 91v67.5h-497v-67.5c0-13.807 11.193-25 25-25h447c13.807 0 25 11.193 25 25z" fill="#855b51"/><g fill="#724d44"><path d="m250.258 142c-8.255 0-14.947-6.716-14.947-15s6.692-15 14.947-15h186.315c8.255 0 14.947 6.716 14.947 15s-6.692 15-14.947 15z"/><ellipse cx="172.369" cy="126" rx="14.947" ry="15"/><path d="m182.861 136.684 12.874-12.869-13.139 1.179z"/><path d="m162.092 115.108 12.562-12.516-2.693 10.408z"/><ellipse cx="111.534" cy="126" rx="14.947" ry="15"/><path d="m122.053 136.657 12.382-12.499-12.674.836z"/><path d="m101.257 115.108 12.371-12.459-2.502 10.351z"/><ellipse cx="52.447" cy="126" rx="14.947" ry="15"/><path d="m63.269 136.346 12.721-13.186-13.139 1.381z"/><path d="m42.17 115.108 11.622-12.038-1.753 9.93z"/></g><ellipse cx="185.349" cy="113" fill="#b3e59f" rx="14.947" ry="15"/><path d="m240.416 115.711 13.037-12.859-3.025 14.276z" fill="#724d44"/><path d="m447.33 137.415 13.149-13.179-10.185 3.381z" fill="#724d44"/><ellipse cx="124.446" cy="113" fill="#ffd163" rx="14.947" ry="15"/><ellipse cx="64.995" cy="113" fill="#dc4955" rx="14.947" ry="15"/><path d="m263.237 129c-8.255 0-14.947-6.716-14.947-15s6.692-15 14.947-15h186.315c8.255 0 14.947 6.716 14.947 15s-6.692 15-14.947 15z" fill="#f8f7f7"/></g><path d="m183.875 263.75c0-36.313-29.437-65.75-65.75-65.75s-65.75 29.437-65.75 65.75c0 21.406 10.229 40.423 26.067 52.429l39.683 10.161 39.678-10.156c15.84-12.007 26.072-31.025 26.072-52.434z" fill="#d6ccf2"/><path d="m226.284 334.156v27.908c0 8.284 6.716 15 15 15l9.841-.564c2.761 0 5 2.239 5 5l-.125 13.096c0 4.055 3.287 7.342 7.342 7.342l.099-1.067c1.718 0 2.479-.717 3.798-1.816l18.991-16.349c4.493-3.744 10.156-5.794 16.005-5.794l140.05-.976c7.249 0 15.637-3.078 17.036-9.913.2-.976.305-1.988.305-3.023v-30c0-8.284-6.716-15-15-15h-205c-1.029 0-2.034.104-3.005.301-6.845 1.392-10.337 8.6-10.337 15.855z" fill="#ccf49f"/><path d="m459.32 366c-1.39 6.85-7.44 12-14.7 12h-140.94c-5.85 0-11.52 2.05-16.01 5.79l-21 17.51c-1.32 1.1-2.99 1.7-4.7 1.7-4.06 0-7.35-3.29-7.35-7.34v-12.66c0-2.76-2.23-5-5-5h-10c-8.28 0-15-6.72-15-15v-30c0-7.25 5.15-13.31 12-14.7v44.7c0 1.66 1.35 3 3 3h10c9.39 0 17 7.61 17 17 0 1.08 1.26 1.67 2.09.98l11.28-9.4c6.65-5.55 15.03-8.58 23.69-8.58z" fill="#b3e59f"/><path d="m442.615 285.275-201.33 1.624c-8.284 0-15-6.716-15-15v-56.642c0-7.249 3.482-15.553 10.318-16.952.976-.2 1.987-.305 3.023-.305h205c8.284 0 15 6.716 15 15v60c0 1.028-.103 2.031-.3 3.001-1.391 6.846-9.455 9.274-16.711 9.274z" fill="#ccf49f"/><path d="m459.32 276c-1.39 6.85-7.44 12-14.7 12h-205c-8.284 0-15-6.716-15-15v-60c0-7.25 5.15-13.31 12-14.7v70.7c0 3.85 3.15 7 7 7z" fill="#b3e59f"/><g><path d="m157.801 316.18c-4.55 3.45-9.56 6.32-14.93 8.5-7.64 3.11-15.99 4.82-24.75 4.82s-17.11-1.71-24.75-4.82c-5.37-2.18-10.38-5.05-14.93-8.5.94-14.31 12.89-25.67 27.43-25.67h24.5c14.55 0 26.49 11.36 27.43 25.67z" fill="#c8b8f4"/></g><g><circle cx="118.121" cy="250.5" fill="#e3a76f" r="22.5"/></g></g><g><path d="m504.5 354.521c4.142 0 7.5-3.358 7.5-7.5v-255.021c0-17.92-14.58-32.5-32.5-32.5h-447c-17.92 0-32.5 14.58-32.5 32.5v328c0 17.92 14.58 32.5 32.5 32.5h447c17.92 0 32.5-14.58 32.5-32.5v-38c0-4.142-3.358-7.5-7.5-7.5s-7.5 3.358-7.5 7.5v38c0 9.649-7.851 17.5-17.5 17.5h-447c-9.649 0-17.5-7.851-17.5-17.5v-255.053h179.021c4.142 0 7.5-3.358 7.5-7.5s-3.358-7.5-7.5-7.5h-179.021v-57.947c0-9.649 7.851-17.5 17.5-17.5h447c9.649 0 17.5 7.851 17.5 17.5v57.947h-268.383c-4.142 0-7.5 3.358-7.5 7.5s3.358 7.5 7.5 7.5h268.383v182.075c0 4.142 3.358 7.499 7.5 7.499z"/><path d="m43.745 112.447c0 12.407 10.093 22.5 22.5 22.5s22.5-10.093 22.5-22.5-10.093-22.5-22.5-22.5-22.5 10.093-22.5 22.5zm30 0c0 4.136-3.364 7.5-7.5 7.5s-7.5-3.364-7.5-7.5 3.364-7.5 7.5-7.5 7.5 3.364 7.5 7.5z"/><path d="m103.745 112.447c0 12.407 10.093 22.5 22.5 22.5s22.5-10.093 22.5-22.5-10.093-22.5-22.5-22.5-22.5 10.093-22.5 22.5zm30 0c0 4.136-3.364 7.5-7.5 7.5s-7.5-3.364-7.5-7.5 3.364-7.5 7.5-7.5 7.5 3.364 7.5 7.5z"/><path d="m163.745 112.447c0 12.407 10.093 22.5 22.5 22.5s22.5-10.093 22.5-22.5-10.093-22.5-22.5-22.5-22.5 10.093-22.5 22.5zm30 0c0 4.136-3.364 7.5-7.5 7.5s-7.5-3.364-7.5-7.5 3.364-7.5 7.5-7.5 7.5 3.364 7.5 7.5z"/><path d="m265 104.947h119.021c4.142 0 7.5-3.358 7.5-7.5s-3.358-7.5-7.5-7.5h-119.021c-12.407 0-22.5 10.093-22.5 22.5s10.093 22.5 22.5 22.5h185c12.407 0 22.5-10.093 22.5-22.5s-10.093-22.5-22.5-22.5h-31.042c-4.142 0-7.5 3.358-7.5 7.5s3.358 7.5 7.5 7.5h31.042c4.136 0 7.5 3.364 7.5 7.5s-3.364 7.5-7.5 7.5h-185c-4.136 0-7.5-3.364-7.5-7.5s3.364-7.5 7.5-7.5z"/><path d="m143.125 245c0-13.785-11.215-25-25-25s-25 11.215-25 25 11.215 25 25 25 25-11.215 25-25zm-35 0c0-5.514 4.486-10 10-10s10 4.486 10 10-4.486 10-10 10-10-4.486-10-10z"/><path d="m118.125 190c-40.39 0-73.25 32.86-73.25 73.25 0 4.142 3.358 7.5 7.5 7.5s7.5-3.358 7.5-7.5c0-32.119 26.131-58.25 58.25-58.25s58.25 26.131 58.25 58.25c0 17.103-7.411 32.506-19.188 43.172-2.779-12.242-13.741-21.411-26.812-21.411h-24.5c-13.07 0-24.031 9.168-26.811 21.408-4.282-3.857-8.022-8.363-11.035-13.426-2.118-3.559-6.721-4.729-10.28-2.609-3.56 2.118-4.728 6.721-2.609 10.28 13.155 22.105 37.29 35.836 62.986 35.836 40.39 0 73.25-32.86 73.25-73.25s-32.861-73.25-73.251-73.25zm-24.75 125.928v-3.417c0-6.893 5.607-12.5 12.5-12.5h24.5c6.893 0 12.5 5.607 12.5 12.5v3.454c-7.517 3.544-15.904 5.535-24.75 5.535-8.664 0-17.102-1.97-24.75-5.572z"/><path d="m261.967 410c3.466 0 6.84-1.222 9.501-3.44l21.005-17.504c3.138-2.616 7.117-4.056 11.203-4.056h140.949c12.407 0 22.5-10.093 22.5-22.5v-30c0-12.407-10.093-22.5-22.5-22.5h-205c-12.407 0-22.5 10.093-22.5 22.5v30c0 12.407 10.093 22.5 22.5 22.5h7.5v10.158c0 8.184 6.658 14.842 14.842 14.842zm-22.342-40c-4.136 0-7.5-3.364-7.5-7.5v-30c0-4.136 3.364-7.5 7.5-7.5h205c4.136 0 7.5 3.364 7.5 7.5v30c0 4.136-3.364 7.5-7.5 7.5h-140.949c-7.588 0-14.977 2.675-20.806 7.533l-20.746 17.288v-12.321c0-6.893-5.607-12.5-12.5-12.5z"/><path d="m467.125 212.5c0-12.407-10.093-22.5-22.5-22.5h-205c-12.407 0-22.5 10.093-22.5 22.5v60c0 12.407 10.093 22.5 22.5 22.5h205c12.407 0 22.5-10.093 22.5-22.5zm-15 60c0 4.136-3.364 7.5-7.5 7.5h-205c-4.136 0-7.5-3.364-7.5-7.5v-60c0-4.136 3.364-7.5 7.5-7.5h205c4.136 0 7.5 3.364 7.5 7.5z"/><path d="m424.625 220h-122.691c-4.142 0-7.5 3.358-7.5 7.5s3.358 7.5 7.5 7.5h122.691c4.142 0 7.5-3.358 7.5-7.5s-3.358-7.5-7.5-7.5z"/><path d="m258.625 235h13.309c4.142 0 7.5-3.358 7.5-7.5s-3.358-7.5-7.5-7.5h-13.309c-4.142 0-7.5 3.358-7.5 7.5s3.358 7.5 7.5 7.5z"/><path d="m388.785 355h35.84c4.142 0 7.5-3.358 7.5-7.5s-3.358-7.5-7.5-7.5h-35.84c-4.142 0-7.5 3.358-7.5 7.5s3.358 7.5 7.5 7.5z"/><path d="m258.625 355h100.16c4.142 0 7.5-3.358 7.5-7.5s-3.358-7.5-7.5-7.5h-100.16c-4.142 0-7.5 3.358-7.5 7.5s3.358 7.5 7.5 7.5z"/><path d="m384.625 250h-18.138c-4.142 0-7.5 3.358-7.5 7.5s3.358 7.5 7.5 7.5h18.138c4.142 0 7.5-3.358 7.5-7.5s-3.358-7.5-7.5-7.5z"/><path d="m336.487 250h-77.862c-4.142 0-7.5 3.358-7.5 7.5s3.358 7.5 7.5 7.5h77.862c4.142 0 7.5-3.358 7.5-7.5s-3.358-7.5-7.5-7.5z"/><path d="m188.125 358.5c0-4.142-3.358-7.5-7.5-7.5h-50c-4.142 0-7.5 3.358-7.5 7.5s3.358 7.5 7.5 7.5h50c4.142 0 7.5-3.358 7.5-7.5z"/><path d="m52.625 366h48c4.142 0 7.5-3.358 7.5-7.5s-3.358-7.5-7.5-7.5h-48c-4.142 0-7.5 3.358-7.5 7.5s3.358 7.5 7.5 7.5z"/><path d="m52.625 396h89.224c4.142 0 7.5-3.358 7.5-7.5s-3.358-7.5-7.5-7.5h-89.224c-4.142 0-7.5 3.358-7.5 7.5s3.358 7.5 7.5 7.5z"/></g></g></svg>