<svg id="Capa_1" enable-background="new 0 0 512 512" height="512" viewBox="0 0 512 512" width="512" xmlns="http://www.w3.org/2000/svg"><g><g><path d="m471.422 455.697-432.922.553c-16.569 0-30-13.431-30-30v-178c0-11.511 5.483-22.507 14.996-27.538 4.18-2.211 8.946-3.462 14.004-3.462h437c16.569 0 30 13.431 30 30v180c0 5.058-1.252 9.824-3.462 14.004-5.031 9.513-18.105 14.443-29.616 14.443z" fill="#8e868e"/><path d="m501.03 441.25c-5.02 9.51-15.02 16-26.53 16h-437c-16.57 0-30-13.43-30-30v-180c0-11.51 6.48-21.51 16-26.53v206.53c0 7.72 6.28 14 14 14z" fill="#766d78"/><g><path d="m86 306.75h-20c-2.761 0-5-2.239-5-5v-20c0-2.761 2.239-5 5-5h20c2.761 0 5 2.239 5 5v20c0 2.761-2.239 5-5 5z" fill="#f8f7f7"/><path d="m86 366.75h-20c-2.761 0-5-2.239-5-5v-20c0-2.761 2.239-5 5-5h20c2.761 0 5 2.239 5 5v20c0 2.761-2.239 5-5 5z" fill="#b3e59f"/><path d="m86 426.75h-20c-2.761 0-5-2.239-5-5v-20c0-2.761 2.239-5 5-5h20c2.761 0 5 2.239 5 5v20c0 2.761-2.239 5-5 5z" fill="#f8f7f7"/><path d="m146 306.75h-20c-2.761 0-5-2.239-5-5v-20c0-2.761 2.239-5 5-5h20c2.761 0 5 2.239 5 5v20c0 2.761-2.239 5-5 5z" fill="#b3e59f"/><path d="m146 366.75h-20c-2.761 0-5-2.239-5-5v-20c0-2.761 2.239-5 5-5h20c2.761 0 5 2.239 5 5v20c0 2.761-2.239 5-5 5z" fill="#b3e59f"/><path d="m326 426.75h-20c-2.761 0-5-2.239-5-5v-20c0-2.761 2.239-5 5-5h20c2.761 0 5 2.239 5 5v20c0 2.761-2.239 5-5 5z" fill="#f8f7f7"/><path d="m446 306.5h-20c-2.761 0-5-2.239-5-5v-20c0-2.761 2.239-5 5-5h20c2.761 0 5 2.239 5 5v20c0 2.761-2.239 5-5 5z" fill="#f8f7f7"/><path d="m446 426.5h-20c-2.761 0-5-2.239-5-5v-80c0-2.761 2.239-5 5-5h20c2.761 0 5 2.239 5 5v80c0 2.761-2.239 5-5 5z" fill="#ffd163"/><g fill="#f8f7f7"><path d="m386 306.5h-20c-2.761 0-5-2.239-5-5v-20c0-2.761 2.239-5 5-5h20c2.761 0 5 2.239 5 5v20c0 2.761-2.239 5-5 5z"/><path d="m386 366.5h-20c-2.761 0-5-2.239-5-5v-20c0-2.761 2.239-5 5-5h20c2.761 0 5 2.239 5 5v20c0 2.761-2.239 5-5 5z"/><path d="m386 426.5h-20c-2.761 0-5-2.239-5-5v-20c0-2.761 2.239-5 5-5h20c2.761 0 5 2.239 5 5v20c0 2.761-2.239 5-5 5z"/><path d="m326 306.75h-20c-2.761 0-5-2.239-5-5v-20c0-2.761 2.239-5 5-5h20c2.761 0 5 2.239 5 5v20c0 2.761-2.239 5-5 5z"/><path d="m266 426.75h-140c-2.761 0-5-2.239-5-5v-20c0-2.761 2.239-5 5-5h140c2.761 0 5 2.239 5 5v20c0 2.761-2.239 5-5 5z"/><path d="m266 306.75h-20c-2.761 0-5-2.239-5-5v-20c0-2.761 2.239-5 5-5h20c2.761 0 5 2.239 5 5v20c0 2.761-2.239 5-5 5z"/><path d="m241 341.75v20c0 2.761 2.239 5 5 5h80c2.761 0 5-2.239 5-5v-20c0-2.761-2.239-5-5-5h-80c-2.761 0-5 2.239-5 5z"/><path d="m206 306.75h-20c-2.761 0-5-2.239-5-5v-20c0-2.761 2.239-5 5-5h20c2.761 0 5 2.239 5 5v20c0 2.761-2.239 5-5 5z"/></g><path d="m206 366.75h-20c-2.761 0-5-2.239-5-5v-20c0-2.761 2.239-5 5-5h20c2.761 0 5 2.239 5 5v20c0 2.761-2.239 5-5 5z" fill="#b3e59f"/></g></g><g><path d="m7.5 377.479c4.142 0 7.5-3.358 7.5-7.5v-122.729c0-12.407 10.093-22.5 22.5-22.5h84.521c4.142 0 7.5-3.358 7.5-7.5s-3.358-7.5-7.5-7.5h-84.521c-20.678 0-37.5 16.822-37.5 37.5v122.729c0 4.142 3.358 7.5 7.5 7.5z"/><path d="m504.5 295.458c-4.142 0-7.5 3.358-7.5 7.5v124.292c0 12.407-10.093 22.5-22.5 22.5h-437c-12.407 0-22.5-10.093-22.5-22.5v-22.123c0-4.142-3.358-7.5-7.5-7.5s-7.5 3.358-7.5 7.5v22.123c0 20.678 16.822 37.5 37.5 37.5h437c20.678 0 37.5-16.822 37.5-37.5v-124.292c0-4.143-3.358-7.5-7.5-7.5z"/><path d="m474.5 209.75h-211v-22c0-17.92-14.58-32.5-32.5-32.5h-123.5c-9.649 0-17.5-7.851-17.5-17.5v-4c0-9.649 7.851-17.5 17.5-17.5h159.542c4.142 0 7.5-3.358 7.5-7.5s-3.358-7.5-7.5-7.5h-159.542c-17.92 0-32.5 14.58-32.5 32.5v4c0 17.92 14.58 32.5 32.5 32.5h123.5c9.649 0 17.5 7.851 17.5 17.5v22h-91.67c-4.142 0-7.5 3.358-7.5 7.5s3.358 7.5 7.5 7.5h317.67c12.407 0 22.5 10.093 22.5 22.5v20.729c0 4.142 3.358 7.5 7.5 7.5s7.5-3.358 7.5-7.5v-20.729c0-20.678-16.822-37.5-37.5-37.5z"/><path d="m98.5 281.75c0-6.893-5.607-12.5-12.5-12.5h-20c-6.893 0-12.5 5.607-12.5 12.5v20c0 6.893 5.607 12.5 12.5 12.5h20c6.893 0 12.5-5.607 12.5-12.5zm-15 17.5h-15v-15h15z"/><path d="m98.5 341.75c0-6.893-5.607-12.5-12.5-12.5h-20c-6.893 0-12.5 5.607-12.5 12.5v20c0 6.893 5.607 12.5 12.5 12.5h20c6.893 0 12.5-5.607 12.5-12.5zm-15 17.5h-15v-15h15z"/><path d="m86 389.25h-20c-6.893 0-12.5 5.607-12.5 12.5v20c0 6.893 5.607 12.5 12.5 12.5h20c6.893 0 12.5-5.607 12.5-12.5v-20c0-6.893-5.607-12.5-12.5-12.5zm-2.5 30h-15v-15h15z"/><path d="m113.5 281.75v20c0 6.893 5.607 12.5 12.5 12.5h20c6.893 0 12.5-5.607 12.5-12.5v-20c0-6.893-5.607-12.5-12.5-12.5h-20c-6.893 0-12.5 5.607-12.5 12.5zm15 2.5h15v15h-15z"/><path d="m126 374.25h20c6.893 0 12.5-5.607 12.5-12.5v-20c0-6.893-5.607-12.5-12.5-12.5h-20c-6.893 0-12.5 5.607-12.5 12.5v20c0 6.893 5.607 12.5 12.5 12.5zm2.5-30h15v15h-15z"/><path d="m326 389.25h-20c-6.893 0-12.5 5.607-12.5 12.5v20c0 6.893 5.607 12.5 12.5 12.5h20c6.893 0 12.5-5.607 12.5-12.5v-20c0-6.893-5.607-12.5-12.5-12.5zm-2.5 30h-15v-15h15z"/><path d="m458.5 281.5c0-6.893-5.607-12.5-12.5-12.5h-20c-6.893 0-12.5 5.607-12.5 12.5v20c0 6.893 5.607 12.5 12.5 12.5h20c6.893 0 12.5-5.607 12.5-12.5zm-15 17.5h-15v-15h15z"/><path d="m446 329h-20c-6.893 0-12.5 5.607-12.5 12.5v80c0 6.893 5.607 12.5 12.5 12.5h20c6.893 0 12.5-5.607 12.5-12.5v-80c0-6.893-5.607-12.5-12.5-12.5zm-2.5 90h-15v-75h15z"/><path d="m398.5 281.5c0-6.893-5.607-12.5-12.5-12.5h-20c-6.893 0-12.5 5.607-12.5 12.5v20c0 6.893 5.607 12.5 12.5 12.5h20c6.893 0 12.5-5.607 12.5-12.5zm-15 17.5h-15v-15h15z"/><path d="m398.5 341.5c0-6.893-5.607-12.5-12.5-12.5h-20c-6.893 0-12.5 5.607-12.5 12.5v20c0 6.893 5.607 12.5 12.5 12.5h20c6.893 0 12.5-5.607 12.5-12.5zm-15 17.5h-15v-15h15z"/><path d="m386 389h-20c-6.893 0-12.5 5.607-12.5 12.5v20c0 6.893 5.607 12.5 12.5 12.5h20c6.893 0 12.5-5.607 12.5-12.5v-20c0-6.893-5.607-12.5-12.5-12.5zm-2.5 30h-15v-15h15z"/><path d="m338.5 281.75c0-6.893-5.607-12.5-12.5-12.5h-20c-6.893 0-12.5 5.607-12.5 12.5v20c0 6.893 5.607 12.5 12.5 12.5h20c6.893 0 12.5-5.607 12.5-12.5zm-15 17.5h-15v-15h15z"/><path d="m113.5 421.75c0 6.893 5.607 12.5 12.5 12.5h140c6.893 0 12.5-5.607 12.5-12.5v-20c0-6.893-5.607-12.5-12.5-12.5h-140c-6.893 0-12.5 5.607-12.5 12.5zm15-17.5h135v15h-135z"/><path d="m246 314.25h20c6.893 0 12.5-5.607 12.5-12.5v-20c0-6.893-5.607-12.5-12.5-12.5h-20c-6.893 0-12.5 5.607-12.5 12.5v20c0 6.893 5.607 12.5 12.5 12.5zm2.5-30h15v15h-15z"/><path d="m338.5 341.75c0-6.893-5.607-12.5-12.5-12.5h-80c-6.893 0-12.5 5.607-12.5 12.5v20c0 6.893 5.607 12.5 12.5 12.5h80c6.893 0 12.5-5.607 12.5-12.5zm-15 17.5h-75v-15h75z"/><path d="m186 314.25h20c6.893 0 12.5-5.607 12.5-12.5v-20c0-6.893-5.607-12.5-12.5-12.5h-20c-6.893 0-12.5 5.607-12.5 12.5v20c0 6.893 5.607 12.5 12.5 12.5zm2.5-30h15v15h-15z"/><path d="m173.5 361.75c0 6.893 5.607 12.5 12.5 12.5h20c6.893 0 12.5-5.607 12.5-12.5v-20c0-6.893-5.607-12.5-12.5-12.5h-20c-6.893 0-12.5 5.607-12.5 12.5zm15-17.5h15v15h-15z"/><path d="m451.5 239.25h-300c-4.142 0-7.5 3.358-7.5 7.5s3.358 7.5 7.5 7.5h300c4.142 0 7.5-3.358 7.5-7.5s-3.358-7.5-7.5-7.5z"/><path d="m69 246.75v-.25c0-4.142-3.358-7.5-7.5-7.5s-7.5 3.358-7.5 7.5v.25c0 4.142 3.358 7.5 7.5 7.5s7.5-3.358 7.5-7.5z"/><path d="m99 246.5c0-4.142-3.358-7.5-7.5-7.5s-7.5 3.358-7.5 7.5v.25c0 4.142 3.358 7.5 7.5 7.5s7.5-3.358 7.5-7.5z"/><path d="m129 246.75v-.25c0-4.142-3.358-7.5-7.5-7.5s-7.5 3.358-7.5 7.5v.25c0 4.142 3.358 7.5 7.5 7.5s7.5-3.358 7.5-7.5z"/><path d="m302.149 116.25h49.351c17.92 0 32.5-14.58 32.5-32.5v-29c0-4.142-3.358-7.5-7.5-7.5s-7.5 3.358-7.5 7.5v29c0 9.649-7.851 17.5-17.5 17.5h-49.351c-4.142 0-7.5 3.358-7.5 7.5s3.358 7.5 7.5 7.5z"/></g></g></svg>