<svg id="Capa_1" enable-background="new 0 0 512 512" height="512" viewBox="0 0 512 512" width="512" xmlns="http://www.w3.org/2000/svg"><g><g><path d="m504.5 142.74v292c0 13.807-11.193 25-25 25h-447c-13.807 0-25-11.193-25-25v-292z" fill="#f8f7f7"/><path d="m504.5 142.75v15h-476c-3.31 0-6 2.69-6 6v293.91c-8.83-3.85-15-12.66-15-22.91v-292z" fill="#e8e8e8"/><path d="m504.5 75.75v67.5h-497v-67.5c0-13.807 11.193-25 25-25h447c13.807 0 25 11.193 25 25z" fill="#855b51"/><g fill="#724d44"><path d="m250.258 126.75c-8.255 0-14.947-6.716-14.947-15s6.692-15 14.947-15h186.315c8.255 0 14.947 6.716 14.947 15s-6.692 15-14.947 15z"/><ellipse cx="172.369" cy="110.75" rx="14.947" ry="15"/><path d="m182.861 121.434 12.874-12.869-13.139 1.179z"/><path d="m162.092 99.858 12.562-12.516-2.693 10.408z"/><ellipse cx="111.534" cy="110.75" rx="14.947" ry="15"/><path d="m122.053 121.407 12.382-12.499-12.674.836z"/><path d="m101.257 99.858 12.371-12.459-2.502 10.351z"/><ellipse cx="52.447" cy="110.75" rx="14.947" ry="15"/><path d="m63.269 121.096 12.721-13.186-13.139 1.381z"/><path d="m42.17 99.858 11.622-12.038-1.753 9.93z"/></g><ellipse cx="185.349" cy="97.75" fill="#b3e59f" rx="14.947" ry="15"/><path d="m240.416 100.461 13.037-12.859-3.025 14.276z" fill="#724d44"/><path d="m447.33 122.165 13.149-13.179-10.185 3.381z" fill="#724d44"/><ellipse cx="124.446" cy="97.75" fill="#ffd163" rx="14.947" ry="15"/><ellipse cx="64.995" cy="97.75" fill="#dc4955" rx="14.947" ry="15"/><path d="m263.237 113.75c-8.255 0-14.947-6.716-14.947-15s6.692-15 14.947-15h186.315c8.255 0 14.947 6.716 14.947 15s-6.692 15-14.947 15z" fill="#f8f7f7"/><path d="m454.5 212.5h-397c-5.523 0-10-4.477-10-10v-10c0-5.523 4.477-10 10-10h397c5.523 0 10 4.477 10 10v10c0 5.523-4.477 10-10 10z" fill="#e8e8e8"/><g><path d="m105.5 331.5h-47c-5.523 0-10-4.477-10-10v-38c0-5.523 4.477-10 10-10l2-1h46c5.523 0 10 4.477 10 10v37l-1 2c0 5.523-4.477 10-10 10z" fill="#c8b8f4"/><path d="m116.5 319.5v3c0 5.523-4.477 10-10 10h-49c-5.523 0-10-4.477-10-10v-40c0-5.523 4.477-10 10-10h3v42c0 2.761 2.239 5 5 5z" fill="#b09eef"/></g><g><path d="m354.5 391.5h-47c-5.523 0-10-4.477-10-10v-38c0-5.523 4.477-10 10-10l2-1h46c5.523 0 10 4.477 10 10v37l-1 2c0 5.523-4.477 10-10 10z" fill="#bae6ef"/><path d="m365.5 379.5v3c0 5.523-4.477 10-10 10h-49c-5.523 0-10-4.477-10-10v-40c0-5.523 4.477-10 10-10h3v42c0 2.761 2.239 5 5 5z" fill="#94d8e6"/></g><g><path d="m453.5 391.5h-47c-5.523 0-10-4.477-10-10v-38c0-5.523 4.477-10 10-10l2-1h46c5.523 0 10 4.477 10 10v37l-1 2c0 5.523-4.477 10-10 10z" fill="#ffd163"/><path d="m464.5 379.5v3c0 5.523-4.477 10-10 10h-49c-5.523 0-10-4.477-10-10v-40c0-5.523 4.477-10 10-10h3v42c0 2.761 2.239 5 5 5z" fill="#ffb65f"/></g></g><g><path d="m479.5 44.5h-447c-17.92 0-32.5 14.58-32.5 32.5v256.127c0 4.142 3.358 7.5 7.5 7.5s7.5-3.358 7.5-7.5v-183.18h482v285.053c0 9.649-7.851 17.5-17.5 17.5h-447c-9.649 0-17.5-7.851-17.5-17.5v-66.958c0-4.142-3.358-7.5-7.5-7.5s-7.5 3.358-7.5 7.5v66.958c0 17.92 14.58 32.5 32.5 32.5h447c17.921 0 32.5-14.58 32.5-32.5v-358c0-17.92-14.579-32.5-32.5-32.5zm-464.5 90.447v-57.947c0-9.649 7.851-17.5 17.5-17.5h447c9.649 0 17.5 7.851 17.5 17.5v57.947z"/><path d="m66.245 74.947c-12.407 0-22.5 10.093-22.5 22.5s10.093 22.5 22.5 22.5 22.5-10.093 22.5-22.5-10.094-22.5-22.5-22.5zm0 30c-4.136 0-7.5-3.364-7.5-7.5s3.364-7.5 7.5-7.5 7.5 3.364 7.5 7.5-3.365 7.5-7.5 7.5z"/><path d="m126.245 74.947c-12.407 0-22.5 10.093-22.5 22.5s10.093 22.5 22.5 22.5 22.5-10.093 22.5-22.5-10.094-22.5-22.5-22.5zm0 30c-4.136 0-7.5-3.364-7.5-7.5s3.364-7.5 7.5-7.5 7.5 3.364 7.5 7.5-3.365 7.5-7.5 7.5z"/><path d="m186.245 74.947c-12.407 0-22.5 10.093-22.5 22.5s10.093 22.5 22.5 22.5 22.5-10.093 22.5-22.5-10.094-22.5-22.5-22.5zm0 30c-4.136 0-7.5-3.364-7.5-7.5s3.364-7.5 7.5-7.5 7.5 3.364 7.5 7.5-3.365 7.5-7.5 7.5z"/><path d="m450 74.947h-54.957c-4.143 0-7.5 3.358-7.5 7.5s3.357 7.5 7.5 7.5h54.957c4.136 0 7.5 3.364 7.5 7.5s-3.364 7.5-7.5 7.5h-185c-4.136 0-7.5-3.364-7.5-7.5s3.364-7.5 7.5-7.5h94.937c4.143 0 7.5-3.358 7.5-7.5s-3.357-7.5-7.5-7.5h-94.937c-12.407 0-22.5 10.093-22.5 22.5s10.093 22.5 22.5 22.5h185c12.406 0 22.5-10.093 22.5-22.5s-10.094-22.5-22.5-22.5z"/><path d="m256 380.776c-4.142 0-7.5 3.358-7.5 7.5v34.224c0 4.142 3.358 7.5 7.5 7.5 4.143 0 7.5-3.358 7.5-7.5v-34.224c0-4.142-3.357-7.5-7.5-7.5z"/><path d="m263.5 272.5c0-4.142-3.357-7.5-7.5-7.5-4.142 0-7.5 3.358-7.5 7.5v80.713c0 4.142 3.358 7.5 7.5 7.5 4.143 0 7.5-3.358 7.5-7.5z"/><path d="m57.5 190h66.776c4.142 0 7.5-3.358 7.5-7.5s-3.358-7.5-7.5-7.5h-66.776c-9.649 0-17.5 7.851-17.5 17.5v10c0 9.649 7.851 17.5 17.5 17.5h397c9.649 0 17.5-7.851 17.5-17.5v-10c0-9.649-7.851-17.5-17.5-17.5h-295.117c-4.142 0-7.5 3.358-7.5 7.5s3.358 7.5 7.5 7.5h295.117c1.379 0 2.5 1.122 2.5 2.5v10c0 1.378-1.121 2.5-2.5 2.5h-397c-1.378 0-2.5-1.122-2.5-2.5v-10c0-1.378 1.122-2.5 2.5-2.5z"/><path d="m464.5 235h-22.096c-4.143 0-7.5 3.358-7.5 7.5s3.357 7.5 7.5 7.5h22.096c4.143 0 7.5-3.358 7.5-7.5s-3.357-7.5-7.5-7.5z"/><path d="m419.904 242.5c0-4.142-3.357-7.5-7.5-7.5h-220.085c-4.142 0-7.5 3.358-7.5 7.5s3.358 7.5 7.5 7.5h220.085c4.143 0 7.5-3.358 7.5-7.5z"/><path d="m169.819 242.5c0-4.142-3.358-7.5-7.5-7.5h-94.819c-4.142 0-7.5 3.358-7.5 7.5s3.358 7.5 7.5 7.5h94.819c4.142 0 7.5-3.358 7.5-7.5z"/><path d="m40 322.5c0 9.649 7.851 17.5 17.5 17.5h49c9.649 0 17.5-7.851 17.5-17.5v-40c0-9.649-7.851-17.5-17.5-17.5h-49c-9.649 0-17.5 7.851-17.5 17.5zm15-40c0-1.378 1.122-2.5 2.5-2.5h49c1.378 0 2.5 1.122 2.5 2.5v40c0 1.378-1.122 2.5-2.5 2.5h-49c-1.378 0-2.5-1.122-2.5-2.5z"/><path d="m373 382.5v-40c0-9.649-7.851-17.5-17.5-17.5h-49c-9.649 0-17.5 7.851-17.5 17.5v40c0 9.649 7.851 17.5 17.5 17.5h49c9.649 0 17.5-7.851 17.5-17.5zm-69 0v-40c0-1.378 1.121-2.5 2.5-2.5h49c1.379 0 2.5 1.122 2.5 2.5v40c0 1.378-1.121 2.5-2.5 2.5h-49c-1.379 0-2.5-1.122-2.5-2.5z"/><path d="m472 382.5v-40c0-9.649-7.851-17.5-17.5-17.5h-49c-9.649 0-17.5 7.851-17.5 17.5v40c0 9.649 7.851 17.5 17.5 17.5h49c9.649 0 17.5-7.851 17.5-17.5zm-69 0v-40c0-1.378 1.121-2.5 2.5-2.5h49c1.379 0 2.5 1.122 2.5 2.5v40c0 1.378-1.121 2.5-2.5 2.5h-49c-1.379 0-2.5-1.122-2.5-2.5z"/><path d="m216.5 265h-70c-4.142 0-7.5 3.358-7.5 7.5s3.358 7.5 7.5 7.5h70c4.142 0 7.5-3.358 7.5-7.5s-3.358-7.5-7.5-7.5z"/><path d="m216.5 295h-70c-4.142 0-7.5 3.358-7.5 7.5s3.358 7.5 7.5 7.5h70c4.142 0 7.5-3.358 7.5-7.5s-3.358-7.5-7.5-7.5z"/><path d="m196.5 340c4.142 0 7.5-3.358 7.5-7.5s-3.358-7.5-7.5-7.5h-50c-4.142 0-7.5 3.358-7.5 7.5s3.358 7.5 7.5 7.5z"/><path d="m216.5 355h-149c-4.142 0-7.5 3.358-7.5 7.5s3.358 7.5 7.5 7.5h149c4.142 0 7.5-3.358 7.5-7.5s-3.358-7.5-7.5-7.5z"/><path d="m216.5 385h-92.734c-4.142 0-7.5 3.358-7.5 7.5s3.358 7.5 7.5 7.5h92.734c4.142 0 7.5-3.358 7.5-7.5s-3.358-7.5-7.5-7.5z"/><path d="m47.5 400h46.266c4.142 0 7.5-3.358 7.5-7.5s-3.358-7.5-7.5-7.5h-46.266c-4.142 0-7.5 3.358-7.5 7.5s3.358 7.5 7.5 7.5z"/><path d="m47.5 430h99c4.142 0 7.5-3.358 7.5-7.5s-3.358-7.5-7.5-7.5h-99c-4.142 0-7.5 3.358-7.5 7.5s3.358 7.5 7.5 7.5z"/><path d="m464.5 265h-72.649c-4.143 0-7.5 3.358-7.5 7.5s3.357 7.5 7.5 7.5h72.649c4.143 0 7.5-3.358 7.5-7.5s-3.357-7.5-7.5-7.5z"/><path d="m361.851 265h-45.351c-4.143 0-7.5 3.358-7.5 7.5s3.357 7.5 7.5 7.5h45.351c4.143 0 7.5-3.358 7.5-7.5s-3.358-7.5-7.5-7.5z"/><path d="m289 302.5c0 4.142 3.357 7.5 7.5 7.5h134c4.143 0 7.5-3.358 7.5-7.5s-3.357-7.5-7.5-7.5h-134c-4.143 0-7.5 3.358-7.5 7.5z"/><path d="m357.298 430h73.202c4.143 0 7.5-3.358 7.5-7.5s-3.357-7.5-7.5-7.5h-73.202c-4.143 0-7.5 3.358-7.5 7.5s3.357 7.5 7.5 7.5z"/><path d="m296.5 415c-4.143 0-7.5 3.358-7.5 7.5s3.357 7.5 7.5 7.5h30.798c4.143 0 7.5-3.358 7.5-7.5s-3.357-7.5-7.5-7.5z"/></g></g></svg>