<svg id="Capa_1" enable-background="new 0 0 512 512" height="512" viewBox="0 0 512 512" width="512" xmlns="http://www.w3.org/2000/svg"><g><g><path d="m504.5 256c0-137.243-111.257-248.5-248.5-248.5-13.382 0-26.466 2.38-39.183 4.417-117.711 18.856-204 120.262-204 244.123 0 110.264 67.601 201.73 167.009 234.225 22.135 7.236 44.537 13.431 68.92 14.13 2.41.069 4.828.104 7.254.104 137.243.001 248.5-111.256 248.5-248.499z" fill="#ffd163"/><path d="m264.5 504.35c-2.82.1-5.66.15-8.5.15-137.24 0-248.5-111.26-248.5-248.5s111.26-248.5 248.5-248.5c2.84 0 5.68.05 8.5.15-133.3 4.47-240 113.95-240 248.35s106.7 243.88 240 248.35z" fill="#ffb65f"/><path d="m469.5 256c0-115.848-92.269-210.145-207.326-213.412-2.051-.058-4.109.307-6.174.307-57.584 0-108.451 23.434-146.853 60.399-40.232 38.727-64.294 92.418-64.294 152.747 0 81.394 45.77 149.226 112.073 185.235 29.748 16.155 62.556 28.224 99.074 28.224 117.913 0 213.5-95.587 213.5-213.5z" fill="#ffb65f"/><path d="m266 469.26c-3.31.16-6.65.24-10 .24-117.91 0-213.5-95.59-213.5-213.5s95.59-213.5 213.5-213.5c3.35 0 6.69.08 10 .24-113.27 5.21-203.5 98.7-203.5 213.26s90.23 208.05 203.5 213.26z" fill="#ff9350"/><g><path d="m220.645 326.138c0-18.658-15.125-33.783-33.783-33.783-4.505 0-8.804.882-12.733 2.482-12.346 5.028-18.303 18.39-18.303 32.543 0 18.658 12.379 29.785 31.037 29.785 11.481 0 21.624-2.972 27.728-11.725 3.816-5.471 6.054-12.125 6.054-19.302z" fill="#f8f7f7"/><path d="m214.59 345.44c-6.1 8.75-16.25 14.48-27.73 14.48-18.66 0-33.78-15.12-33.78-33.78 0-14.16 8.7-26.27 21.05-31.3-3.81 5.47-6.05 12.12-6.05 19.3 0 18.66 15.12 33.78 33.78 33.78 4.5 0 8.8-.88 12.73-2.48z" fill="#e8e8e8"/><g><path d="m293.572 368.5c-2.051 0-4.042-.256-5.943-.737-10.453-2.647-16.427-14.734-16.427-26.01 0-55.587-44.816-99.252-100.404-99.252-11.494 0-23.279-6.978-25.707-17.738-.387-1.716-.592-3.501-.592-5.334 0-13.327 10.803-24.13 24.13-24.13 82.198 0 149.072 66.873 149.072 149.072.002 13.325-10.801 24.129-24.129 24.129z" fill="#f8f7f7"/></g><g><path d="m288.44 344.37c0 1.2-.48 11.71-.81 23.39-10.45-2.64-18.19-12.11-18.19-23.39 0-55.59-45.22-100.81-100.81-100.81-11.5 0-21.11-8.04-23.53-18.8 12.12-.03 22.42-.2 23.53-.2 66.07 0 119.81 53.75 119.81 119.81z" fill="#e8e8e8"/></g><g><path d="m379.37 368.5c-1.666 0-3.292-.169-4.863-.49-10.996-2.25-17.763-13.386-17.763-25.046 0-102.896-81.947-187.046-184.844-187.046-11.595 0-24.549-6.335-26.87-17.237-.347-1.629-.529-3.318-.529-5.05 0-13.327 10.803-24.13 24.13-24.13 62.736 0 121.717 24.43 166.078 68.792s68.791 103.341 68.791 166.077c0 13.326-10.803 24.13-24.13 24.13z" fill="#f8f7f7"/></g><g><path d="m374.49 368.01c-10.99-2.26-19.25-11.98-19.25-23.64 0-102.9-83.71-186.61-186.61-186.61-11.6 0-21.28-8.18-23.6-19.08 11.78.14 22.39.08 23.6.08 113.37 0 205.61 92.24 205.61 205.61 0 1.25 0 12.03.25 23.64z" fill="#e8e8e8"/></g></g></g><g><path d="m437.02 74.98c-48.352-48.351-112.64-74.98-181.02-74.98-77.606 0-150.157 34.628-199.049 95.005-2.607 3.219-2.11 7.941 1.108 10.548 3.221 2.608 7.942 2.11 10.549-1.109 46.031-56.843 114.332-89.444 187.392-89.444 132.888 0 241 108.112 241 241s-108.112 241-241 241-241-108.112-241-241c0-43.639 11.783-86.385 34.075-123.618 2.128-3.554.972-8.16-2.582-10.287-3.551-2.127-8.159-.972-10.287 2.582-23.686 39.56-36.206 84.971-36.206 131.323 0 68.38 26.629 132.667 74.98 181.02 48.352 48.351 112.64 74.98 181.02 74.98s132.668-26.629 181.02-74.98c48.351-48.353 74.98-112.64 74.98-181.02s-26.629-132.667-74.98-181.02z"/><path d="m249.741 476.913c2.081.058 4.187.087 6.259.087 59.031 0 114.529-22.988 156.271-64.729s64.729-97.24 64.729-156.271c0-56.2-21.113-109.758-59.451-150.809-2.825-3.026-7.571-3.189-10.601-.362-3.027 2.827-3.189 7.573-.362 10.601 35.734 38.262 55.414 88.185 55.414 140.57 0 113.589-92.411 206-206 206-1.934 0-3.9-.027-5.843-.081-4.162-.103-7.591 3.149-7.705 7.29s3.149 7.589 7.289 7.704z"/><path d="m390.906 80.94c-38.943-30.054-85.593-45.94-134.906-45.94-59.031 0-114.529 22.988-156.271 64.729s-64.729 97.24-64.729 156.271c0 105.623 75.142 196.863 178.671 216.949 3.164.623 7.428-1.225 8.791-5.934.789-4.066-1.867-8.002-5.934-8.792-96.493-18.72-166.528-103.767-166.528-202.223 0-113.589 92.411-206 206-206 45.967 0 89.447 14.805 125.742 42.815 3.277 2.53 7.988 1.925 10.52-1.355 2.53-3.279 1.924-7.989-1.356-10.52z"/><path d="m145.58 326.138c0 22.763 18.52 41.283 41.282 41.283s41.282-18.52 41.282-41.283-18.52-41.283-41.282-41.283-41.282 18.52-41.282 41.283zm67.565 0c0 14.492-11.79 26.283-26.282 26.283s-26.282-11.791-26.282-26.283 11.79-26.283 26.282-26.283 26.282 11.791 26.282 26.283z"/><path d="m261.942 344.37c0 17.441 14.189 31.63 31.63 31.63s31.631-14.189 31.631-31.63c0-12.666-1.525-25.274-4.533-37.476-.991-4.022-5.063-6.482-9.077-5.486-4.022.991-6.479 5.055-5.487 9.077 2.719 11.028 4.098 22.428 4.098 33.885 0 9.17-7.461 16.63-16.631 16.63s-16.63-7.46-16.63-16.63c0-59.723-48.588-108.312-108.312-108.312-9.17 0-16.631-7.46-16.631-16.63s7.461-16.631 16.631-16.631c52.993 0 101.155 29.298 125.69 76.462 1.911 3.675 6.442 5.104 10.114 3.192 3.675-1.912 5.104-6.44 3.192-10.115-27.127-52.146-80.388-84.539-138.997-84.539-17.441 0-31.631 14.189-31.631 31.631 0 17.441 14.189 31.63 31.631 31.63 51.453 0 93.312 41.859 93.312 93.312z"/><path d="m168.631 102c-17.442 0-31.631 14.189-31.631 31.63s14.189 31.63 31.631 31.63c98.761 0 179.108 80.348 179.108 179.109 0 17.441 14.189 31.63 31.63 31.63 17.442.001 31.631-14.188 31.631-31.629 0-64.739-25.211-125.604-70.988-171.381-45.778-45.778-106.642-70.989-171.381-70.989zm210.738 259c-9.17 0-16.63-7.46-16.63-16.63 0-107.032-87.076-194.109-194.108-194.109-9.17 0-16.631-7.46-16.631-16.63s7.461-16.631 16.631-16.631c60.732 0 117.83 23.65 160.773 66.595 42.946 42.945 66.596 100.042 66.596 160.775 0 9.17-7.461 16.63-16.631 16.63z"/></g></g></svg>