<svg id="Capa_1" enable-background="new 0 0 512 512" height="512" viewBox="0 0 512 512" width="512" xmlns="http://www.w3.org/2000/svg"><g><g><path d="m241 405.495h30v36.009h-30z" fill="#e8e8e8"/><path d="m241 260.5h30v46.133h-30z" fill="#e8e8e8"/><path d="m198.533 456.5h34.935v30h-34.935z" fill="#d8d8d8"/><path d="m321.5 399.5h-131c-8.284 0-15-6.716-15-15v-57c0-8.284 6.716-15 15-15h131c8.284 0 15 6.716 15 15v57c0 8.284-6.716 15-15 15z" fill="#e0f5fc"/><path d="m299.5 312.5v11c0 12.13-9.87 22-22 22h-43c-12.13 0-22-9.87-22-22v-11z" fill="#bae6ef"/><path d="m299.5 387.5v11c0 .34-.01.67-.03 1h-86.94c-.02-.33-.03-.66-.03-1v-11c0-12.13 9.87-22 22-22h43c12.13 0 22 9.87 22 22z" fill="#bae6ef"/><g fill="#f8f7f7"><path d="m277.5 302.5h-43c-5.523 0-10 4.477-10 10v11c0 5.523 4.477 10 10 10h43c5.523 0 10-4.477 10-10v-11c0-5.523-4.477-10-10-10z"/><path d="m277.5 377.5h-43c-5.523 0-10 4.477-10 10v11c0 5.523 4.477 10 10 10h43c5.523 0 10-4.477 10-10v-11c0-5.523-4.477-10-10-10z"/><path d="m271 438.5h-30c-5.523 0-9 5.477-9 11v44c0 5.523 4.477 10 10 10h28c5.523 0 11-3.477 11-9v-46c0-5.523-4.477-10-10-10z"/></g><path d="m281 494.5c0 5.52-4.48 10-10 10h-30c-5.523 0-10-4.477-10-10v-46c0-5.52 4.48-10 10-10v51c0 2.761 2.239 5 5 5z" fill="#e8e8e8"/><path d="m286.5 226.5-61-1v26c0 5.523 4.477 10 10 10l5.5 1h36.5c5.523 0 10-4.477 10-10v-7.91z" fill="#f8f7f7"/><path d="m224.5 226.5v26c0 5.523 4.477 10 10 10h6.5v-11.558c0-1.755 1.5-3.148 3.247-2.987 3.872.357 7.792.545 11.753.545 10.86 0 21.42-1.36 31.5-3.91v-18.09z" fill="#e8e8e8"/><path d="m256 8.037c-62.132 0-111.211 49.831-111.211 111.963s49.079 112.128 111.211 112.128c2.513 0 5.007.289 7.479.127 58.645-3.849 105.021-52.636 105.021-112.255 0-59.967-46.919-108.975-106.049-112.318-2.135-.121-4.286.355-6.451.355zm0 184.463c-40.041 0-72.5-32.459-72.5-72.5s32.459-72.5 72.5-72.5 72.5 32.459 72.5 72.5-32.459 72.5-72.5 72.5z" fill="#ffd163"/><path d="m264 232.21c-2.64.2-5.31.29-8 .29-62.13 0-112.5-50.37-112.5-112.5s50.37-112.5 112.5-112.5c2.69 0 5.36.09 8 .29-58.4 4.1-104.5 52.77-104.5 112.21s46.1 108.11 104.5 112.21z" fill="#ffb65f"/><path d="m190.5 501.5h-5l-4-1c-5.523 0-10-4.477-10-10v-38c0-5.523 4.477-10 10-10l4-1h5c5.523 0 10 4.477 10 10v40c0 5.523-4.477 10-10 10z" fill="#f8f7f7"/><path d="m185.5 441.5v60h-5c-5.52 0-10-4.48-10-10v-12.5l1.702-5.44-1.702-9.56v-12.5c0-5.52 4.48-10 10-10z" fill="#e8e8e8"/><g><path d="m200.5 464v15h-30l2.197-7.092-2.197-7.908z" fill="#e8e8e8"/></g><g><path d="m170.5 464h15v15h-15z" fill="#d8d8d8"/></g></g><g><path d="m256 0c-66.168 0-120 53.832-120 120 0 52.521 33.919 97.265 81 113.489v19.011c0 9.312 7.317 16.927 16.5 17.449v25.101c-6.534.372-12.108 4.334-14.787 9.949h-28.213c-12.407 0-22.5 10.093-22.5 22.5v10.394c0 4.142 3.358 7.5 7.5 7.5s7.5-3.358 7.5-7.5v-10.393c0-4.136 3.364-7.5 7.5-7.5h26.5v3.5c0 9.649 7.851 17.5 17.5 17.5h43c9.649 0 17.5-7.851 17.5-17.5v-3.5h26.5c4.136 0 7.5 3.364 7.5 7.5v57c0 4.136-3.364 7.5-7.5 7.5h-26.5v-4.5c0-9.649-7.851-17.5-17.5-17.5h-43c-9.649 0-17.5 7.851-17.5 17.5v4.5h-26.5c-4.136 0-7.5-3.364-7.5-7.5v-11.627c0-4.142-3.358-7.5-7.5-7.5s-7.5 3.358-7.5 7.5v11.627c0 12.407 10.093 22.5 22.5 22.5h28.716c2.84 5.086 8.143 8.6 14.284 8.949v16.763c-5.902 2.816-10 8.824-10 15.787v.5h-15.7c-1.22-8.466-8.502-15-17.3-15h-10c-9.649 0-17.5 7.851-17.5 17.5v40c0 9.649 7.851 17.5 17.5 17.5h10c8.798 0 16.081-6.534 17.3-15h15.7v.5c0 9.649 7.851 17.5 17.5 17.5h30c9.649 0 17.5-7.851 17.5-17.5v-5.373c0-4.142-3.358-7.5-7.5-7.5s-7.5 3.358-7.5 7.5v5.373c0 1.378-1.122 2.5-2.5 2.5h-30c-1.378 0-2.5-1.122-2.5-2.5v-46c0-1.378 1.122-2.5 2.5-2.5h30c1.378 0 2.5 1.122 2.5 2.5v5.633c0 4.142 3.358 7.5 7.5 7.5s7.5-3.358 7.5-7.5v-5.632c0-6.963-4.098-12.972-10-15.787v-16.763c6.141-.35 11.444-3.863 14.284-8.949h28.716c12.407 0 22.5-10.093 22.5-22.5v-57c0-12.407-10.093-22.5-22.5-22.5h-28.213c-2.679-5.616-8.253-9.577-14.787-9.949v-25.101c9.183-.523 16.5-8.137 16.5-17.449v-19.069c22.953-7.922 43.355-22.709 57.981-42.745 2.442-3.346 1.71-8.038-1.635-10.48-3.346-2.442-8.038-1.71-10.48 1.635-19.728 27.023-51.454 43.157-84.866 43.157-57.897 0-105-47.103-105-105s47.103-105 105-105 105 47.103 105 105c0 11.252-1.768 22.321-5.255 32.899-1.297 3.934.841 8.174 4.775 9.471s8.174-.841 9.471-4.775c3.987-12.096 6.009-24.745 6.009-37.595 0-66.168-53.832-120-120-120zm7.5 416v15h-15v-15zm-83 33h10c1.378 0 2.5 1.122 2.5 2.5v12.5h-15v-12.5c0-1.378 1.122-2.5 2.5-2.5zm10 45h-10c-1.378 0-2.5-1.122-2.5-2.5v-12.5h15v12.5c0 1.378-1.122 2.5-2.5 2.5zm17.5-15v-15h15.5v15zm72-80.5c0 1.378-1.122 2.5-2.5 2.5h-43c-1.378 0-2.5-1.122-2.5-2.5v-11c0-1.378 1.122-2.5 2.5-2.5h43c1.378 0 2.5 1.122 2.5 2.5zm-31.5-103.5v-25h15v25zm31.5 17.5v11c0 1.378-1.122 2.5-2.5 2.5h-43c-1.378 0-2.5-1.122-2.5-2.5v-11c0-1.378 1.122-2.5 2.5-2.5h43c1.378 0 2.5 1.122 2.5 2.5zm0-74.955v14.955c0 1.378-1.122 2.5-2.5 2.5h-43c-1.378 0-2.5-1.122-2.5-2.5v-14.913c7.757 1.581 15.783 2.413 24 2.413 8.126 0 16.162-.843 24-2.455z"/><path d="m199.209 74.311c-3.474-2.253-8.119-1.264-10.374 2.211-8.397 12.948-12.835 27.982-12.835 43.478 0 44.112 35.888 80 80 80s80-35.888 80-80-35.888-80-80-80c-13.435 0-26.727 3.397-38.438 9.823-3.631 1.993-4.96 6.552-2.967 10.183 1.992 3.631 6.55 4.96 10.183 2.967 9.506-5.216 20.303-7.973 31.222-7.973 35.841 0 65 29.159 65 65s-29.159 65-65 65-65-29.159-65-65c0-12.592 3.604-24.804 10.42-35.315 2.254-3.476 1.264-8.12-2.211-10.374z"/></g></g></svg>