<svg id="Capa_1" enable-background="new 0 0 512.002 512.002" height="512" viewBox="0 0 512.002 512.002" width="512" xmlns="http://www.w3.org/2000/svg"><g><g><path d="m43.275 321.604-20.624-5.526c-10.669-2.858-16.583-12.869-13.724-23.538l-.449-1.182 17.57-65.573c2.859-10.669 13.826-17.001 24.495-14.142l3.915 1.049 16.289 6.047z" fill="#f8f7f7"/><path d="m370.009 413.865-22.66-8.481-24.982-4.285 31.501-117.566 47.643 12.766z" fill="#f8f7f7"/><path d="m375.23 394.389-5.22 19.48-47.64-12.77 5.22-19.47z" fill="#e8e8e8"/><path d="m268.681 155.481h-240.362c-10.946 0-19.819-8.873-19.819-19.819v-78.362c0-9.284 5.383-18.077 14-20.229 1.543-.385 3.157-.59 4.819-.59h242.362c10.946 0 19.819 8.873 19.819 19.819v80.362c0 1.661-.204 3.275-.59 4.817-2.152 8.618-10.945 14.002-20.229 14.002z" fill="#9e959e"/><path d="m288.91 141.479c-2.15 8.62-9.94 15-19.23 15h-242.36c-10.946 0-19.82-8.874-19.82-19.82v-80.36c0-9.28 6.38-17.08 15-19.23v94.41c0 5.523 4.477 10 10 10z" fill="#8e868e"/><path d="m71.17 217.169-16.712-4.477-21.755 81.015c-.572 2.134-2.765 3.4-4.899 2.828l-19.324-5.176-.29 1.09c-2.86 10.67 3.47 21.63 14.14 24.49l20.62 5.53z" fill="#e8e8e8"/><path d="m258.835 429.384-173.505-46.224c-30.02-8.044-47.836-38.901-39.792-68.921l25.039-92.928c3.996-14.912 12.668-30.385 25.023-37.6 12.518-7.311 27.838-9.812 42.947-5.764l177.53 47.569c30.02 8.044 47.836 38.901 39.792 68.921l-26.318 98.22c-4.086 15.248-14.056 27.347-26.814 34.508-12.359 6.938-29.13 6.177-43.902 2.219z" fill="#9e959e"/><path d="m302.74 427.169c-12.36 6.93-27.34 9.24-42.11 5.28l-177.53-47.57c-30.02-8.04-47.84-38.9-39.79-68.92l26.32-98.22c3.99-14.91 13.62-26.81 25.97-34.03l-36.84 136.39c-2.78 10.39-1.35 21.24 4.03 30.56s14.06 15.98 24.45 18.77z" fill="#8e868e"/><path d="m387.312 467.256-19.046-56.807 30.165-112.954 16.235-17.47 28.883-23.697c7.49-6.145 18.458.928 15.951 10.286l-53.996 201.515c-.779 2.909-2.574 4.974-4.779 6.168-4.922 2.665-11.098-.733-13.413-7.041z" fill="#9e959e"/><path d="m414.67 280.029-18.01 14.77-30.9 117.62 20.76 56.56c2.31 6.31 9.28 7.98 14.2 5.31l-21.206-57.458c-.428-1.159-.487-2.422-.171-3.616z" fill="#8e868e"/><path d="m148.389 286.938h-.001c-15.153 0-27.437-12.284-27.437-27.437l-23.29-166.777c-1.545-9.94 1.356-22.297 10.338-25.271 1.974-.654 4.091-1.009 6.301-1.009h68.178c12.27 0 21.647 10.947 19.763 23.071l-19.1 122.914-2.691 7.781-4.624 39.292c0 15.153-12.284 27.436-27.437 27.436z" fill="#f8f7f7"/><path d="m146.18 199.889c-4.81 0-9.491.564-13.983 1.625-1.709.404-3.401-.711-3.672-2.447l-20.525-131.608c-8.98 2.97-15.01 12.12-13.46 22.06l18.66 120.1 7.75 49.88c0 15.16 12.29 27.44 27.44 27.44.661 0 1.315-.032 1.965-.078.147-.01.294-.021.44-.033.639-.055 1.273-.129 1.898-.227.068-.011.134-.025.202-.036.613-.101 1.218-.225 1.816-.366.071-.017.142-.032.213-.049 11.996-2.931 20.906-13.745 20.906-26.651l7.31-47.07c-10.25-7.87-23.07-12.54-36.96-12.54z" fill="#e8e8e8"/><path d="m191.075 260.79c0-24.796-20.101-44.897-44.897-44.897-.575 0-1.147.011-1.716.032-9.971.375-18.978 4.836-26.256 10.684-10.24 8.229-15.702 20.031-15.702 34.19 0 24.796 18.878 44.168 43.674 44.168 4.479 0 8.805.064 12.887-1.157 18.516-5.538 32.01-22.703 32.01-43.02z" fill="#f8f7f7"/><path d="m159.52 303.669c-4.21 1.31-8.69 2.02-13.34 2.02-24.8 0-44.9-20.1-44.9-44.9 0-24.34 19.37-44.17 43.55-44.88-18.28 5.69-31.55 22.74-31.55 42.88 0 24.8 20.1 44.9 44.9 44.9.45 0 .89-.01 1.34-.02z" fill="#e8e8e8"/><circle cx="146.178" cy="260.79" fill="#e8e8e8" r="14.966"/><path d="m94.253 329.786 183.106 49.063c6.653 1.783 10.601 8.621 8.818 15.274-1.783 6.653-8.621 10.601-15.274 8.818l-183.106-49.062c-6.653-1.783-10.601-8.621-8.818-15.274 1.782-6.654 8.621-10.602 15.274-8.819z" fill="#f8f7f7"/><g><g><g><path d="m473.738 346.145c-3.327 0-6.365-2.229-7.249-5.598-1.052-4.006 1.344-8.107 5.35-9.159l30.757-8.073c4.006-1.052 8.106 1.344 9.158 5.35s-1.344 8.107-5.35 9.159l-30.757 8.073c-.637.168-1.279.248-1.909.248z" fill="#f8f7f7"/></g><g><path d="m475.922 444.726c-1.907 0-3.813-.722-5.276-2.17l-22.6-22.37c-2.943-2.914-2.968-7.663-.054-10.606 2.915-2.944 7.662-2.968 10.606-.054l22.6 22.37c2.943 2.914 2.968 7.663.054 10.606-1.467 1.482-3.398 2.224-5.33 2.224z" fill="#f8f7f7"/></g></g><g><path d="m490.216 391.4c-.643 0-1.296-.083-1.946-.257l-26.669-7.146c-4.001-1.072-6.375-5.185-5.303-9.186s5.185-6.375 9.186-5.304l26.669 7.146c4.001 1.072 6.375 5.185 5.303 9.186-.898 3.35-3.929 5.561-7.24 5.561z" fill="#f8f7f7"/></g></g><circle cx="148.389" cy="111.481" fill="#e8e8e8" r="15"/><g fill="#8e868e"><circle cx="244.5" cy="111.481" r="15"/><circle cx="52.5" cy="111.481" r="15"/></g></g><g><path d="m466.743 268.555c2.003-7.473-.904-15.009-7.405-19.202-6.502-4.192-14.565-3.732-20.546 1.176l-43.928 36.04-29.598-7.773c-.48-27.729-19.156-52.999-47.246-60.525l-34.25-9.177c-4.002-1.069-8.114 1.302-9.186 5.304-1.072 4.001 1.302 8.113 5.303 9.186l34.25 9.177c25.978 6.96 41.449 33.758 34.489 59.735l-26.318 98.221c-5.833 21.766-25.59 36.157-47.124 36.155-4.166 0-8.401-.539-12.612-1.667l-177.53-47.569c-12.584-3.372-23.102-11.442-29.615-22.725-6.515-11.283-8.245-24.427-4.873-37.011l26.317-98.22c3.688-13.76 12.976-24.918 25.474-31.077l5.65 36.362c-8.804 9.378-14.214 21.979-14.214 35.826 0 28.892 23.506 52.397 52.397 52.397s52.396-23.505 52.396-52.397c0-11.77-3.903-22.645-10.479-31.402l4.535-29.185 53.301 14.282c.65.174 1.304.257 1.946.257 3.312 0 6.342-2.21 7.239-5.561 1.072-4.001-1.302-8.113-5.303-9.186l-54.867-14.701 3.312-21.313h71.421c15.063 0 27.319-12.255 27.319-27.319v-80.363c0-15.063-12.256-27.319-27.319-27.319h-165.616c-4.143 0-7.5 3.358-7.5 7.5s3.357 7.5 7.5 7.5h165.617c6.793 0 12.319 5.526 12.319 12.319v80.362c0 6.793-5.526 12.319-12.319 12.319h-69.09l9.061-58.314c2.835-15.434-10.363-31.89-27.174-31.723h-68.177c-15.687-.431-29.921 15.137-27.174 31.723l9.062 58.314h-68.869c-6.793 0-12.319-5.526-12.319-12.319v-80.362c0-6.792 5.526-12.319 12.319-12.319h41.724c4.143 0 7.5-3.358 7.5-7.5s-3.357-7.5-7.5-7.5h-41.724c-15.063 0-27.319 12.255-27.319 27.319v80.362c0 15.064 12.256 27.319 27.319 27.319h71.199l1.436 9.241c-15.885 6.436-28.337 18.816-34.851 34.558l-12.619-3.381c-14.649-3.925-29.757 4.798-33.681 19.446l-17.861 66.66c-3.853 13.146 4.556 30.057 19.444 33.681l13.558 3.633c-.533 12.005 2.337 23.933 8.49 34.591 8.517 14.752 22.27 25.305 38.723 29.714l177.53 47.569c5.509 1.476 11.042 2.18 16.492 2.18 22.364-.001 43.254-11.881 54.727-31.028l30.165 7.842 19.404 52.88c2.579 7.029 8.937 11.451 16.341 11.451 7.041.142 14.893-5.073 16.931-12.948l25.797-96.278c1.072-4.001-1.302-8.113-5.303-9.186-4.003-1.07-8.114 1.302-9.186 5.304l-25.797 96.277c-.387 1.443-1.45 1.791-2.273 1.827-.827.036-1.912-.212-2.428-1.615l-19.945-54.355 29.685-112.992 45.008-36.926c1.15-.942 2.214-.611 2.902-.167.69.445 1.432 1.276 1.047 2.713l-19.199 71.654c-1.072 4.001 1.302 8.113 5.303 9.186 4.003 1.072 8.114-1.302 9.186-5.304zm-320.564 29.632c-20.621 0-37.397-16.776-37.397-37.397s16.776-37.397 37.397-37.397c20.62 0 37.396 16.776 37.396 37.397s-16.776 37.397-37.396 37.397zm-41.373-219.875c2.378-2.776 5.839-4.368 9.494-4.368h68.178c6.707.051 13.247 5.898 12.352 14.419l-19.983 128.6c-8.244-5.411-18.091-8.571-28.667-8.571-8.895 0-17.276 2.235-24.621 6.162l-19.611-126.191c-.561-3.612.481-7.275 2.858-10.051zm-88.126 225.561c-1.67-2.892-2.113-6.26-1.249-9.486l17.861-66.66c1.784-6.659 8.653-10.625 15.31-8.839l12.084 3.238-24.332 90.809-12.085-3.238c-3.225-.864-5.92-2.933-7.589-5.824zm343.727 99.403-24.298-6.317c.907-3.009 3.365-12.417 8.041-29.808 9.821-36.864 17.462-64.743 19.561-73.254l23.79 6.248z"/><path d="m242.958 321.749c3.312 0 6.342-2.21 7.239-5.561l9.841-36.729c1.072-4.001-1.302-8.113-5.303-9.186-4.001-1.074-8.114 1.303-9.186 5.304l-9.841 36.729c-1.072 4.001 1.302 8.113 5.303 9.186.651.174 1.304.257 1.947.257z"/><path d="m212.499 313.588c3.312 0 6.342-2.21 7.239-5.561l9.842-36.729c1.072-4.001-1.302-8.114-5.303-9.186-4.001-1.07-8.113 1.303-9.186 5.303l-9.842 36.729c-1.072 4.001 1.302 8.114 5.303 9.186.651.174 1.304.258 1.947.258z"/><path d="m285.194 278.434c-4.002-1.068-8.114 1.302-9.186 5.303l-9.842 36.729c-1.072 4.001 1.302 8.114 5.303 9.186 3.062.826 7.595-.674 9.186-5.303l9.842-36.729c1.072-4.001-1.302-8.113-5.303-9.186z"/><path d="m303.874 338.072c3.312 0 6.342-2.21 7.239-5.561l9.842-36.729c1.072-4.001-1.302-8.114-5.303-9.186-4.002-1.069-8.114 1.302-9.186 5.303l-9.842 36.729c-1.072 4.001 1.302 8.114 5.303 9.186.651.174 1.304.258 1.947.258z"/><path d="m146.179 238.324c-12.388 0-22.466 10.078-22.466 22.466s10.078 22.466 22.466 22.466 22.466-10.078 22.466-22.466-10.079-22.466-22.466-22.466zm0 29.932c-4.116 0-7.466-3.349-7.466-7.466s3.35-7.466 7.466-7.466 7.466 3.349 7.466 7.466-3.35 7.466-7.466 7.466z"/><path d="m276.616 395.202c-1.149.663-2.489.84-3.771.496l-104.604-28.029c-4.002-1.068-8.114 1.303-9.186 5.303-1.072 4.001 1.302 8.114 5.303 9.186l104.604 28.029c1.726.462 3.458.683 5.164.683 8.816 0 16.907-5.893 19.296-14.806 2.85-10.637-3.485-21.609-14.121-24.459l-183.107-49.064c-10.645-2.852-21.609 3.486-24.46 14.123-2.85 10.637 3.485 21.609 14.121 24.459l44.744 11.989c4.002 1.072 8.114-1.302 9.186-5.304 1.072-4.001-1.302-8.113-5.303-9.186l-44.744-11.989c-2.647-.709-4.225-3.441-3.516-6.088.71-2.647 3.446-4.226 6.089-3.516l183.106 49.063c1.328.601 4.092 1.72 3.515 6.09-.343 1.284-1.165 2.355-2.316 3.02z"/><path d="m511.754 328.666c-1.052-4.006-5.152-6.402-9.158-5.35l-30.757 8.073c-4.006 1.052-6.401 5.152-5.35 9.159.884 3.368 3.922 5.598 7.249 5.598.63 0 1.271-.08 1.909-.248l30.757-8.073c4.006-1.052 6.402-5.153 5.35-9.159z"/><path d="m458.599 409.526c-2.944-2.914-7.691-2.89-10.606.054-2.914 2.944-2.89 7.693.054 10.606l22.6 22.37c1.463 1.448 3.369 2.17 5.276 2.17 1.932 0 3.863-.742 5.33-2.224 2.914-2.944 2.89-7.693-.054-10.606z"/><path d="m492.152 376.653-26.669-7.146c-4.001-1.071-8.113 1.303-9.186 5.304s1.302 8.113 5.303 9.186l26.669 7.146c.65.174 1.304.257 1.946.257 3.312 0 6.342-2.21 7.239-5.561 1.073-4.001-1.301-8.114-5.302-9.186z"/><path d="m148.389 133.981c12.406 0 22.5-10.093 22.5-22.5s-10.094-22.5-22.5-22.5-22.5 10.093-22.5 22.5 10.093 22.5 22.5 22.5zm0-30c4.136 0 7.5 3.364 7.5 7.5s-3.364 7.5-7.5 7.5-7.5-3.364-7.5-7.5 3.364-7.5 7.5-7.5z"/><path d="m267 111.481c0-12.407-10.094-22.5-22.5-22.5s-22.5 10.093-22.5 22.5 10.094 22.5 22.5 22.5 22.5-10.093 22.5-22.5zm-30 0c0-4.136 3.364-7.5 7.5-7.5s7.5 3.364 7.5 7.5-3.364 7.5-7.5 7.5-7.5-3.364-7.5-7.5z"/><path d="m52.5 88.981c-12.406 0-22.5 10.093-22.5 22.5s10.094 22.5 22.5 22.5 22.5-10.093 22.5-22.5-10.094-22.5-22.5-22.5zm0 30c-4.136 0-7.5-3.364-7.5-7.5s3.364-7.5 7.5-7.5 7.5 3.364 7.5 7.5-3.364 7.5-7.5 7.5z"/></g></g></svg>