<svg id="Capa_1" enable-background="new 0 0 512 512" height="512" viewBox="0 0 512 512" width="512" xmlns="http://www.w3.org/2000/svg"><g><g><path d="m48.75 396.362c-20.711 0-37.5-16.789-37.5-37.5l.729-207.16c0-12.268 1.412-25.362 10.52-32.204 6.267-4.708 14.058-7.498 22.501-7.498h422c20.711 0 37.5 16.789 37.5 37.5v219c0 6.481-1.644 11.99-4.538 16.501-6.354 9.905-22.009 12.382-36.239 12.382z" fill="#8e868e"/><path d="m464.5 141.5h-417c-5.523 0-10 4.477-10 10v27.972c0 5.015 2.507 9.699 6.679 12.481l16.641 11.094c4.173 2.782 6.679 7.465 6.679 12.481v79.944c0 5.015-2.507 9.699-6.679 12.481l-16.641 11.094c-4.173 2.782-6.679 7.465-6.679 12.481v27.972c0 5.523 4.477 10 10 10h417c5.523 0 10-4.477 10-10v-208c0-5.523-4.477-10-10-10z" fill="#f8f7f7"/><path d="m433.817 324.895h-325.634c-5.523 0-10-4.477-10-10v-118.79c0-5.523 4.477-10 10-10l1.996-1h324.637c5.523 0 10 4.477 10 10v117.785l-1 2.004c.001 5.523-4.477 10.001-9.999 10.001z" fill="#df646e"/><path d="m444.82 312.89v3c0 5.523-4.477 10-10 10h-327.64c-5.52 0-10-4.47-10-10v-120.78c0-5.53 4.48-10 10-10h3v123.78c0 2.209 1.791 4 4 4z" fill="#dc4955"/><path d="m499.96 385c-6.35 9.9-18.73 15-32.96 15h-422c-20.71 0-37.5-16.79-37.5-37.5v-213c0-12.27 5.89-23.16 15-30v243c0 12.41 10.09 22.5 22.5 22.5z" fill="#766d78"/><circle cx="174.382" cy="256.004" fill="#f8f7f7" r="13.5"/></g><g><path d="m7.5 193.947c4.142 0 7.5-3.358 7.5-7.5v-36.947c0-16.542 13.458-30 30-30h354.383c4.142 0 7.5-3.358 7.5-7.5s-3.358-7.5-7.5-7.5h-354.383c-24.813 0-45 20.187-45 45v36.947c0 4.142 3.358 7.5 7.5 7.5z"/><path d="m467 104.5h-32.894c-4.142 0-7.5 3.358-7.5 7.5s3.358 7.5 7.5 7.5h32.894c16.542 0 30 13.458 30 30v213c0 16.542-13.458 30-30 30h-422c-16.542 0-30-13.458-30-30v-141.458c0-4.142-3.358-7.5-7.5-7.5s-7.5 3.358-7.5 7.5v141.458c0 24.813 20.187 45 45 45h422c24.813 0 45-20.187 45-45v-213c0-24.813-20.187-45-45-45z"/><path d="m30 293c0 4.142 3.358 7.5 7.5 7.5s7.5-3.358 7.5-7.5v-50c0-4.142-3.358-7.5-7.5-7.5s-7.5 3.358-7.5 7.5z"/><path d="m474.5 293.479c4.142 0 7.5-3.358 7.5-7.5v-133.979c0-9.649-7.851-17.5-17.5-17.5h-417c-9.649 0-17.5 7.851-17.5 17.5v27.972c0 7.54 3.746 14.539 10.02 18.721l16.641 11.094c2.091 1.395 3.34 3.728 3.34 6.241v79.944c0 2.513-1.249 4.846-3.34 6.241l-16.641 11.094c-6.274 4.182-10.02 11.181-10.02 18.721v27.972c0 9.649 7.851 17.5 17.5 17.5h417c9.649 0 17.5-7.851 17.5-17.5v-38.787c0-4.142-3.358-7.5-7.5-7.5s-7.5 3.358-7.5 7.5v38.787c0 1.378-1.122 2.5-2.5 2.5h-417c-1.378 0-2.5-1.122-2.5-2.5v-27.972c0-2.513 1.249-4.846 3.34-6.241l16.641-11.094c6.273-4.182 10.019-11.181 10.019-18.721v-79.944c0-7.54-3.746-14.539-10.02-18.721l-16.64-11.094c-2.091-1.395-3.34-3.728-3.34-6.241v-27.972c0-1.378 1.122-2.5 2.5-2.5h417c1.378 0 2.5 1.122 2.5 2.5v133.979c0 4.142 3.358 7.5 7.5 7.5z"/><path d="m197.756 287.771c2.281 2.18 6.695 3.517 10.605.168 8.723-8.45 13.527-19.792 13.527-31.935 0-12.308-4.915-23.756-13.84-32.236-3.002-2.853-7.75-2.732-10.603.271s-2.732 7.75.271 10.603c5.915 5.62 9.172 13.207 9.172 21.362 0 8.046-3.184 15.562-8.964 21.162-2.975 2.881-3.05 7.629-.168 10.605z"/><path d="m151.047 234.64c3.003-2.853 3.125-7.6.273-10.603-2.854-3.004-7.601-3.125-10.603-.273-8.928 8.48-13.845 19.93-13.845 32.24 0 11.875 4.625 23.04 13.021 31.438 2.345 2.163 6.713 3.401 10.607 0 2.929-2.929 2.929-7.678 0-10.607-5.564-5.564-8.629-12.963-8.629-20.832.001-8.156 3.259-15.743 9.176-21.363z"/><path d="m153.382 256.004c0 11.58 9.42 21 21 21s21-9.42 21-21-9.42-21-21-21-21 9.42-21 21zm27 0c0 3.309-2.691 6-6 6s-6-2.691-6-6 2.691-6 6-6 6 2.691 6 6z"/><path d="m246.99 221.709c-4.142 0-7.5 3.358-7.5 7.5v53.342c0 4.142 3.358 7.5 7.5 7.5h18.858c4.142 0 7.5-3.358 7.5-7.5s-3.358-7.5-7.5-7.5h-11.358v-45.842c0-4.142-3.358-7.5-7.5-7.5z"/><path d="m300.349 282.596v-53.387c0-4.142-3.358-7.5-7.5-7.5s-7.5 3.358-7.5 7.5v53.387c0 4.142 3.358 7.5 7.5 7.5s7.5-3.358 7.5-7.5z"/><path d="m407.628 236.709c4.142 0 7.5-3.358 7.5-7.5s-3.358-7.5-7.5-7.5h-22.485c-4.142 0-7.5 3.358-7.5 7.5v53.387c0 4.142 3.358 7.5 7.5 7.5h22.485c4.142 0 7.5-3.358 7.5-7.5s-3.358-7.5-7.5-7.5h-14.985v-11.693h13.327c4.142 0 7.5-3.358 7.5-7.5s-3.358-7.5-7.5-7.5h-13.327v-11.693h14.985z"/><path d="m339.404 290.298h.059c3.91-.028 7.357-2.542 8.579-6.256l17.226-52.392c1.293-3.935-.848-8.174-4.782-9.468-3.936-1.291-8.174.847-9.468 4.782l-11.741 35.711-12.335-35.904c-1.346-3.917-5.613-6.001-9.53-4.656-3.917 1.346-6.002 5.613-4.656 9.53l18.04 52.507c1.263 3.683 4.715 6.146 8.608 6.146z"/><path d="m216.064 333.895h218.752c9.649 0 17.5-7.851 17.5-17.5v-120.79c0-9.649-7.851-17.5-17.5-17.5h-327.632c-9.649 0-17.5 7.851-17.5 17.5v120.789c0 9.649 7.851 17.5 17.5 17.5h73.944c4.142 0 7.5-3.358 7.5-7.5s-3.358-7.5-7.5-7.5h-73.944c-1.378 0-2.5-1.122-2.5-2.5v-120.789c0-1.378 1.122-2.5 2.5-2.5h327.633c1.378 0 2.5 1.122 2.5 2.5v120.789c0 1.378-1.122 2.5-2.5 2.5h-218.753c-4.142 0-7.5 3.358-7.5 7.5s3.358 7.501 7.5 7.501z"/><circle cx="37.5" cy="218.002" r="7.498"/></g></g></svg>