<svg id="Capa_1" enable-background="new 0 0 512 512" height="512" viewBox="0 0 512 512" width="512" xmlns="http://www.w3.org/2000/svg"><g><g><g><path d="m504.5 132.74v314c0 13.807-11.193 25-25 25h-447c-13.807 0-25-11.193-25-25v-314z" fill="#f8f7f7"/><path d="m504.5 132.75v15h-476c-3.31 0-6 2.69-6 6v315.91c-8.83-3.85-15-12.66-15-22.91v-314z" fill="#e8e8e8"/><path d="m504.5 65.75v67.5h-497v-67.5c0-13.807 11.193-25 25-25h447c13.807 0 25 11.193 25 25z" fill="#855b51"/><g fill="#724d44"><path d="m250.258 116.75c-8.255 0-14.947-6.716-14.947-15s6.692-15 14.947-15h186.315c8.255 0 14.947 6.716 14.947 15s-6.692 15-14.947 15z"/><ellipse cx="172.369" cy="100.75" rx="14.947" ry="15"/><path d="m182.861 111.434 12.874-12.869-13.139 1.179z"/><path d="m162.092 89.858 12.562-12.516-2.693 10.408z"/><ellipse cx="111.534" cy="100.75" rx="14.947" ry="15"/><path d="m122.053 111.407 12.382-12.499-12.674.836z"/><path d="m101.257 89.858 12.371-12.459-2.502 10.351z"/><ellipse cx="52.447" cy="100.75" rx="14.947" ry="15"/><path d="m63.269 111.096 12.721-13.186-13.139 1.381z"/><path d="m42.17 89.858 11.622-12.038-1.753 9.93z"/></g><ellipse cx="185.349" cy="87.75" fill="#b3e59f" rx="14.947" ry="15"/><path d="m240.416 90.461 13.037-12.859-3.025 14.276z" fill="#724d44"/><path d="m447.33 112.165 13.149-13.179-10.185 3.381z" fill="#724d44"/><ellipse cx="124.446" cy="87.75" fill="#ffd163" rx="14.947" ry="15"/><ellipse cx="64.995" cy="87.75" fill="#dc4955" rx="14.947" ry="15"/><path d="m263.237 103.75c-8.255 0-14.947-6.716-14.947-15s6.692-15 14.947-15h186.315c8.255 0 14.947 6.716 14.947 15s-6.692 15-14.947 15z" fill="#f8f7f7"/></g><path d="m346.5 429h-289c-5.523 0-10-4.477-10-10v-68c0-5.523 4.477-10 10-10l3-1h287c5.523 0 10 4.477 10 10v66l-1 3c0 5.523-4.477 10-10 10z" fill="#bae6ef"/><path d="m357.5 416v4c0 5.523-4.477 10-10 10h-44.09l-7.126-2.64-8.414 2.64h-231.37c-5.523 0-10-4.477-10-10v-70c0-5.523 4.477-10 10-10h4v72c0 2.209 1.791 4 4 4z" fill="#94d8e6"/><g><path d="m187.5 219v38.45c-6.1-3.77-13.644-5.404-21.344-5.404-22.09 0-38.229 17.364-38.229 39.454 0 1.9-1.117 5.31-.817 7.5l-68.61-1c-5.52 0-10-4.48-10-10l-1-26.46 4.821-1.39c33.89-2.25 63.812-20.32 80.312-49.98.08-.16.17-.32.26-.48l.827-.69h43.78c5.52 0 10 4.48 10 10z" fill="#c8b8f4"/><path d="m187.5 257.45v27.55l-1 3c0 5.52-4.48 10-10 10h-48.39c-.3-2.19-.61-5.6-.61-7.5 0-2.213-.82-3.385-.474-5.501 3.106-18.999 19.598-33.499 39.474-33.499 7.7 0 14.9 2.18 21 5.95z" fill="#bae6ef"/><path d="m133.72 209-.22.5c-.09.16-.18.32-.26.48-15.013 26.987-41.55 45.381-71.74 50.172-2.99.475-5.016-.184-8.07.018l-4.93.37v-40.54c0-5.52 4.48-10 10-10l3-1z" fill="#ffd163"/></g><path d="m127.11 299h-69.61c-5.523 0-10-4.477-10-10v-27.46l5.977-2.723 8.023 1.333v19.85c0 2.761 2.239 5 5 5h60.53l.873 7z" fill="#b09eef"/><path d="m187.5 285v4c0 5.52-4.48 10-10 10h-50.39c-.41-3.755-1.053-8.491-.08-14z" fill="#94d8e6"/><path d="m61.5 209v51.15c-2.99.47-6.01.82-9.07 1.02l-4.93.37v-42.54c0-5.52 4.48-10 10-10z" fill="#ffb65f"/><g><path d="m312.054 366.8c-1.35.97-2.79 1.82-4.3 2.56l-23.87 11.7-15.013-11.409-12.887-16.491 9.576-13.16c.74-1.51 3.704-13.67 4.674-15.02l22.252 16.185z" fill="#f2d1a5"/><path d="m408.52 270.94-92.55 92.55c-1.21 1.21-2.52 2.32-3.92 3.31l-21.17-21.17 96.16-96.17z" fill="#ccf49f"/><path d="m387.04 249.46-96.16 96.17-20.65-20.65c1-1.4 2.11-2.71 3.32-3.92l49.395-45.399 43.145-47.151z" fill="#b3e59f"/><path d="m283.884 381.06-36.33 17.79c-.98.48-1.427-.231-2.467-.231-1.82 0-3.61-.7-4.95-2.05-2.11-2.11-2.218-4.586-.908-7.266l16.755-36.143z" fill="#9e959e"/><path d="m279.8 334.55c-.95 1.33-1.79 2.76-2.52 4.25l-11.69 23.88-.03.06-7.257-3.079-2.323-6.501 11.69-23.88c.74-1.51 1.59-2.95 2.56-4.3l5.333 2.424z" fill="#f2bb88"/><path d="m375.66 238.08-92.5 92.5c-1.21 1.21-2.32 2.52-3.32 3.92-.01.02-.02.03-.04.05l-9.57-9.57c1-1.4 2.11-2.71 3.32-3.92l92.54-92.55z" fill="#95d6a4"/><path d="m265.56 362.74-17.59 35.9-.42.21c-.98.48-2.04.71-3.08.71-1.82 0-3.61-.7-4.95-2.05-2.11-2.11-2.65-5.34-1.34-8.02l17.8-36.33z" fill="#8e868e"/><g><path d="m270.961 290.043h135.998v15.005h-135.998z" fill="#b3e59f" transform="matrix(.707 -.707 .707 .707 -111.119 326.806)"/></g><path d="m448.992 225.943-38.883-39.15 16.964-17.372c5.475-5.475 14.236-8.361 20.127-3.602.412.333.811.691 1.194 1.074l21.213 21.213c5.858 5.858 5.858 15.355 0 21.213l-8.718 8.718z" fill="#ffd163"/><path d="m460.89 218.04-9.9 9.9-25.403-20.714-17.027-21.716 18.62-18.62c5.48-5.47 14.14-5.83 20.02-1.07l-16.811 17.57c-1.128 1.178-1.107 3.042.046 4.195z" fill="#ffb65f"/><path d="m406.574 269.525-31.184-31.185-7.413-8.413c-4.686-4.686-4.686-12.284 0-16.971l25.163-25.163c4.686-4.686 12.284-4.686 16.971 0l8.418 7.418 31.18 31.18c4.686 4.686 4.686 12.284 0 16.971l-26.163 26.163c-4.688 4.686-12.286 4.686-16.972 0z" fill="#9e959e"/><path d="m418.53 195.21-43.14 43.13-8.41-8.41c-4.69-4.69-4.69-12.29 0-16.97l26.16-26.17c4.69-4.68 12.28-4.68 16.97 0z" fill="#8e868e"/></g></g><g><path d="m7.5 303.5c4.142 0 7.5-3.358 7.5-7.5v-156.553h327.032c4.143 0 7.5-3.358 7.5-7.5s-3.357-7.5-7.5-7.5h-327.032v-57.947c0-9.649 7.851-17.5 17.5-17.5h73.521c4.142 0 7.5-3.358 7.5-7.5s-3.358-7.5-7.5-7.5h-73.521c-17.92 0-32.5 14.58-32.5 32.5v229.5c0 4.142 3.358 7.5 7.5 7.5z"/><path d="m479.5 34h-338.255c-4.142 0-7.5 3.358-7.5 7.5s3.358 7.5 7.5 7.5h338.255c9.649 0 17.5 7.851 17.5 17.5v57.947h-119.957c-4.143 0-7.5 3.358-7.5 7.5s3.357 7.5 7.5 7.5h119.957v306.053c0 9.649-7.851 17.5-17.5 17.5h-447c-9.649 0-17.5-7.851-17.5-17.5v-114.585c0-4.142-3.358-7.5-7.5-7.5s-7.5 3.358-7.5 7.5v114.585c0 17.92 14.58 32.5 32.5 32.5h447c17.921 0 32.5-14.58 32.5-32.5v-379c0-17.92-14.579-32.5-32.5-32.5z"/><path d="m43.745 86.947c0 12.407 10.093 22.5 22.5 22.5s22.5-10.093 22.5-22.5-10.093-22.5-22.5-22.5-22.5 10.093-22.5 22.5zm30 0c0 4.136-3.364 7.5-7.5 7.5s-7.5-3.364-7.5-7.5 3.364-7.5 7.5-7.5 7.5 3.364 7.5 7.5z"/><path d="m103.745 86.947c0 12.407 10.093 22.5 22.5 22.5s22.5-10.093 22.5-22.5-10.093-22.5-22.5-22.5-22.5 10.093-22.5 22.5zm22.5-7.5c4.136 0 7.5 3.364 7.5 7.5s-3.364 7.5-7.5 7.5-7.5-3.364-7.5-7.5 3.364-7.5 7.5-7.5z"/><path d="m208.745 86.947c0-12.407-10.093-22.5-22.5-22.5s-22.5 10.093-22.5 22.5 10.093 22.5 22.5 22.5 22.5-10.093 22.5-22.5zm-30 0c0-4.136 3.364-7.5 7.5-7.5s7.5 3.364 7.5 7.5-3.364 7.5-7.5 7.5-7.5-3.364-7.5-7.5z"/><path d="m450 109.447c12.406 0 22.5-10.093 22.5-22.5s-10.094-22.5-22.5-22.5h-185c-12.407 0-22.5 10.093-22.5 22.5s10.093 22.5 22.5 22.5zm-192.5-22.5c0-4.136 3.364-7.5 7.5-7.5h185c4.136 0 7.5 3.364 7.5 7.5s-3.364 7.5-7.5 7.5h-185c-4.136 0-7.5-3.364-7.5-7.5z"/><path d="m137.5 179.5c4.142 0 7.5-3.358 7.5-7.5s-3.358-7.5-7.5-7.5h-90c-4.142 0-7.5 3.358-7.5 7.5s3.358 7.5 7.5 7.5z"/><path d="m40 289c0 9.649 7.851 17.5 17.5 17.5h120c9.649 0 17.5-7.851 17.5-17.5v-70c0-9.649-7.851-17.5-17.5-17.5h-120c-9.649 0-17.5 7.851-17.5 17.5zm137.5 2.5h-43.5c0-17.92 14.58-32.5 32.5-32.5 4.69 0 9.286 1.016 13.5 2.942v27.058c0 1.378-1.122 2.5-2.5 2.5zm2.5-72.5v26.958c-4.356-1.289-8.899-1.958-13.5-1.958-26.191 0-47.5 21.309-47.5 47.5h-61.5c-1.378 0-2.5-1.122-2.5-2.5v-20.514c34.659-2.961 65.352-22.186 83.126-51.986h39.374c1.378 0 2.5 1.122 2.5 2.5zm-122.5-2.5h62.626c-15.45 20.897-38.916 34.334-65.126 36.934v-34.434c0-1.378 1.122-2.5 2.5-2.5z"/><path d="m391.5 347.5h32c4.143 0 7.5-3.358 7.5-7.5s-3.357-7.5-7.5-7.5h-32c-4.143 0-7.5 3.358-7.5 7.5s3.357 7.5 7.5 7.5z"/><path d="m463.5 362.5h-21.437c-4.143 0-7.5 3.358-7.5 7.5s3.357 7.5 7.5 7.5h21.437c4.143 0 7.5-3.358 7.5-7.5s-3.357-7.5-7.5-7.5z"/><path d="m391.5 377.5h20.563c4.143 0 7.5-3.358 7.5-7.5s-3.357-7.5-7.5-7.5h-20.563c-4.143 0-7.5 3.358-7.5 7.5s3.357 7.5 7.5 7.5z"/><path d="m471 400c0-4.142-3.357-7.5-7.5-7.5h-72c-4.143 0-7.5 3.358-7.5 7.5s3.357 7.5 7.5 7.5h72c4.143 0 7.5-3.358 7.5-7.5z"/><path d="m391.5 422.5c-4.143 0-7.5 3.358-7.5 7.5s3.357 7.5 7.5 7.5h51c4.143 0 7.5-3.358 7.5-7.5s-3.357-7.5-7.5-7.5z"/><path d="m236.5 231.5h31.563c4.143 0 7.5-3.358 7.5-7.5s-3.357-7.5-7.5-7.5h-31.563c-4.142 0-7.5 3.358-7.5 7.5s3.358 7.5 7.5 7.5z"/><path d="m260.5 291.5c4.143 0 7.5-3.358 7.5-7.5s-3.357-7.5-7.5-7.5h-24c-4.142 0-7.5 3.358-7.5 7.5s3.358 7.5 7.5 7.5z"/><path d="m474.911 182.804-21.214-21.214c-8.772-8.772-23.048-8.771-31.82 0l-14.933 14.934c-1.71-.482-3.494-.746-5.32-.746-5.208 0-10.105 2.028-13.788 5.711-6.497 6.497-19.611 19.611-26.162 26.163-2.487 2.486-4.197 5.532-5.061 8.847h-58.55c-4.143 0-7.5 3.358-7.5 7.5s3.357 7.5 7.5 7.5h53.905l-15 15h-100.468c-4.142 0-7.5 3.358-7.5 7.5s3.358 7.5 7.5 7.5h85.469l-54.256 54.256c-2.987 2.987-5.445 6.426-7.305 10.222l-3.194 6.522h-200.714c-9.649 0-17.5 7.851-17.5 17.5v70c0 9.649 7.851 17.5 17.5 17.5h291c9.649 0 17.5-7.851 17.5-17.5v-70c0-6.878-3.998-12.824-9.783-15.683l54.523-54.523c1.71.482 3.493.746 5.319.746 5.209 0 10.105-2.029 13.789-5.712l26.163-26.163c5.163-5.164 6.809-12.525 4.959-19.1l14.941-14.941c8.772-8.772 8.772-23.046 0-31.819zm-128.985 107.771c1.465 1.464 3.385 2.197 5.304 2.197s3.839-.732 5.304-2.197l30.242-30.242 10.606 10.606-85.56 85.56-10.606-10.606 30.616-30.615c2.929-2.929 2.929-7.678 0-10.606-2.93-2.929-7.678-2.929-10.607 0l-30.615 30.615-10.606-10.606 85.56-85.56 10.606 10.606-30.243 30.243c-2.93 2.927-2.93 7.676-.001 10.605zm-60.092 131.925h-68.747l-14.775-44.744 28.935 7.76c-2.504 4.528-2.454 12.207 2.44 17.299 4.017 3.657 10.131 5.768 16.628 2.769l27.314-13.378zm-95.527 0-35.45-18.748 32.154-24.498 14.28 43.246zm13.63-75-63.69 48.526-45.097-23.85 20.303-24.676zm53.261 19.134 12.67 12.67-24.833 12.163zm26.909 5.695-19.935-19.935 7.342-14.99 27.583 27.583zm-46.137-.541-30.445-8.164 21.163-16.124h21.179zm-181.47-24.288h39.528l-42.028 51.081v-48.581c0-1.378 1.122-2.5 2.5-2.5zm-1.96 74.033 30.881-37.533 72.8 38.5h-101.721c-.798 0-1.502-.383-1.96-.967zm292.96.967h-46.126l-3.366-12.427 51.992-21.728v31.655c0 1.378-1.121 2.5-2.5 2.5zm0-75c1.379 0 2.5 1.122 2.5 2.5v22.088l-55.947 23.381-2.704-9.984 19.174-9.391c3.795-1.859 7.234-4.316 10.222-7.304l21.289-21.289h5.466zm67.56-81.96c-1.202 0-2.332-.468-3.182-1.318l-39.598-39.598c-.851-.85-1.318-1.98-1.318-3.182s.468-2.332 1.318-3.182l7.778-7.778 45.961 45.961-7.778 7.778c-.849.851-1.979 1.319-3.181 1.319zm29.344-27.481-7.778 7.778-45.962-45.962 7.779-7.779c.85-.85 1.979-1.318 3.181-1.318s2.332.468 3.182 1.318l39.599 39.598c1.754 1.755 1.754 4.611-.001 6.365zm19.9-34.042-13.182 13.182-31.82-31.819 13.181-13.182c2.926-2.924 7.684-2.925 10.607 0l21.213 21.213c2.925 2.924 2.925 7.682.001 10.606z"/></g></g></svg>