<svg id="Capa_1" enable-background="new 0 0 512 512" height="512" viewBox="0 0 512 512" width="512" xmlns="http://www.w3.org/2000/svg"><g><g><g><path d="m504.5 144.259v294c0 12.299-11.193 23.492-25 23.492h-447c-13.807 0-25-11.193-25-25v-294z" fill="#f8f7f7"/><path d="m504.5 142.75v15h-476c-3.31 0-6 2.69-6 6v295.91c-8.83-3.85-15-12.66-15-22.91v-294z" fill="#e8e8e8"/><path d="m504.5 75.75v67.5h-497v-67.5c0-13.807 11.193-25 25-25h447c13.807 0 25 11.193 25 25z" fill="#855b51"/><g fill="#724d44"><path d="m250.258 126.75c-8.255 0-14.947-6.716-14.947-15s6.692-15 14.947-15h186.315c8.255 0 14.947 6.716 14.947 15s-6.692 15-14.947 15z"/><ellipse cx="172.369" cy="110.75" rx="14.947" ry="15"/><path d="m182.861 121.434 12.874-12.869-13.139 1.179z"/><path d="m162.092 99.858 12.562-12.516-2.693 10.408z"/><ellipse cx="111.534" cy="110.75" rx="14.947" ry="15"/><path d="m122.053 121.407 12.382-12.499-12.674.836z"/><path d="m101.257 99.858 12.371-12.459-2.502 10.351z"/><ellipse cx="52.447" cy="110.75" rx="14.947" ry="15"/><path d="m63.269 121.096 12.721-13.186-13.139 1.381z"/><path d="m42.17 99.858 11.622-12.038-1.753 9.93z"/></g><ellipse cx="185.349" cy="97.75" fill="#b3e59f" rx="14.947" ry="15"/><path d="m240.416 100.461 13.037-12.859-3.025 14.276z" fill="#724d44"/><path d="m447.33 122.165 13.149-13.179-10.185 3.381z" fill="#724d44"/><ellipse cx="124.446" cy="97.75" fill="#ffd163" rx="14.947" ry="15"/><ellipse cx="64.995" cy="97.75" fill="#dc4955" rx="14.947" ry="15"/><path d="m263.237 113.75c-8.255 0-14.947-6.716-14.947-15s6.692-15 14.947-15h186.315c8.255 0 14.947 6.716 14.947 15s-6.692 15-14.947 15z" fill="#f8f7f7"/></g><path d="m67.612 347.99v-17.99l4.324-7.5-4.324-7.5v-122.01c0-8.284 6.716-15 15-15h347c8.284 0 15 6.716 15 15v122.01l-3.208 8.44 3.208 6.56v17.99c0 8.284-6.716 15-15 15h-347c-8.285 0-15-6.716-15-15z" fill="#ffd163"/><path d="m422.179 395.245c.605.567 1.554.55 2.161-.013 2.166-2.009 5.098-3.241 8.305-3.231 6.578.019 11.945 5.394 11.852 11.854-.167 11.543-16.857 20.831-20.536 22.74-.448.232-.98.238-1.434.016-3.743-1.838-20.767-10.856-20.526-22.755.128-6.328 5.482-11.809 11.926-11.854 3.209-.024 6.107 1.23 8.252 3.243z" fill="#df646e"/><path d="m280.5 232.5c0-10.634-6.916-19.653-16.496-22.803-2.361-.777-4.468-.531-7.089-.531-13.255 0-23.585 10.08-23.585 23.335s9.915 23 23.17 23c2.621 0 5.143.58 7.504-.197 9.58-3.151 16.496-12.17 16.496-22.804z" fill="#e3a76f"/><path d="m264 255.29c-2.36.79-4.88 1.21-7.5 1.21-13.25 0-24-10.75-24-24s10.75-24 24-24c2.62 0 5.14.42 7.5 1.21-9.58 3.14-16.5 12.16-16.5 22.79s6.92 19.65 16.5 22.79z" fill="#d6995c"/><path d="m271 286.5h-30c-3.555 0-6.938.742-10 2.08-8.83 3.858-13 12.668-13 22.92v11h76v-11c0-3.751 1.174-7.309-.306-10.502-3.968-8.56-12.638-14.498-22.694-14.498z" fill="#bae6ef"/><path d="m410.5 291.5h-66c-1.657 0-3-1.343-3-3v-76.5c0-1.657 1.343-3 3-3l9-1h58c1.657 0 3 1.343 3 3v68.5l-1 9c0 1.657-1.343 3-3 3z" fill="#d6ccf2"/><path d="m414.5 279.5v10c0 1.657-1.343 3-3 3h-68c-1.657 0-3-1.343-3-3v-78.5c0-1.657 1.343-3 3-3h10v69.5c0 1.105.895 2 2 2z" fill="#c8b8f4"/><path d="m193.5 254.5h-92c-1.657 0-3-1.343-3-3v-39c0-1.657 1.343-3 3-3l9-1h84c1.657 0 3 1.343 3 3v31l-1 9c0 1.657-1.343 3-3 3z" fill="#f8f7f7"/><path d="m197.5 242.5v10c0 1.657-1.343 3-3 3h-94c-1.657 0-3-1.343-3-3v-41c0-1.657 1.343-3 3-3h10v31c0 1.657 1.343 3 3 3z" fill="#e8e8e8"/><path d="m293.69 301h-59.69c-1.657 0-3-1.343-3-3v-9.42c-5.598 2.447-10.12 6.888-12.685 12.42-1.215 2.889-2.295 5.817-2.315 10.5v11h15 65v-11c0-3.75-.83-7.31-2.31-10.5z" fill="#94d8e6"/></g><g><path d="m479.5 44.5h-349.585c-4.143 0-7.5 3.358-7.5 7.5s3.357 7.5 7.5 7.5h349.585c9.649 0 17.5 7.851 17.5 17.5v57.947h-482v-57.947c0-9.649 7.851-17.5 17.5-17.5h62.437c4.143 0 7.5-3.358 7.5-7.5s-3.357-7.5-7.5-7.5h-62.437c-17.921 0-32.5 14.58-32.5 32.5v191.042c0 4.142 3.357 7.5 7.5 7.5s7.5-3.358 7.5-7.5v-118.095h482v285.053c0 9.649-7.851 17.5-17.5 17.5h-447c-9.649 0-17.5-7.851-17.5-17.5v-131.915c0-4.142-3.357-7.5-7.5-7.5s-7.5 3.358-7.5 7.5v131.915c0 17.92 14.579 32.5 32.5 32.5h447c17.921 0 32.5-14.58 32.5-32.5v-358c0-17.92-14.579-32.5-32.5-32.5z"/><path d="m43.745 97.447c0 12.407 10.094 22.5 22.5 22.5s22.5-10.093 22.5-22.5-10.094-22.5-22.5-22.5-22.5 10.093-22.5 22.5zm30 0c0 4.136-3.364 7.5-7.5 7.5s-7.5-3.364-7.5-7.5 3.364-7.5 7.5-7.5 7.5 3.364 7.5 7.5z"/><path d="m126.245 119.947c12.406 0 22.5-10.093 22.5-22.5s-10.094-22.5-22.5-22.5-22.5 10.093-22.5 22.5 10.094 22.5 22.5 22.5zm0-30c4.136 0 7.5 3.364 7.5 7.5s-3.364 7.5-7.5 7.5-7.5-3.364-7.5-7.5 3.364-7.5 7.5-7.5z"/><path d="m208.745 97.447c0-12.407-10.094-22.5-22.5-22.5s-22.5 10.093-22.5 22.5 10.094 22.5 22.5 22.5 22.5-10.093 22.5-22.5zm-30 0c0-4.136 3.364-7.5 7.5-7.5s7.5 3.364 7.5 7.5-3.364 7.5-7.5 7.5-7.5-3.364-7.5-7.5z"/><path d="m450 119.947c12.406 0 22.5-10.093 22.5-22.5s-10.094-22.5-22.5-22.5h-185c-12.406 0-22.5 10.093-22.5 22.5s10.094 22.5 22.5 22.5zm-192.5-22.5c0-4.136 3.364-7.5 7.5-7.5h185c4.136 0 7.5 3.364 7.5 7.5s-3.364 7.5-7.5 7.5h-185c-4.136 0-7.5-3.364-7.5-7.5z"/><path d="m444.611 227.415c4.143 0 7.5-3.358 7.5-7.5v-26.925c0-12.407-10.094-22.5-22.5-22.5h-347c-12.406 0-22.5 10.093-22.5 22.5v155c0 12.407 10.094 22.5 22.5 22.5h87.389c4.143 0 7.5-3.358 7.5-7.5s-3.357-7.5-7.5-7.5h-87.389c-4.136 0-7.5-3.364-7.5-7.5v-17.99h55.889v2.5c0 4.142 3.357 7.5 7.5 7.5s7.5-3.358 7.5-7.5v-2.5h291.111v17.99c0 4.136-3.364 7.5-7.5 7.5h-224.441c-4.143 0-7.5 3.358-7.5 7.5s3.357 7.5 7.5 7.5h224.441c12.406 0 22.5-10.093 22.5-22.5v-92.968c0-4.142-3.357-7.5-7.5-7.5s-7.5 3.358-7.5 7.5v59.978h-133.611v-3.5c0-17.92-14.579-32.5-32.5-32.5h-30c-17.921 0-32.5 14.58-32.5 32.5v3.5h-62.5v-2.5c0-4.142-3.357-7.5-7.5-7.5s-7.5 3.358-7.5 7.5v2.5h-55.889v-122.01c0-4.136 3.364-7.5 7.5-7.5h347c4.136 0 7.5 3.364 7.5 7.5v26.925c0 4.142 3.358 7.5 7.5 7.5zm-221.111 84.085c0-9.649 7.851-17.5 17.5-17.5h30c9.649 0 17.5 7.851 17.5 17.5v3.5h-65z"/><path d="m170.611 384.652h-15.329c-4.143 0-7.5 3.358-7.5 7.5s3.357 7.5 7.5 7.5h15.329c4.143 0 7.5-3.358 7.5-7.5s-3.357-7.5-7.5-7.5z"/><path d="m67.111 399.652h58.171c4.143 0 7.5-3.358 7.5-7.5s-3.357-7.5-7.5-7.5h-58.171c-4.143 0-7.5 3.358-7.5 7.5s3.358 7.5 7.5 7.5z"/><path d="m227.611 414.638c-4.143 0-7.5 3.358-7.5 7.5s3.357 7.5 7.5 7.5h39.256c4.143 0 7.5-3.358 7.5-7.5s-3.357-7.5-7.5-7.5z"/><path d="m67.111 429.638h130.213c4.143 0 7.5-3.358 7.5-7.5s-3.357-7.5-7.5-7.5h-130.213c-4.143 0-7.5 3.358-7.5 7.5s3.358 7.5 7.5 7.5z"/><path d="m423.267 386.848c-2.818-1.533-6.124-2.348-9.391-2.348-10.469.073-19.159 8.687-19.371 19.202-.326 16.081 18.837 26.752 24.716 29.639 1.26.619 2.634.927 4.008.927 1.44 0 2.88-.339 4.187-1.016 7.318-3.796 24.366-14.248 24.582-29.289.256-9.336-8.084-19.524-19.329-19.462-3.335-.005-6.546.806-9.402 2.347zm13.732 16.898c-.065 4.503-6.646 10.486-13.839 14.722-7.221-4.067-13.751-9.915-13.659-14.463.048-2.342 2.183-4.489 4.481-4.505h.032c1.512 0 2.548.759 3.032 1.214 3.457 3.244 8.898 3.253 12.395.016.855-.793 1.979-1.229 3.168-1.229h.015c1.618.005 2.682.842 3.172 1.341.458.465 1.224 1.463 1.203 2.904z"/><path d="m225 232.5c0 17.369 14.131 31.5 31.5 31.5s31.5-14.131 31.5-31.5-14.131-31.5-31.5-31.5-31.5 14.131-31.5 31.5zm48 0c0 9.098-7.402 16.5-16.5 16.5s-16.5-7.402-16.5-16.5 7.402-16.5 16.5-16.5 16.5 7.402 16.5 16.5z"/><path d="m343.5 200.5c-5.79 0-10.5 4.71-10.5 10.5v78.5c0 5.79 4.71 10.5 10.5 10.5h68c5.79 0 10.5-4.71 10.5-10.5v-78.5c0-5.79-4.71-10.5-10.5-10.5zm63.5 84.5h-59v-69.5h59z"/><path d="m100.5 201c-5.79 0-10.5 4.71-10.5 10.5v41c0 5.79 4.71 10.5 10.5 10.5h94c5.79 0 10.5-4.71 10.5-10.5v-41c0-5.79-4.71-10.5-10.5-10.5zm89.5 47h-85v-32h85z"/></g></g></svg>