<svg id="Capa_1" enable-background="new 0 0 512 512" height="512" viewBox="0 0 512 512" width="512" xmlns="http://www.w3.org/2000/svg"><g><g><circle cx="256" cy="256" fill="#f8f7f7" r="152"/><g><path d="m290.473 269.692h-31.711v-53.909h31.711l1.417 25.309z" fill="#e8e8e8"/><path d="m184.769 268.752h-7.554c-13.926 0-24.206-9.896-24.206-23.822v-3.48c0-8.653 3.349-16.74 9.99-21.281 4.047-2.768 8.942-4.386 14.216-4.386h7.554l1.929 30.181z" fill="#e8e8e8"/><path d="m184.77 260.45 1.184 4.834-1.184 4.406h-7.56c-13.92 0-25.21-11.29-25.21-25.21v-3.48c0-8.66 4.36-16.29 11-20.83v15.31c0 12.75 9.48 23.3 21.77 24.97z" fill="#d8d8d8"/><path d="m227.128 347-25.447-41.208 21.131-26.631 15.215 29.087 6.273 8.132 9.7 16.801c4.375 7.578 1.779 17.268-5.799 21.644-.497.287-1.002.543-1.515.771-7.318 3.246-15.475-1.501-19.558-8.596z" fill="#df646e"/><path d="m231.211 322.074 13.089-5.694-21.491-37.22-21.13 26.63 24.871 43.21c2.93 5.1 8.26 7.95 13.74 7.95 2.15 0 4.33-.44 6.39-1.37l-16.872-29.256c-.894-1.552-.239-3.537 1.403-4.25z" fill="#dc4955"/><path d="m237.877 303.912-28.427 12.359-1.107.219c-4.906 2.133-10.389-1.463-10.389-6.812l-.11-30.473h47.064s1.161 12.758 1.144 13.036c-.312 5.093-3.452 9.618-8.175 11.671z" fill="#e8e8e8"/><path d="m246.08 279.21v13.033l-32.63-.033c-2.209 0-4 1.791-4 4v20.06l-1.612.701c-4.905 2.133-10.388-1.462-10.388-6.811v-30.95l24.315-1.403z" fill="#d8d8d8"/><path d="m290.47 257.69 1.42 5.2-1.42 6.8h-31.71l-1.879-25.461 1.879-28.449h12v37.91c0 2.209 1.791 4 4 4z" fill="#d8d8d8"/><path d="m248.775 278.206h-53.993c-4.971 0-9-4.029-9-9v-52.936c0-4.971 4.029-9 9-9l3.998-1h50.995c4.971 0 9 4.029 9 9v49.941l-1 3.996c0 4.969-4.029 8.999-9 8.999z" fill="#df646e"/><path d="m258.78 265.21v5c0 4.971-4.029 9-9 9h-56c-4.971 0-9-4.029-9-9v-54.94c0-4.971 4.029-9 9-9h5v54.94c0 2.209 1.791 4 4 4z" fill="#dc4955"/><path d="m335.64 293.767c-9.461-7.727-18.83-11.761-30.911-13.573l-4.253-.638c-5.174-.776-9.002-5.221-9.002-10.454l-1-11.029v-42.701c0-5.232 3.828-9.677 9.002-10.454l4.253-.638c12.081-1.812 23.449-6.846 32.911-14.573 6.903-5.638 17.257-.726 17.257 8.187v80.311l-1 7.374c-.001 8.914-10.354 13.826-17.257 8.188z" fill="#df646e"/><path d="m353.9 275.78v11.8c0 8.91-10.36 13.83-17.26 8.19-9.46-7.73-20.83-12.76-32.91-14.58l-4.25-.63c-5.18-.78-9.01-5.23-9.01-10.46v-13c0 5.23 3.83 9.68 9.01 10.46l4.25.63c12.08 1.82 23.45 6.85 32.91 14.58l.93.76c6.53 5.33 16.33.68 16.33-7.75z" fill="#dc4955"/></g><g><path d="m289 40.5c0-15.466-10.64-28.447-24.999-32.023-2.562-.638-5.242-.311-8.001-.311-18.225 0-31.734 14.109-31.734 32.335s13.509 31.985 31.734 31.985c2.759 0 5.439.675 8.001.037 14.359-3.576 24.999-16.557 24.999-32.023z" fill="#df646e"/><path d="m264 72.52c-2.56.64-5.24.98-8 .98-18.23 0-33-14.77-33-33s14.77-33 33-33c2.76 0 5.44.34 8 .98-14.36 3.57-25 16.55-25 32.02s10.64 28.45 25 32.02z" fill="#dc4955"/></g><g><path d="m289 471.5c0-15.466-10.64-28.447-24.999-32.023-2.562-.638-5.242-.311-8.001-.311-18.225 0-31.734 14.109-31.734 32.335s13.509 31.986 31.734 31.986c2.759 0 5.439.675 8.001.037 14.359-3.577 24.999-16.558 24.999-32.024z" fill="#df646e"/><path d="m264 503.52c-2.56.64-5.24.98-8 .98-18.23 0-33-14.77-33-33s14.77-33 33-33c2.76 0 5.44.34 8 .98-14.36 3.57-25 16.55-25 32.02s10.64 28.45 25 32.02z" fill="#dc4955"/></g><g><path d="m441.382 408.382c0-15.466-10.64-28.447-24.999-32.023-2.562-.638-5.242-.311-8.001-.311-18.225 0-31.734 14.109-31.734 32.335 0 18.225 13.509 31.986 31.734 31.986 2.759 0 5.439.675 8.001.037 14.359-3.577 24.999-16.558 24.999-32.024z" fill="#bae6ef"/><path d="m416.382 440.401c-2.56.64-5.24.98-8 .98-18.23 0-33-14.77-33-33s14.77-33 33-33c2.76 0 5.44.34 8 .98-14.36 3.57-25 16.55-25 32.02s10.64 28.451 25 32.02z" fill="#94d8e6"/></g><g><path d="m137 408.382c0-15.466-10.64-28.447-24.999-32.023-2.562-.638-5.242-.311-8.001-.311-18.225 0-31.734 14.109-31.734 32.335 0 18.225 13.509 31.986 31.734 31.986 2.759 0 5.439.675 8.001.037 14.359-3.577 24.999-16.558 24.999-32.024z" fill="#bae6ef"/><path d="m112 440.401c-2.56.64-5.24.98-8 .98-18.23 0-33-14.77-33-33s14.77-33 33-33c2.76 0 5.44.34 8 .98-14.36 3.57-25 16.55-25 32.02s10.64 28.451 25 32.02z" fill="#94d8e6"/></g><g><path d="m441.382 103.75c0-15.466-10.64-28.447-24.999-32.023-2.562-.638-5.242-.311-8.001-.311-18.225 0-31.734 14.109-31.734 32.335s13.509 31.986 31.734 31.986c2.759 0 5.439.675 8.001.037 14.359-3.577 24.999-16.558 24.999-32.024z" fill="#bae6ef"/><path d="m416.382 135.77c-2.56.64-5.24.98-8 .98-18.23 0-33-14.77-33-33s14.77-33 33-33c2.76 0 5.44.34 8 .98-14.36 3.57-25 16.55-25 32.02s10.64 28.45 25 32.02z" fill="#94d8e6"/></g><g><path d="m137 103.75c0-15.466-10.64-28.447-24.999-32.023-2.562-.638-5.242-.311-8.001-.311-18.225 0-31.734 14.109-31.734 32.335s13.509 31.985 31.734 31.985c2.759 0 5.439.675 8.001.037 14.359-3.576 24.999-16.557 24.999-32.023z" fill="#bae6ef"/><path d="m112 135.77c-2.56.64-5.24.98-8 .98-18.23 0-33-14.77-33-33s14.77-33 33-33c2.76 0 5.44.34 8 .98-14.36 3.57-25 16.55-25 32.02s10.64 28.45 25 32.02z" fill="#94d8e6"/></g><g><path d="m73.5 256c0-15.466-10.64-28.447-24.999-32.023-2.562-.638-5.242-.311-8.001-.311-18.225 0-31.734 14.109-31.734 32.335s13.509 31.986 31.734 31.986c2.759 0 5.439.675 8.001.037 14.359-3.577 24.999-16.558 24.999-32.024z" fill="#df646e"/><path d="m48.5 288.02c-2.56.64-5.24.98-8 .98-18.23 0-33-14.77-33-33s14.77-33 33-33c2.76 0 5.44.34 8 .98-14.36 3.57-25 16.55-25 32.02s10.64 28.45 25 32.02z" fill="#dc4955"/></g><g><path d="m504.5 256c0-15.466-10.64-28.447-24.999-32.023-2.562-.638-5.242-.311-8.001-.311-18.225 0-31.734 14.109-31.734 32.335s13.509 31.986 31.734 31.986c2.759 0 5.439.675 8.001.037 14.359-3.577 24.999-16.558 24.999-32.024z" fill="#df646e"/><path d="m479.5 288.02c-2.56.64-5.24.98-8 .98-18.23 0-33-14.77-33-33s14.77-33 33-33c2.76 0 5.44.34 8 .98-14.36 3.57-25 16.55-25 32.02s10.64 28.45 25 32.02z" fill="#dc4955"/></g></g><g><path d="m353.896 227.436c4.143 0 7.5-3.358 7.5-7.5v-22.041c0-7.049-3.956-13.305-10.325-16.326-6.369-3.022-13.717-2.128-19.176 2.33-8.412 6.87-18.537 11.354-29.279 12.965l-4.254.638c-6.428.964-11.57 5.147-13.948 10.781h-19.713c-2.637-5.61-8.328-9.513-14.926-9.513h-55.993c-6.598 0-12.289 3.903-14.926 9.513h-1.641c-18.039 0-32.715 14.676-32.715 32.715v3.48c0 18.039 14.676 32.715 32.715 32.715h1.641c2.11 4.488 6.174 7.87 11.097 9.046v23.92c0 5.049 2.521 9.715 6.742 12.484 2.257 1.48 4.82 2.29 7.422 2.422l15.928 27.681c6.175 10.408 19.392 15.233 31.905 8.574 10.221-5.716 15.258-20.401 8.545-31.888l-13.246-22.943c3.974-3.903 6.327-9.301 6.327-15.082v-5.159c4.936-1.17 9.01-4.557 11.124-9.053h19.713c2.378 5.633 7.52 9.816 13.949 10.781l4.253.638c10.742 1.612 20.867 6.095 29.279 12.965 3.315 2.708 7.326 4.101 11.392 4.101 2.63 0 5.283-.583 7.784-1.77 6.369-3.021 10.325-9.277 10.325-16.327v-32.75c0-4.142-3.357-7.5-7.5-7.5s-7.5 3.358-7.5 7.5v32.75c0 1.689-1.1 2.463-1.755 2.774-.654.312-1.95.672-3.258-.396-10.499-8.574-23.136-14.17-36.543-16.181l-4.252-.638c-1.491-.224-2.615-1.529-2.615-3.037v-54.73c0-1.507 1.124-2.813 2.614-3.037l4.253-.638c13.407-2.011 26.044-7.607 36.543-16.182 1.308-1.067 2.604-.707 3.258-.396.655.311 1.755 1.085 1.755 2.774v22.041c.001 4.141 3.359 7.499 7.501 7.499zm-87.621-4.153h16.698v38.91h-16.698zm-27.698 68.122c0 2.444-1.448 4.654-3.69 5.629l-29.934 13.014v-23.342h33.624zm-46.295-76.135c0-.827.673-1.5 1.5-1.5h55.993c.827 0 1.5.673 1.5 1.5v54.936c0 .827-.673 1.5-1.5 1.5h-55.993c-.827 0-1.5-.673-1.5-1.5zm-32.782 29.208v-3.48c0-9.768 7.947-17.715 17.715-17.715h.067v38.91h-.067c-9.768-.001-17.715-7.947-17.715-17.715zm84.951 103.851c-3.017 1.65-8.328 1.685-11.404-3.065l-14.302-24.856 15.365-6.68 13.396 23.203c2.3 3.985.93 9.098-3.055 11.398z"/><path d="m297.905 394.332c-13.529 4.093-27.629 6.168-41.905 6.168-79.678 0-144.5-64.822-144.5-144.5 0-14.497 2.138-28.801 6.354-42.516 1.217-3.959-1.006-8.156-4.965-9.373-3.958-1.216-8.156 1.005-9.373 4.965-3.927 12.771-6.199 26.002-6.822 39.424h-16.402c-3.529-18.759-20.024-33-39.792-33-22.332 0-40.5 18.168-40.5 40.5s18.168 40.5 40.5 40.5c19.769 0 36.264-14.241 39.792-33h16.389c1.784 38.334 17.157 73.177 41.409 99.802l-11.632 11.631c-14.544-10.429-38.099-9.177-51.478 4.81-15.115 14.448-16.031 41.881-.001 57.275 14.448 15.113 41.881 16.03 57.276 0 13.978-13.978 15.572-35.711 4.802-51.471l11.639-11.638c26.626 24.252 61.468 39.626 99.802 41.409v16.389c-18.76 3.529-33 20.024-33 39.792 0 22.332 18.168 40.5 40.5 40.5s40.5-18.168 40.5-40.5c0-19.768-14.24-36.264-33-39.792v-16.403c13.183-.612 26.187-2.816 38.749-6.615 3.965-1.199 6.206-5.386 5.007-9.35-1.197-3.964-5.384-6.205-9.349-5.007zm-257.405-112.832c-14.061 0-25.5-11.439-25.5-25.5s11.439-25.5 25.5-25.5 25.5 11.439 25.5 25.5-11.439 25.5-25.5 25.5zm81.149 144.913c-8.832 9.181-26.079 10.297-36.063 0-9.18-8.834-10.298-26.079.001-36.063 8.831-9.181 26.078-10.297 36.062 0 9.943 9.942 9.943 26.12 0 36.063zm159.851 45.087c0 14.061-11.439 25.5-25.5 25.5s-25.5-11.439-25.5-25.5 11.439-25.5 25.5-25.5 25.5 11.439 25.5 25.5z"/><path d="m471.5 215.5c-19.769 0-36.264 14.241-39.792 33h-16.389c-1.784-38.334-17.157-73.177-41.409-99.802l11.632-11.631c14.544 10.429 38.099 9.176 51.478-4.81 15.115-14.448 16.031-41.881.001-57.275-14.448-15.113-41.881-16.03-57.276 0-13.978 13.978-15.572 35.711-4.802 51.471l-11.639 11.638c-26.626-24.252-61.468-39.626-99.802-41.409v-16.39c18.76-3.529 33-20.024 33-39.792-.002-22.332-18.17-40.5-40.502-40.5s-40.5 18.168-40.5 40.5c0 19.768 14.24 36.264 33 39.792v16.405c-25.718 1.207-50.8 8.584-72.964 21.557-9.649 5.648-18.647 12.307-26.875 19.8l-11.602-11.602c10.769-15.76 9.175-37.493-4.803-51.472-14.448-15.113-41.882-16.03-57.275 0-15.115 14.448-16.031 41.881-.001 57.275 12.649 13.061 35.574 16.035 51.479 4.81l11.595 11.595c-7.458 8.189-14.09 17.142-19.721 26.74-2.096 3.573-.899 8.168 2.674 10.264 3.571 2.096 8.167.9 10.264-2.674 25.871-44.096 73.664-71.49 124.729-71.49 79.678 0 144.5 64.822 144.5 144.5 0 51.426-27.686 99.389-72.252 125.17-3.585 2.074-4.811 6.663-2.736 10.248 1.391 2.403 3.909 3.746 6.499 3.746 1.274 0 2.566-.326 3.749-1.01 9.916-5.736 19.153-12.532 27.58-20.207l11.6 11.6c-10.769 15.76-9.175 37.493 4.803 51.472 14.448 15.113 41.882 16.03 57.275 0 15.115-14.448 16.031-41.881.001-57.275-12.649-13.061-35.574-16.035-51.479-4.81l-11.594-11.594c7.384-8.107 13.958-16.963 19.554-26.458 13.127-22.271 20.588-47.497 21.803-73.381h16.405c3.529 18.759 20.024 33 39.792 33 22.332 0 40.5-18.168 40.5-40.5s-18.168-40.501-40.5-40.501zm-385.913-93.85c-9.181-8.833-10.298-26.079.001-36.063 8.831-9.181 26.079-10.297 36.062 0 9.942 9.942 9.942 26.12.001 36.063-8.834 9.18-26.08 10.298-36.064 0zm304.764-36.063c8.832-9.181 26.079-10.297 36.063 0 9.18 8.834 10.298 26.079-.001 36.063-8.831 9.181-26.078 10.297-36.062 0-9.943-9.942-9.943-26.12 0-36.063zm-159.851-45.087c0-14.061 11.439-25.5 25.5-25.5s25.5 11.439 25.5 25.5-11.439 25.5-25.5 25.5-25.5-11.439-25.5-25.5zm195.913 349.85c9.181 8.833 10.298 26.079-.001 36.063-8.831 9.181-26.079 10.297-36.062 0-9.942-9.942-9.942-26.12-.001-36.063 8.834-9.18 26.08-10.298 36.064 0zm45.087-108.85c-14.061 0-25.5-11.439-25.5-25.5s11.439-25.5 25.5-25.5 25.5 11.439 25.5 25.5-11.439 25.5-25.5 25.5z"/></g></g></svg>