<svg id="Capa_1" enable-background="new 0 0 512 512" height="512" viewBox="0 0 512 512" width="512" xmlns="http://www.w3.org/2000/svg"><g><g><path d="m411.558 469.983c0 20.711-16.789 37.5-37.5 37.5h-233c-20.711 0-37.5-16.789-37.5-37.5v-422c0-20.711 16.789-37.5 37.5-37.5h233c20.711 0 37.5 16.789 37.5 37.5z" fill="#f8f7f7"/><path d="m405.93 484c-6.2 12.17-18.84 20.5-33.43 20.5h-233c-20.71 0-37.5-16.79-37.5-37.5v-422c0-14.61 8.35-27.26 20.54-33.45v447.45c0 13.81 11.19 25 25 25z" fill="#e8e8e8"/><path d="m330.672 193.733c8.063-.05 14.966-6.28 15.313-14.336.371-8.6-6.491-15.667-14.983-15.667-.032 0-.064 0-.096 0l-11.287.071c-.649.004-1.129-.601-.979-1.232l5.463-22.929c1.871-7.854-2.552-16.051-10.309-18.293-.695-.201-1.391-.349-2.085-.448-7.582-1.08-14.423 4.309-16.233 11.909l-7.555 30.495c-.044.183-.417.281-.542.408-.182.184-.432.295-.705.297l-38.643.242c-.649.004-1.129-.601-.979-1.232l5.57-23.378c1.871-7.854-2.552-16.051-10.309-18.293-.694-.201-1.39-.349-2.084-.448-7.582-1.081-14.668 4.749-16.478 12.349l-7.294 30.495c-.038.16-.518.247-.62.365-.184.213-.455.345-.751.347l-10.271.064-11.45.792c-8.063.05-14.13 5.486-14.477 13.541-.371 8.6 5.843 15.203 14.335 15.203h.032l10.293.472 3.888-.024c.309-.002.58.134.762.345.201.232 1.043.572.964.903l-7.376 31.211c-.048.201-.947.298-1.092.429-.178.162-.413.259-.668.261l-8.094.051-10.679.498c-8.063.05-14.432 5.761-14.78 13.817-.371 8.6 6.119 15.516 14.611 15.516.032 0 9.857.177 9.857.177l1.436-.009c.296-.002.557.123.739.32.217.234.797.618.715.961l-5.119 22.104c-1.783 7.485 1.336 16.02 8.372 18.696.469.178.952.334 1.448.466 1.295.343 2.591.506 3.867.506 6.786 0 12.938-4.637 14.579-11.526l7.378-30.964c.107-.448.506-.765.967-.768l38.643-.242c.324-.002.607.148.789.378s.823.639.748.955l-5.326 22.583c-1.783 7.485 1.353 15.937 8.389 18.613.469.178.952.334 1.448.466 1.295.343 2.591.506 3.867.506 6.786 0 12.938-4.637 14.579-11.526l7.484-31.412c.107-.448.506-.765.966-.768l21.843-.137c8.082-.051 14.996-6.309 15.318-14.385.344-8.611-6.563-15.657-15.081-15.618l-14.432.09c-.649.004-1.129-.601-.979-1.232l7.422-31.15c.107-.448.506-.765.966-.768zm-59.055 33.473-38.643.242c-.649.004-1.129-.601-.979-1.232l7.422-31.149c.107-.448.506-.765.967-.768l38.643-.242c.324-.002.607.148.789.378s.985.893.91 1.208l-7.431 30.826c-.037.157-.821.267-.92.384-.186.216-.459.351-.758.353z" fill="#d6ccf2"/><g fill="#c8b8f4"><path d="m294.01 195.29-7.43 31.15c-.1.45-.5.76-.96.77h-14c.46-.01.86-.32.96-.77l7.43-31.15c.12-.48-.15-.96-.56-1.15l13.58-.08c.64-.01 1.13.6.98 1.23z"/><path d="m277.97 257.25-13.59.09c.42.19.69.66.57 1.15l-5.57 23.36c-1.79 7.52 2.19 15.34 9.3 17.97l10.27-41.33c.15-.63-.33-1.24-.98-1.24zm17.05-124.97-7.38 30.96c-.11.45-.5.76-.97.77h14c.47-.01.86-.32.97-.77l10.07-42.34c-7.58-1.08-14.88 3.78-16.69 11.38z"/><path d="m200.03 227.65c.46 0 .86-.32.97-.76l7.42-31.15c.12-.5-.15-.97-.57-1.16l13.59-.08c.65 0 1.13.6.98 1.24l-7.42 31.15c-.11.44-.51.76-.97.76z"/><path d="m192.38 257.7-11.29.07h-.09c-8.49 0-15.36-7.06-14.99-15.66.35-8.06 7.25-14.29 15.32-14.34l14-.09c-8.07.05-14.971 6.37-15.32 14.43-.332 7.707 5.118 14.329 12.37 15.59z"/><path d="m192.38 257.7 2.71.07 11.29-.07c.65 0 1.13.6.98 1.23l-10.16 40.89c-7.11-2.62-11.09-10.45-9.3-17.97l5.46-22.92c.15-.63-.33-1.23-.98-1.23z"/><path d="m215.09 164.46c.46-.01.86-.32.96-.77l7.49-31.41c1.8-7.6 9.11-12.46 16.69-11.38l-10.18 42.79c-.1.45-.5.76-.96.77z"/><path d="m207.241 164.507c-8.06.05-14.961 6.363-15.311 14.423-.35 8.08 5.68 14.79 13.45 15.58l-12.37.08h-.1c-8.49 0-15.35-7.06-14.98-15.66.35-8.06 7.25-14.29 15.31-14.34z"/></g></g><g><path d="m183.979 497h-44.479c-16.542 0-30-13.458-30-30v-349.957c0-4.143-3.358-7.5-7.5-7.5s-7.5 3.357-7.5 7.5v349.957c0 24.813 20.187 45 45 45h44.479c4.142 0 7.5-3.357 7.5-7.5s-3.358-7.5-7.5-7.5z"/><path d="m410 322.543c-4.142 0-7.5 3.357-7.5 7.5v136.957c0 16.542-13.458 30-30 30h-153.415c-4.142 0-7.5 3.357-7.5 7.5s3.358 7.5 7.5 7.5h153.415c24.813 0 45-20.187 45-45v-136.957c0-4.143-3.358-7.5-7.5-7.5z"/><path d="m372.5 0h-233c-24.813 0-45 20.187-45 45v36.979c0 4.143 3.358 7.5 7.5 7.5s7.5-3.357 7.5-7.5v-36.979c0-16.542 13.458-30 30-30h233c16.542 0 30 13.458 30 30v250.128c0 4.143 3.358 7.5 7.5 7.5s7.5-3.357 7.5-7.5v-250.128c0-24.813-20.187-45-45-45z"/><path d="m269 45c4.142 0 7.5-3.357 7.5-7.5s-3.358-7.5-7.5-7.5h-50c-4.142 0-7.5 3.357-7.5 7.5s3.358 7.5 7.5 7.5z"/><path d="m232.968 234.947h.053l38.636-.242c3.934-.021 7.314-2.707 8.222-6.529l7.421-31.148c.609-2.556.021-5.202-1.613-7.26-1.634-2.057-4.077-3.198-6.708-3.212l-38.644.242c-3.929.025-7.308 2.713-8.214 6.53l-7.421 31.148c-.609 2.556-.021 5.201 1.613 7.259 1.623 2.043 4.046 3.212 6.655 3.212zm12.563-33.181 25.258-.158-4.319 18.13-25.259.158z"/><path d="m181.281 220.271c-12.245.077-22.242 9.526-22.759 21.513-.736 11.449 9.375 23.705 22.62 23.49l3.003-.02-3.539 14.854c-2.861 12.005 4.32 24.293 16.005 27.39 10.451 3.328 25.373-4.336 27.667-16.53l6.195-26.003 25.259-.157-3.646 15.301c-2.861 12.005 4.32 24.293 16.005 27.39 10.451 3.328 25.373-4.336 27.667-16.53l6.302-26.45 16.744-.104c12.285-.077 22.285-9.56 22.765-21.586.248-6.203-1.985-12.075-6.288-16.532-4.227-4.379-10.133-6.885-16.232-6.885-.034 0-.068 0-.102 0l-6.148.038 4.32-18.13 13.601-.084h.001c12.245-.077 22.242-9.526 22.759-21.513.735-11.449-9.374-23.705-22.619-23.49l-3.003.019 3.543-14.871c2.844-11.935-3.974-23.898-15.522-27.236-10.939-3.407-25.207 3.487-28.154 16.396l-6.195 26.002-25.259.158 3.65-15.319c2.844-11.936-3.975-23.899-15.522-27.236-10.939-3.407-25.208 3.487-28.154 16.396l-6.302 26.45-16.746.104c-12.245.077-22.242 9.526-22.759 21.513-.736 11.449 9.375 23.705 22.62 23.49l6.147-.039-4.319 18.13zm32.818-30.056c-1.624-2.043-4.046-3.211-6.655-3.211-.018 0-.035 0-.053 0l-14.48.091c-3.179-.073-7.436-2.586-7.49-7.844.169-3.921 3.699-7.133 7.867-7.159l21.847-.137c3.925-.025 7.303-2.71 8.215-6.53l7.484-31.412c.809-3.086 4.259-6.649 9.397-5.461 3.778 1.092 6.063 5.286 5.095 9.35l-5.569 23.377c-.609 2.556-.021 5.201 1.613 7.259 1.624 2.043 4.046 3.212 6.656 3.212h.053l38.644-.242c3.925-.025 7.303-2.709 8.215-6.529l7.377-30.964c.808-3.086 4.261-6.652 9.397-5.462 3.778 1.092 6.063 5.286 5.095 9.35l-5.463 22.929c-.609 2.556-.021 5.201 1.613 7.259 1.624 2.043 4.046 3.212 6.656 3.212h.053l11.336-.07c3.18.073 7.436 2.585 7.49 7.844-.169 3.921-3.699 7.133-7.868 7.159l-18.702.116c-3.925.025-7.303 2.71-8.215 6.53l-7.421 31.148c-.61 2.559-.021 5.206 1.617 7.264 1.624 2.041 4.043 3.207 6.639 3.207h.065l14.419-.09c2.037.001 4.019.808 5.46 2.302 1.432 1.483 2.175 3.442 2.092 5.517-.157 3.936-3.688 7.158-7.871 7.185l-21.828.137c-3.933.017-7.317 2.701-8.231 6.529l-7.484 31.412c-.798 2.857-4.47 6.809-9.229 5.508-3.892-1.031-6.251-5.254-5.259-9.414l5.565-23.358c.609-2.556.021-5.201-1.613-7.259-1.624-2.043-4.046-3.212-6.656-3.212-.018 0-.035 0-.053 0l-38.644.241c-3.925.025-7.303 2.71-8.215 6.53l-7.377 30.964c-.798 2.857-4.471 6.809-9.229 5.508-3.892-1.031-6.251-5.254-5.259-9.414l5.458-22.91c.609-2.556.021-5.202-1.613-7.259-1.634-2.058-4.049-3.215-6.708-3.213l-11.335.071c-3.179-.073-7.436-2.586-7.49-7.844.169-3.921 3.699-7.133 7.867-7.159l18.702-.117c3.925-.025 7.303-2.709 8.215-6.529l7.422-31.151c.609-2.559.021-5.205-1.614-7.261z"/><path d="m345 343.752h-71c-4.142 0-7.5 3.357-7.5 7.5s3.358 7.5 7.5 7.5h71c4.142 0 7.5-3.357 7.5-7.5s-3.358-7.5-7.5-7.5z"/><path d="m167 358.752h77c4.142 0 7.5-3.357 7.5-7.5s-3.358-7.5-7.5-7.5h-77c-4.142 0-7.5 3.357-7.5 7.5s3.358 7.5 7.5 7.5z"/><path d="m345 383.752h-126.936c-4.142 0-7.5 3.357-7.5 7.5s3.358 7.5 7.5 7.5h126.936c4.142 0 7.5-3.357 7.5-7.5s-3.358-7.5-7.5-7.5z"/><path d="m167 398.752h21.064c4.142 0 7.5-3.357 7.5-7.5s-3.358-7.5-7.5-7.5h-21.064c-4.142 0-7.5 3.357-7.5 7.5s3.358 7.5 7.5 7.5z"/><path d="m345 423.752h-21c-4.142 0-7.5 3.357-7.5 7.5s3.358 7.5 7.5 7.5h21c4.142 0 7.5-3.357 7.5-7.5s-3.358-7.5-7.5-7.5z"/><path d="m167 438.752h127c4.142 0 7.5-3.357 7.5-7.5s-3.358-7.5-7.5-7.5h-127c-4.142 0-7.5 3.357-7.5 7.5s3.358 7.5 7.5 7.5z"/><circle cx="294" cy="37.5" r="7.5"/></g></g></svg>