<svg id="Capa_1" enable-background="new 0 0 512.006 512.006" height="512" viewBox="0 0 512.006 512.006" width="512" xmlns="http://www.w3.org/2000/svg"><g><g><path d="m458.376 375.15v-308.228c0-10.587-8.569-19.169-19.14-19.169h-390.46c-10.571 0-19.14 8.582-19.14 19.169v308.228z" fill="#f8f7f7"/><path d="m51.636 341.203v-293.45h-2.86c-10.57 0-19.14 8.58-19.14 19.17v308.23h428.74v-29.95h-402.74c-2.209 0-4-1.791-4-4z" fill="#e8e8e8"/><path d="m18.451 361.207 1.855-1h189.94l33.08 4.814 35.39-4.814h191.845c6.604 0 11.371 6.331 9.556 12.69l-.002.006c-3.523 12.342-14.788 20.85-27.604 20.85l-413.523-1.209c-12.82 0-26.574-6.304-30.094-18.65-1.813-6.358 2.954-12.687 9.557-12.687z" fill="#9e959e"/><path d="m479.146 375.733c-4.33 10.79-14.83 18.02-26.64 18.02h-173.79l-35.39-3.851-33.08 3.851h-174.74c-12.83 0-24.09-8.51-27.61-20.86-.26-.92-.39-1.85-.39-2.75 0-5.32 4.3-9.94 9.94-9.94h2.86c3.92 11.64 14.83 19.55 27.2 19.55h417c5.29 0 10.32-1.45 14.64-4.02z" fill="#8e868e"/><g><path d="m123.506 221.253h-26l-3 1c-5.523 0-10 4.477-10 10v40c0 5.523 4.477 10 10 10h28c5.523 0 10-4.477 10-10l1-3v-38c0-5.523-4.477-10-10-10z" fill="#bae6ef"/><path d="m133.506 269.253v4c0 5.523-4.477 10-10 10h-30c-5.523 0-10-4.477-10-10v-42c0-5.523 4.477-10 10-10h4v43c0 2.761 2.239 5 5 5z" fill="#94d8e6"/></g><path d="m278.716 360.203v33.55l-34.21-3.723-34.26 3.723v-33.55z" fill="#8e868e"/><path d="m210.246 379.753h68.47v14h-68.47z" fill="#766d78"/><g><path d="m214.006 178.253h-26l-3 1c-5.523 0-10 4.477-10 10v83c0 5.523 4.477 10 10 10h28c5.523 0 10-4.477 10-10l1-3v-81c0-5.523-4.477-10-10-10z" fill="#d6ccf2"/><path d="m224.006 269.253v4c0 5.523-4.477 10-10 10h-30c-5.523 0-10-4.477-10-10v-85c0-5.523 4.477-10 10-10h4v86c0 2.761 2.239 5 5 5z" fill="#c8b8f4"/></g><g><path d="m304.506 183.253h-26l-3 1c-5.523 0-10 4.477-10 10v78c0 5.523 4.477 10 10 10h28c5.523 0 10-4.477 10-10l1-3v-76c0-5.523-4.477-10-10-10z" fill="#ccf49f"/><path d="m314.506 269.253v4c0 5.523-4.477 10-10 10h-30c-5.523 0-10-4.477-10-10v-80c0-5.523 4.477-10 10-10h4v81c0 2.761 2.239 5 5 5z" fill="#b3e59f"/></g><path d="m372.125 89.737-33.963 39.853c-1.664 1.947-.28 4.949 2.281 4.949l7.163.714h3.9c.414 0 .809.084 1.168.236 1.077.455 2.497 1.336 2.497 2.578l.11 161.326h49.225v-161.14c0-1.657 1.343-3 3-3h12.49c2.561 0 3.944-3.002 2.281-4.949l-35.169-41.155c-3.992-4.671-10.991-4.083-14.983.588z" fill="#df646e"/><path d="m387.036 89.073-39.43 46.18h-8.59c-2.56 0-3.94-3-2.28-4.95l35.17-41.15c3.97-4.64 11.12-4.67 15.13-.08z" fill="#dc4955"/><path d="m369.506 138.253v161.14h-15v-161.14c0-1.66-1.34-3-3-3h15c1.66 0 3 1.34 3 3z" fill="#dc4955"/><g><path d="m504.303 366.753c0-51.319-39.731-93.358-90.111-97.035-2.373-.173-3.888.142-6.305.142-53.736 0-96.384 43.263-96.384 96.998s42.664 96.672 96.4 96.672c2.146 0 3.378.451 5.489.314 50.759-3.289 90.911-45.501 90.911-97.091z" fill="#ffd163"/><path d="m414.989 463.73c-2.635.21-5.299.319-7.983.319-53.738 0-97.297-43.559-97.297-97.297s43.559-97.297 97.297-97.297c2.684 0 5.349.11 7.983.319-50.005 4.062-89.314 45.924-89.314 96.977.001 51.055 39.309 92.918 89.314 96.979z" fill="#ffb65f"/><path d="m407.797 432.998c-37.142 0-66.568-28.968-66.568-66.11s28.635-67.016 65.778-67.016c2.308 0 4.589-.361 6.837-.133 33.943 3.437 60.522 32.181 60.522 67.015 0 34.869-26.632 63.635-60.623 67.025-2.217.22-3.673-.781-5.946-.781z" fill="#ffb65f"/><path d="m414.989 433.643c-2.615.309-5.279.469-7.983.469-37.142 0-67.359-30.217-67.359-67.359s30.217-67.359 67.359-67.359c2.704 0 5.369.16 7.983.469-33.39 3.962-59.376 32.452-59.376 66.89s25.986 62.929 59.376 66.89z" fill="#ff9350"/></g></g><g><path d="m93.506 213.753c-9.649 0-17.5 7.851-17.5 17.5v42c0 9.649 7.851 17.5 17.5 17.5h30c9.649 0 17.5-7.851 17.5-17.5v-42c0-9.649-7.851-17.5-17.5-17.5zm32.5 17.5v42c0 1.379-1.122 2.5-2.5 2.5h-30c-1.378 0-2.5-1.121-2.5-2.5v-42c0-1.379 1.122-2.5 2.5-2.5h30c1.378 0 2.5 1.121 2.5 2.5z"/><path d="m184.006 169.753c-9.649 0-17.5 7.851-17.5 17.5v86c0 9.649 7.851 17.5 17.5 17.5h30c9.649 0 17.5-7.851 17.5-17.5v-86c0-9.649-7.851-17.5-17.5-17.5zm32.5 17.5v86c0 1.379-1.122 2.5-2.5 2.5h-30c-1.378 0-2.5-1.121-2.5-2.5v-86c0-1.379 1.122-2.5 2.5-2.5h30c1.378 0 2.5 1.121 2.5 2.5z"/><path d="m304.506 290.753c9.649 0 17.5-7.851 17.5-17.5v-80c0-9.649-7.851-17.5-17.5-17.5h-30c-9.649 0-17.5 7.851-17.5 17.5v80c0 9.649 7.851 17.5 17.5 17.5zm-32.5-17.5v-80c0-1.379 1.122-2.5 2.5-2.5h30c1.378 0 2.5 1.121 2.5 2.5v80c0 1.379-1.122 2.5-2.5 2.5h-30c-1.378 0-2.5-1.121-2.5-2.5z"/><path d="m465.877 279.852v-212.93c0-14.705-11.951-26.669-26.64-26.669h-197.253c-4.142 0-7.5 3.357-7.5 7.5s3.358 7.5 7.5 7.5h197.252c6.418 0 11.64 5.234 11.64 11.669v204.448c-11.927-5.508-25.052-8.844-38.871-9.495v-51.893c0-4.143-3.358-7.5-7.5-7.5s-7.5 3.357-7.5 7.5v52.25c-12.419 1.179-24.213 4.528-35 9.666v-136.645c0-4.143-3.358-7.5-7.5-7.5h-5.726l28.825-33.731c.651-.762 1.471-.876 1.901-.876s1.25.114 1.901.876l28.825 33.731h-5.726c-4.142 0-7.5 3.357-7.5 7.5v39.75c0 4.143 3.358 7.5 7.5 7.5s7.5-3.357 7.5-7.5v-32.25h7.99c4.146 0 7.8-2.339 9.536-6.104 1.736-3.766 1.141-8.063-1.553-11.217l-35.168-41.155c-3.33-3.896-8.179-6.132-13.304-6.132s-9.975 2.235-13.304 6.132l-35.169 41.154c-2.693 3.153-3.288 7.451-1.552 11.217 1.735 3.766 5.389 6.104 9.536 6.104h7.99v137.882c-9.829 6.869-18.435 15.372-25.415 25.118h-238.086c-4.142 0-7.5 3.357-7.5 7.5s3.358 7.5 7.5 7.5h229.128c-4.838 9.885-8.166 20.636-9.686 31.954h-150.921c-4.142 0-7.5 3.357-7.5 7.5s3.358 7.5 7.5 7.5h50.714v18.546h-167.24c-9.42 0-17.807-6.339-20.395-15.416-.293-1.028.126-1.795.402-2.16.273-.362.889-.97 1.942-.97h99.598c4.142 0 7.5-3.357 7.5-7.5s-3.358-7.5-7.5-7.5h-79.913v-285.784c0-6.435 5.222-11.669 11.64-11.669h158.23c4.142 0 7.5-3.357 7.5-7.5s-3.358-7.5-7.5-7.5h-158.23c-14.689 0-26.64 11.964-26.64 26.669v285.785h-4.685c-5.518 0-10.589 2.527-13.915 6.934-3.33 4.412-4.37 9.992-2.854 15.309 4.415 15.487 18.733 26.304 34.82 26.304h272.334c14.305 41 53.355 70.5 99.171 70.5 57.897 0 105-47.103 105-105 0-36.098-18.311-67.996-46.129-86.902zm-248.136 87.855h53.475v18.546h-53.475zm68.475 18.546v-18.546h15.802c.057 6.33.676 12.528 1.811 18.546zm120.79 70.5c-49.626 0-90-40.374-90-90s40.374-90 90-90 90 40.374 90 90-40.374 90-90 90z"/><path d="m473.317 375.846c-4.016-1.016-8.095 1.415-9.111 5.431-6.625 26.188-30.147 44.477-57.201 44.477-32.533 0-59-26.468-59-59s26.467-59 59-59c26.177 0 49.5 17.551 56.716 42.68 1.143 3.98 5.299 6.282 9.278 5.139 3.981-1.144 6.282-5.298 5.139-9.279-9.052-31.522-38.303-53.539-71.133-53.539-40.804 0-74 33.196-74 74s33.196 74 74 74c33.929 0 63.43-22.944 71.743-55.797 1.017-4.018-1.415-8.097-5.431-9.112z"/><path d="m407.007 410.313c4.142 0 7.5-3.357 7.5-7.5v-3.078c8.006-2.975 13.125-10.224 14.33-17.398 1.711-10.188-3.811-19.388-13.739-22.894-2.354-1.019-9.98-2.423-12.078-4.998-.341-.405-.752-1.685-.407-3.391.179-.885.831-3.062 3.004-4.172 3.139-1.605 6.787 1.286 7.193 1.622 3.194 2.638 7.922 2.187 10.559-1.008 2.637-3.193 2.187-7.921-1.008-10.559-2.162-1.785-4.856-3.369-7.854-4.388v-1.711c0-4.143-3.358-7.5-7.5-7.5s-7.5 3.357-7.5 7.5v2.359c-.239.111-.478.205-.716.326-5.622 2.874-9.587 8.177-10.879 14.55-1.196 5.903.156 11.89 3.619 16.015 5.374 6.007 10.949 7.06 18.573 9.498 3.895 1.375 4.292 4.166 3.94 6.265-.506 3.015-3.047 6.573-7.431 6.602-5.149.039-6.366-.456-10.139-2.922-3.467-2.264-8.116-1.291-10.381 2.178-2.266 3.468-1.291 8.115 2.177 10.381 4.229 2.763 7.541 4.068 11.236 4.647v2.075c.001 4.143 3.359 7.501 7.501 7.501z"/></g></g></svg>