<svg id="Capa_1" enable-background="new 0 0 512 512" height="512" viewBox="0 0 512 512" width="512" xmlns="http://www.w3.org/2000/svg"><g><g><g><path d="m241 277.979h30v57.043h-30z" fill="#e8e8e8"/><path d="m276 329.5h-35l-4 1c-5.523 0-10 4.477-10 10l.202 132.959c0 16.569 12.23 30.055 28.798 30.055 2.478 0 4.887.686 7.19.119 13.096-3.222 22.81-15.043 22.81-29.133v-12.5l-3.972-7.5 3.972-7.5v-80l-3.972-6.796 3.972-8.204v-12.5c0-5.523-4.477-10-10-10z" fill="#f8f7f7"/><path d="m263.49 503.55c-2.39.62-4.9.95-7.49.95-16.57 0-30-13.43-30-30v-12.5l3.183-6.927-3.183-8.073v-80l3.183-7.5-3.183-7.032v-12.968c0-5.52 4.48-10 10-10h5v145c0 13.97 9.55 25.71 22.49 29.05z" fill="#e8e8e8"/></g><g><path d="m421.101 25c16.205 0 29.342 13.137 29.342 29.342v182.315c0 16.205-13.137 29.342-29.342 29.342h-330.202c-16.205 0-29.342-13.137-29.342-29.342v-182.315c0-16.205 13.137-29.342 29.342-29.342z" fill="#f8f7f7"/></g><path d="m343.5 25v7.5c0 13.79-11.21 25-25 25h-125c-13.79 0-25-11.21-25-25v-7.5z" fill="#e8e8e8"/><path d="m366 220.936h-40l-15 3.826v41.174h80v-20c0-13.808-11.193-25-25-25z" fill="#df646e"/><path d="m201 224.321-15-3.386h-40c-13.807 0-25 11.193-25 25v20h80z" fill="#c8b8f4"/><path d="m186 233.22c0 .819-.489 1.575-1.255 1.863-9.482 3.554-16.245 12.707-16.245 23.418v7.44h32.5l3.303-22.504-3.303-22.497h-15z" fill="#b09eef"/><path d="m326 233.22v-12.28h-15l-1.67 18.574 1.67 26.426h32.5v-7.44c0-10.711-6.763-19.864-16.245-23.418-.766-.287-1.255-1.044-1.255-1.862z" fill="#dc4955"/><g><path d="m193.532 161.598c0-13.878-9.572-25.52-22.473-28.685-2.262-.555-4.627.022-7.06.022-16.311 0-27.957 12.348-27.957 28.659s11.646 28.533 27.957 28.533c2.774 0 5.459.622 8.004-.093 12.421-3.489 21.529-14.898 21.529-28.436z" fill="#c48958"/><path d="m171.998 190.02c-2.54.73-5.23 1.11-8 1.11-16.31 0-29.53-13.22-29.53-29.53s13.22-29.54 29.53-29.54c2.77 0 5.46.38 8 1.11-12.42 3.48-21.53 14.89-21.53 28.43s9.11 24.95 21.53 28.42z" fill="#b27a49"/></g><g><path d="m289.618 119.118c0-15.63-10.666-28.768-25.116-32.534-2.715-.708-5.564-.052-8.501-.052-18.567 0-32.404 13.673-32.404 32.24s13.838 33.122 32.404 33.122c2.937 0 5.785.465 8.5-.242 14.45-3.766 25.117-16.904 25.117-32.534z" fill="#e3a76f"/><path d="m264.5 151.65c-2.71.71-5.56 1.09-8.5 1.09-18.57 0-33.62-15.06-33.62-33.62 0-18.57 15.05-33.62 33.62-33.62 2.94 0 5.79.38 8.5 1.09-14.46 3.76-25.12 16.9-25.12 32.53 0 15.62 10.66 28.77 25.12 32.53z" fill="#d6995c"/></g><path d="m286 193.5h-60c-3.452 0-6.74.7-9.731 1.965-8.973 3.795-13.269 12.68-13.269 23.035v30h104.349l3.651-15v-15c0-13.807-11.193-25-25-25z" fill="#ffd163"/><path d="m311 233.5v15l-54 4.225-56-4.225v-30c0-10.25 6.17-19.06 15-22.92v33.92c0 2.209 1.791 4 4 4z" fill="#ffb65f"/><g><path d="m377.534 161.598c0-13.878-9.572-25.52-22.473-28.685-2.262-.555-4.627.022-7.06.022-16.311 0-27.957 12.348-27.957 28.659s11.646 28.533 27.957 28.533c2.774 0 5.459.622 8.004-.093 12.421-3.489 21.529-14.898 21.529-28.436z" fill="#f2d1a5"/><path d="m356 190.02c-2.54.73-5.23 1.11-8 1.11-16.31 0-29.53-13.22-29.53-29.53s13.22-29.54 29.53-29.54c2.77 0 5.46.38 8 1.11-12.42 3.48-21.53 14.89-21.53 28.43s9.11 24.95 21.53 28.42z" fill="#f2bb88"/></g><g fill="#bae6ef"><path d="m318.5 7.5h-125c-5.523 0-10 4.477-10 10v15c0 5.523 4.477 10 10 10h125c5.523 0 10-4.477 10-10v-15c0-5.523-4.477-10-10-10z"/><path d="m318.5 248.5h-125c-5.523 0-10 4.477-10 10v15c0 5.523 4.477 10 10 10h125c5.523 0 10-4.477 10-10v-15c0-5.523-4.477-10-10-10z"/></g></g><g><path d="m450.443 202.798c-4.143 0-7.5 3.357-7.5 7.5v26.359c0 12.044-9.799 21.843-21.843 21.843h-22.6v-12.564c0-17.921-14.579-32.5-32.5-32.5h-47.897c-2.439-15.524-15.905-27.436-32.103-27.436h-60c-16.198 0-29.663 11.912-32.103 27.436h-47.897c-17.92 0-32.5 14.579-32.5 32.5v12.564h-22.601c-12.044 0-21.843-9.799-21.843-21.843v-118.785c0-4.143-3.358-7.5-7.5-7.5s-7.5 3.357-7.5 7.5v118.785c0 20.315 16.528 36.843 36.843 36.843h85.101c0 9.649 7.851 17.5 17.5 17.5h40v31.2c-8.466 1.22-15 8.502-15 17.3v135c0 20.678 16.822 37.5 37.5 37.5s37.5-16.822 37.5-37.5v-135c0-8.798-6.534-16.081-15-17.3v-31.2h40c9.649 0 17.5-7.851 17.5-17.5h85.101c20.315 0 36.843-16.527 36.843-36.843v-26.359c-.001-4.143-3.358-7.5-7.501-7.5zm-274.443 55.702h-47.5v-12.564c0-9.649 7.851-17.5 17.5-17.5h47.5v12.564c-9.649 0-17.5 7.851-17.5 17.5zm102.5 216c0 12.406-10.094 22.5-22.5 22.5-12.407 0-22.5-10.094-22.5-22.5v-12.5h45zm0-27.5h-45v-80h45zm0-95h-45v-12.5c0-1.379 1.122-2.5 2.5-2.5h40c1.379 0 2.5 1.121 2.5 2.5zm-30-30v-31h15v31zm72.5-48.5c0 1.379-1.121 2.5-2.5 2.5h-125c-1.378 0-2.5-1.121-2.5-2.5v-15c0-1.379 1.122-2.5 2.5-2.5h44.479c4.142 0 7.5-3.357 7.5-7.5s-3.358-7.5-7.5-7.5h-29.479v-22.5c0-9.649 7.851-17.5 17.5-17.5h60c9.649 0 17.5 7.851 17.5 17.5v22.5h-30.415c-4.143 0-7.5 3.357-7.5 7.5s3.357 7.5 7.5 7.5h45.415c1.379 0 2.5 1.121 2.5 2.5zm62.5-15h-47.5c0-9.649-7.851-17.5-17.5-17.5v-12.564h47.5c9.649 0 17.5 7.851 17.5 17.5z"/><path d="m421.101 17.5h-85.101c0-9.649-7.851-17.5-17.5-17.5h-28.479c-4.143 0-7.5 3.357-7.5 7.5s3.357 7.5 7.5 7.5h28.479c1.379 0 2.5 1.121 2.5 2.5v15c0 1.379-1.121 2.5-2.5 2.5h-125c-1.378 0-2.5-1.121-2.5-2.5v-15c0-1.379 1.122-2.5 2.5-2.5h61.542c4.142 0 7.5-3.357 7.5-7.5s-3.357-7.5-7.5-7.5h-61.542c-9.649 0-17.5 7.851-17.5 17.5h-85.101c-20.315 0-36.843 16.527-36.843 36.843v28.551c0 4.143 3.358 7.5 7.5 7.5s7.5-3.357 7.5-7.5v-28.551c0-12.044 9.799-21.843 21.843-21.843h85.101c0 9.649 7.851 17.5 17.5 17.5h125c9.649 0 17.5-7.851 17.5-17.5h85.101c12.044 0 21.843 9.799 21.843 21.843v121.04c0 4.143 3.357 7.5 7.5 7.5s7.5-3.357 7.5-7.5v-121.04c-.001-20.316-16.528-36.843-36.843-36.843z"/><path d="m84.531 140.328v39.123c0 4.143 3.358 7.5 7.5 7.5s7.5-3.357 7.5-7.5v-39.123c0-4.143-3.358-7.5-7.5-7.5s-7.5 3.358-7.5 7.5z"/><path d="m256 160.235c22.673 0 41.118-18.445 41.118-41.117 0-22.673-18.445-41.118-41.118-41.118-22.672 0-41.118 18.445-41.118 41.118 0 22.672 18.446 41.117 41.118 41.117zm0-67.235c14.401 0 26.118 11.717 26.118 26.118s-11.717 26.117-26.118 26.117-26.118-11.716-26.118-26.117 11.717-26.118 26.118-26.118z"/><path d="m348 198.632c20.421 0 37.034-16.613 37.034-37.033 0-20.421-16.613-37.034-37.034-37.034s-37.034 16.613-37.034 37.034c0 20.42 16.613 37.033 37.034 37.033zm0-59.068c12.149 0 22.034 9.885 22.034 22.034s-9.885 22.033-22.034 22.033-22.034-9.884-22.034-22.033 9.885-22.034 22.034-22.034z"/><path d="m201.034 161.599c0-20.421-16.613-37.034-37.034-37.034s-37.034 16.613-37.034 37.034c0 20.42 16.613 37.033 37.034 37.033s37.034-16.613 37.034-37.033zm-59.068 0c0-12.149 9.884-22.034 22.034-22.034s22.034 9.885 22.034 22.034-9.884 22.033-22.034 22.033-22.034-9.884-22.034-22.033z"/><circle cx="92.03" cy="110.768" r="7.501"/></g></g></svg>