<svg id="Capa_1" enable-background="new 0 0 512 512" height="512" viewBox="0 0 512 512" width="512" xmlns="http://www.w3.org/2000/svg"><g><g><path d="m411.558 469.983c0 20.711-16.789 37.5-37.5 37.5h-233c-20.711 0-37.5-16.789-37.5-37.5v-422c0-20.711 16.789-37.5 37.5-37.5h233c20.711 0 37.5 16.789 37.5 37.5z" fill="#f8f7f7"/><path d="m405.93 484c-6.2 12.17-18.84 20.5-33.43 20.5h-233c-20.71 0-37.5-16.79-37.5-37.5v-422c0-14.61 8.35-27.26 20.54-33.45v447.45c0 13.81 11.19 25 25 25z" fill="#e8e8e8"/><path d="m275.5 474.5h-128c-8.284 0-15-6.716-15-15v-30c0-8.284 6.716-15 15-15h128c8.284 0 15 6.716 15 15v30c0 8.284-6.716 15-15 15z" fill="#e8e8e8"/><path d="m380.5 444.5c0-14.157-9.806-26.023-22.996-29.178-2.247-.537-4.592-.102-7.004-.102-16.569 0-28.711 12.711-28.711 29.28s12.142 28.766 28.711 28.766c2.412 0 4.757.949 7.004.412 13.19-3.155 22.996-15.021 22.996-29.178z" fill="#bae6ef"/><path d="m357.5 473.66c-2.25.56-4.59.84-7 .84-16.57 0-30-13.43-30-30s13.43-30 30-30c2.41 0 4.75.28 7 .84-13.19 3.14-23 15-23 29.16s9.81 26.02 23 29.16z" fill="#94d8e6"/><path d="m260.688 114.174-.165 57.716c0 13.807 10.716 24.193 24.523 24.193l-.546.917c3.038 0 6.046 1.545 6.046 4.583l-.188 17.417c0 5.654 4.583 10.237 10.237 10.237 2.429 0 4.779-.864 6.63-2.437l25.294-23.176c6.69-5.686 15.183-8.808 23.963-8.808l69.729.001c9.457 0 20.977-3.068 25.224-10.814 1.954-3.563 3.065-7.653 3.065-12.003v-59c0-13.807-11.193-25-25-25h-145c-4.513 0-8.747 1.196-12.402 3.288-7.527 4.309-11.41 13.592-11.41 22.886z" fill="#ccf49f"/><path d="m451.43 184c-4.24 7.75-12.47 13-21.93 13h-71.9c-8.78 0-17.27 3.12-23.96 8.81l-26.77 22.75c-.93.79-1.97 1.4-3.1 1.81-1.945.712-4.101.851-6.258.26-4.503-1.234-7.512-5.494-7.512-10.163v-17.967c0-1.52-.62-2.9-1.61-3.89s-2.37-1.61-3.89-1.61c-13.81 0-25-11.19-25-25v-59c0-9.46 5.25-17.69 13-21.93v81.177c0 6.609 5.444 11.734 12.053 11.753 10.175.029 18.447 8.318 18.447 18.5v7.965c0 1.705 1.996 2.628 3.295 1.524l18.925-16.089c9.03-7.67 20.53-11.9 32.38-11.9z" fill="#b3e59f"/><path d="m252.5 244v59c0 4.369-1.121 8.476-3.09 12.05-4.255 7.72-13.582 11.441-23.02 11.441-3.038 0-5.5 2.462-5.5 5.5l1.014 16.64c0 5.654-4.583 10.237-10.237 10.237-2.429 0-4.779-.864-6.63-2.437l-24.918-21.082c-6.69-5.686-15.183-8.808-23.963-8.808l-72.266.229c-13.807 0-25-11.193-25-25v-54.66c0-9.457 3.861-20.798 11.607-25.046 3.563-1.953 7.653-3.064 12.003-3.064h145c13.807 0 25 11.193 25 25z" fill="#ffd163"/><path d="m249.41 315.05c-4.25 7.72-12.47 12.95-21.91 12.95-1.52 0-2.9.62-3.89 1.61s-1.61 2.37-1.61 3.89v17.967c0 4.669-3.008 8.93-7.512 10.163-2.157.591-4.314.452-6.258-.26-1.13-.41-2.17-1.02-3.1-1.81l-26.77-22.75c-6.69-5.69-15.18-8.81-23.96-8.81h-71.9c-13.807 0-25-11.193-25-25v-59c0-9.46 5.25-17.69 13-21.93v80.93c0 6.627 5.373 12 12 12h71.9c11.85 0 23.35 4.23 32.38 11.9l18.925 16.089c1.299 1.104 3.295.181 3.295-1.524v-7.965c0-10.59 8.95-19.14 19.69-18.46.07 0 10.04.01 20.72.01z" fill="#ffb65f"/></g><g><path d="m410 325.543c-4.143 0-7.5 3.357-7.5 7.5v133.957c0 16.542-13.458 30-30 30h-233c-16.542 0-30-13.458-30-30v-131.5h44.899c6.992 0 13.777 2.494 19.105 7.023l26.771 22.753c3.203 2.724 7.283 4.224 11.487 4.224 9.78 0 17.737-7.957 17.737-17.737v-16.323c16.993-1.037 30.5-15.19 30.5-32.439v-59c0-17.921-14.579-32.5-32.5-32.5h-118v-82.287c0-4.143-3.357-7.5-7.5-7.5s-7.5 3.357-7.5 7.5v82.286h-12c-17.92 0-32.499 14.579-32.499 32.5v59c0 17.921 14.579 32.5 32.5 32.5h12v131.5c0 24.813 20.187 45 45 45h233c24.813 0 45-20.187 45-45v-133.957c0-4.143-3.357-7.5-7.5-7.5zm-327.5-5.043c-9.649 0-17.5-7.851-17.5-17.5v-59c0-9.649 7.851-17.5 17.5-17.5h145c9.649 0 17.5 7.851 17.5 17.5v59c0 9.649-7.851 17.5-17.5 17.5-7.168 0-13 5.832-13 13v18.263c0 1.51-1.228 2.737-2.737 2.737-.648 0-1.277-.231-1.772-.652l-26.771-22.753c-8.036-6.832-18.271-10.595-28.82-10.595z"/><path d="m269 45c4.143 0 7.5-3.357 7.5-7.5s-3.357-7.5-7.5-7.5h-50c-4.143 0-7.5 3.357-7.5 7.5s3.357 7.5 7.5 7.5z"/><path d="m193.596 407h-46.096c-12.406 0-22.5 10.094-22.5 22.5v30c0 12.406 10.094 22.5 22.5 22.5h128c12.406 0 22.5-10.094 22.5-22.5v-30c0-12.406-10.094-22.5-22.5-22.5h-46.841c-4.143 0-7.5 3.357-7.5 7.5s3.357 7.5 7.5 7.5h46.841c4.136 0 7.5 3.364 7.5 7.5v30c0 4.136-3.364 7.5-7.5 7.5h-128c-4.136 0-7.5-3.364-7.5-7.5v-30c0-4.136 3.364-7.5 7.5-7.5h46.096c4.143 0 7.5-3.357 7.5-7.5s-3.358-7.5-7.5-7.5z"/><path d="m388 444.5c0-20.678-16.822-37.5-37.5-37.5s-37.5 16.822-37.5 37.5 16.822 37.5 37.5 37.5 37.5-16.822 37.5-37.5zm-60 0c0-12.406 10.094-22.5 22.5-22.5s22.5 10.094 22.5 22.5-10.094 22.5-22.5 22.5-22.5-10.094-22.5-22.5z"/><path d="m429.5 80.5h-12v-35.5c0-24.813-20.187-45-45-45h-233c-24.813 0-45 20.187-45 45v49.063c0 4.143 3.357 7.5 7.5 7.5s7.5-3.357 7.5-7.5v-49.063c0-16.542 13.458-30 30-30h233c16.542 0 30 13.458 30 30v35.5h-118c-17.921 0-32.5 14.579-32.5 32.5v59c0 17.249 13.507 31.402 30.5 32.439v16.323c0 9.78 7.957 17.737 17.737 17.737 4.204 0 8.284-1.5 11.487-4.223l26.771-22.755c5.328-4.528 12.113-7.022 19.105-7.022h44.9v93.691c0 4.143 3.357 7.5 7.5 7.5s7.5-3.357 7.5-7.5v-93.69h12c17.921 0 32.5-14.579 32.5-32.5v-59c0-17.921-14.579-32.5-32.5-32.5zm17.5 91.5c0 9.649-7.851 17.5-17.5 17.5h-71.899c-10.549 0-20.784 3.763-28.82 10.594l-26.771 22.755c-.495.42-1.124.651-1.772.651-1.51 0-2.737-1.228-2.737-2.737v-18.263c0-7.168-5.832-13-13-13-9.649 0-17.5-7.851-17.5-17.5v-59c0-9.649 7.851-17.5 17.5-17.5h145c9.649 0 17.5 7.851 17.5 17.5v59z"/><path d="m424.5 120h-72.5c-4.143 0-7.5 3.357-7.5 7.5s3.357 7.5 7.5 7.5h72.5c4.143 0 7.5-3.357 7.5-7.5s-3.357-7.5-7.5-7.5z"/><path d="m289.5 135h32.5c4.143 0 7.5-3.357 7.5-7.5s-3.357-7.5-7.5-7.5h-32.5c-4.143 0-7.5 3.357-7.5 7.5s3.357 7.5 7.5 7.5z"/><path d="m404.5 150h-115c-4.143 0-7.5 3.357-7.5 7.5s3.357 7.5 7.5 7.5h115c4.143 0 7.5-3.357 7.5-7.5s-3.357-7.5-7.5-7.5z"/><path d="m143.255 265h79.245c4.143 0 7.5-3.357 7.5-7.5s-3.357-7.5-7.5-7.5h-79.245c-4.143 0-7.5 3.357-7.5 7.5s3.357 7.5 7.5 7.5z"/><path d="m87.5 265h25.755c4.143 0 7.5-3.357 7.5-7.5s-3.357-7.5-7.5-7.5h-25.755c-4.143 0-7.5 3.357-7.5 7.5s3.357 7.5 7.5 7.5z"/><path d="m170.447 287.5c0-4.143-3.357-7.5-7.5-7.5h-75.447c-4.143 0-7.5 3.357-7.5 7.5s3.357 7.5 7.5 7.5h75.447c4.143 0 7.5-3.357 7.5-7.5z"/><circle cx="294" cy="37.5" r="7.5"/><circle cx="162.5" cy="444.5" r="7.5"/><circle cx="192.5" cy="444.5" r="7.5"/><circle cx="222.5" cy="444.5" r="7.5"/></g></g></svg>