<svg id="Capa_1" enable-background="new 0 0 512 512" height="512" viewBox="0 0 512 512" width="512" xmlns="http://www.w3.org/2000/svg"><g><g><path d="m411.558 469.983c0 20.711-16.789 37.5-37.5 37.5h-233c-20.711 0-37.5-16.789-37.5-37.5v-422c0-20.711 16.789-37.5 37.5-37.5h233c20.711 0 37.5 16.789 37.5 37.5z" fill="#f8f7f7"/><path d="m403.93 486c-6.2 12.17-18.84 20.5-33.43 20.5h-233c-20.71 0-37.5-16.79-37.5-37.5v-422c0-14.61 8.35-27.26 20.54-33.45v447.45c0 13.81 11.19 25 25 25z" fill="#e8e8e8"/><g><path d="m359.288 293.141c-4.215-7.228-4.362-16.024-.228-23.299 2.805-4.935 4.407-10.643 4.407-16.726 0-7.167-2.222-13.815-6.015-19.293-4.835-6.983-4.892-16.085-.823-23.54 2.393-4.383 3.753-9.411 3.753-14.757 0-10.84-5.592-20.37-14.048-25.87-6.128-3.986-10.307-10.453-10.67-17.754-.019-.39-.047-.782-.082-1.176-1.275-14.241-13.15-25.532-27.435-26.133-.34-.014-.678-.023-1.015-.025-9.962-.077-19.179-4.773-25.841-12.18-4.286-4.766-10.188-7.545-15.474-8.196-4.905-.604-9.571.234-13.631 2.146-8.023 3.778-17.349 3.802-25.562.456-2.874-1.171-5.923-2-9.097-2.437-2.881-.397-5.724.356-8.774.643-17.67 1.662-30.149 14.836-32.236 32.46-.06.508-.11 1.015-.15 1.519-.794 9.999-4.926 19.494-11.534 27.039-5.7 6.509-9.155 15.032-9.155 24.365 0 4.234.711 8.301 2.021 12.089 3.98 11.513 2.405 24.078-3.273 34.855-2.484 4.715-3.89 10.086-3.89 15.787 0 4.015.698 7.866 1.979 11.44 3.814 10.642 4.282 22.301.147 32.822-1.397 3.554-2.153 7.431-2.125 11.488.116 16.855 12.617 30.635 29.472 30.635h151.987c17.057 0 31.354-13.578 31.472-30.635.037-5.734-1.49-11.109-4.18-15.723z" fill="#855b51"/><path d="m286 315.5-30 30-30-30 2.706-23.069-2.706-43.931h60l-1.697 37.436 1.697 4.714z" fill="#e3a76f"/><path d="m177.83 166.02c-5.7 6.51-9.15 15.03-9.15 24.36 0 4.24.71 8.31 2.02 12.09 3.98 11.52 2.4 24.08-3.28 34.86-2.48 4.71-3.89 10.09-3.89 15.79 0 4.01.7 7.86 1.98 11.44 3.82 10.64 4.28 22.3.15 32.82-1.4 3.55-2.15 7.43-2.13 11.49.12 16.85 14.62 30.63 31.48 30.63h-15c-16.86 0-31.36-13.78-31.48-30.63-.02-4.06.73-7.94 2.13-11.49 4.13-10.52 3.67-22.18-.15-32.82-1.28-3.58-1.98-7.43-1.98-11.44 0-5.7 1.41-11.08 3.89-15.79 5.68-10.78 7.26-23.34 3.28-34.86-1.31-3.78-2.02-7.85-2.02-12.09 0-9.33 3.45-17.85 9.15-24.36 6.61-7.55 10.74-17.04 11.54-27.04.04-.5.09-1.01.15-1.52 2.08-17.62 16.42-31.62 34.09-33.29 3.85-.36 7.6-.15 11.17.57-15.88 3.18-28.33 16.39-30.26 32.72-.06.51-.11 1.02-.15 1.52-.8 10-4.93 19.49-11.54 27.04z" fill="#724d44"/><path d="m334.2 330.147-48.2-14.647c-13.516 13.745-34.932 16.031-51.075 6.856-3.22-1.83-6.229-2.964-8.925-5.705l-46.395 13.982c-10.566 3.178-17.8 12.907-17.8 23.941l-.475 14.481c0 7.948 4.851 15.897 12.669 16.412.331.022.664.033 1 .033h162c8.284 0 15-6.716 15-15v-16.413c.001-11.033-7.232-20.762-17.799-23.94z" fill="#ccf49f"/><path d="m226 248.5v67c1.345 1.37.445 5.074 1.936 6.216 1.491 1.141 5.374-.281 6.984.634.004-.001.006-.001.01-.002 1.664-2.219 2.941-4.67 3.8-7.268.83-2.54 1.27-5.21 1.27-7.92v-5.641c0-1.376 1.355-2.326 2.657-1.883 4.343 1.479 8.571 2.253 12.573 2.253 9.86 0 20.56-4.01 30.77-11.24v-42.149z" fill="#d6995c"/><path d="m304.163 183.58c-6.928-11.228-18.802-15.055-30.019-8.109-10.51 6.509-23.732.678-39.032 7.925-17.057 8.08-8.118 25.015-28.855 33.69-3.907 1.634-7.124 5.822-6.127 9.937 1.082 4.467.625 8.897 2.53 13.208 11.477 25.969 36.111 47.654 52.569 47.654 25.023 0 58.878-39.029 58.878-75.069 0-5.43-.599-10.482-1.726-15.148-1.352-5.59-5.464-9.625-8.218-14.088z" fill="#e3a76f"/><path d="m203.131 240.024c-.997-4.116 1.22-8.303 5.127-9.937 20.738-8.675 14.798-26.611 31.855-34.69 15.3-7.247 27.521-1.416 38.032-7.925 11.216-6.946 26.091-3.119 33.019 8.109.421.682.821 1.382 1.211 2.09-1.352-5.59-3.458-10.629-6.211-15.09-6.928-11.228-21.802-15.055-33.019-8.109-10.51 6.509-22.732.677-38.032 7.925-17.057 8.08-11.118 26.015-31.855 34.69-3.907 1.634-6.124 5.822-5.127 9.937 1.302 5.372 3.281 10.684 5.744 15.807-.267-.934-.517-1.869-.744-2.807z" fill="#d6995c"/><path d="m234.92 322.35c-.29.4-.6.78-.92 1.15-3.13 3.69-7.26 6.41-11.91 7.82l-40.26 12.23c-4.68 1.41-7.83 5.65-7.83 10.54v31.37c-7.82-.51-14-7.02-14-14.96v-16.41c0-11.04 7.23-20.77 17.8-23.94l48.2-14.65c2.69 2.74 5.7 5.02 8.92 6.85z" fill="#b3e59f"/></g><path d="m285.5 445.5c0-13.878-9.748-25.479-22.77-28.329-2.007-.439-4.591.104-6.73.104-16.016 0-26.826 12.208-26.826 28.225s11.108 28.005 27.124 28.005c2.002 0 4.159.793 6.046.406 13.215-2.704 23.156-14.397 23.156-28.411z" fill="#df646e"/><path d="m264 473.52c-2.39.64-4.91.98-7.5.98-16.02 0-29-12.98-29-29s12.98-29 29-29c2.59 0 5.11.34 7.5.98-12.38 3.3-21.5 14.59-21.5 28.02s9.12 24.72 21.5 28.02z" fill="#dc4955"/></g><g><g><path d="m102 145.904c4.142 0 7.5-3.357 7.5-7.5v-93.404c0-16.542 13.458-30 30-30h173.542c4.142 0 7.5-3.357 7.5-7.5s-3.358-7.5-7.5-7.5h-173.542c-24.813 0-45 20.187-45 45v93.404c0 4.143 3.358 7.5 7.5 7.5z"/><path d="m372.5 0h-24.351c-4.142 0-7.5 3.357-7.5 7.5s3.358 7.5 7.5 7.5h24.351c16.542 0 30 13.458 30 30v422c0 16.542-13.458 30-30 30h-233c-16.542 0-30-13.458-30-30v-293.532c0-4.143-3.358-7.5-7.5-7.5s-7.5 3.357-7.5 7.5v293.532c0 24.813 20.187 45 45 45h233c24.813 0 45-20.187 45-45v-422c0-24.813-20.187-45-45-45z"/><path d="m219 45h50c4.142 0 7.5-3.357 7.5-7.5s-3.358-7.5-7.5-7.5h-50c-4.142 0-7.5 3.357-7.5 7.5s3.358 7.5 7.5 7.5z"/><circle cx="294" cy="37.5" r="7.5"/><path d="m308.469 117.101c-6.771.209-15.558-2.972-21.602-9.728-5.236-5.821-12.575-9.693-20.135-10.624-6.116-.75-12.25.219-17.742 2.805-5.973 2.813-13.094 2.92-19.537.296-6.84-2.787-14.089-3.846-21.544-3.143-21.165 1.99-38.341 18.759-40.842 39.874-.375 7.565-3.578 17.407-9.878 24.497-7.102 8.109-11.013 18.518-11.013 29.307 0 4.978.818 9.869 2.432 14.539 3.125 9.04 2.097 19.576-2.82 28.909-3.11 5.904-4.754 12.572-4.754 19.282 0 4.792.813 9.492 2.418 13.971 3.4 9.486 3.48 19.269.227 27.549-1.788 4.551-2.678 9.356-2.644 14.282.08 11.689 5.858 22.766 15.207 29.948-2.405 4.565-3.741 9.753-3.741 15.222v16.413c0 12.406 10.093 22.5 22.5 22.5h19.958c4.142 0 7.5-3.357 7.5-7.5s-3.358-7.5-7.5-7.5h-19.959c-4.136 0-7.5-3.364-7.5-7.5v-16.413c0-7.782 5.007-14.517 12.46-16.758l44.599-13.413c8.789 7.414 19.791 11.449 31.441 11.449s22.652-4.035 31.441-11.449l44.599 13.413c7.453 2.241 12.46 8.976 12.46 16.758v16.413c0 4.136-3.364 7.5-7.5 7.5h-107.021c-4.142 0-7.5 3.357-7.5 7.5s3.358 7.5 7.5 7.5h107.021c12.407 0 22.5-10.094 22.5-22.5v-16.413c0-5.432-1.315-10.588-3.689-15.131 9.405-7.135 15.072-18.1 15.154-30.039.047-6.879-1.75-13.641-5.199-19.554-2.909-4.988-2.979-10.901-.187-15.816 3.524-6.2 5.386-13.266 5.386-20.432 0-8.471-2.542-16.618-7.35-23.562-3.092-4.465-3.247-10.472-.406-15.677 3.056-5.595 4.67-11.94 4.67-18.351 0-13.025-6.526-25.047-17.459-32.157-3.629-2.391-7.499-7.629-7.37-13.312-1.613-18.025-16.483-32.193-34.581-32.955zm-74.469 195.14v-23.927c7.267 4.465 14.581 7.072 21.229 7.072 7.318 0 15.139-2.595 22.764-7.181v24.042c-6.125 5.251-13.827 8.119-21.994 8.119-8.168-.001-15.873-2.871-21.999-8.125zm108.244-136.298c6.661 4.332 10.637 11.653 10.637 19.583 0 3.905-.98 7.765-2.836 11.163-5.576 10.214-5.101 22.247 1.24 31.403 3.063 4.423 4.682 9.618 4.682 15.022 0 4.572-1.185 9.075-3.428 13.021-5.464 9.616-5.363 21.124.271 30.783 2.094 3.591 3.186 7.703 3.156 11.894-.052 7.549-3.832 14.479-10.058 18.808-2.842-2.016-6.048-3.605-9.547-4.658l-43.367-13.042v-33.6c8.644-8.61 16.278-19.602 21.596-31.88 1.646-3.801-.101-8.217-3.901-9.862-3.803-1.648-8.218.1-9.863 3.901-9.838 22.715-30.718 41.905-45.595 41.905-14.062 0-42.565-25.229-49.81-55.127-.119-.49.196-1.028.733-1.253 13.568-5.677 18.081-14.908 21.706-22.326 2.787-5.702 4.801-9.821 10.465-12.505 6.436-3.049 12.205-3.287 18.312-3.541 6.707-.277 13.642-.564 20.458-4.786 3.602-2.23 7.914-2.907 12.149-1.909 4.424 1.043 8.167 3.735 10.539 7.579 3.75 6.079 5.98 13.232 6.628 21.261.333 4.128 3.956 7.216 8.079 6.872 4.129-.333 7.206-3.95 6.873-8.079-.84-10.415-3.806-19.813-8.813-27.93-4.479-7.259-11.532-12.338-19.859-14.303-8.139-1.922-16.48-.587-23.491 3.757-3.471 2.149-7.756 2.326-13.181 2.552-6.648.275-14.922.618-24.112 4.971-10.413 4.933-14.354 12.996-17.52 19.475-3.162 6.469-5.659 11.578-14.018 15.075-7.384 3.088-11.389 10.919-9.523 18.623 4.207 17.361 15.203 34.887 28.159 47.602v33.53l-43.36 13.041c-3.462 1.041-6.639 2.604-9.458 4.589-6.212-4.37-10.097-11.367-10.147-18.74-.021-3.005.52-5.931 1.605-8.693 4.583-11.66 4.559-25.189-.067-38.095-1.021-2.85-1.539-5.848-1.539-8.91 0-4.345 1.018-8.479 3.025-12.29 6.842-12.987 8.2-27.859 3.726-40.801-1.068-3.09-1.609-6.333-1.609-9.64 0-7.152 2.592-14.051 7.297-19.424 7.475-8.368 12.801-20.958 13.49-32.618 1.675-14.14 13.178-25.369 27.352-26.702 5.026-.473 9.898.233 14.479 2.1 10.316 4.204 21.83 3.979 31.587-.616 2.927-1.378 6.219-1.896 9.519-1.486 3.903.479 8.046 2.689 10.813 5.767 7.705 8.795 20.481 14.837 32.117 14.683 10.616.447 19.334 8.748 20.28 19.307.11 8.625 5.474 19.027 14.129 24.549z"/><path d="m132.5 111c4.142 0 7.5-3.357 7.5-7.5v-22.5h22.5c4.142 0 7.5-3.357 7.5-7.5s-3.358-7.5-7.5-7.5h-25c-6.893 0-12.5 5.607-12.5 12.5v25c0 4.143 3.358 7.5 7.5 7.5z"/><path d="m125 413.5c0 6.893 5.607 12.5 12.5 12.5h25c4.142 0 7.5-3.357 7.5-7.5s-3.358-7.5-7.5-7.5h-22.5v-22.5c0-4.143-3.358-7.5-7.5-7.5s-7.5 3.357-7.5 7.5z"/><path d="m380.5 381c-4.142 0-7.5 3.357-7.5 7.5v22.5h-22.5c-4.142 0-7.5 3.357-7.5 7.5s3.358 7.5 7.5 7.5h25c6.893 0 12.5-5.607 12.5-12.5v-25c0-4.143-3.358-7.5-7.5-7.5z"/><path d="m388 78.5c0-6.893-5.607-12.5-12.5-12.5h-25c-4.142 0-7.5 3.357-7.5 7.5s3.358 7.5 7.5 7.5h22.5v22.5c0 4.143 3.358 7.5 7.5 7.5s7.5-3.357 7.5-7.5z"/><path d="m220 445.5c0 20.126 16.374 36.5 36.5 36.5s36.5-16.374 36.5-36.5-16.374-36.5-36.5-36.5-36.5 16.374-36.5 36.5zm58 0c0 11.855-9.645 21.5-21.5 21.5s-21.5-9.645-21.5-21.5 9.645-21.5 21.5-21.5 21.5 9.645 21.5 21.5z"/></g></g></g></svg>