<svg id="Capa_1" enable-background="new 0 0 512 512" height="512" viewBox="0 0 512 512" width="512" xmlns="http://www.w3.org/2000/svg"><g><g><path d="m343.223 437c0 20.711-16.789 37.5-37.5 37.5h-213c-20.711 0-37.5-16.789-37.5-37.5v-392c0-20.711 16.789-37.5 37.5-37.5h213c20.711 0 37.5 16.789 37.5 37.5z" fill="#f8f7f7"/><path d="m338.343 455.5c-6.44 11.34-18.64 19-32.62 19h-213c-20.71 0-37.5-16.79-37.5-37.5v-392c0-13.98 7.65-26.18 19-32.62v424.62c0 10.2 8.3 18.5 18.5 18.5z" fill="#e8e8e8"/><path d="m223.989 72.5 5.734 71.858-5.734 42.142-58.28 4.977-73.97-3.977v-99c0-8.28 5.72-16 14-16z" fill="#c8b8f4"/><path d="m223.989 186.5 8.216 35.249-7.216 53.751h-118.25c-8.28 0-15-6.72-15-15v-74z" fill="#ccf49f"/><path d="m307.739 87.5v174c0 8.28-9.291 13.261-17.571 13.261l-64.734.495-1.445-14.757v-188h68.75c8.28.001 15 6.721 15 15.001z" fill="#ffd163"/><path d="m106.739 72.5v114l-8 4.977-8-4.977v-99c0-8.28 6.72-15 15-15z" fill="#b09eef"/><path d="m223.989 260.5 5.734 8-5.734 8h-118.25c-8.284 0-15-6.716-15-15v-75h16v67c0 3.866 3.134 7 7 7z" fill="#b3e59f"/><path d="m307.739 260.5v1c0 8.28-6.72 15-15 15h-68.75v-16z" fill="#ffb65f"/><path d="m456.739 399.5c0-55.091-42.427-100.272-96.389-104.652-2.84-.23-5.711.556-8.611.556-57.99 0-105 46.106-105 104.096s47.01 104.252 105 104.252c1.812 0 3.614.702 5.403.611 55.479-2.812 99.597-48.685 99.597-104.863z" fill="#bae6ef"/><path d="m361.239 504.07c-3.13.29-6.3.43-9.5.43-57.99 0-105-47.01-105-105s47.01-105 105-105c3.2 0 6.37.14 9.5.43-53.54 4.8-95.5 49.78-95.5 104.57s41.96 99.77 95.5 104.57z" fill="#94d8e6"/><path d="m290.989 373.063v56.494c0 5.457 4.424 9.881 9.881 9.881 2.337 0 4.598-.828 6.382-2.338l8.087-6.843c2.438-2.063 5.527-3.194 8.72-3.194h74.93c7.456 0 13.5-6.044 13.5-13.5v-40.5c0-7.456-6.044-13.5-13.5-13.5h-94.5c-7.455 0-13.5 6.044-13.5 13.5z" fill="#f8f7f7"/></g><g><path d="m259.064 15h46.686c16.542 0 30 13.458 30 30v119.276c0 4.143 3.358 7.5 7.5 7.5s7.5-3.357 7.5-7.5v-119.276c0-24.813-20.187-45-45-45h-46.686c-4.142 0-7.5 3.357-7.5 7.5s3.358 7.5 7.5 7.5z"/><path d="m212.25 45c4.142 0 7.5-3.357 7.5-7.5s-3.358-7.5-7.5-7.5h-50c-4.142 0-7.5 3.357-7.5 7.5s3.358 7.5 7.5 7.5z"/><path d="m315.25 261.5v-174c0-12.406-10.093-22.5-22.5-22.5h-187c-12.407 0-22.5 10.094-22.5 22.5v23.798c0 4.143 3.358 7.5 7.5 7.5s7.5-3.357 7.5-7.5v-23.798c0-4.136 3.364-7.5 7.5-7.5h110.75v99h-118.25v-32.724c0-4.143-3.358-7.5-7.5-7.5s-7.5 3.357-7.5 7.5v115.224c0 12.406 10.093 22.5 22.5 22.5h187c12.407 0 22.5-10.094 22.5-22.5zm-98.75 7.5h-110.75c-4.136 0-7.5-3.364-7.5-7.5v-67.5h118.25zm15-189h61.25c4.136 0 7.5 3.364 7.5 7.5v174c0 4.136-3.364 7.5-7.5 7.5h-61.25z"/><path d="m207.5 320.5c0-4.143-3.358-7.5-7.5-7.5h-47.688c-4.142 0-7.5 3.357-7.5 7.5s3.358 7.5 7.5 7.5h47.688c4.142 0 7.5-3.357 7.5-7.5z"/><path d="m90.75 328h31.562c4.142 0 7.5-3.357 7.5-7.5s-3.358-7.5-7.5-7.5h-31.562c-4.142 0-7.5 3.357-7.5 7.5s3.358 7.5 7.5 7.5z"/><path d="m169.75 363h-79c-4.142 0-7.5 3.357-7.5 7.5s3.358 7.5 7.5 7.5h79c4.142 0 7.5-3.357 7.5-7.5s-3.358-7.5-7.5-7.5z"/><path d="m224.5 400.5c0-4.143-3.358-7.5-7.5-7.5h-126.25c-4.142 0-7.5 3.357-7.5 7.5s3.358 7.5 7.5 7.5h126.25c4.142 0 7.5-3.357 7.5-7.5z"/><path d="m90.75 423c-4.142 0-7.5 3.357-7.5 7.5s3.358 7.5 7.5 7.5h63.125c4.142 0 7.5-3.357 7.5-7.5s-3.358-7.5-7.5-7.5z"/><path d="m351.75 287c-.334 0-.666.015-1 .018v-87.507c0-4.143-3.358-7.5-7.5-7.5s-7.5 3.357-7.5 7.5v88.624c-15.873 2.265-31.08 7.894-44.664 16.608-3.486 2.236-4.5 6.875-2.264 10.362 2.237 3.486 6.876 4.501 10.362 2.263 15.674-10.054 33.851-15.368 52.566-15.368 53.762 0 97.5 43.738 97.5 97.5s-43.738 97.5-97.5 97.5-97.5-43.738-97.5-97.5c0-22.179 7.254-43.075 20.979-60.43 2.569-3.249 2.019-7.966-1.23-10.535-3.25-2.568-7.965-2.019-10.535 1.23-8.021 10.143-14.119 21.336-18.194 33.234h-45.52c-4.142 0-7.5 3.357-7.5 7.5s3.358 7.5 7.5 7.5h41.552c-1.345 7.008-2.052 14.191-2.052 21.5 0 8.058.859 15.918 2.476 23.5h-57.851c-4.142 0-7.5 3.357-7.5 7.5s3.358 7.5 7.5 7.5h62.163c3.829 10.48 9.175 20.235 15.769 29h-169.057c-16.542 0-30-13.458-30-30v-391.999c0-16.542 13.458-30 30-30h131.144c4.142 0 7.5-3.357 7.5-7.5s-3.358-7.5-7.5-7.5h-131.144c-24.813 0-45 20.187-45 45v392c0 24.813 20.187 45 45 45h182.602c20.078 18.606 46.93 30 76.398 30 62.033 0 112.5-50.467 112.5-112.5s-50.467-112.5-112.5-112.5z"/><path d="m300.881 446.938c4.106 0 8.093-1.461 11.227-4.112l8.087-6.843c1.082-.916 2.458-1.42 3.875-1.42h74.93c11.58 0 21-9.421 21-21v-40.5c0-11.579-9.42-21-21-21h-94.5c-11.58 0-21 9.421-21 21v56.494c0 9.584 7.797 17.381 17.381 17.381zm-2.381-73.875c0-3.309 2.691-6 6-6h94.5c3.309 0 6 2.691 6 6v40.5c0 3.309-2.691 6-6 6h-74.93c-4.96 0-9.778 1.765-13.565 4.969l-8.087 6.843c-.429.363-.975.563-1.538.563-1.313 0-2.381-1.068-2.381-2.381v-56.494z"/><path d="m324.75 400.813h54c4.142 0 7.5-3.357 7.5-7.5s-3.358-7.5-7.5-7.5h-54c-4.142 0-7.5 3.357-7.5 7.5s3.358 7.5 7.5 7.5z"/><circle cx="237.25" cy="37.503" r="7.5"/></g></g></svg>