<svg id="Capa_1" enable-background="new 0 0 512 512" height="512" viewBox="0 0 512 512" width="512" xmlns="http://www.w3.org/2000/svg"><g><g><path d="m343.298 437c0 20.711-16.789 37.5-37.5 37.5h-213c-20.711 0-37.5-16.789-37.5-37.5v-392c0-20.711 16.789-37.5 37.5-37.5h213c20.711 0 37.5 16.789 37.5 37.5z" fill="#f8f7f7"/><path d="m340.858 455.5c-6.44 11.34-18.64 19-32.62 19h-213c-20.71 0-37.5-16.79-37.5-37.5v-392c0-13.98 7.65-26.18 19-32.62v424.62c0 10.2 8.3 18.5 18.5 18.5z" fill="#e8e8e8"/><path d="m290.924 275.505-181.899-.578c-8.284 0-15-6.716-15-15l-1.679-170.615c0-7.948 4.634-16.264 12.451-16.779.331-.022.664-.033 1-.033h187c8.284 0 15 6.716 15 15v174c0 .336-.011.67-.033 1-.514 7.818-8.892 13.005-16.84 13.005z" fill="#d6ccf2"/><path d="m307.758 262.5c-.51 7.82-7.02 14-14.96 14h-187c-8.28 0-15-6.72-15-15v-174c0-7.94 6.18-14.45 14-14.96v182.96c0 3.87 3.13 7 7 7z" fill="#c8b8f4"/><path d="m271.798 245.202-145.14.738c-2.761 0-5-2.239-5-5l.14-132.44c0-2.761 2.239-5 5-5l8-1h56.75l6.982 1.922 8.018-1.922h18.67l8.734 1.014 7.486-1.014h31.36c2.761 0 5 2.239 5 5v125l-1 7.702c0 2.761-2.239 5-5 5z" fill="#9e959e"/><path d="m277.798 232.5v9c0 2.761-2.239 5-5 5h-66.25l-6.476-3.06-8.524 3.06h-65.75c-2.761 0-5-2.239-5-5v-36.23l1.067-6.472-1.067-10.988v-80.31c0-2.761 2.239-5 5-5h9v126c0 2.209 1.791 4 4 4z" fill="#8e868e"/><path d="m456.798 399.5c0-55.289-42.733-100.597-96.972-104.698-2.65-.2-5.327.601-8.028.601-57.99 0-102.956 46.242-102.956 104.231s44.967 103.732 102.956 103.732c2.882 0 5.736 1.017 8.559.789 53.987-4.354 96.441-49.547 96.441-104.655z" fill="#bae6ef"/><path d="m361.798 504.02c-3.29.32-6.63.48-10 .48-57.99 0-105-47.01-105-105s47.01-105 105-105c3.37 0 6.71.16 10 .48-53.3 5.03-95 49.9-95 104.52s41.7 99.49 95 104.52z" fill="#94d8e6"/><path d="m335.043 440.25h32.477l1.278 13v2c0 8.284-6.716 15-15 15h-5c-.678 0-1.346-.045-2.001-.132-7.338-.978-11.754-7.262-11.754-14.868z" fill="#ffd163"/><path d="m368.798 440.25v13h-19c-1.657 0-3 1.343-3 3v13.86c-7.34-.97-13-7.26-13-14.86v-15l16.548-2.828z" fill="#ffb65f"/><g><path d="m351.298 367.063c-4.143 0-7.5-3.357-7.5-7.5v-30.813c0-4.143 3.357-7.5 7.5-7.5s7.5 3.357 7.5 7.5v30.813c0 4.142-3.358 7.5-7.5 7.5z" fill="#ffb65f"/></g><path d="m389.923 378.75c0-16.569-13.431-30-30-30h-2.197l-4.849.083-9.893.178c-16.569 0-28.748 13.434-28.748 30.003v.72c0 9.73-3.39 19.705-9.468 27.303l-5.809 7.261c-2.312 2.89-3.88 5.002-3.88 8.703v.274c0 9.001 5.971 16.24 14.972 16.24l13.211.736h70.304c9.001 0 16.298-7.297 16.298-16.298 0-3.867-1.375-7.609-3.88-10.555l-5.862-6.896c-6.584-7.748-10.199-17.585-10.199-27.752z" fill="#ffd163"/><path d="m358.498 348.75c-16.57 0-30 13.43-30 30v.72c0 9.73-3.31 19.17-9.39 26.77l-5.81 7.26c-2.31 2.89-3.57 6.48-3.57 10.18v.27c0 9 7.3 16.3 16.3 16.3h-16c-9 0-16.3-7.3-16.3-16.3v-.27c0-3.7 1.26-7.29 3.57-10.18l5.81-7.26c6.08-7.6 9.39-17.04 9.39-26.77v-.72c0-16.57 13.43-30 30-30z" fill="#ffb65f"/></g><g><path d="m212.25 30h-50c-4.142 0-7.5 3.357-7.5 7.5s3.358 7.5 7.5 7.5h50c4.142 0 7.5-3.357 7.5-7.5s-3.358-7.5-7.5-7.5z"/><path d="m83.25 87.5v174c0 12.406 10.093 22.5 22.5 22.5h187c12.406 0 22.5-10.094 22.5-22.5v-174c0-12.406-10.094-22.5-22.5-22.5h-48.761c-4.142 0-7.5 3.357-7.5 7.5s3.358 7.5 7.5 7.5h48.761c4.136 0 7.5 3.364 7.5 7.5v174c0 4.136-3.364 7.5-7.5 7.5h-187c-4.136 0-7.5-3.364-7.5-7.5v-174c0-4.136 3.364-7.5 7.5-7.5h103.292c4.142 0 7.5-3.357 7.5-7.5s-3.358-7.5-7.5-7.5h-103.292c-12.407 0-22.5 10.094-22.5 22.5z"/><path d="m113.25 107.5v134c0 6.893 5.607 12.5 12.5 12.5h147c6.893 0 12.5-5.607 12.5-12.5v-42.479c0-4.143-3.357-7.5-7.5-7.5s-7.5 3.357-7.5 7.5v39.979h-63.75v-35.711c23.989-14.924 40-41.517 40-71.789 0-7.33-.947-14.522-2.78-21.5h26.53v53.979c0 4.143 3.357 7.5 7.5 7.5s7.5-3.357 7.5-7.5v-56.479c0-6.893-5.607-12.5-12.5-12.5h-39.25c-.046-.001-.091 0-.137 0h-107.613c-6.893 0-12.5 5.607-12.5 12.5zm93.25 2.5h21.593c2.25 6.912 3.407 14.12 3.407 21.5 0 21.406-9.733 40.576-25 53.335zm-78.25 0h63.25v84.41c-8.961 4.219-18.957 6.59-29.5 6.59-11.882 0-23.465-3.017-33.75-8.741zm0 98.973c10.586 4.614 22.05 7.027 33.75 7.027 10.373 0 20.311-1.889 29.5-5.324v28.324h-63.25z"/><path d="m90.75 328h92.25c4.142 0 7.5-3.357 7.5-7.5s-3.358-7.5-7.5-7.5h-92.25c-4.142 0-7.5 3.357-7.5 7.5s3.358 7.5 7.5 7.5z"/><path d="m90.75 378h130.25c4.142 0 7.5-3.357 7.5-7.5s-3.358-7.5-7.5-7.5h-130.25c-4.142 0-7.5 3.357-7.5 7.5s3.358 7.5 7.5 7.5z"/><path d="m90.75 408h31.792c4.142 0 7.5-3.357 7.5-7.5s-3.358-7.5-7.5-7.5h-31.792c-4.142 0-7.5 3.357-7.5 7.5s3.358 7.5 7.5 7.5z"/><path d="m90.75 438h106.005c4.142 0 7.5-3.357 7.5-7.5s-3.358-7.5-7.5-7.5h-106.005c-4.142 0-7.5 3.357-7.5 7.5s3.358 7.5 7.5 7.5z"/><path d="m351.75 287c-.334 0-.667.01-1 .013v-242.013c0-24.813-20.187-45-45-45h-213c-24.813 0-45 20.187-45 45v256.894c0 4.143 3.358 7.5 7.5 7.5s7.5-3.357 7.5-7.5v-256.894c0-16.542 13.458-30 30-30h213c16.542 0 30 13.458 30 30v243.163c-25.292 3.662-48.905 15.896-66.468 34.816-2.817 3.036-2.642 7.781.395 10.6 3.036 2.816 7.782 2.64 10.6-.395 18.396-19.818 44.448-31.184 71.473-31.184 53.762 0 97.5 43.738 97.5 97.5s-43.738 97.5-97.5 97.5c-54.533.213-97.349-45.014-97.5-97.5 0-13.657 2.767-26.865 8.223-39.256 1.67-3.791-.05-8.217-3.841-9.887-3.791-1.667-8.217.051-9.887 3.842-5.43 12.33-8.547 25.355-9.306 38.801h-86.896c-4.142 0-7.5 3.357-7.5 7.5s3.358 7.5 7.5 7.5h87.027c.383 5.102 1.113 10.108 2.157 15h-14.971c-4.142 0-7.5 3.357-7.5 7.5s3.358 7.5 7.5 7.5h19.282c3.829 10.48 9.175 20.235 15.769 29h-169.057c-16.542 0-30-13.458-30-30v-99.787c0-4.143-3.358-7.5-7.5-7.5s-7.5 3.357-7.5 7.5v99.787c0 24.813 20.187 45 45 45h182.602c20.078 18.606 46.93 30 76.398 30 62.033 0 112.5-50.467 112.5-112.5s-50.467-112.5-112.5-112.5z"/><path d="m351.25 321.25c-4.143 0-7.5 3.357-7.5 7.5v12.5h-1.298c-20.678 0-37.5 16.822-37.5 37.5.197 6.938-2.488 16.326-7.746 22.801-5.127 6.117-10.999 12.816-11.023 22.128-.27 12.657 10.647 24.058 23.798 24.071h16.27v7.5c0 12.406 10.094 22.5 22.5 22.5h5c12.406 0 22.5-10.094 22.5-22.5v-7.5h17.27c13.122 0 23.798-10.676 23.798-23.798.664-7.411-6.009-16.622-11.527-22.309-5.427-6.384-8.415-14.515-8.415-22.894 0-20.678-16.822-37.5-37.5-37.5h-1.125v-12.5c-.002-4.142-3.359-7.499-7.502-7.499zm10 134c0 4.136-3.364 7.5-7.5 7.5h-5c-4.136 0-7.5-3.364-7.5-7.5v-7.5h20zm-1.375-99c12.406 0 22.5 10.094 22.5 22.5 0 11.935 4.257 23.516 11.985 32.608 2.612 3.643 7.666 7.033 7.957 12.594 0 4.852-3.946 8.798-8.798 8.798h-83.539c-4.852 0-8.798-3.946-8.798-8.798-.929-3.166 5.818-10.604 7.736-13.03 6.695-8.159 11.254-20.837 11.033-32.172 0-12.406 10.094-22.5 22.5-22.5z"/><circle cx="237.25" cy="37.503" r="7.5"/></g></g></svg>