<svg id="Capa_1" enable-background="new 0 0 512.001 512.001" height="512" viewBox="0 0 512.001 512.001" width="512" xmlns="http://www.w3.org/2000/svg"><g><g><g><path d="m471.476 504.491c2.483 0 4.366-2.239 3.941-4.685l-8.716-50.15c-5.013-28.842-5.175-52.398-33.171-60.895l-17.99-3.251-18.424-2.172-281.105-1.22-34.835 9.394c-28.075 8.451-29.122 29.389-34.146 58.294l-9.193 48.165c-.425 2.446 1.458 4.685 3.941 4.685l11.872 1.834h107.79l93.498-3.106 95.602 3.106h120.936z" fill="#8e868e"/></g><path d="m415.541 385.51-6.45 7.28c-44.98 50.76-56.48 100.8-58.55 111.7h-16.221l-77.549-4.316-79.029 4.316h-16.301c-2.41-11.24-14.74-59.45-57.83-112.26l-5.61-6.87 18.01-3.24 281.11.06z" fill="#766d78"/><path d="m334.32 504.491s8.387-60.906 62.797-122.309l-84.418-44.209-112.806 1.687-81.578 42.826c3.436 4.211 4.382 8.026 7.456 12.164 44.13 59.406 51.971 109.842 51.971 109.842h36.799l40.398-3.106 42.832 3.106h36.549z" fill="#9e959e"/><g><path d="m314.985 394.333-3.059-75.413-4.253-23.483h-107.079l.73 33.875-2.818 26.888-1.311 38.133z" fill="#f2d1a5"/></g><g><path d="m125.771 394.65c-5.41 2.28-11.07 3.96-16.86 5l-26.43 4.75c-13.01 4.18-15.57 11.71-19.74 38.1-.51 3.22-1.04 6.56-1.64 10.02l-7.45 51.97h-13.07c-2.48 0-4.36-2.24-3.94-4.68l8.7-50.03c5.02-28.91 5.26-52.5 33.34-60.95l37.33-6.71 6.323 5.637z" fill="#766d78"/></g><path d="m199.141 337.72-.64 18.48-48.54 25.93-17.51 9.35c-2.18 1.16-4.41 2.22-6.68 3.17-3.07-4.14-6.32-8.32-9.76-12.53z" fill="#8e868e"/><path d="m376.592 157.543h6.734c16.117 0 29.182 13.075 29.182 29.203 0 22.246-18.021 40.28-40.252 40.28h-232.452c-22.23 0-40.252-18.034-40.252-40.28 0-16.128 13.065-29.203 29.182-29.203h6.668z" fill="#f2bb88"/><path d="m311.921 318.92-.95-23.48h-95.62-14.76s-.799 23.261-.798 23.261l-.652 19.019-.64 18.48 10.56-5.64c3.55-1.89 5.78-5.57 5.82-9.59l.03-3.22.046-4.395c.029-2.818 2.896-4.745 5.499-3.663 11.961 4.973 23.859 7.489 35.576 7.489 18.339-.001 37.119-6.131 55.889-18.261z" fill="#f2bb88"/><path d="m168.945 49.596c17.673-11.38 62.234-38.809 87.085-38.809 75.975 0 120.562 54.428 120.562 142.159 0 51.091-.992 72.469-21.833 101.348-28.745 39.833-64.554 66.886-98.729 66.886s-69.984-27.054-98.729-66.886c-20.841-28.879-21.833-50.258-21.833-101.349 0-43.299 10.861-79.287 30.995-104.633z" fill="#f2d1a5"/><path d="m311.391 408.32-13.62 96.17h-34.24l-7.5-3.655-7.5 3.655h-33.99l-12.7-99.51z" fill="#f8f7f7"/><path d="m223.336 246.299h65.789c2.175 0 3.752 1.795 3.144 3.596-.154.457-.341.948-.56 1.467-3.425 8.115-15.002 21.252-35.678 21.252-20.465 0-31.619-12.832-35.17-21.001-.266-.613-.489-1.189-.668-1.719-.609-1.8.968-3.595 3.143-3.595z" fill="#f8f7f7"/><path d="m291.981 250.68c-3.05 7.92-14.48 23.81-35.75 23.81s-32.7-15.89-35.75-23.81c8.01 5.8 19.81 10.81 35.75 10.81s27.74-5.01 35.75-10.81z" fill="#e8e8e8"/><g><g><path d="m265.286 407.191 42.275 15.85c6.776 2.659 14.102-2.341 14.102-9.624l1-7.017v-27.862c0-7.284-7.326-12.283-14.102-9.624l-23.462 9.202-15.524 7.575z" fill="#855b51"/></g><path d="m245.414 407.702-40.914 16.34c-6.776 2.659-14.102-2.341-14.102-9.624l-1-9.437v-26.442c0-7.284 7.326-12.283 14.102-9.624l23.478 9.181 17.222 7.735z" fill="#855b51"/><g fill="#724d44"><path d="m308.561 411.04-16.298-6.345c-1.3-.506-2.062-1.838-1.876-3.221.198-1.471.305-2.97.305-4.494 0-6.95-2.05-13.43-5.59-18.86l-15.22 5.97-2.109 11.071-.001-.001-2.48 13.03s19.77 7.699 19.771 7.699l23.499 9.151c6.78 2.66 14.1-2.34 14.1-9.62v-14c-.001 7.28-7.321 12.28-14.101 9.62z"/><path d="m226.981 378.09c-3.55 5.44-5.61 11.93-5.61 18.89 0 1.521.107 3.017.303 4.485.185 1.382-.576 2.713-1.875 3.22l-16.299 6.356c-6.78 2.66-14.1-2.34-14.1-9.62v14c0 7.28 7.32 12.28 14.1 9.62l41.91-16.34-1.21-23.87z"/></g><g><ellipse cx="256.031" cy="396.978" fill="#855b51" rx="20.661" ry="20.676"/></g></g><path d="m168.191 47.93c-2.569-1.518-5.592-2.611-8.676-3.191-6.53-1.227-11.746 2.136-17.53 5.601-47.636 28.532-15.419 104.587-15.419 104.587l8.903-.084c.656-1.381 1.897-.772 3.706-3.406 14.887-21.673 63.828-80.062 63.828-80.062l-13.46-9.904z" fill="#855b51"/><path d="m161.541 45.19c-2.29.61-4.5 1.52-6.54 2.74-39.66 23.76-22.63 84.01-15.82 103.51-1.82 2.63-3.049 4.723-3.709 6.103l-8.971.087s-34.13-81.17 13.5-109.7c6.39-3.83 14.5-4.59 21.54-2.74z" fill="#724d44"/><path d="m382.315 156.578-5.064-.661-28.184-40.404c-20.972-29.391-58.304-44.432-93.908-38.532-22.649 3.753-43.613-1.865-62.312-15.193l-22.789-15.193s.116-10.824 3.663-15.956c9.822-14.208 31.627-23.136 56.474-23.136h61.675c14.681 0 29.176 3.295 42.416 9.644 24.679 11.833 43.301 33.437 51.376 59.602 4.646 15.054 5.75 30.98 3.226 46.531l-3.229 19.898z" fill="#855b51"/><path d="m385.661 143.18-2.33 14.36h-6.74l-28.52-39.97c-20.97-29.39-56.83-44.28-92.43-38.38-4.72.78-9.47 1.17-14.2 1.17-17.93 0-35.56-5.57-50.36-16.12l-22.89-16.31c0-6.34 1.98-12.15 5.53-17.29l.47.29 22.89 16.31c14.8 10.55 32.43 16.12 50.36 16.12 4.73 0 9.48-.39 14.2-1.17 35.6-5.9 71.46 8.99 92.43 38.38z" fill="#724d44"/></g><g><path d="m43.986 457.563c-4.078-.711-7.965 2.023-8.674 6.105l-6.871 39.539c-.709 4.081 2.024 7.964 6.105 8.674 3.176.561 7.383-1.375 8.674-6.105l6.871-39.539c.709-4.082-2.024-7.965-6.105-8.674z"/><path d="m483.62 503.207c-2.512-14.736-9.147-51.959-11.128-64.641-3.896-24.745-7.576-48.117-36.784-56.981-1.797-.482-35.275-6.369-36.528-6.652l-79.169-41.734-1.205-29.713c14.589-11.424 28.828-26.505 42.035-44.805 6.081-8.427 10.574-16.216 13.9-24.221 25.181-1.297 45.268-22.203 45.268-47.716 0-17.258-11.969-31.764-28.036-35.665l4.317-26.599c2.694-16.603 1.497-33.873-3.463-49.945-8.664-28.074-28.819-51.458-55.3-64.154-14.164-6.791-29.952-10.381-45.658-10.381h-61.675c-34.461 0-61.541 15.588-68.016 37.622-8.779-1.998-18.365-.719-26.027 3.869-22.172 13.28-31.931 38.45-28.22 72.789 1.675 15.5 5.701 29.436 8.554 37.872-14.221 5.057-24.434 18.651-24.434 34.592 0 25.512 20.086 46.417 45.266 47.716 3.321 7.997 7.806 15.774 13.875 24.184l.184.254c1.468 2.019 3.754 3.09 6.071 3.09 1.53 0 3.074-.467 4.405-1.436 3.35-2.437 4.091-7.127 1.654-10.477l-.123-.171c-18.458-25.576-20.292-44.325-20.407-90.611 6.555-11.008 39.562-51.695 62.093-78.707 16.206 6.812 34.033 8.945 51.794 6.002 11.076-1.836 22.245-1.527 33.188.917 4.033.9 8.05-1.642 8.954-5.685.903-4.042-1.642-8.051-5.685-8.954-12.832-2.866-25.923-3.229-38.91-1.077-20.829 3.454-41.779-1.397-58.98-13.657l-19.428-13.847c2.911-16.689 25.668-29.285 54.193-29.285h61.675c13.474 0 27.021 3.08 39.174 8.906 22.721 10.895 40.017 30.96 47.451 55.053 4.282 13.875 5.316 28.785 2.989 43.118l-3.888 23.957-23.419-32.821c-7.182-10.064-16.021-18.65-26.272-25.518-3.441-2.307-8.101-1.386-10.405 2.056-2.306 3.441-1.385 8.101 2.056 10.405 8.744 5.858 16.284 13.183 22.411 21.77l27.116 38.003c-.13 45.823-2.024 64.505-20.405 89.975-29.248 40.53-63.017 63.776-92.646 63.776-22.41 0-46.876-12.971-70.75-37.51-2.889-2.968-7.636-3.033-10.606-.146-2.969 2.889-3.033 7.638-.146 10.606 6.037 6.205 12.146 11.743 18.293 16.61l-1.029 29.936-79.284 41.951c-1.112.251-34.725 6.145-35.993 6.52-26.321 7.924-31.921 27.819-35.401 47.518-.721 4.079 2.002 7.97 6.081 8.69 3.175.57 7.39-1.353 8.69-6.081 3.543-20.057 8.142-30.558 24.557-35.643l32.357-5.816c48.145 60.684 57.448 114.823 57.537 115.364.593 3.687 3.777 6.312 7.396 6.312 3.671.053 7.91-3.528 7.414-8.69-.379-2.355-9.528-56.46-57.969-118.966l64.021-33.875-.435 12.661c-.365.213-.726.435-1.078.675-4.877 3.325-7.788 8.836-7.788 14.74v36.88c0 5.904 2.912 11.414 7.789 14.739 2.379 1.622 5.072 2.608 7.843 2.953l9.746 72.392c.507 3.766 3.726 6.5 7.423 6.5 3.605.046 7.792-3.406 7.442-8.502l-9.938-73.817 26.601-10.439c2.857 2.218 6.149 3.897 9.726 4.887v80.361c0 4.143 3.357 7.5 7.5 7.5s7.5-3.357 7.5-7.5v-80.36c3.577-.99 6.869-2.669 9.726-4.887l27.157 10.657-9.908 73.599c-.553 4.105 2.327 7.881 6.432 8.434 3.177.438 7.301-1.661 8.434-6.432l9.756-72.471c2.56-.407 5.039-1.368 7.247-2.874 4.877-3.325 7.789-8.835 7.789-14.739v-36.88c0-5.904-2.911-11.415-7.788-14.74-.376-.256-.761-.491-1.152-.716l-.509-12.555 63.851 33.659c-10.245 12.345-19.433 25.471-27.379 39.126-2.083 3.58-.87 8.172 2.71 10.255 1.188.69 2.484 1.019 3.766 1.019 2.583 0 5.097-1.335 6.489-3.729 8.308-14.277 18.067-27.936 29.013-40.682l32.589 5.889c18.95 5.926 21.932 19.501 25.921 44.837.828 5.901 9.993 57.953 11.166 64.876.634 3.646 3.802 6.217 7.381 6.217 3.7.056 7.972-3.591 7.398-8.786zm-376.568-316.463c0-11.356 8.76-20.697 19.87-21.623l1.082-.01c.153 22.607.947 39.141 4.271 53.529-14.441-3.414-25.223-16.414-25.223-31.896zm79.674-116.396c1.549 1.104 3.127 2.152 4.726 3.154-14.359 17.259-48.989 59.264-59.985 76.017-6.142-17.483-22.668-74.159 12.393-95.158 5.881-3.521 14.473-3.523 20.428-.005.002.001.005.002.007.004zm218.283 116.396c0 15.482-10.782 28.482-25.222 31.896 3.329-14.402 4.119-30.948 4.271-53.582 11.618.389 20.951 9.964 20.951 21.686zm-91.084 189.446c.477.292 1.238 1.04 1.238 2.347v36.88c0 1.307-.776 2.031-1.239 2.347-.443.301-1.35.729-2.496.335-.531-.176-28.41-11.15-28.98-11.363 1.126-3.042 1.744-6.33 1.744-9.76 0-3.429-.617-6.717-1.744-9.76l28.852-11.323c.827-.289 2.09-.03 2.625.297zm-57.894 33.962c-7.257 0-13.161-5.91-13.161-13.176s5.904-13.176 13.161-13.176 13.161 5.91 13.161 13.176-5.905 13.176-13.161 13.176zm-55.27 7.908c-1.209.475-2.164.017-2.624-.296-.463-.315-1.239-1.04-1.239-2.347v-36.88c0-1.307.776-2.031 1.238-2.347.462-.313 1.415-.77 2.625-.296l28.852 11.322c-1.126 3.042-1.744 6.33-1.744 9.76s.617 6.717 1.744 9.76zm55.27-89.38c15.604 0 31.964-5.234 48.174-15.064l1.955 48.195c-.433.135-32.606 12.795-32.902 12.9-4.766-3.699-10.741-5.91-17.226-5.91s-12.461 2.21-17.226 5.91c-.538-.196-32.292-12.7-32.986-12.93l1.658-48.256c16.331 9.991 32.731 15.155 48.553 15.155z"/><path d="m309.317 170.632v-15.105c0-4.143-3.357-7.5-7.5-7.5s-7.5 3.357-7.5 7.5v15.105c0 4.143 3.357 7.5 7.5 7.5s7.5-3.358 7.5-7.5z"/><path d="m217.744 170.632v-15.105c0-4.143-3.357-7.5-7.5-7.5s-7.5 3.357-7.5 7.5v15.105c0 4.143 3.357 7.5 7.5 7.5s7.5-3.358 7.5-7.5z"/><path d="m321.433 137.85c2.629 0 5.18-1.385 6.554-3.842 2.021-3.616.728-8.186-2.888-10.206-13.926-7.783-32.64-7.783-46.563 0-3.616 2.021-4.908 6.591-2.888 10.206 2.021 3.616 6.592 4.91 10.206 2.888 9.398-5.254 22.528-5.254 31.927 0 1.158.647 2.414.954 3.652.954z"/><path d="m233.526 123.802c-13.924-7.784-32.638-7.783-46.563 0-3.615 2.021-4.908 6.59-2.888 10.206 1.374 2.458 3.925 3.842 6.554 3.842 1.238 0 2.494-.307 3.652-.954 9.399-5.252 22.527-5.254 31.927 0 3.617 2.021 8.185.728 10.206-2.888 2.02-3.615.728-8.185-2.888-10.206z"/><path d="m267.208 199.196c-6.683 3.41-14.665 3.408-21.35 0-3.69-1.882-8.207-.416-10.089 3.274s-.415 8.207 3.274 10.089c5.476 2.792 11.482 4.188 17.489 4.188s12.014-1.396 17.489-4.188c3.69-1.882 5.156-6.399 3.274-10.089-1.881-3.69-6.399-5.153-10.087-3.274z"/><path d="m350.838 451.754c-3.823-1.596-8.215.214-9.808 4.038-11.555 27.731-14.053 46.964-14.153 47.769-.514 4.11 2.401 7.858 6.512 8.373 3.172.405 7.281-1.732 8.373-6.512.021-.177 2.337-17.993 13.114-43.86 1.594-3.824-.215-8.215-4.038-9.808z"/><path d="m432.637 470.563h-57.43c-4.143 0-7.5 3.357-7.5 7.5s3.357 7.5 7.5 7.5h57.43c4.143 0 7.5-3.357 7.5-7.5s-3.357-7.5-7.5-7.5z"/><path d="m256.231 281.991c24.293 0 39.11-17.761 43.144-29.698 1.04-3.078.541-6.369-1.367-9.029-2.008-2.797-5.328-4.467-8.882-4.467h-65.789c-3.555 0-6.876 1.671-8.884 4.47-1.908 2.66-2.405 5.952-1.365 9.026 4.032 11.937 18.85 29.698 43.143 29.698zm25.477-28.194c-4.351 6.009-12.611 13.194-25.478 13.194-12.865 0-21.126-7.185-25.477-13.194z"/></g></g></svg>