<svg id="Capa_1" enable-background="new 0 0 512 512" height="512" viewBox="0 0 512 512" width="512" xmlns="http://www.w3.org/2000/svg"><g><g><path d="m411.558 469.983c0 20.711-16.789 37.5-37.5 37.5h-233c-20.711 0-37.5-16.789-37.5-37.5v-422c0-20.711 16.789-37.5 37.5-37.5h233c20.711 0 37.5 16.789 37.5 37.5z" fill="#f8f7f7"/><path d="m405.93 484c-6.2 12.17-18.84 20.5-33.43 20.5h-233c-20.71 0-37.5-16.79-37.5-37.5v-422c0-14.61 8.35-27.26 20.54-33.45v447.45c0 13.81 11.19 25 25 25z" fill="#e8e8e8"/><path d="m170.255 113.128c0-8.281-5.263-15.334-12.626-17.994-2.03-.733-4.219-.647-6.501-.647-10.564 0-18.513 8.078-18.513 18.642s7.711 18.404 18.275 18.404c2.282 0 4.708.324 6.737-.409 7.365-2.662 12.628-9.714 12.628-17.996z" fill="#ffd163"/><path d="m157.63 131.13c-2.03.73-4.22 1.13-6.5 1.13-10.57 0-19.13-8.57-19.13-19.13 0-10.57 8.56-19.13 19.13-19.13 2.28 0 4.47.4 6.5 1.13-7.37 2.66-12.63 9.71-12.63 18 0 8.28 5.26 15.34 12.63 18z" fill="#ffb65f"/><path d="m155.349 472.651c-12.426 0-21.541-8.225-21.541-20.651 0-9.32 3.859-17.316 11.935-20.732 2.692-1.139 5.651-1.768 8.758-1.768h134.83c12.426 0 22.5 10.074 22.5 22.5 0 3.793-.939 7.367-2.596 10.502-3.773 7.136-12.481 10.81-21.114 10.81z" fill="#bae6ef"/><path d="m309.23 462.5c-1.05 2-2.4 3.82-3.99 5.41-4.07 4.07-9.7 6.59-15.91 6.59h-134.83c-12.43 0-22.5-10.07-22.5-22.5 0-6.22 2.52-11.84 6.59-15.91 2.04-2.04 4.47-3.69 7.17-4.83-1.13 2.68-1.76 5.64-1.76 8.74 0 12.43 10.07 22.5 22.5 22.5z" fill="#94d8e6"/><path d="m379.665 436.262-5.477 29.384c-.71 3.807-5.274 5.418-8.216 2.9l-22.709-19.435c-2.942-2.518-2.055-7.276 1.596-8.565l28.186-9.949c3.652-1.289 7.329 1.858 6.62 5.665z" fill="#bae6ef"/><path d="m228.958 276.468-76.343-.468c-11.046 0-20-8.954-20-20l.936-63.715c0-8.954 4.334-19.642 12.447-22.192 1.895-.595 3.911-.916 6.002-.916h79c11.046 0 20 8.954 20 20v69c0 2.092-.321 4.109-.917 6.004-2.55 8.112-12.172 12.287-21.125 12.287z" fill="#d6ccf2"/><path d="m250.08 264.18c-2.54 8.11-10.12 14-19.08 14h-79c-11.05 0-20-8.96-20-20v-69c0-8.96 5.88-16.54 14-19.08v87.08c0 3.86 3.13 7 7 7z" fill="#c8b8f4"/><path d="m357.257 384.578-203.45-.22c-11.046 0-20-8.954-20-20l.844-35.266c0-8.955 3.233-19.169 11.347-21.718 1.895-.595 3.911-.916 6.002-.916h208c11.046 0 20 8.954 20 20v40.042c0 2.091-.321 4.107-.916 6.001-2.549 8.114-12.872 12.077-21.827 12.077z" fill="#ccf49f"/><path d="m379.08 372.5c-2.54 8.12-10.12 14-19.08 14h-208c-11.05 0-20-8.95-20-20v-40.04c0-8.96 5.88-16.54 14-19.08v57.12c0 4.42 3.58 8 8 8z" fill="#b3e59f"/><path d="m189.999 203.749c.848.799 2.179.776 3.031-.019 3.037-2.831 7.149-4.566 11.646-4.553 9.224.027 16.751 7.601 16.62 16.704-.234 16.266-23.638 29.355-28.797 32.044-.628.327-1.375.335-2.01.022-5.248-2.589-29.12-15.298-28.782-32.066.18-8.917 7.687-16.64 16.723-16.704 4.498-.032 8.561 1.736 11.569 4.572z" fill="#df646e"/></g><g><path d="m410 395.521c-4.143 0-7.5 3.357-7.5 7.5v63.979c0 16.542-13.458 30-30 30h-233c-16.542 0-30-13.458-30-30v-359.489c0-4.143-3.357-7.5-7.5-7.5s-7.5 3.357-7.5 7.5v359.489c0 24.813 20.187 45 45 45h233c24.813 0 45-20.187 45-45v-63.979c0-4.142-3.357-7.5-7.5-7.5z"/><path d="m372.5 0h-36.394c-4.143 0-7.5 3.357-7.5 7.5s3.357 7.5 7.5 7.5h36.394c16.542 0 30 13.458 30 30v322.979c0 4.143 3.357 7.5 7.5 7.5s7.5-3.357 7.5-7.5v-322.979c0-24.813-20.187-45-45-45z"/><path d="m102 80.032c4.143 0 7.5-3.357 7.5-7.5v-27.532c0-16.542 13.458-30 30-30h161.5c4.143 0 7.5-3.357 7.5-7.5s-3.357-7.5-7.5-7.5h-161.5c-24.813 0-45 20.187-45 45v27.532c0 4.143 3.357 7.5 7.5 7.5z"/><path d="m269 30h-50c-4.143 0-7.5 3.357-7.5 7.5s3.357 7.5 7.5 7.5h50c4.143 0 7.5-3.357 7.5-7.5s-3.357-7.5-7.5-7.5z"/><circle cx="294" cy="37.5" r="7.5"/><path d="m184.757 75c4.143 0 7.5-3.357 7.5-7.5s-3.357-7.5-7.5-7.5h-52.757c-4.143 0-7.5 3.357-7.5 7.5s3.357 7.5 7.5 7.5z"/><path d="m226.13 60c-4.143 0-7.5 3.357-7.5 7.5s3.357 7.5 7.5 7.5h56.19c4.143 0 7.5-3.357 7.5-7.5s-3.357-7.5-7.5-7.5z"/><path d="m323.692 75h56.308c4.143 0 7.5-3.357 7.5-7.5s-3.357-7.5-7.5-7.5h-56.308c-4.143 0-7.5 3.357-7.5 7.5s3.358 7.5 7.5 7.5z"/><path d="m151.128 139.755c14.683 0 26.627-11.944 26.627-26.627s-11.944-26.628-26.627-26.628-26.628 11.945-26.628 26.628 11.945 26.627 26.628 26.627zm0-38.255c6.411 0 11.627 5.216 11.627 11.628 0 6.411-5.216 11.627-11.627 11.627-6.412 0-11.628-5.216-11.628-11.627 0-6.412 5.216-11.628 11.628-11.628z"/><path d="m192.755 113.128c0 4.143 3.357 7.5 7.5 7.5h50.745c4.143 0 7.5-3.357 7.5-7.5s-3.357-7.5-7.5-7.5h-50.745c-4.143 0-7.5 3.357-7.5 7.5z"/><path d="m273.5 113.128c0 4.143 3.357 7.5 7.5 7.5h30c4.143 0 7.5-3.357 7.5-7.5s-3.357-7.5-7.5-7.5h-30c-4.143 0-7.5 3.357-7.5 7.5z"/><path d="m154.5 422c-16.542 0-30 13.458-30 30s13.458 30 30 30h134.83c16.542 0 30-13.458 30-30s-13.458-30-30-30zm149.83 30c0 8.271-6.729 15-15 15h-134.83c-8.271 0-15-6.729-15-15s6.729-15 15-15h134.83c8.272 0 15 6.729 15 15z"/><path d="m370.549 423.524-28.187 9.949c-4.271 1.508-7.316 5.066-8.146 9.521-.83 4.453.729 8.87 4.17 11.815l22.71 19.436c3.403 2.291 6.559 4.031 12.319 2.295 4.271-1.508 7.316-5.067 8.146-9.52l5.478-29.385s0 0 0-.001c.829-4.453-.729-8.87-4.172-11.815-3.441-2.944-8.047-3.804-12.318-2.295zm-2.95 36.543-16.21-13.873 20.119-7.102z"/><path d="m124.5 258.177c0 15.163 12.337 27.5 27.5 27.5h79c15.163 0 27.5-12.337 27.5-27.5v-69c0-15.163-12.337-27.5-27.5-27.5h-79c-15.163 0-27.5 12.337-27.5 27.5zm15-69c0-6.893 5.607-12.5 12.5-12.5h79c6.893 0 12.5 5.607 12.5 12.5v69c0 6.893-5.607 12.5-12.5 12.5h-79c-6.893 0-12.5-5.607-12.5-12.5z"/><path d="m387.5 326.457c0-15.163-12.337-27.5-27.5-27.5h-120.213c-4.143 0-7.5 3.357-7.5 7.5s3.357 7.5 7.5 7.5h120.213c6.893 0 12.5 5.607 12.5 12.5v40.043c0 6.893-5.607 12.5-12.5 12.5h-208c-6.893 0-12.5-5.607-12.5-12.5v-40.043c0-6.893 5.607-12.5 12.5-12.5h53.128c4.143 0 7.5-3.357 7.5-7.5s-3.357-7.5-7.5-7.5h-53.128c-15.163 0-27.5 12.337-27.5 27.5v40.043c0 15.163 12.337 27.5 27.5 27.5h208c15.163 0 27.5-12.337 27.5-27.5z"/><path d="m355.5 186.177c4.143 0 7.5-3.357 7.5-7.5s-3.357-7.5-7.5-7.5h-50c-4.143 0-7.5 3.357-7.5 7.5s3.357 7.5 7.5 7.5z"/><path d="m380 201.177h-99c-4.143 0-7.5 3.357-7.5 7.5s3.357 7.5 7.5 7.5h99c4.143 0 7.5-3.357 7.5-7.5s-3.357-7.5-7.5-7.5z"/><path d="m380 231.177h-30.361c-4.143 0-7.5 3.357-7.5 7.5s3.357 7.5 7.5 7.5h30.361c4.143 0 7.5-3.357 7.5-7.5s-3.357-7.5-7.5-7.5z"/><path d="m319.639 231.177h-38.639c-4.143 0-7.5 3.357-7.5 7.5s3.357 7.5 7.5 7.5h38.639c4.143 0 7.5-3.357 7.5-7.5s-3.358-7.5-7.5-7.5z"/><path d="m273.5 268.677c0 4.143 3.357 7.5 7.5 7.5h84.468c4.143 0 7.5-3.357 7.5-7.5s-3.357-7.5-7.5-7.5h-84.468c-4.143 0-7.5 3.357-7.5 7.5z"/><path d="m187.172 254.674c1.635.413 3.416 2.042 8.794-.098 7.629-3.977 32.541-18.512 32.829-38.588.092-6.385-2.352-12.439-6.881-17.048-4.585-4.665-10.698-7.244-17.217-7.264-.024 0-.047 0-.071 0-4.694 0-9.219 1.322-13.108 3.786-3.907-2.495-8.463-3.813-13.143-3.786-13.061.094-23.902 10.884-24.167 24.053-.42 20.835 25.123 35.076 32.964 38.945zm-8.692-47.997h.063c2.339 0 4.578.896 6.311 2.53h.001c3.707 3.494 9.544 3.498 13.288.01 1.758-1.639 4.059-2.54 6.482-2.54 3.672.061 8.932 2.989 9.171 9.097-.132 9.189-13.185 18.979-22.388 24.206-9.295-5.032-22.394-14.588-22.205-23.947.102-4.95 4.437-9.322 9.277-9.356z"/><path d="m335.979 353.979c4.143 0 7.5-3.357 7.5-7.5s-3.357-7.5-7.5-7.5h-89.489c-4.143 0-7.5 3.357-7.5 7.5s3.357 7.5 7.5 7.5z"/><path d="m176.021 338.979c-4.143 0-7.5 3.357-7.5 7.5s3.357 7.5 7.5 7.5h40.468c4.143 0 7.5-3.357 7.5-7.5s-3.357-7.5-7.5-7.5z"/></g></g></svg>