<svg id="Capa_1" enable-background="new 0 0 512 512" height="512" viewBox="0 0 512 512" width="512" xmlns="http://www.w3.org/2000/svg"><g><g><path d="m265.505 203.596h31.258v52.809h-31.258z" fill="#e8e8e8"/><path d="m261.765 203.596h15v52.809h-15z" fill="#d8d8d8"/><path d="m339.836 495.294-58.344-215.583 26.415-7.265 1.709 16.095 4.704 6.848 54.897 196.419c1.782 6.375-3.011 12.692-9.631 12.692h-3.18l-6.929-1.864c-4.5 0-8.446-3.005-9.641-7.342z" fill="#e8e8e8"/><path d="m309.265 299.757c0-1.894 1.331-3.522 3.185-3.909.63-.131 1.252-.284 1.865-.459l-6.41-22.94-28.32 7.78-.001.005-.599.165 3.198 11.595 27.082 98.255v-.009l29.47 106.919c1.2 4.34 5.14 7.34 9.64 7.34h8.03l-37.615-135.05c-6.32-22.691-9.525-46.137-9.525-69.692z" fill="#d8d8d8"/><path d="m315.285 208.5h-72.043c-13.807 0-25-11.193-25-25v-14l62.892-2.17 59.15 2.17v14c.001 13.807-11.192 25-24.999 25z" fill="#f8f7f7"/><path d="m333.275 169.5c-12.85 15.56-32.28 25.5-53.99 25.5s-41.15-9.94-54-25.5l53.978-3.821z" fill="#e8e8e8"/><path d="m210.147 504.5h-11.207c-6.62 0-8.684-8.556-6.903-14.931l61.431-219.303 27.118 6.348-23.816 75.56-6.5 34.406-30.484 110.577c-1.194 4.338-5.14 7.343-9.639 7.343z" fill="#e8e8e8"/><path d="m251.665 268.66-62.36 223.15c-1.78 6.37 3.02 12.69 9.64 12.69h1.75l44.644-159.597c.627-2.24 3.926-1.787 3.926.539v44.778l30-108.81.32-1.18 1-3.62z" fill="#d8d8d8"/><path d="m284.263 504.5h-4.998l-4.002-1c-5.523 0-10-4.477-10-10v-212h29l-1.657 9.628 1.657 5.372v198c0 5.523-4.477 10-10 10z" fill="#f8f7f7"/><path d="m200.953 244.023-33.099 33.099c-5.858 5.858-15.355 5.858-21.213 0-.205-.205-.402-.413-.592-.627-5.259-5.89-1.94-16.154 3.713-21.808l28.569-28.569c5.653-5.653 16.106-9.16 21.996-3.901.213.19.422.387.626.592 5.858 5.859 5.858 15.356 0 21.214z" fill="#9e959e"/><path d="m200.325 222.22-54.27 54.27c-2.54-2.84-3.81-6.41-3.81-9.97 0-3.84 1.47-7.68 4.4-10.61l33.09-33.1c5.65-5.65 14.7-5.85 20.59-.59z" fill="#8e868e"/><path d="m294.265 281.5-15-3.032-15 3.032v213c0 5.523 4.477 10 10 10h5v-205c0-1.657 1.343-3 3-3h12z" fill="#e8e8e8"/><path d="m305.487 280.284-52.349-.33c-8.284 0-14.202-5.17-14.202-13.454 0-7.249 3.468-13.297 10.304-14.695.976-.2 1.988-.305 3.023-.305h54c8.284 0 15 6.716 15 15 0 .678-.045 1.346-.132 2.001-.978 7.338-8.038 11.783-15.644 11.783z" fill="#f8f7f7"/><path d="m321.125 268.5c-.44 3.34-1.99 6.33-4.26 8.6-2.71 2.72-6.46 4.4-10.6 4.4h-54c-8.29 0-15-6.72-15-15 0-4.14 1.68-7.89 4.39-10.6 2.06-2.07 4.73-3.53 7.71-4.12-.07.56-.1 1.14-.1 1.72 0 8.28 6.71 15 15 15z" fill="#e8e8e8"/><path d="m306.744 80.254-8.358-18.722.772-3.653-6.328-18.661h-27.095l-6.332 18.661.451 3.323-8.043 19.052z" fill="#9e959e"/><path d="m345.285 168.404-162.495-.165c-8.284 0-15-6.716-15-15l.908-55.156c0-7.605 3.489-16.471 10.826-17.45.655-.087 1.323-.132 2.002-.132h43.759l55.849 3.05 52.141-3.05h13.507c8.284 0 15 6.716 15 15v59c0 .678-.045 1.346-.132 2.001-.978 7.337-8.759 11.902-16.365 11.902z" fill="#9e959e"/><path d="m361.645 156.5c-.97 7.34-7.26 13-14.86 13h-13.51l-57.348-1.674-50.642 1.674h-43.76c-8.28 0-15-6.72-15-15v-59c0-7.6 5.66-13.89 13-14.86v69.86c0 3.31 2.69 6 6 6h31.25l60.803 3.399 64.207-3.399z" fill="#8e868e"/><path d="m333.275 80.5h-107.99c-9.99 12.1-16 27.61-16 44.5s6.01 32.4 16 44.5h107.99c10-12.1 16.01-27.61 16.01-44.5s-6.01-32.4-16.01-44.5zm-53.99 79.5c-19.3 0-35-15.7-35-35s15.7-35 35-35 35 15.7 35 35-15.7 35-35 35z" fill="#8e868e"/><path d="m341.785 156.5c-2.35 4.66-5.21 9.01-8.51 13h-107.99c-3.3-3.99-6.16-8.34-8.51-13h47.25c4.61 2.24 9.79 3.5 15.26 3.5s10.65-1.26 15.26-3.5z" fill="#766d78"/><circle cx="279.285" cy="125" fill="#8e868e" r="35"/><circle cx="279.282" cy="125" fill="#f8f7f7" r="52.5"/><path d="m286.785 176.96c-2.45.36-4.95.54-7.5.54-29 0-52.5-23.51-52.5-52.5s23.5-52.5 52.5-52.5c2.55 0 5.05.18 7.5.54-25.44 3.63-45 25.51-45 51.96s19.56 48.33 45 51.96z" fill="#e8e8e8"/><circle cx="279.282" cy="125" fill="#94d8e6" r="22.5"/><path d="m306.745 80.25h-54.93l7.59-22.37c6.3-1.88 12.98-2.88 19.88-2.88s13.57 1 19.87 2.88z" fill="#8e868e"/><path d="m304.282 7.5h-46.997l-2.003 1c-5.523 0-10 4.477-10 10v13c0 5.523 4.477 10 10 10h48c5.523 0 10-4.477 10-10l1-2v-12c0-5.523-4.477-10-10-10z" fill="#f8f7f7"/><path d="m314.285 29.5v3c0 5.523-4.477 10-10 10h-50c-5.53 0-10-4.48-10-10v-15c0-5.52 4.47-10 10-10h3v18c0 2.209 1.791 4 4 4z" fill="#e8e8e8"/></g><g><path d="m279.282 95c-16.542 0-30 13.458-30 30s13.458 30 30 30 30-13.458 30-30-13.458-30-30-30zm0 45c-8.271 0-15-6.729-15-15s6.729-15 15-15 15 6.729 15 15-6.729 15-15 15z"/><path d="m204.027 139.303v-29c0-4.143-3.358-7.5-7.5-7.5s-7.5 3.357-7.5 7.5v29c0 4.143 3.358 7.5 7.5 7.5s7.5-3.358 7.5-7.5z"/><path d="m376.439 489.79-57.262-204.882c5.791-4.075 9.586-10.805 9.586-18.408 0-12.406-10.093-22.5-22.5-22.5h-2v-28h11.021c17.92 0 32.5-14.579 32.5-32.5v-6.525c11.943-.527 21.497-10.405 21.497-22.475v-59c0-12.406-10.093-22.5-22.5-22.5h-34.578l-7.801-23.006c9.593-.066 17.378-7.885 17.378-17.494v-15c0-9.649-7.851-17.5-17.5-17.5h-50c-9.649 0-17.5 7.851-17.5 17.5v15c0 9.608 7.784 17.426 17.376 17.494l-7.804 23.006h-64.825c-12.407 0-22.5 10.094-22.5 22.5v10.989c0 4.143 3.358 7.5 7.5 7.5s7.5-3.357 7.5-7.5v-10.989c0-4.136 3.364-7.5 7.5-7.5h50.574c-8.018 10.202-12.819 23.047-12.819 37s4.801 26.798 12.819 37h-50.574c-4.136 0-7.5-3.364-7.5-7.5v-12.947c0-4.143-3.358-7.5-7.5-7.5s-7.5 3.357-7.5 7.5v12.947c0 12.406 10.093 22.5 22.5 22.5h29.215v6.5c0 5.206 1.237 10.126 3.422 14.492l-14.823 14.822c-8.233-3.582-18.181-2.031-24.905 4.691l-33.099 33.1c-7.959 7.691-9.177 22.872 0 31.819 7.691 7.96 22.873 9.177 31.82.001l33.099-33.099v-.001c7.098-7.098 8.447-17.797 4.058-26.271l13.51-13.509c5.421 4.052 12.144 6.454 19.418 6.454h11.021v28h-2c-12.407 0-22.5 10.094-22.5 22.5 0 7.598 3.789 14.323 9.573 18.399l-16.552 59.236c-1.115 3.989 1.215 8.127 5.205 9.242.675.188 1.354.278 2.022.278 3.28 0 6.293-2.17 7.219-5.483l16.535-59.171h2.998v45.857c-.023.076-.053.148-.074.224l-44.132 160.083c-.298 1.081-1.289 1.836-2.41 1.836h-11.207c-1.08 0-1.711-.619-1.992-.988-.28-.369-.707-1.145-.416-2.185l31.241-111.809c1.115-3.989-1.215-8.127-5.205-9.242-3.989-1.111-8.127 1.218-9.242 5.205l-31.24 111.809c-1.486 5.318-.424 10.891 2.914 15.289s8.419 6.921 13.94 6.921h11.207c7.848 0 14.785-5.284 16.871-12.85l29.745-107.897v103.247c0 9.649 7.851 17.5 17.5 17.5h10c9.649 0 17.5-7.851 17.5-17.5v-103.243l11.544 41.873c.917 3.326 3.936 5.509 7.226 5.509.66 0 1.331-.088 1.998-.271 3.993-1.102 6.338-5.23 5.237-9.224l-25.752-93.41c-.071-.259-.157-.51-.252-.754v-45.98h2.983l57.247 204.828c.291 1.039-.136 1.813-.416 2.183s-.912.989-1.992.989h-11.206c-1.121 0-2.112-.755-2.41-1.835l-8.866-32.158c-1.101-3.993-5.232-6.336-9.224-5.237-3.993 1.102-6.338 5.23-5.237 9.224l8.866 32.158c2.085 7.565 9.023 12.849 16.87 12.849h11.206c5.522 0 10.604-2.522 13.941-6.922 3.338-4.399 4.399-9.973 2.913-15.289zm-22.157-394.29v59c0 4.136-3.364 7.5-7.5 7.5h-20.268c4.015-5.117 7.246-10.935 9.461-17.313 1.359-3.913-.712-8.187-4.625-9.545-3.91-1.358-8.187.712-9.545 4.625-6.279 18.084-23.367 30.233-42.523 30.233-24.813 0-45-20.187-45-45s20.187-45 45-45c19.249 0 36.365 12.228 42.59 30.428 1.34 3.919 5.604 6.005 9.523 4.669 3.919-1.341 6.01-5.604 4.669-9.524-2.217-6.481-5.477-12.386-9.542-17.572h20.26c4.136-.001 7.5 3.363 7.5 7.499zm-65.715-45.5 5.736 16.916c-8.444-2.189-19.713-2.747-30.041-.011l5.735-16.905zm-36.785-17.5v-15c0-1.379 1.122-2.5 2.5-2.5h50c1.378 0 2.5 1.121 2.5 2.5v15c0 1.379-1.122 2.5-2.5 2.5h-50c-1.379 0-2.5-1.121-2.5-2.5zm-56.132 206.22-33.1 33.1c-2.234 2.132-6.829 3.399-10.606-.001-2.133-2.233-3.4-6.829 0-10.605l33.099-33.1c2.341-2.16 6.716-3.395 10.606-.001 2.925 2.924 2.925 7.683.001 10.607zm30.092-55.22v-6.5h23.665c8.804 5.078 19.002 8 29.875 8 10.748 0 21.003-2.879 29.906-8h23.597v6.5c0 9.649-7.851 17.5-17.5 17.5h-72.042c-9.65 0-17.501-7.851-17.501-17.5zm43.521 32.5h20v28h-20zm-17 43h54c4.136 0 7.5 3.364 7.5 7.5s-3.364 7.5-7.5 7.5h-54c-4.136 0-7.5-3.364-7.5-7.5s3.364-7.5 7.5-7.5zm34.5 235.5c0 1.379-1.122 2.5-2.5 2.5h-10c-1.378 0-2.5-1.121-2.5-2.5v-205.5h15z"/></g></g></svg>