<svg id="Capa_1" enable-background="new 0 0 512 512" height="512" viewBox="0 0 512 512" width="512" xmlns="http://www.w3.org/2000/svg"><g><g><path d="m178.459 454.099-17.405-7.172-40.501-16.225c-10.901 12.583-30.433 12.757-41.33.17l-41.414 17.843c-9.374 3.863-15.492 13-15.492 23.139v21.636c0 5.529 4.482 10.01 10.01 10.01l1.985 1h44.91l21.163-2.266 20.177 2.266h36.93l20.966-2.904v-47.497z" fill="#ccf49f"/><path d="m79.223 430.24 1.44 37.13-1.44 37.13-40.49-57.57 19.827-6.68z" fill="#b3e59f"/><path d="m82.103 443.11-40.34 16.63c-4.52 1.86-7.45 6.22-7.45 11.11v33.65h-2.99c-5.52 0-10.01-4.48-10.01-10.01v-23.64c0-10.13 6.12-19.27 15.5-23.13l1.92-.791 14.21-4.78 26.281-11.909v10.01l.01.01c.899 1.04 1.859 1.99 2.869 2.85z" fill="#b3e59f"/><path d="m79.223 430.24 1.89 5.696-1.89 8.364-32.82 13.53-7.67-10.9z" fill="#95d6a4"/><path d="m267.662 14.467 17.492 35.443c1.821 3.689 5.34 6.246 9.411 6.838l39.114 5.684c10.252 1.49 14.346 14.089 6.927 21.32l-28.303 27.589c-2.946 2.872-4.29 7.009-3.595 11.063l6.681 38.956c.403 2.348.159 4.572-.587 6.54-2.496 6.59-10.948 9.132-18.01 5.419l-34.522-18.447c-3.641-1.914-7.991-1.914-11.633 0l-34.08 18.638c-9.17 4.821-19.887-2.966-18.136-13.176l6.71-37.888c.695-4.055-.649-8.192-3.595-11.063l-27.873-27.617c-5.804-5.658-5.927-14.616-.201-18.953 1.592-1.206 3.531-2.056 5.762-2.38l39.114-5.684c4.071-.592 7.59-3.149 9.411-6.838l17.492-35.443c4.589-9.29 17.836-9.29 22.421-.001z" fill="#ffd163"/><path d="m314.803 167.9c-2.51 6.59-10.49 10.35-17.55 6.64l-34.98-18.4c-3.64-1.91-8-1.91-11.64 0l-34.98 18.4c-9.17 4.82-19.89-2.97-18.14-13.18l6.68-38.96c.7-4.05-.64-8.19-3.59-11.06l-28.3-27.59c-5.8-5.66-4.57-14.6 1.16-18.94l36.91 36.5c6.25 6.09 9.1 14.86 7.62 23.46l-5.134 29.969c-.42 2.451 2.153 4.319 4.353 3.162l26.911-14.151c3.79-1.99 8.05-3.04 12.33-3.04s8.54 1.05 12.33 3.04z" fill="#ffb65f"/><g><path d="m420.036 100.977 12.496 25.319c1.301 2.635 3.815 4.462 6.723 4.884l27.942 4.06c7.324 1.064 10.248 10.064 4.949 15.23l-20.219 19.708c-2.104 2.051-3.065 5.007-2.568 7.903l4.773 27.829c1.251 7.294-6.596 12.106-13.147 8.663l-25.328-13.489c-2.601-1.368-5.709-1.368-8.31 0l-23.619 13.179c-6.551 3.444-14.206-2.119-12.955-9.413l4.993-27.075c.497-2.896-.464-5.852-2.568-7.903l-19.234-19.085c-5.226-5.094-4.505-14.234 2.598-15.497.099-.018.2-.034.301-.049l27.942-4.06c2.908-.423 5.422-2.249 6.723-4.884l12.496-25.319c3.274-6.637 12.737-6.637 16.012-.001z" fill="#ffd163"/><path d="m441.173 215.32-24.99-13.13c-2.6-1.37-5.71-1.37-8.31 0l-24.99 13.13c-6.55 3.45-14.21-2.11-12.96-9.41l4.78-27.83c.49-2.89-.47-5.85-2.57-7.9l-20.22-19.71c-5.23-5.09-2.45-13.91 4.65-15.17l25.34 24.86c5.41 5.26 7.87 12.85 6.6 20.29l-2.354 13.705c-.281 1.634 1.434 2.88 2.902 2.109l12.312-6.473c3.28-1.72 6.96-2.63 10.67-2.63 3.7 0 7.39.91 10.67 2.63l31.44 16.2c1.18 7.259-6.44 12.769-12.97 9.329z" fill="#ffb65f"/></g><g><path d="m107.889 100.977 12.496 25.319c1.301 2.635 3.815 4.462 6.723 4.884l27.942 4.06c7.324 1.064 10.248 10.064 4.949 15.23l-20.219 19.708c-2.104 2.051-3.065 5.007-2.568 7.903l4.773 27.829c1.251 7.294-6.596 12.106-13.147 8.663l-25.328-13.489c-2.601-1.368-5.709-1.368-8.31 0l-23.62 13.18c-6.55 3.444-14.206-2.119-12.955-9.413l4.993-27.075c.497-2.896-.464-5.852-2.568-7.903l-19.234-19.085c-5.226-5.094-4.505-14.234 2.598-15.497.099-.018.2-.034.301-.049l27.942-4.06c2.908-.423 5.422-2.249 6.723-4.884l12.496-25.319c3.274-6.638 12.737-6.638 16.013-.002z" fill="#ffd163"/><path d="m129.025 215.32-24.99-13.13c-2.6-1.37-5.71-1.37-8.31 0l-24.99 13.13c-6.55 3.45-14.21-2.11-12.96-9.41l4.78-27.83c.49-2.89-.47-5.85-2.57-7.9l-20.22-19.71c-5.23-5.09-2.45-13.91 4.65-15.17l25.34 24.86c5.41 5.26 7.87 12.85 6.6 20.29l-2.354 13.705c-.281 1.634 1.434 2.88 2.902 2.109l12.312-6.473c3.28-1.72 6.96-2.63 10.67-2.63 3.7 0 7.39.91 10.67 2.63l31.44 16.2c1.18 7.259-6.44 12.769-12.97 9.329z" fill="#ffb65f"/></g><path d="m433.231 430.239v-6.429l-2.331-9.023 2.331-26.671h-39.828v42.123l-12.46 46.548h64.34z" fill="#e3a76f"/><path d="m475.646 447.716-42.415-17.477c.186 13.367-4.5 26.336-13.169 36.491-.168.196-.183.842-.354 1.037l-7.234 8.362-7-8.468c-.121-.139-.294-.857-.414-.998-5.692-6.673-9.667-14.561-11.669-22.979-1.01-4.246-1.968-7.227-1.941-11.655l.002-.389-42 17.617c-9.374 3.863-15.457 11.46-15.457 21.599v30.486l21.42 3.16h49.648l8.05-3.883 6.95 3.883h61.064c5.529 0 10.01-4.482 10.01-10.01v-23.636c.001-10.141-6.117-19.278-15.491-23.14z" fill="#d6ccf2"/><path d="m404.903 388.12h-13v35.7 6.419l-2.833 6.506 4.333 6.935 9.024-3.72c1.498-.617 2.476-2.078 2.476-3.698v-4.43c0-1.237 1.111-2.167 2.331-1.964 1.766.295 3.544.451 5.329.451 7.1 0 14.11-2.4 20.67-6.51v-35.69h-28.33z" fill="#d6995c"/><path d="m393.403 443.68-5.17 2.13-33.79 13.93c-4.53 1.86-7.45 6.22-7.45 11.11v33.65l-6.902-5.245-6.098 5.245v-33.65c0-10.13 6.12-19.27 15.49-23.13l42.42-17.48v.39c-.03 4.43.48 8.81 1.5 13.05z" fill="#c8b8f4"/><path d="m161.053 446.93-40.49 57.57h-.01l-1.27-34.436 1.27-29.8-1.27-3.902 1.27-6.122z" fill="#b3e59f"/><path d="m336.826 433.358-54.345-22.393-.008.009c-1.196 1.381-3.832 1.523-5.178 2.663-12.645 10.704-40.436-.681-40.436-.681l-6.431-1.319-51.967 21.978c-11.249 4.635-18.59 15.6-18.59 27.766l-.501 41.362 11.125 1.755h78.45l7.957-2.84 7.043 2.84h91.472v-43.375c-.001-12.165-7.342-23.129-18.591-27.765z" fill="#df646e"/><path d="m242.653 419.99-61.62 25.39c-6.4 2.64-10.54 8.82-10.54 15.74v43.38h-13v-43.38c0-12.16 7.34-23.13 18.59-27.76l54.34-22.39 6.434 1.987z" fill="#dc4955"/><g><path d="m277.933 415.35v29.37c0 7.83-6.23 14.22-13.99 14.49v45.29h-15v-45.79c0-7.82 6.23-14.22 13.99-14.48v-21.98l6.775-4.782z" fill="#dc4955"/></g><path d="m282.48 357.911h-52.054l1.41 51.557s6.281 8.54 10.818 10.52c13.303 5.806 29.572 2.805 39.81-9.004l.016-.018v-22.046l-1.878-3.877z" fill="#f2d1a5"/><path d="m230.423 357.91v31.01 22.05c1.29 1.49 2.68 2.84 4.14 4.05.73.6 1.48 1.17 2.24 1.7 1.86 1.29 3.82 2.38 5.85 3.27v-22.848c0-1.882 1.707-3.272 3.56-2.943 3.295.585 6.706.891 10.23.891 9.53 0 18.24-2.22 26.04-6.17v-31.01z" fill="#f2bb88"/><path d="m314.639 299.523c0-37.668-20.526-68.204-58.194-68.204s-58.194 30.536-58.194 68.204 20.526 82.563 58.194 82.563 58.194-44.895 58.194-82.563z" fill="#f2d1a5"/><path d="m293.871 245.091c-1.618-.127-3.228-.147-4.807-.073 0-.003-.001-.006-.001-.008-4.68.23-9.09 1.28-12.67 2.83l-.047.125c-.327-3.408-1.322-6.558-3.046-9.252-1.716-2.68-4.067-4.895-6.898-6.633-3.173-.499-6.491-.762-9.957-.762-37.668 0-58.194 30.536-58.194 68.204 0 7.809 1.694 19.391 3.429 27.357 1.642-2.206 5.764-10.109 10.324-14.773 7.407-7.575 12.955-14.121 28.173-19.66 8.757-3.187 15.978-7.041 21.521-12.627.934-.942 2.474-.747 3.155.391 4.444 7.426 15.236 14.628 19.579 17.408 13.505 8.645 23.407 22.138 27.398 26.666 1.694-7.877 2.809-17.044 2.809-24.762 0-22.235-7.158-41.98-20.768-54.431z" fill="#f2bb88"/><path d="m277.028 234.745c3.582-1.554 7.358-3.505 12.036-3.726 8.458-.4 17.783 1.91 24.631 8.844 22.564 22.847 8.331 58.938.285 71.507 0 0-11.734-14.671-29.421-25.993-4.826-3.089-8.917-6.777-12.151-10.763-3.087-3.803-4.173-8.454-5.593-12.537z" fill="#855b51"/><path d="m286.903 251.43c-2.91 8.61-7.92 16.51-14.49 23.18-3.09-3.8-5.39-7.88-6.82-11.96l10.8-28.81c3.58-1.55 7.99-2.6 12.67-2.83.91 6.41.21 13.42-2.16 20.42z" fill="#724d44"/><path d="m273.3 224.713c-3.628-5.668-10.067-9.278-17.977-10.621-13.008-2.209-29.276 2.782-44.295 13.759-29.954 21.893-21.552 67.736-11.957 82.723 0 0 3.126-3.755 9.933-10.534 7.037-7.009 17.919-15.606 33.138-21.145 28.11-10.232 40.752-39.195 31.158-54.182z" fill="#855b51"/><path d="m255.323 214.09c-9.76 1.44-20.3 5.59-30.02 12.69-24.16 17.65-22.78 52.55-16.3 73.26-6.66 6.7-10.017 12.067-10.017 12.067-9.6-14.99-18.633-63.437 11.317-85.327 15.02-10.98 32.01-14.89 45.02-12.69z" fill="#724d44"/><path d="m119.283 433.553h-39.606l-.202 9.245-.252 1.502v60.2h41.33v-64.236z" fill="#f8f7f7"/><path d="m120.552 398.126h-40.333l.064 41.427s.807 2.696 1.815 3.563c11.194 9.632 28.442 8.682 38.442-2.853l.013-.015v-17.118l-.95-6.811z" fill="#c48958"/><path d="m82.103 443.11-2.88 1.19v-4.05l.01.01c.484.56 1.362.589 1.88 1.096.444.436.524 1.357.99 1.754z" fill="#e8e8e8"/><path d="m92.223 398.13h-13v25.01 17.11l.01.01c.9 1.04 1.86 1.99 2.87 2.85l7.644-3.15c1.498-.617 2.476-2.078 2.476-3.698v-4.453c0-1.258 1.144-2.182 2.382-1.961 1.72.306 3.48.472 5.277.472 7.64 0 14.6-2.93 20.67-7.19v-25z" fill="#b27a49"/><path d="m103.921 299.596c-.026-.002 1.778-.086 0 0-23.324 0-42.41 9.115-47.903 28.185-1.55 5.382-2.34 11.399-2.34 17.982-.275 17.178 8.277 36.684 15.248 46.821 3.152 4.995 6.625 9.528 10.255 13.311.061.063.099.104.099.104s-.004-.005-.004-.006c6.69 6.942 13.905 11.327 20.605 11.327 20.671 0 46.203-41.651 46.203-71.557 0-6.895-.866-13.169-2.566-18.742-5.251-17.217-19.414-25.953-39.597-27.425z" fill="#c48958"/><path d="m143.981 328.67c-7.87-10.46-20.82-16.76-38.36-17.87-.03 0-3.7-.27-5.74-.18-20.48 0-35.4 6.49-44.11 18.07 5.27-19.62 20.42-31.07 44.11-31.07 1.78-.09 4.97.18 5 .18 20.82 1.52 34.21 12.68 39.1 30.87z" fill="#b27a49"/><path d="m442.581 279.745c0-1.581.841-3.397.613-4.915-1.927-12.797-11.682-23.03-24.233-25.667-2.065-.434-4.203.305-6.398.305-17.11 0-29.855 13.167-29.855 30.277s12.741 30.718 29.851 30.718 30.022-13.608 30.022-30.718z" fill="#855b51"/><path d="m458.12 351.766c0-29.907-15.653-54.148-45.56-54.148s-45.526 24.422-45.526 54.329c0 5.041 1.822 7.629 3.128 12.798.091.362-1.587 3.163-1.49 3.524 6.742 25.106 26.957 49.052 43.889 49.052 17.358 0 38.144-25.134 44.361-50.899.384-1.593-1.24-3.021-.971-4.613.559-3.323 2.169-6.802 2.169-10.043z" fill="#e3a76f"/><path d="m443.193 274.83c-8.83-4.82-19.07-7.33-30.02-7.33-4.13 0-8.221.366-12.207 1.072-1.608.285-2.905-1.352-2.181-2.816 4.057-8.2 11.635-14.346 20.768-16.467-2.24-.52-4.59-.79-6.99-.79-15.589 0-28.481 11.517-30.65 26.505-.123 1.65-.084-1.168-.33 4.475 0 17.602 14.68 31.776 32.466 30.945 16.568-.774 29.744-14.836 29.491-31.42-.022-1.415-.14-2.806-.347-4.174z" fill="#724d44"/><path d="m457.906 361.64c-.27 1.59-.6 3.19-.99 4.78-11.981-.856-23.193-13.347-31.848-26.669-.686-1.057-2.156-1.245-3.064-.371-13.508 13.01-33.432 28.181-53.338 28.89-.09-.36-.19-.73-.28-1.09-1.3-5.16-1.35-10.19-1.35-15.23 0-29.91 15.62-54.33 45.52-54.33 29.91 0 45.56 24.24 45.56 54.15 0 3.24.35 6.55-.21 9.87z" fill="#d6995c"/><path d="m442.398 288.678c-6.781-5.044-14.872-7.89-23.183-8.827-.461-.052-1.147.062-1.612.032-5.619-.369-11.197.623-16.612 1.755-6.945 1.453-12.321 4.553-17.723 8.34-16.623 11.655-30.018 40.379-15.414 67.49 3.961 0 7.333 1.082 11.312-.205 19.748-6.387 38.532-25.971 44.474-32.441.924-1.006 2.555-.805 3.216.389 4.405 7.955 18.883 32.257 31.366 32.257 13.541-33.447-3.805-59.85-15.824-68.79z" fill="#855b51"/><path d="m419.406 279.88c-8.89 1.01-17.38 4.07-24.13 8.8-16.21 11.36-29.02 41.93-16.11 68.58-3.98 1.29-8 2.04-11.96 2.04-14.6-27.11-1.56-58.97 15.07-70.62 10.01-7.02 23.86-10.35 37.13-8.8z" fill="#724d44"/></g><path d="m195.141 116.712c1.178 1.148 1.716 2.803 1.438 4.425l-6.682 38.956c-2.836 14.937 13.844 29.116 29.018 21.082l34.984-18.393c1.457-.765 3.196-.767 4.653 0l34.985 18.393c13.375 7.625 31.993-4.758 29.018-21.082l-6.682-38.956c-.278-1.622.259-3.276 1.438-4.425l28.303-27.59c5.491-5.353 7.43-13.208 5.061-20.501-2.37-7.293-8.556-12.509-16.145-13.611l-39.116-5.684c-1.627-.236-3.034-1.259-3.763-2.734l-17.491-35.444c-3.394-6.876-10.266-11.148-17.934-11.148s-14.54 4.272-17.934 11.148l-17.492 35.443c-.729 1.477-2.136 2.499-3.765 2.735l-39.115 5.684c-15.435 1.727-23.022 22.658-11.083 34.113zm-19.099-43.455c.289-.889 1.26-3 4.036-3.403l39.113-5.684c6.515-.945 12.145-5.034 15.06-10.939l17.492-35.443c1.241-2.516 3.548-2.787 4.483-2.787s3.242.271 4.483 2.787l17.493 35.444c2.915 5.904 8.544 9.993 15.058 10.938l39.114 5.684c2.776.403 3.748 2.515 4.036 3.403s.744 3.167-1.265 5.124l-28.303 27.589c-4.714 4.595-6.865 11.213-5.752 17.702l6.682 38.956c.474 2.765-1.233 4.341-1.989 4.89s-2.781 1.685-5.265.38l-34.985-18.393c-5.827-3.063-12.785-3.063-18.613 0l-34.985 18.393c-2.483 1.308-4.509.169-5.265-.38s-2.463-2.125-1.989-4.89l6.682-38.956c1.113-6.489-1.038-13.107-5.752-17.702l-28.303-27.588c-2.009-1.958-1.554-4.236-1.266-5.125z"/><path d="m342.294 139.001c-1.947 5.99-.354 12.444 4.157 16.842l20.218 19.707c.337.329.491.802.412 1.266l-4.773 27.829c-2.479 12.281 11.537 23.682 23.838 17.318l24.991-13.139c.417-.219.915-.219 1.331 0l24.991 13.139c9.918 6.118 26.631-3.556 23.838-17.318l-4.773-27.829c-.08-.464.075-.938.411-1.265l20.22-19.709c9.117-8.262 4.584-26.174-9.106-28.022l-27.941-4.06c-.465-.067-.868-.36-1.076-.782l-12.496-25.318c-5.365-11.322-22.619-12.478-29.465-.001l-12.495 25.318c-.208.423-.611.716-1.076.783l-27.942 4.06c-6.236.906-11.318 5.19-13.264 11.181zm14.266 4.635c.182-.561.57-.888 1.153-.973l27.942-4.06c5.351-.778 9.975-4.138 12.37-8.987l12.496-25.319c.261-.528.692-.797 1.281-.797.589 0 1.02.268 1.281.796v.001l12.497 25.32c2.394 4.849 7.018 8.208 12.37 8.986l27.941 4.06c.583.085.972.412 1.154.973s.061 1.054-.361 1.465l-20.221 19.71c-3.872 3.775-5.637 9.211-4.724 14.54l4.773 27.83c.1.58-.091 1.051-.568 1.396-.477.347-.983.383-1.505.108l-24.993-13.139c-4.786-2.516-10.501-2.516-15.289 0l-24.992 13.139c-.522.273-1.028.238-1.505-.108s-.668-.816-.568-1.397l4.773-27.829c.914-5.33-.853-10.766-4.725-14.542l-20.218-19.707c-.423-.413-.545-.906-.362-1.466z"/><path d="m54.516 175.55c.337.329.491.802.412 1.266l-4.773 27.829c-2.079 12.087 10.787 23.926 23.838 17.318l24.991-13.139c.417-.219.915-.219 1.331 0l24.992 13.139c10.675 6.117 26.31-3.727 23.838-17.318l-4.773-27.83c-.08-.463.074-.936.411-1.264l20.217-19.709c9.117-8.262 4.584-26.174-9.106-28.022l-27.94-4.06c-.466-.067-.869-.36-1.077-.782l-12.496-25.319c-5.159-11.398-23.447-12.359-29.465 0l-12.496 25.318c-.208.423-.611.716-1.076.783l-27.942 4.06c-12.446 1.438-18.959 18.291-9.105 28.023zm-10.11-31.914c.182-.561.57-.888 1.153-.973l27.942-4.06c5.351-.778 9.975-4.138 12.37-8.987l12.496-25.32c.261-.528.692-.796 1.281-.796s1.021.268 1.281.797l12.496 25.32c2.394 4.849 7.018 8.208 12.37 8.986l27.941 4.06c.583.085.972.412 1.154.973s.061 1.054-.361 1.465l-20.22 19.709c-3.873 3.775-5.639 9.212-4.724 14.541l4.773 27.829c.1.581-.092 1.052-.568 1.397-.476.347-.983.383-1.505.108l-24.992-13.139c-4.787-2.516-10.502-2.516-15.29 0l-24.992 13.139c-.521.275-1.028.238-1.504-.108s-.668-.816-.568-1.397l4.773-27.828c.915-5.33-.852-10.767-4.725-14.543l-20.218-19.707c-.423-.413-.545-.906-.363-1.466z"/><path d="m239.621 121.601c3.399 2.184 6.15 3.316 9.105 3.88v2.335c0 4.107 3.164 7.688 7.269 7.811 4.247.128 7.731-3.277 7.731-7.497v-3.709c6.446-2.648 11.311-8.446 12.525-15.678 1.575-9.379-3.502-17.847-12.634-21.071-1.518-.617-3.72-1.012-8.529-2.817-1.323-.648-2.088-2.113-1.766-3.551.155-.599.58-1.782 2.222-2.902 2.251-1.151 5.042 1.207 5.164 1.308 3.367 2.78 8.433 2.126 10.963-1.547 2.297-3.334 1.324-7.891-1.866-10.384-1.731-1.353-3.8-2.554-6.079-3.41v-2.154c0-4.107-3.164-7.688-7.269-7.811-4.247-.128-7.731 3.277-7.731 7.497v3.091c-.038.019-.076.033-.114.052-5.174 2.645-8.823 7.52-10.011 13.377-1.104 5.442.155 10.977 3.367 14.804 4.588 5.196 9.907 6.519 16.656 8.591.836.295 3.38 1.193 2.835 4.441-.293 1.746-1.799 4.706-5.583 4.731-4.33.027-5.249-.114-8.352-2.141-3.711-2.423-8.773-1.139-10.821 2.945-1.742 3.473-.351 7.709 2.918 9.809z"/><path d="m478.276 440.781-37.772-15.564v-14.612c12.641-12.479 23.245-33.759 25.081-51.357 12.817-32.952-1.061-60.772-15.262-73.722 3.985-22.39-14.841-44.971-37.991-44.523-23.014.062-41.711 20.818-38.012 44.396-8.414 7.318-15.287 18.479-18.786 30.738-4.48 15.696-3.088 31.782 3.872 45.478 2.609 17.187 12.26 36.294 24.771 48.958v14.645l-29.888 12.316c-3.483-4.312-7.91-7.89-13.079-10.334-3.744-1.77-8.215-.171-9.986 3.573-1.771 3.745-.171 8.216 3.573 9.987 7.832 3.704 12.893 11.698 12.893 20.366v35.874h-83.972v-37.792c7.759-.268 13.987-6.662 13.987-14.484v-20.287c2.235-1.334 4.345-2.889 6.313-4.632l18.777 7.738c2.744 1.045 7.519.554 9.792-4.077 1.579-3.83-.247-8.214-4.077-9.792l-18.756-7.729v-28.438c17.58-14.551 28.007-38.191 31.261-63.63 8.769-14.765 23.233-53.521-2.211-79.284-10.489-10.619-25.339-12.692-37.432-10.19-9.753-21.373-41.911-23.94-69.11-8.036-3.564 2.11-4.742 6.711-2.631 10.275 2.11 3.563 6.712 4.742 10.275 2.631 21.502-11.766 44.062-11.539 48.555 3.755l-9.611 25.647c-5.308 5.895-12.014 10.448-19.5 13.172-18.563 6.756-31.108 17.537-38.504 25.629-3.737-12.271-5.725-30.636-.114-45.907 1.428-3.889-.565-8.198-4.454-9.627-3.886-1.427-8.197.566-9.626 4.453-8.708 23.702-3.027 53.32 4.784 67.541 3.443 25.334 12.7 47.759 31.264 63.583v28.427l-49.702 20.479c-6.017 2.479-11.116 6.387-14.998 11.227l-30.174-12.434v-16.348c14.203-15.509 25.895-43.998 25.532-63.108 0-34.843-20.076-55.645-53.703-55.645-13.318 0-24.575 3.253-33.455 9.667-3.358 2.426-4.114 7.114-1.688 10.472s7.114 4.114 10.471 1.688c6.271-4.53 14.572-6.827 24.672-6.827 31.988 0 38.703 22.103 38.703 40.645 1.144 19.126-19.323 62.136-38.703 64.058-22.791-4.279-42.52-49.924-38.173-72.563.538-4.107-2.355-7.873-6.462-8.411-4.106-.527-7.872 2.355-8.411 6.462-3.489 23.733 7.239 53.078 24.889 73.57v16.338l-37.772 15.564c-12.231 5.039-20.135 16.844-20.135 30.073v23.635c0 9.655 7.855 17.511 17.51 17.511h449.8c9.655 0 17.51-7.855 17.51-17.511v-23.635c-.001-13.228-7.904-25.033-20.135-30.072zm-170.145-195.648c15.293 15.484 9.958 39.108 3.915 53.241-5.472-5.519-13.647-12.897-23.671-19.313-6.791-4.348-12.127-10.256-14.968-16.49l8.562-22.847c7.217-2.076 18.681-2.165 26.162 5.409zm-101.534 69.036c3.465-4.985 15.394-20.043 37.881-28.227 6.857-2.496 13.222-6.161 18.81-10.779 4.165 6.344 9.966 12.027 17 16.53 12.333 7.895 21.701 17.658 25.61 22.04-4.132 29.624-21.224 60.853-49.681 60.853-28.301 0-45.387-30.959-49.62-60.417zm49.62 75.417c6.476 0 12.679-1.15 18.536-3.376v21.762c-9.292 9.303-26.779 9.926-37.054.006v-21.761c5.852 2.222 12.049 3.369 18.518 3.369zm-106.453 107.414h-14.984l14.983-21.302v21.302zm-78.267-16.198-21.465-30.516 21.465-8.844zm15-26.201c7.301 3.072 17.476 3.6 26.328-.001v42.4h-26.328zm41.328-13.16 21.473 8.848-21.473 30.529zm-15-20.225v15.977c-6.544 6.072-18.594 6.856-26.328-.005 0-3.82 0-11.882 0-15.967 7.902 4.111 16.734 5.184 26.328-.005zm-84.235 73.273v-23.635c0-5.822 2.842-11.129 7.473-14.358l28.489 40.504h-33.452c-1.384 0-2.51-1.126-2.51-2.511zm136.174-33.364c0-9.164 5.475-17.342 13.947-20.832l49.723-20.488c9.15 7.698 20.959 12.072 34.27 10.044v14.376c-7.759.268-13.987 6.662-13.987 14.485v38.29h-83.953zm247.568-205.123c11.884 0 21.727 8.876 23.265 20.345-14.432-5.897-31.758-5.835-46.554.191 1.453-11.561 11.339-20.536 23.289-20.536zm-25.754 38.816c6.932-4.86 16.618-7.855 26.505-7.855 8.703 0 17.563 2.32 24.839 7.732 7.462 5.551 23.561 25.258 15.671 53.247-6.532-4.781-15.54-17.223-21.399-28.637-1.14-2.226-3.315-3.734-5.798-4.027-2.482-.293-4.95.674-6.577 2.571-7.477 8.731-29.682 30.341-48.619 33.552-8.981-22.228 2.253-47.38 15.378-56.583zm-11.031 70.994c19.547-4.171 38.516-20.646 48.488-30.572 4.916 8.84 17.846 24.827 25.754 27.733-5.109 24.462-24.564 46.847-37.458 46.847-12.096 0-30.765-20.819-36.784-44.008zm36.785 59.008c4.273 0 8.72-1.112 13.171-3.223.001-.053-.001 8.106.001 8.745.274 11.601-4.664 24.609-13.147 33.544-7.9-8.189-13.342-21.124-13.185-33.212.006-.392.001-7.77.002-9.054 4.308 2.044 8.732 3.2 13.158 3.2zm-27.332 16.281c1.871 11.385 6.868 22.095 14.538 30.904l5.302 6.09v18.905h-42.151v-35.875c0-3.507-.506-6.946-1.447-10.234zm98.41 53.388c0 1.385-1.126 2.511-2.51 2.511h-61.061v-18.902l5.124-5.833c7.795-8.875 12.854-19.667 14.729-31.158l32.87 13.544c6.59 2.715 10.849 9.075 10.849 16.204v23.634z"/><path d="m292.624 466.889c-4.142 0-7.5 3.357-7.5 7.5s3.358 7.5 7.5 7.5h28.329c4.142 0 7.5-3.357 7.5-7.5s-3.358-7.5-7.5-7.5z"/></g></svg>