<svg id="Capa_1" enable-background="new 0 0 512 512" height="512" viewBox="0 0 512 512" width="512" xmlns="http://www.w3.org/2000/svg"><g><g><path d="m499.5 458.5c2.761 0 5 2.239 5 5v10l-1 9c0 2.761-2.239 5-5 5h-485c-2.761 0-5-2.239-5-5v-18c0-2.761 2.239-5 5-5l9-1z" fill="#f8f7f7"/><path d="m27.5 473.5c-2.761 0-5-2.239-5-5v-10h-10c-2.761 0-5 2.239-5 5v20c0 2.761 2.239 5 5 5h487c2.761 0 5-2.239 5-5v-10z" fill="#e8e8e8"/><g fill="#b3e59f"><path d="m478.5 422.5c0 2.761-2.239 5-5 5h-38c-2.761 0-5-2.239-5-5v-158c0-2.761 2.239-5 5-5l9-1h30c2.761 0 5 2.239 5 5v150z"/><path d="m473.5 167.5h-38c-2.761 0-5-2.239-5-5v-18c0-2.761 2.239-5 5-5l9-1h30c2.761 0 5 2.239 5 5v10l-1 9c0 2.761-2.239 5-5 5z"/><path d="m473.5 227.5h-38c-2.761 0-5-2.239-5-5v-18c0-2.761 2.239-5 5-5l9-1h30c2.761 0 5 2.239 5 5v10l-1 9c0 2.761-2.239 5-5 5z"/></g><path d="m383.5 427.5h-38c-2.761 0-5-2.239-5-5v-149c0-2.761 2.239-5 5-5l9-1h30c2.761 0 5 2.239 5 5v141l-1 9c0 2.761-2.239 5-5 5z" fill="#ccf49f"/><path d="m293.5 427.5h-38c-2.761 0-5-2.239-5-5v-95c0-2.761 2.239-5 5-5l9-1h30c2.761 0 5 2.239 5 5v87l-1 9c0 2.761-2.239 5-5 5z" fill="#ffd163"/><path d="m203.5 427.5h-38c-2.761 0-5-2.239-5-5v-69c0-2.761 2.239-5 5-5l9-1h30c2.761 0 5 2.239 5 5v61l-1 9c0 2.761-2.239 5-5 5z" fill="#ffb65f"/><path d="m113.5 427.5h-38c-2.761 0-5-2.239-5-5v-39c0-2.761 2.239-5 5-5l9-1h30c2.761 0 5 2.239 5 5v31l-1 9c0 2.761-2.239 5-5 5z" fill="#df646e"/><path d="m449.5 413.5c-2.761 0-5-2.239-5-5v-150h-10c-2.761 0-5 2.239-5 5v160c0 2.761 2.239 5 5 5h40c2.761 0 5-2.239 5-5v-10z" fill="#95d6a4"/><path d="m449.5 153.5c-2.761 0-5-2.239-5-5v-10h-10c-2.761 0-5 2.239-5 5v20c0 2.761 2.239 5 5 5h40c2.761 0 5-2.239 5-5v-10z" fill="#95d6a4"/><path d="m449.5 213.5c-2.761 0-5-2.239-5-5v-10h-10c-2.761 0-5 2.239-5 5v20c0 2.761 2.239 5 5 5h40c2.761 0 5-2.239 5-5v-10z" fill="#95d6a4"/><path d="m359.5 413.5c-2.761 0-5-2.239-5-5v-141h-10c-2.761 0-5 2.239-5 5v151c0 2.761 2.239 5 5 5h40c2.761 0 5-2.239 5-5v-10z" fill="#b3e59f"/><path d="m269.5 413.5c-2.761 0-5-2.239-5-5v-87h-10c-2.761 0-5 2.239-5 5v97c0 2.761 2.239 5 5 5h40c2.761 0 5-2.239 5-5v-10z" fill="#ffb65f"/><path d="m179.5 413.5c-2.761 0-5-2.239-5-5v-61h-10c-2.761 0-5 2.239-5 5v71c0 2.761 2.239 5 5 5h40c2.761 0 5-2.239 5-5v-10z" fill="#ff9350"/><path d="m89.5 413.5c-2.761 0-5-2.239-5-5v-31h-10c-2.761 0-5 2.239-5 5v41c0 2.761 2.239 5 5 5h40c2.761 0 5-2.239 5-5v-10z" fill="#dc4955"/><path d="m446.84 29.5-37.528 65c-3.849 6.667.962 13 8.66 13h73.056c7.698 0 12.509-7.333 8.66-14l.423-1-35.23-61.019-2.721-1.981c-3.849-6.667-11.471-6.667-15.32 0z" fill="#b3e59f"/><path d="m500.111 92.5h-65.263c-2.309 0-3.753-2.5-2.598-4.5l32.631-56.519-1.721-2.981c-3.849-6.667-13.472-6.667-17.321 0l-37.528 65c-3.849 6.667.962 15 8.66 15h75.055c7.698 0 12.509-8.333 8.661-15z" fill="#95d6a4"/><path d="m196.793 51.121 25.543 51.756c2.659 5.387 7.798 9.121 13.743 9.985l57.117 8.3c14.971 2.175 20.948 20.573 10.115 31.132l-41.33 40.287c-4.302 4.193-6.265 10.235-5.249 16.155l9.757 56.886c.722 4.212-.008 8.141-1.73 11.452-4.374 8.412-16.145 10.84-25.753 5.788l-50.087-26.858c-5.317-2.796-11.67-2.796-16.987 0l-51.087 26.858c-13.39 7.04-27.04-2.331-24.483-17.241l9.757-56.886c1.016-5.921-.948-11.962-5.249-16.155l-41.33-40.287c-8.519-8.304-8.642-21.455-.171-27.752 2.301-1.71 5.088-2.915 8.286-3.38l57.117-8.3c5.945-.864 11.084-4.598 13.743-9.985l25.543-51.756c6.695-13.565 26.04-13.565 32.735.001z" fill="#ffd163"/><g><path d="m166.919 241.248-47.474 24.435c-2.657 1.368-5.736-.883-5.238-3.83l9.169-54.311c1.648-9.759-1.498-19.714-8.452-26.756l-55.55-56.24c-8.471 6.297-10.352 19.444-1.833 27.747l41.33 40.287c4.302 4.193 6.265 10.235 5.249 16.155l-9.757 56.886c-2.557 14.91 13.092 26.28 26.483 19.241l51.087-26.858c5.317-2.795 11.67-2.795 16.987 0l51.087 26.858c9.608 5.051 20.378.623 24.752-7.789l-69.674-35.831c-8.84-4.545-19.329-4.543-28.166.006z" fill="#ffb65f"/></g></g><g><path d="m499.5 451h-111.606c-4.143 0-7.5 3.357-7.5 7.5s3.357 7.5 7.5 7.5h109.106v15h-482v-15h338.106c4.143 0 7.5-3.357 7.5-7.5s-3.357-7.5-7.5-7.5h-340.606c-6.893 0-12.5 5.607-12.5 12.5v20c0 6.893 5.607 12.5 12.5 12.5h487c6.893 0 12.5-5.607 12.5-12.5v-20c0-6.893-5.607-12.5-12.5-12.5z"/><path d="m479.5 310.67c4.143 0 7.5-3.357 7.5-7.5v-39.67c0-6.893-5.607-12.5-12.5-12.5h-40c-6.893 0-12.5 5.607-12.5 12.5v160c0 6.893 5.607 12.5 12.5 12.5h40c6.893 0 12.5-5.607 12.5-12.5v-85.351c0-4.143-3.357-7.5-7.5-7.5s-7.5 3.357-7.5 7.5v82.851h-35v-155h35v37.17c0 4.143 3.357 7.5 7.5 7.5z"/><path d="m487 143.5c0-6.893-5.607-12.5-12.5-12.5h-40c-6.893 0-12.5 5.607-12.5 12.5v20c0 6.893 5.607 12.5 12.5 12.5h40c6.893 0 12.5-5.607 12.5-12.5zm-15 17.5h-35v-15h35z"/><path d="m487 203.5c0-6.893-5.607-12.5-12.5-12.5h-40c-6.893 0-12.5 5.607-12.5 12.5v20c0 6.893 5.607 12.5 12.5 12.5h40c6.893 0 12.5-5.607 12.5-12.5zm-15 17.5h-35v-15h35z"/><path d="m344.5 436h40c6.893 0 12.5-5.607 12.5-12.5v-151c0-6.893-5.607-12.5-12.5-12.5h-40c-6.893 0-12.5 5.607-12.5 12.5v151c0 6.893 5.607 12.5 12.5 12.5zm2.5-161h35v146h-35z"/><path d="m249.5 384.521c-4.142 0-7.5 3.357-7.5 7.5v31.479c0 6.893 5.607 12.5 12.5 12.5h40c6.893 0 12.5-5.607 12.5-12.5v-97c0-6.893-5.607-12.5-12.5-12.5h-40c-6.893 0-12.5 5.607-12.5 12.5v30.457c0 4.143 3.358 7.5 7.5 7.5s7.5-3.357 7.5-7.5v-27.957h35v92h-35v-28.979c0-4.142-3.358-7.5-7.5-7.5z"/><path d="m164.5 340c-6.893 0-12.5 5.607-12.5 12.5v71c0 6.893 5.607 12.5 12.5 12.5h40c6.893 0 12.5-5.607 12.5-12.5v-71c0-6.893-5.607-12.5-12.5-12.5zm37.5 81h-35v-66h35z"/><path d="m114.5 370h-40c-6.893 0-12.5 5.607-12.5 12.5v41c0 6.893 5.607 12.5 12.5 12.5h40c6.893 0 12.5-5.607 12.5-12.5v-41c0-6.893-5.607-12.5-12.5-12.5zm-2.5 51h-35v-36h35z"/><path d="m416.973 116h75.055c6.326 0 11.992-3.271 15.156-8.75 3.163-5.479 3.163-12.021 0-17.5l-37.528-65c-3.164-5.479-8.829-8.75-15.156-8.75s-11.992 3.271-15.155 8.75l-37.528 65c-3.163 5.479-3.163 12.021 0 17.5s8.829 8.75 15.156 8.75zm-2.166-18.75 37.528-65c.628-1.088 1.626-1.25 2.165-1.25s1.537.162 2.165 1.25l37.528 65c.628 1.087.27 2.033 0 2.5s-.91 1.25-2.166 1.25h-75.055c-1.256 0-1.896-.783-2.166-1.25s-.627-1.413.001-2.5z"/><path d="m58.726 163.923c2.966 2.89 7.715 2.832 10.606-.137 2.891-2.966 2.83-7.714-.136-10.605l-6.42-6.257c-2.997-2.922-4.014-7.042-2.721-11.022s4.538-6.716 8.68-7.317l57.117-8.3c8.389-1.22 15.637-6.485 19.389-14.087l25.543-51.757c1.852-3.753 5.457-5.993 9.642-5.993 4.186 0 7.79 2.24 9.642 5.993l25.543 51.757c3.752 7.602 11 12.867 19.39 14.087l57.117 8.3c4.142.602 7.386 3.337 8.679 7.317 1.294 3.98.276 8.101-2.721 11.021l-41.33 40.288c-6.07 5.917-8.838 14.438-7.406 22.793l9.757 56.886c.707 4.125-.892 8.057-4.277 10.517-3.386 2.459-7.619 2.766-11.323.818l-51.088-26.858c-7.503-3.943-16.462-3.943-23.966 0l-51.086 26.858c-3.705 1.947-7.937 1.642-11.323-.818s-4.985-6.392-4.277-10.517l9.757-56.886c1.433-8.355-1.336-16.876-7.406-22.793l-9.914-9.664c-2.967-2.892-7.715-2.832-10.606.135-2.891 2.966-2.831 7.715.135 10.605l9.914 9.664c2.535 2.471 3.691 6.029 3.093 9.518l-9.757 56.886c-4.07 19.937 18.898 37.199 37.365 27.147l51.086-26.858c3.133-1.646 6.875-1.647 10.007 0l51.087 26.858c16.663 9.962 41.698-6.28 37.364-27.147l-9.756-56.886c-.599-3.488.558-7.047 3.092-9.517l41.33-40.287c15.064-13.928 6.48-41.237-14.272-43.925l-57.116-8.3c-3.503-.51-6.53-2.708-8.096-5.882l-25.543-51.757c-8.831-18.901-37.204-18.723-46.186 0l-25.545 51.758c-1.566 3.174-4.593 5.372-8.096 5.882l-57.116 8.3c-20.221 2.289-29.539 29.465-14.272 43.925z"/><path d="m179.938 195.519c-6.898.058-8.872-.267-14.107-3.688-3.467-2.267-8.116-1.293-10.381 2.176-2.266 3.468-1.292 8.115 2.176 10.381 5.804 3.792 10.072 5.314 15.299 5.86v6.416c0 4.143 3.358 7.5 7.5 7.5s7.5-3.357 7.5-7.5v-7.343c10.274-3.179 16.843-12.203 18.338-21.108 2.012-11.984-4.496-22.811-16.193-26.94-4.206-1.672-13.509-3.255-16.334-7.011-1.059-1.262-1.447-3.707-.965-6.084.289-1.426 1.348-4.939 4.932-6.771 5.083-2.595 10.443 1.479 11.466 2.323 3.194 2.636 7.921 2.182 10.558-1.012 2.636-3.195 2.183-7.923-1.012-10.559-2.92-2.409-6.646-4.521-10.79-5.68v-5.658c0-4.143-3.358-7.5-7.5-7.5s-7.5 3.357-7.5 7.5v6.306c-.684.271-1.367.575-2.048.923-6.615 3.381-11.283 9.631-12.806 17.148-1.404 6.926.158 13.92 4.178 18.708 6.698 7.466 13.186 8.33 22.828 11.511 6.923 2.444 6.778 8.025 6.394 10.312-.787 4.683-4.731 9.745-11.533 9.79z"/></g></g></svg>