<svg id="Capa_1" enable-background="new 0 0 512 512" height="512" viewBox="0 0 512 512" width="512" xmlns="http://www.w3.org/2000/svg"><g><g><path d="m282.809 310.511 29.548.108-28.293 97.922-55.447 5.306z" fill="#f2bb88"/><path d="m429.524 323.611h-347.048c-6.995 0-13.292-5.038-18.026-10.189l-20.257-23.156h-3.337 424.328l-5.987 13.001-11.268 12.261c-4.735 5.152-11.41 8.083-18.405 8.083z" fill="#8e868e"/><path d="m459.2 303.27h-383.232c-3.483 0-5.302 4.142-2.945 6.706l12.527 13.634h-3.07c-7 0-13.67-2.93-18.41-8.08l-23.21-25.26 237.388-6.132 192.892 6.132z" fill="#766d78"/><path d="m367.294 326.525-86.39 61.993c-10.763 7.723-23.707 11.815-36.953 11.681l-27.957-.283c-23.455-.238-43.122-17.777-46.032-41.052-1.133-9.062-4.924-17.586-10.896-24.497l-.232-.269c-5.792-6.704-14.142-10.523-22.932-10.516-4.235.003-9.062.005-13.913.005-10 .001-14.649 12.404-7.112 18.977l.413.36c7.905 6.894 11.317 17.455 8.966 27.546-.437 1.877-.895 3.841-1.362 5.851-4.844 20.81-23.393 35.54-44.76 35.54l-4.217 41.157 4.213 38.312h40.456c32.818 0 65.318-5.984 96.35-16.663l60.204-20.718c7.411-2.551 14.129-6.789 19.621-12.38l89.395-91.376c6.152-6.263 8.831-15.437 4.022-21.15-2.735-3.25-6.834-5.432-11.828-5.432-3.249 0-6.416 1.019-9.056 2.914z" fill="#f2d1a5"/><path d="m387.43 350.03-92.57 94.24c-5.5 5.59-12.21 9.83-19.63 12.38l-60.2 20.72c-31.03 10.68-63.62 16.13-96.44 16.13h-40.46v-14h34.46c32.82 0 65.41-5.45 96.44-16.13l60.2-20.72c7.42-2.55 14.13-6.79 19.63-12.38l99.31-101.22c4.81 5.71 5.41 14.72-.74 20.98z" fill="#f2bb88"/><path d="m67.134 503.5h-48.634c-5.523 0-10-4.477-10-10v-83c0-5.523 4.477-10 10-10l15-1h34.634c5.523 0 10 4.477 10 10v19.62l-3.226 8.595 3.226 6.405v35.38l-1 14c0 5.523-4.477 10-10 10z" fill="#e8e8e8"/><path d="m78.13 479.5v15c0 5.523-4.477 10-10 10h-50.63c-5.523 0-10-4.477-10-10v-50.38l2.234-6.184-2.234-8.816v-19.62c0-5.523 4.477-10 10-10h16v75c0 2.761 2.239 5 5 5z" fill="#d8d8d8"/><path d="m454.064 256.92h-397.321l-.66-210.47c0-12.747 4.111-27.852 14.296-33.972 5.26-3.16 11.418-4.977 18-4.977h335.242c19.33 0 35 15.67 35 35v197.42z" fill="#f8f7f7"/><g><g><path d="m354 122.5h-12l-7 1c-2.761 0-5 2.239-5 5v53c0 2.761 2.239 5 5 5h18c2.761 0 5-2.239 5-5l1-7v-47c0-2.761-2.239-5-5-5z" fill="#df646e"/><path d="m359 174.5v8c0 2.76-2.24 5-5 5h-20c-2.76 0-5-2.24-5-5v-55c0-2.76 2.24-5 5-5h8v49c0 1.66 1.34 3 3 3z" fill="#dc4955"/></g><g><path d="m294 155.5h-12l-7 1c-2.761 0-5 2.239-5 5v20c0 2.761 2.239 5 5 5h18c2.761 0 5-2.239 5-5l1-7v-14c0-2.761-2.239-5-5-5z" fill="#ffd163"/><path d="m299 174.5v8c0 2.76-2.24 5-5 5h-20c-2.76 0-5-2.24-5-5v-22c0-2.76 2.24-5 5-5h8v16c0 1.66 1.34 3 3 3z" fill="#ffb65f"/></g></g><path d="m458.62 239.92v17l-197.12 7.181-208.12-7.181v-214.42c0-12.75 6.81-23.9 17-30.02v221.44c0 3.314 2.686 6 6 6z" fill="#e8e8e8"/><g><path d="m414 63.5h-12l-7 1c-2.761 0-5 2.239-5 5v112c0 2.761 2.239 5 5 5h18c2.761 0 5-2.239 5-5l1-7v-106c0-2.761-2.239-5-5-5z" fill="#ccf49f"/><path d="m419 174.5v8c0 2.76-2.24 5-5 5h-20c-2.76 0-5-2.24-5-5v-114c0-2.76 2.24-5 5-5h8v108c0 1.66 1.34 3 3 3z" fill="#b3e59f"/></g><path d="m489.5 290.266h-452.518l-14.147-.623c-8.284 0-14.477-6.09-14.477-14.374v-3.346c0-8.284 5.918-14.427 14.202-14.427l14.312-.575h452.628c8.284 0 15 6.716 15 15v3.346c0 8.283-6.716 14.999-15 14.999z" fill="#9e959e"/><path d="m40.5 290.27h-18c-8.28 0-15-6.72-15-15v-3.35c0-8.28 6.72-15 15-15h18c-8.28 0-15 6.72-15 15v3.35c0 8.28 6.72 15 15 15z" fill="#8e868e"/></g><g><path d="m489.5 249.42h-33.513c6.313-7.418 10.134-17.019 10.134-27.5v-179.42c0-23.435-19.065-42.5-42.5-42.5h-261.6c-4.143 0-7.5 3.357-7.5 7.5s3.357 7.5 7.5 7.5h261.6c15.163 0 27.5 12.337 27.5 27.5v179.42c0 15.163-12.337 27.5-27.5 27.5h-335.242c-15.163 0-27.5-12.337-27.5-27.5v-179.42c0-15.163 12.337-27.5 27.5-27.5h38.6c4.143 0 7.5-3.357 7.5-7.5s-3.357-7.5-7.5-7.5h-38.6c-23.435 0-42.5 19.065-42.5 42.5v179.42c0 10.481 3.822 20.082 10.134 27.5h-33.513c-12.406 0-22.5 10.094-22.5 22.5v3.346c0 12.406 10.094 22.5 22.5 22.5h15.061l20.988 22.838c6.138 6.678 14.858 10.508 23.927 10.508h21.494c-1.09 5.336 1.046 13.116 6.39 17.464 5.791 5.05 8.316 12.788 6.591 20.195-2.208 17.074-15.024 32.251-32.29 35.028-2.372-6.855-8.876-11.799-16.527-11.799h-50.634c-9.649 0-17.5 7.851-17.5 17.5v85c0 9.649 7.851 17.5 17.5 17.5h50.634c7.352 0 13.647-4.563 16.234-11h34.222c33.723 0 66.991-5.564 98.88-16.538l60.204-20.718c8.466-2.913 16.257-7.829 22.532-14.217l35.979-36.625c2.902-2.955 2.86-7.703-.095-10.606-2.953-2.902-7.701-2.859-10.606.095l-35.979 36.625c-4.653 4.737-10.433 8.384-16.712 10.545l-60.204 20.718c-30.315 10.431-61.941 15.721-93.999 15.721h-32.956v-67.173c23.577-2.97 42.318-22.818 45.927-46.656 2.986-12.821-1.359-26.194-11.348-34.906-.851-.806-1.847-1.612-1.333-4.022.286-.763 1.039-2.004 2.826-2.131h15.33c6.192.304 12.018 3.139 16.116 7.883l.238.276c5.02 5.808 8.176 12.904 9.128 20.523 3.36 26.874 26.317 47.347 53.398 47.621l27.957.283c14.901.14 29.263-4.374 41.403-13.087l86.39-61.994c1.373-.985 2.992-1.506 4.684-1.506 4.957 0 6.924 3.771 7.409 4.927.484 1.155 1.796 5.201-1.678 8.737l-32.137 32.714c-2.902 2.955-2.86 7.703.095 10.606 2.954 2.903 7.703 2.86 10.606-.095l32.137-32.714c6.4-6.516 8.319-15.701 5.139-24.176h31.602c9.068 0 17.789-3.83 23.927-10.508l20.988-22.838h15.062c12.406 0 22.5-10.094 22.5-22.5v-3.346c0-12.404-10.094-22.498-22.5-22.498zm-418.866 245.08c0 1.379-1.121 2.5-2.5 2.5h-50.634c-1.379 0-2.5-1.121-2.5-2.5v-50.383h55.634zm0-65.383h-55.634v-19.617c0-1.379 1.121-2.5 2.5-2.5h50.634c1.379 0 2.5 1.121 2.5 2.5zm160.674-36.548-15.238-.154c-19.61-.198-36.233-15.022-38.666-34.482-1.233-9.86-5.13-19.091-11.296-26.821h97.43zm54.397-16.729-9.174 6.583c-8.384 6.017-18.09 9.485-28.292 10.155l32.234-61.467h18.155zm19.698-14.134 8.84-30.594h33.795zm191.597-86.44c0 4.136-3.364 7.5-7.5 7.5h-287.563c-4.143 0-7.5 3.357-7.5 7.5s3.357 7.5 7.5 7.5h252.129l-11.66 12.688c-3.305 3.596-8 5.658-12.882 5.658-39.316.005-315.625-.009-347.049 0-4.882 0-9.577-2.063-12.882-5.658l-11.66-12.688h109.194c4.143 0 7.5-3.357 7.5-7.5s-3.357-7.5-7.5-7.5h-144.627c-4.136 0-7.5-3.364-7.5-7.5v-3.346c0-4.136 3.364-7.5 7.5-7.5h467c4.136 0 7.5 3.364 7.5 7.5z"/><path d="m294 148h-20c-6.893 0-12.5 5.607-12.5 12.5v22c0 6.893 5.607 12.5 12.5 12.5h20c6.893 0 12.5-5.607 12.5-12.5v-22c0-6.893-5.607-12.5-12.5-12.5zm-2.5 32h-15v-17h15z"/><path d="m354 195c6.893 0 12.5-5.607 12.5-12.5v-55c0-6.893-5.607-12.5-12.5-12.5h-20c-6.893 0-12.5 5.607-12.5 12.5v55c0 6.893 5.607 12.5 12.5 12.5zm-17.5-65h15v50h-15z"/><path d="m419 110.989c4.143 0 7.5-3.357 7.5-7.5v-34.989c0-6.893-5.607-12.5-12.5-12.5h-20c-6.893 0-12.5 5.607-12.5 12.5v114c0 6.893 5.607 12.5 12.5 12.5h20c6.893 0 12.5-5.607 12.5-12.5v-43.904c0-4.143-3.357-7.5-7.5-7.5s-7.5 3.357-7.5 7.5v41.404h-15v-109h15v32.489c0 4.143 3.357 7.5 7.5 7.5z"/><path d="m261.5 218.5c0 4.143 3.357 7.5 7.5 7.5h150c4.143 0 7.5-3.357 7.5-7.5s-3.357-7.5-7.5-7.5h-150c-4.143 0-7.5 3.357-7.5 7.5z"/><path d="m113.464 50c-3.725 0-7.119 2.339-8.448 5.824l-18.646 49.009c-1.473 3.871.472 8.204 4.343 9.677s8.204-.472 9.677-4.343l2.966-7.796h20.075l2.931 7.774c1.133 3.005 3.987 4.856 7.019 4.856.88 0 1.773-.155 2.645-.484 3.876-1.461 5.834-5.788 4.372-9.663l-18.474-48.999c-1.319-3.502-4.718-5.855-8.46-5.855zm-4.402 37.371 4.376-11.502 4.336 11.502z"/><path d="m177.608 115c.043 0 .086 0 .129-.001 15.988-.274 27.593-13.919 27.593-32.444 0-19.472-11.31-32.555-28.145-32.555h-14.376c-4.143 0-7.5 3.357-7.5 7.5v50c0 4.143 3.357 7.5 7.5 7.5zm-7.299-50h6.876c12.197 0 13.146 13.437 13.146 17.555 0 8.556-3.956 17.257-12.793 17.445h-7.229z"/><path d="m135.879 158.5c0 4.143 3.357 7.5 7.5 7.5h88.164c4.143 0 7.5-3.357 7.5-7.5s-3.357-7.5-7.5-7.5h-88.164c-4.143 0-7.5 3.357-7.5 7.5z"/><path d="m93.379 166h20c4.143 0 7.5-3.357 7.5-7.5s-3.357-7.5-7.5-7.5h-20c-4.143 0-7.5 3.357-7.5 7.5s3.357 7.5 7.5 7.5z"/><path d="m239.043 188.5c0-4.143-3.357-7.5-7.5-7.5h-41.224c-4.143 0-7.5 3.357-7.5 7.5s3.357 7.5 7.5 7.5h41.224c4.143 0 7.5-3.357 7.5-7.5z"/><path d="m167.819 188.5c0-4.143-3.357-7.5-7.5-7.5h-66.94c-4.143 0-7.5 3.357-7.5 7.5s3.357 7.5 7.5 7.5h66.94c4.143 0 7.5-3.357 7.5-7.5z"/><path d="m150.734 226h50.809c4.143 0 7.5-3.357 7.5-7.5s-3.357-7.5-7.5-7.5h-50.809c-4.143 0-7.5 3.357-7.5 7.5s3.358 7.5 7.5 7.5z"/><path d="m93.379 211c-4.143 0-7.5 3.357-7.5 7.5s3.357 7.5 7.5 7.5h27.355c4.143 0 7.5-3.357 7.5-7.5s-3.357-7.5-7.5-7.5z"/><path d="m243.68 100c-4.623 0-9.06-1.85-11.867-4.948-2.781-3.069-7.524-3.302-10.594-.521-3.069 2.781-3.303 7.524-.521 10.594 5.687 6.275 14.063 9.875 22.982 9.875 11.144 0 20.51-7.157 22.271-17.019 1.334-7.47-1.994-17.205-15.333-22.126-6.437-2.373-10.638-4.138-11.59-4.544-1.85-.981-1.976-2.074-1.905-2.819.112-1.178.982-2.583 2.427-2.989 6.978-1.96 12.269 2.502 12.531 2.729 3.097 2.743 7.83 2.459 10.577-.633 2.752-3.096 2.473-7.836-.623-10.588-1.173-1.043-11.882-10.068-26.543-5.95-7.238 2.034-12.584 8.469-13.302 16.011-.705 7.416 3.239 14.214 10.294 17.74.661.315 4.508 1.964 12.942 5.116 3.051 1.126 6.165 3.139 5.759 5.416-.336 1.878-2.953 4.656-7.505 4.656z"/></g></g></svg>