<svg id="Capa_1" enable-background="new 0 0 512 512" height="512" viewBox="0 0 512 512" width="512" xmlns="http://www.w3.org/2000/svg"><g><g><g><path d="m447.076 408.079h-31.028c-9.383 0-17.609-6.661-19.563-15.838l-10.732-50.446c-3.417-16.06-17.814-27.716-34.233-27.716h-191.039c-8.796 0-15.955 4.275-22.18 9.776-5.468 4.832-9.445 11.382-11.053 18.94l-10.733 50.446c-.285 1.338-.699 2.62-1.229 3.836-3.126 7.174-11.26 11.002-19.333 11.002h-31.029c-8.077 0-15.027-5.207-15.407-13.275-.378-8.026 4.555-14.748 12.263-15.628.564-.064 1.138-.098 1.72-.098h23.736c.199 0 .393-.029.577-.085.685-.206 2.225-.771 2.38-1.499l8.712-40.943c6.346-29.826 32.083-48.937 62.576-48.937h189.039c12.195 0 23.79.927 33.72 6.99 14.898 9.097 26.048 24.05 29.857 41.946l8.71 40.943c.196.924 1.012 1.584 1.956 1.584h23.737c8.525 0 15.389 7.111 14.983 15.725-.037.776-.134 1.534-.287 2.272-1.44 6.934-8.819 11.005-16.12 11.005z" fill="#9e959e"/></g><g fill="#8e868e"><path d="m61.52 382.805c-.06-1.25.03-2.47.26-3.63-7.71.88-13.64 7.61-13.26 15.63.38 8.07 7.33 14.27 15.4 14.27h33.03c8.07 0 15.21-4.83 18.33-12h-38.36c-8.07 0-15.02-6.201-15.4-14.27z"/><path d="m419.423 397.075c-4.667 0-8.709-3.224-9.749-7.774-3.361-14.702-9.503-45.207-9.924-46.506-2.382-11.221-10.133-20.29-20.186-24.738-1.017-.45-1.482-1.646-1.005-2.651 3.039-6.409 5.012-13.421 5.681-20.801-9.93-6.07-21.53-9.53-33.72-9.53h-174.04c-18.13.144-29.818-1.545-48.719 9.538-14.896 9.099-26.051 24.044-29.861 41.942l-8.71 40.94c-.19.92-1.01 1.58-1.95 1.58h15c.94 0 1.76-.66 1.95-1.58l8.71-40.94c2.325-10.92 7.382-20.744 14.356-28.811 1.013-1.171 2.911-.762 3.399.708 1.833 5.517 4.419 10.694 7.645 15.403 6.23-5.5 14.38-8.78 23.18-8.78h189.04c7.657.081 15.69 2.379 23.15 8.83.002-.003.004-.006.006-.008 5.483 4.843 9.48 11.389 11.074 18.898l10.74 50.45c.284 1.337.716 2.613 1.252 3.83h-.022c2.898 6.377 9.661 12.083 18.33 12h15 18.03c7.29 0 13.67-5.06 15.11-12z"/></g><path d="m322.5 338.925h-133c-5.006 0-9.839-.736-14.399-2.104-20.595-6.183-33.601-25.287-33.601-47.895h-2 233-1c0 3.78.581 7.461-.214 11.001-5.012 22.321-24.951 38.998-48.786 38.998z" fill="#f8f7f7"/><path d="m372.5 288.925-113.812-5.493-119.188 5.493c0 22.96 15.48 42.3 36.57 48.17-9.447-8.491-15.63-20.522-16.472-34.006-.107-1.717 1.281-3.164 3.002-3.164h30.725c.832 0 1.619.352 2.187.96 15.253 16.319 36.947 26.54 60.988 26.54s45.734-10.221 60.988-26.54c.568-.608 1.356-.96 2.187-.96h51.605c.8-3.541 1.22-7.22 1.22-11z" fill="#e8e8e8"/><path d="m343.5 198.925-87 3.039-88-3.039c0-27.614 22.386-50 50-50h75c27.614-.001 50 22.385 50 50z" fill="#f8f7f7"/><path d="m326.81 198.925-70.31 3.039-70.31-3.039c14.87-23.14 40.83-38.5 70.31-38.5s55.44 15.36 70.31 38.5z" fill="#e8e8e8"/><g><path d="m106 200.877h-27.936v-62.702h26.17l1.766 14z" fill="#9e959e"/><path d="m106 135.898v16.277h-14c-2.209 0-4 1.791-4 4v42.75l-6.872 1.569-5.128-1.569v-63.027z" fill="#8e868e"/><path d="m173.043 119.922c0-2.489-1.022-4.354-5.492-6.498-12.886-6.18-42.312-10.499-76.55-10.499s-63.665 4.319-76.55 10.499c-4.471 2.144-5.451 4.511-5.451 7.001 0 9.665 35.884 16.495 82 16.495s82.043-7.333 82.043-16.998z" fill="#f8f7f7"/><path d="m174.5 120.425c0 9.66-37.38 17.5-83.5 17.5s-83.5-7.84-83.5-17.5c0-2.49 2.48-4.86 6.95-7 12.88 6.18 42.31 10.5 76.55 10.5s63.67-4.32 76.55-10.5c4.47 2.14 6.95 4.51 6.95 7z" fill="#e8e8e8"/></g><g><path d="m436 200.877h-27.936v-62.702h26.17l1.766 14z" fill="#9e959e"/><path d="m436 135.898v16.277h-14c-2.209 0-4 1.791-4 4v42.75l-6.872 1.569-5.128-1.569v-63.027z" fill="#8e868e"/><path d="m503.043 119.922c0-2.489-1.022-4.354-5.492-6.498-12.886-6.18-42.312-10.499-76.55-10.499s-63.665 4.319-76.55 10.499c-4.47 2.144-5.45 4.512-5.45 7.001 0 9.665 35.884 16.495 82 16.495s82.042-7.333 82.042-16.998z" fill="#f8f7f7"/><path d="m504.5 120.425c0 9.66-37.38 17.5-83.5 17.5s-83.5-7.84-83.5-17.5c0-2.49 2.48-4.86 6.95-7 12.88 6.18 42.31 10.5 76.55 10.5s63.67-4.32 76.55-10.5c4.47 2.14 6.95 4.51 6.95 7z" fill="#e8e8e8"/></g><path d="m453.5 288.925h-126.69l-64.379-6.154-76.241 6.154h-127.69c-1.37 0-2.708-.138-4-.4-9.129-1.853-15-10.924-15-20.6v-48c0-9.665 5.856-18.729 14.969-20.594 1.302-.266 2.65-.406 4.031-.406h127.69l73.379 2.819 67.241-2.819h126.69c11.046 0 20 8.954 20 20v2.5l-2.555 8.943 2.555 6.057v32.5c0 11.045-8.954 20-20 20z" fill="#9e959e"/><path d="m54.5 199.325v89.2c-9.13-1.85-16-9.92-16-19.6v-32.5l3.528-5.837-3.528-9.163v-2.5c0-9.68 6.87-17.75 16-19.6z" fill="#8e868e"/><path d="m340 243.925c0 16.56-4.84 32-13.19 45h-140.62c-8.35-13-13.19-28.44-13.19-45s4.84-32 13.19-45h140.62c8.35 13 13.19 28.439 13.19 45z" fill="#8e868e"/><circle cx="256.5" cy="243.925" fill="#f8f7f7" r="65"/><path d="m266.5 308.155c-3.26.51-6.6.77-10 .77-35.9 0-65-29.1-65-65s29.1-65 65-65c3.4 0 6.74.26 10 .77-31.15 4.8-55 31.73-55 64.23s23.85 59.429 55 64.23z" fill="#e8e8e8"/><path d="m291.5 243.925c0-16.914-11.997-31.025-27.946-34.289-2.278-.466-4.637.289-7.054.289-19.33 0-34 14.67-34 34s14.67 34 34 34c2.397 0 4.738.759 7 .3 15.976-3.243 28-17.368 28-34.3z" fill="#bae6ef"/><path d="m263.5 278.225c-2.26.46-4.6.7-7 .7-19.33 0-35-15.67-35-35s15.67-35 35-35c2.4 0 4.74.24 7 .7-15.98 3.25-28 17.37-28 34.3s12.02 31.05 28 34.3z" fill="#94d8e6"/><g><path d="m256.5 316.425c-39.977 0-72.5-32.523-72.5-72.5s32.523-72.5 72.5-72.5 72.5 32.523 72.5 72.5-32.523 72.5-72.5 72.5zm0-130c-31.706 0-57.5 25.794-57.5 57.5s25.794 57.5 57.5 57.5 57.5-25.794 57.5-57.5-25.794-57.5-57.5-57.5z" fill="#9e959e"/></g></g><g><path d="m140 251.436h-50c-4.142 0-7.5 3.358-7.5 7.5s3.358 7.5 7.5 7.5h50c4.142 0 7.5-3.358 7.5-7.5s-3.358-7.5-7.5-7.5z"/><path d="m364.75 258.936c0 4.142 3.357 7.5 7.5 7.5h50c4.143 0 7.5-3.358 7.5-7.5s-3.357-7.5-7.5-7.5h-50c-4.143 0-7.5 3.358-7.5 7.5z"/><path d="m256.5 201.436c-23.435 0-42.5 19.065-42.5 42.5s19.065 42.5 42.5 42.5 42.5-19.065 42.5-42.5-19.065-42.5-42.5-42.5zm0 70c-15.164 0-27.5-12.336-27.5-27.5s12.336-27.5 27.5-27.5c15.163 0 27.5 12.336 27.5 27.5s-12.337 27.5-27.5 27.5z"/><path d="m481.582 100.721c-16.262-3.408-37.776-5.285-60.582-5.285s-44.32 1.877-60.582 5.285c-13.058 2.737-30.418 7.758-30.418 19.715s17.36 16.978 30.418 19.715c10.771 2.257 23.854 3.838 38.082 4.651v46.634h-48.006c-3.694-28.162-27.863-50-56.994-50h-75c-29.053 0-53.287 21.867-56.993 50h-48.007v-46.634c14.228-.813 27.311-2.394 38.082-4.651 13.058-2.737 30.418-7.758 30.418-19.715 0-11.847-17.018-16.853-29.819-19.588-15.871-3.391-36.968-5.312-59.404-5.408-.011 0-.022 0-.033 0-4.127 0-7.482 3.337-7.5 7.468-.018 4.142 3.326 7.514 7.468 7.532 39.463.169 64.198 5.933 72.233 10-8.16 4.149-33.49 9.996-73.945 9.996-40.364 0-65.67-5.82-73.889-9.967 4.936-2.487 17.084-6.408 41.238-8.614 4.125-.376 7.164-4.026 6.787-8.151-.376-4.125-4.028-7.169-8.151-6.787-15.235 1.391-28.278 3.693-37.72 6.656-4.765 1.496-19.265 6.046-19.265 16.863 0 11.957 17.36 16.978 30.418 19.715 10.771 2.257 23.854 3.838 38.082 4.651v46.634h-10c-15.164 0-27.5 12.336-27.5 27.5v50c0 15.164 12.336 27.5 27.5 27.5h54.312c-6.312 5.721-11.632 12.541-15.654 20.24-1.918 3.671-.497 8.202 3.174 10.121 2.536 1.517 7.685.957 10.121-3.174 5.18-9.915 13.054-18.01 22.654-23.479 1.014 5.106 2.71 9.968 4.983 14.494-9.246 6.109-15.844 15.608-18.179 26.582l-10.733 50.446c-1.22 5.736-6.362 9.899-12.226 9.899h-33.452c-4.136 0-7.5-3.364-7.5-7.5s3.364-7.5 7.5-7.5h25.355c3.541 0 6.599-2.476 7.336-5.939l5.379-25.282c.862-4.052-1.724-8.035-5.775-8.897-4.055-.863-8.036 1.724-8.897 5.775l-4.116 19.343h-19.282c-12.407 0-22.5 10.093-22.5 22.5s10.093 22.5 22.5 22.5h33.452c12.9 0 24.212-9.159 26.897-21.777l10.733-50.446c1.52-7.148 5.85-13.337 11.922-17.292 10.544 11.88 25.91 19.388 42.995 19.388h78.521c4.143 0 7.5-3.358 7.5-7.5s-3.357-7.5-7.5-7.5h-78.52c-20.864 0-38.267-15.135-41.823-35h58.902c13.011 12.378 30.587 20 49.921 20s36.91-7.622 49.921-20h57.902c-3.556 19.866-20.956 35-41.823 35h-19.457c-4.143 0-7.5 3.358-7.5 7.5s3.357 7.5 7.5 7.5h19.457c17.085 0 32.449-7.504 42.992-19.38 6.069 3.96 10.408 10.157 11.925 17.285l10.732 50.446c2.686 12.619 13.998 21.777 26.898 21.777h33.453c12.406 0 22.5-10.093 22.5-22.5s-10.094-22.5-22.5-22.5h-19.284l-7.783-36.588c-3.179-14.939-11.172-28.41-22.333-38.54h54.4c15.163 0 27.5-12.336 27.5-27.5v-50c0-15.164-12.337-27.5-27.5-27.5h-10v-46.634c14.229-.813 27.311-2.394 38.082-4.651 13.058-2.739 30.418-7.76 30.418-19.717s-17.36-16.978-30.418-19.715zm-263.082 55.715h75c20.853 0 38.265 15.139 41.823 35h-28.902c-13.011-12.378-30.587-20-49.921-20s-36.91 7.622-49.921 20h-29.901c3.569-19.842 21.026-35 41.822-35zm-135-11.072c3.957.069 8.85.111 15 0v46.072h-15zm-25 61.072h135.973c-2.839 4.679-5.15 9.71-6.881 15h-141.592v-2.5c0-6.893 5.607-12.5 12.5-12.5zm-12.5 62.5v-32.5h138.387c-1.798 14.265 2.297 32.708 10.086 45h-135.973c-6.893 0-12.5-5.607-12.5-12.5zm153-25c0-31.706 25.794-57.5 57.5-57.5s57.5 25.794 57.5 57.5-25.794 57.5-57.5 57.5-57.5-25.794-57.5-57.5zm207.761 94.161 9.047 42.527c.736 3.463 3.795 5.939 7.336 5.939h25.356c4.136 0 7.5 3.364 7.5 7.5 0 4.135-3.364 7.5-7.5 7.5h-33.452c-5.864 0-11.006-4.163-12.227-9.898l-10.732-50.446c-2.329-10.945-8.935-20.467-18.177-26.582 2.271-4.522 3.966-9.379 4.98-14.481 14.113 8.103 24.469 21.967 27.869 37.941zm59.239-119.161v2.5h-50.021c-4.143 0-7.5 3.358-7.5 7.5s3.357 7.5 7.5 7.5h50.021v32.5c0 6.893-5.607 12.5-12.5 12.5h-134.973c7.584-12.457 11.817-28.855 10.086-45h52.472c4.143 0 7.5-3.358 7.5-7.5s-3.357-7.5-7.5-7.5h-55.677c-1.732-5.29-4.042-10.321-6.881-15h134.973c6.893 0 12.5 5.607 12.5 12.5zm-37.5-27.5h-15v-46.072c3.957.069 8.849.111 15 0zm-7.5-61c-40.47 0-65.803-5.851-73.953-10 8.15-4.149 33.483-10 73.953-10s65.803 5.851 73.953 10c-8.15 4.149-33.483 10-73.953 10z"/><circle cx="256.5" cy="243.689" r="7.501"/></g></g></svg>