<svg id="Capa_1" enable-background="new 0 0 512 512" height="512" viewBox="0 0 512 512" width="512" xmlns="http://www.w3.org/2000/svg"><g><g><g><path d="m8.5 143.447h495l1 15v276.553c0 13.807-11.193 25-25 25h-447c-3.174 0-6.209-.591-9.002-1.67-9.359-3.614-14.998-13.697-14.998-24.33z" fill="#f8f7f7"/></g><path d="m29.5 158.447h475v-16l-262.422-5.83-234.578 5.83v292.553c0 10.633 6.641 19.71 16 23.324v-293.877c0-3.314 2.686-6 6-6z" fill="#e8e8e8"/><path d="m67.5 404.99v-17.99l1-7.5-1-7.5v-174.01c0-8.284 6.716-15 15-15h347c8.284 0 15 6.716 15 15v174.01 7.5 7.5 17.99c0 8.284-6.716 15-15 15h-347c-8.284 0-15-6.716-15-15z" fill="#ffd163"/><path d="m180.5 289.5c0-10.635-6.917-19.654-16.498-22.804-2.36-.776-4.882-.196-7.502-.196-13.255 0-23 9.745-23 23s9.745 23 23 23c2.62 0 5.142.58 7.502-.196 9.581-3.15 16.498-12.169 16.498-22.804z" fill="#e3a76f"/><path d="m147.5 289.5c0-10.635 6.92-19.648 16.5-22.798-2.36-.776-4.88-1.202-7.5-1.202-13.255 0-24 10.745-24 24s10.745 24 24 24c2.62 0 5.14-.426 7.5-1.202-9.58-3.15-16.5-12.163-16.5-22.798z" fill="#d6995c"/><path d="m171 343.5h-30c-3.556 0-6.939.743-10.002 2.081-8.829 3.858-13.998 13.668-13.998 23.919l-1 10h80l-1-10c0-3.174.409-7.209-.67-10.002-3.614-9.359-12.697-15.998-23.33-15.998z" fill="#d6ccf2"/><path d="m131 349.5v-3.914c-8.828 3.858-15 12.663-15 22.914v11h80v-11c0-3.174-.598-6.207-1.676-9h-53.324c-5.523 0-10-4.477-10-10z" fill="#c8b8f4"/><path d="m408.5 338.5h-151c-2.761 0-5-2.239-5-5v-114c0-2.761 2.239-5 5-5l9-1h143c2.761 0 5 2.239 5 5v106l-1 9c0 2.761-2.239 5-5 5z" fill="#f8f7f7"/><path d="m271.5 324.5c-2.761 0-5-2.239-5-5v-106h-10c-2.761 0-5 2.239-5 5v116c0 2.761 2.239 5 5 5h153c2.761 0 5-2.239 5-5v-10z" fill="#e8e8e8"/><path d="m364.712 303.059-.615.265c-20.076 8.635-42.837 8.544-62.844-.25-2.139-.94-3.52-3.056-3.52-5.392v-17.938l1-13.533 33.887 9.885 34.654-9.885 1 13.445v17.992c.001 2.354-1.4 4.482-3.562 5.411z" fill="#9e959e"/><path d="m368.275 279.656v-13.43l-.026-.008-35.628 9.878-34.887-9.885v13.533l31.838 9.263c1.976.575 4.074.579 6.052.012z" fill="#8e868e"/><g><path d="m504.5 76.87v65.576h-497v-65.576c0-13.723 11.193-24.848 25-24.848h447c13.807.001 25 11.125 25 24.848z" fill="#855b51"/><g fill="#724d44"><path d="m251.87 125.5c-8.212 0-14.87-6.716-14.87-15s6.657-15 14.87-15h185.349c8.212 0 14.87 6.716 14.87 15s-6.657 15-14.87 15z"/><ellipse cx="173.318" cy="110.5" rx="14.947" ry="15"/><path d="m183.81 121.184 12.874-12.869-13.139 1.179z"/><path d="m163.041 99.608 12.562-12.516-2.693 10.408z"/><ellipse cx="113.399" cy="110.5" rx="14.947" ry="15"/><path d="m123.917 121.157 12.382-12.499-12.673.836z"/><path d="m103.122 99.608 12.371-12.459-2.502 10.351z"/><ellipse cx="53.726" cy="110.5" rx="14.947" ry="15"/><path d="m64.548 120.846 12.721-13.186-13.139 1.381z"/><path d="m43.449 99.608 11.622-12.038-1.753 9.93z"/></g><ellipse cx="186.297" cy="97.5" fill="#b3e59f" rx="14.947" ry="15"/><path d="m242.079 99.211 12.969-12.859-3.009 14.276z" fill="#724d44"/><path d="m447.919 120.915 13.08-13.179-10.131 3.381z" fill="#724d44"/><ellipse cx="126.31" cy="97.5" fill="#ffd163" rx="14.947" ry="15"/><ellipse cx="66.274" cy="97.5" fill="#dc4955" rx="14.947" ry="15"/><path d="m264.781 112.5c-8.212 0-14.87-6.716-14.87-15s6.657-15 14.87-15h185.349c8.212 0 14.87 6.716 14.87 15s-6.657 15-14.87 15z" fill="#f8f7f7"/></g><path d="m329.571 276.008-45.787-13.322c-2.073-.603-2.103-3.53-.042-4.175l45.62-14.277c2.106-.659 4.362-.664 6.47-.013l46.324 14.288c2.072.639 2.043 3.582-.042 4.18l-46.492 13.331c-1.977.567-4.075.563-6.051-.012z" fill="#9e959e"/></g><g><path d="m7.5 350.479c4.143 0 7.5-3.357 7.5-7.5v-193.032h76.937c4.143 0 7.5-3.357 7.5-7.5s-3.357-7.5-7.5-7.5h-76.937v-57.947c0-9.649 7.851-17.5 17.5-17.5h332.67c4.143 0 7.5-3.357 7.5-7.5s-3.357-7.5-7.5-7.5h-332.67c-17.921 0-32.5 14.579-32.5 32.5v265.979c0 4.142 3.357 7.5 7.5 7.5z"/><path d="m479.5 44.5h-79.181c-4.143 0-7.5 3.357-7.5 7.5s3.357 7.5 7.5 7.5h79.181c9.649 0 17.5 7.851 17.5 17.5v57.947h-370c-4.143 0-7.5 3.357-7.5 7.5s3.357 7.5 7.5 7.5h370v285.053c0 9.649-7.851 17.5-17.5 17.5h-447c-9.649 0-17.5-7.851-17.5-17.5v-56.915c0-4.143-3.357-7.5-7.5-7.5s-7.5 3.357-7.5 7.5v56.915c0 17.921 14.579 32.5 32.5 32.5h447c17.921 0 32.5-14.579 32.5-32.5v-358c0-17.921-14.579-32.5-32.5-32.5z"/><path d="m43.745 97.447c0 12.406 10.094 22.5 22.5 22.5s22.5-10.094 22.5-22.5-10.094-22.5-22.5-22.5-22.5 10.094-22.5 22.5zm30 0c0 4.136-3.364 7.5-7.5 7.5s-7.5-3.364-7.5-7.5 3.364-7.5 7.5-7.5 7.5 3.365 7.5 7.5z"/><path d="m148.745 97.447c0-12.406-10.094-22.5-22.5-22.5s-22.5 10.094-22.5 22.5 10.094 22.5 22.5 22.5 22.5-10.093 22.5-22.5zm-30 0c0-4.136 3.364-7.5 7.5-7.5s7.5 3.364 7.5 7.5-3.364 7.5-7.5 7.5-7.5-3.364-7.5-7.5z"/><path d="m163.745 97.447c0 12.406 10.094 22.5 22.5 22.5s22.5-10.094 22.5-22.5-10.094-22.5-22.5-22.5-22.5 10.094-22.5 22.5zm30 0c0 4.136-3.364 7.5-7.5 7.5s-7.5-3.364-7.5-7.5 3.364-7.5 7.5-7.5 7.5 3.365 7.5 7.5z"/><path d="m242.5 97.447c0 12.406 10.094 22.5 22.5 22.5h185c12.406 0 22.5-10.094 22.5-22.5s-10.094-22.5-22.5-22.5h-185c-12.406 0-22.5 10.094-22.5 22.5zm215 0c0 4.136-3.364 7.5-7.5 7.5h-185c-4.136 0-7.5-3.364-7.5-7.5s3.364-7.5 7.5-7.5h185c4.136 0 7.5 3.365 7.5 7.5z"/><path d="m60.111 197.99v207c0 12.406 10.094 22.5 22.5 22.5h347c12.406 0 22.5-10.094 22.5-22.5v-207c0-12.406-10.094-22.5-22.5-22.5h-347c-12.406 0-22.5 10.094-22.5 22.5zm369.5 214.5h-347c-4.136 0-7.5-3.364-7.5-7.5v-17.99h245.889v2.5c0 4.143 3.357 7.5 7.5 7.5s7.5-3.357 7.5-7.5v-2.5h101.111v17.99c0 4.136-3.364 7.5-7.5 7.5zm-241.111-40.49h-65v-3.5c0-9.649 7.851-17.5 17.5-17.5h30c9.649 0 17.5 7.851 17.5 17.5zm248.611-174.01v174.01h-101.111v-2.5c0-4.143-3.357-7.5-7.5-7.5s-7.5 3.357-7.5 7.5v2.5h-117.5v-3.5c0-17.921-14.579-32.5-32.5-32.5h-30c-17.921 0-32.5 14.579-32.5 32.5v3.5h-33.389v-174.01c0-4.136 3.364-7.5 7.5-7.5h347c4.136 0 7.5 3.364 7.5 7.5z"/><path d="m156.5 321c17.369 0 31.5-14.131 31.5-31.5s-14.131-31.5-31.5-31.5-31.5 14.131-31.5 31.5 14.131 31.5 31.5 31.5zm0-48c9.098 0 16.5 7.402 16.5 16.5s-7.402 16.5-16.5 16.5-16.5-7.402-16.5-16.5 7.402-16.5 16.5-16.5z"/><path d="m256.5 347h153c6.893 0 12.5-5.607 12.5-12.5v-29.543c0-4.143-3.357-7.5-7.5-7.5s-7.5 3.357-7.5 7.5v27.043h-148v-111h148v48.894c0 4.143 3.357 7.5 7.5 7.5s7.5-3.357 7.5-7.5v-51.394c0-6.893-5.607-12.5-12.5-12.5h-153c-6.893 0-12.5 5.607-12.5 12.5v116c0 6.893 5.607 12.5 12.5 12.5z"/><path d="m298.235 309.94c11.023 4.846 22.875 7.27 34.729 7.27 10.524.101 24.085-2.539 34.71-7.261 4.921-2.115 8.101-6.943 8.101-12.3v-25.341l8.405-2.41c4.151-1.19 6.97-4.891 7.013-9.208.044-4.318-2.699-8.075-6.826-9.35l-46.323-14.288c-3.574-1.103-7.352-1.096-10.922.023l-45.619 14.276c-4.104 1.284-6.833 5.037-6.789 9.338.043 4.301 2.848 7.997 6.975 9.196l8.545 2.486v25.31c-.001 5.31 3.14 10.122 8.001 12.259zm62.54-13.353c-17.693 7.496-37.853 7.499-55.542.036v-19.886l22.242 6.472c1.682.489 3.411.734 5.142.734 1.706 0 3.413-.238 5.073-.715l23.085-6.619zm-29.171-45.196c.66-.205 1.358-.208 2.019-.004l29.242 9.02-29.309 8.404c-.619.178-1.271.176-1.888-.004-.001 0-.001 0-.001 0l-28.871-8.4z"/></g></g></svg>