<svg id="Capa_1" enable-background="new 0 0 512.048 512.048" height="512" viewBox="0 0 512.048 512.048" width="512" xmlns="http://www.w3.org/2000/svg"><g><g><g fill="#df646e"><path d="m272.848 341.689h60.665l65.165 145.97c3.573 8.003-4.146 16.404-12.423 13.519l-29.4-10.247c-3.727-1.299-7.816-1.068-11.373.641l-20.656 9.933-3.814 1.245c-5.74 2.759-12.558-.513-13.998-6.716z"/><path d="m241.008 341.547h-61.665l-64.973 145.537c-3.601 8.067 3.262 16.5 11.561 13.47l1.704-.622 24.883-9.084c3.666-1.338 7.71-1.187 11.266.422l27.384 12.387c5.716 2.586 12.37-.702 13.789-6.813z"/></g><g><g><path d="m288.042 342.964-17.193-1.275 35.985 155.014c1.44 6.204 8.258 9.475 13.998 6.716l3.996-1.914z" fill="#dc4955"/><path d="m376.856 490.931c-3.727-1.299-7.816-1.068-11.373.641l-2.853 1.371 23.626 8.235c4.356 1.518 8.556-.092 11.038-3.124z" fill="#df646e"/></g><g><path d="m196.342 341.547h-18l-64.972 145.537c-3.601 8.067 4.262 16.5 12.561 13.47z" fill="#dc4955"/></g></g><path d="m433.264 214.955c-.504-1.221-.504-2.593 0-3.814l17.453-42.267c5.245-12.702.491-27.332-11.218-34.525l-38.964-23.936c-1.126-.692-1.932-1.802-2.242-3.086l-10.724-44.454c-3.223-13.359-15.668-22.401-29.369-21.338l-45.592 3.538c-1.318.102-2.622-.322-3.628-1.179l-34.805-29.66c-10.459-8.913-25.843-8.913-36.302 0l-34.805 29.66c-1.006.857-2.31 1.281-3.628 1.179l-45.592-3.538c-13.701-1.063-26.146 7.979-29.369 21.338l-10.724 44.454c-.31 1.285-1.116 2.395-2.242 3.086l-38.964 23.936c-11.709 7.193-16.463 21.824-11.218 34.525l17.453 42.267c.504 1.221.504 2.593 0 3.814l-17.453 42.267c-5.245 12.702-.491 27.332 11.218 34.525l38.964 23.936c1.126.692 1.932 1.801 2.242 3.086l10.724 44.454c3.223 13.359 15.668 22.401 29.369 21.338l45.592-3.538c1.318-.102 2.622.322 3.628 1.179l34.805 29.66c10.459 8.913 25.843 8.913 36.302 0l34.805-29.66c1.006-.857 2.31-1.281 3.628-1.179l45.592 3.538c13.701 1.063 26.146-7.979 29.369-21.338l10.724-44.454c.31-1.285 1.116-2.394 2.242-3.086l38.964-23.936c11.709-7.193 16.463-21.824 11.218-34.526z" fill="#ffd163"/><path d="m145.724 384.017c-10.25-2.24-18.67-10.15-21.25-20.79l-10.72-44.46c-.31-1.28-1.12-2.39-2.24-3.08l-38.97-23.94c-11.7-7.19-16.46-21.82-11.21-34.53l17.45-42.26c.5-1.22.5-2.6 0-3.82l-17.45-42.26c-5.25-12.71-.49-27.34 11.21-34.53l38.97-23.94c1.12-.69 1.93-1.8 2.24-3.08l10.72-44.46c2.48-10.24 10.38-17.96 20.11-20.51l-16.25 68.48c-1.25 5.18-4.43 9.56-8.97 12.36l-38.96 23.93c-5.47 3.36-7.66 10.09-5.21 16.02l17.45 42.27c2.04 4.92 2.04 10.34 0 15.26l-17.45 42.27c-2.45 5.93-.26 12.66 5.21 16.02l38.97 23.94c4.53 2.79 7.71 7.17 8.96 12.35z" fill="#ffb65f"/><path d="m405.961 220.677c-2.018-4.886-2.018-10.372 0-15.258l17.97-43.519c.937-2.268.088-4.881-2.003-6.165l-40.118-24.645c-4.504-2.767-7.729-7.205-8.969-12.344l-11.042-45.77c-.575-2.385-2.798-4-5.244-3.81l-46.942 3.643c-5.27.409-10.488-1.286-14.512-4.715l-35.836-30.539c-1.868-1.592-4.615-1.592-6.483 0l-35.836 30.539c-4.023 3.429-9.241 5.124-14.512 4.715l-46.942-3.643c-2.447-.19-4.669 1.425-5.245 3.81l-11.042 45.77c-1.24 5.139-4.464 9.577-8.969 12.344l-40.118 24.645c-2.091 1.285-2.94 3.897-2.003 6.165l17.97 43.519c2.018 4.886 2.018 10.372 0 15.258l-17.97 43.519c-.937 2.268-.088 4.881 2.003 6.165l40.118 24.645c4.504 2.767 7.729 7.205 8.969 12.344l11.042 45.77c.575 2.385 2.798 4 5.244 3.81l46.942-3.643c5.27-.409 10.488 1.286 14.512 4.715l29.348 25.01c5.606 4.778 13.852 4.778 19.458 0l29.348-25.01c4.023-3.429 9.241-5.124 14.512-4.715l46.942 3.643c2.447.19 4.669-1.425 5.245-3.811l11.042-45.77c1.24-5.139 4.464-9.577 8.969-12.344l40.118-24.645c2.091-1.285 2.94-3.897 2.003-6.165z" fill="#ffb65f"/><path d="m164.614 356.217-.02.01v-.01z" fill="#ff9350"/><g><path d="m203.649 270.664s1.399 2.529 4.114 5.71c.536.628 1.165 1.344 1.835 2 5.839 5.712 16.722 12 32.276 12h78.412c7.639 0 14.957-4.651 16.004-12 .093-.654.145-1.322.151-2 .001-.052.001-.104.001-.156 0-8.371-6.786-15.156-15.156-15.156h-7.426l17.048-1.02c7.665-.009 15.01-4.658 16.117-12.017.112-.745.17-1.508.171-2.284 0-.004 0-.006 0-.007 0-8.466-6.863-15.328-15.328-15.328h-18.008l21.351-1.005c7.606-.007 14.885-4.674 15.856-12.014.086-.649.13-1.312.13-1.985v-.324c0-8.466-6.863-15.328-15.328-15.328h-22.009l17.337-1c7.606 0 14.89-4.662 15.867-12.001.087-.654.132-1.321.132-1.999v-.657c0-8.284-6.716-15-15-15h-34.604c-16.061 0-27.731-14.411-24.772-30.273l3.622-19.412c1.936-10.378-2.298-20.776-10.54-26.865-1.281-.946-2.034-1.238-2.034-1.238-4.5-2.215-11.003-.222-12.609 4.548l-17.308 51.435c-4.976 14.787-16.485 30.166-30.302 37.301l-1.929 42.291z" fill="#f2d1a5"/><g><path d="m243.951 153.286 19.916-61.983-2.09-1.272c-4.5-2.215-9.913.05-11.518 4.82l-17.308 51.435c-4.976 14.787-15.485 30.166-29.302 37.301l-.992 7.418 1.011 6.352c21.023-9.853 33.718-25.054 40.283-44.071z" fill="#f2bb88"/></g><path d="m202.649 279.664c0 5.915-4.795 10.709-10.709 10.709h-11.746c-5.915 0-10.709-4.795-10.709-10.709v-98.864c0-5.915 4.795-10.709 10.709-10.709l1.291-1h11.456c5.915 0 10.709 4.795 10.709 10.709v98.573z" fill="#f8f7f7"/><path d="m184.484 278.374c-1.657 0-3-1.343-3-3v-106.283h-2.291c-5.915 0-10.709 4.795-10.709 10.709v100.864c0 5.915 4.795 10.709 10.709 10.709h13.747c5.915 0 10.709-4.795 10.709-10.709v-2.291h-19.165z" fill="#e8e8e8"/><g fill="#f2bb88"><path d="m310.86 196.747c0 1.657 1.343 3 3 3h18.018c7.901 0 14.06-5.359 15.185-13h-26.203c-5.523 0-10 4.477-10 10z"/><path d="m310.86 227.385c0 1.657 1.343 3 3 3h22.385c8.186-.199 13.907-6.125 14.822-13h-30.207c-5.523 0-10 4.478-10 10z"/><path d="m310.86 258.024c0 1.657 1.343 3 3 3h18.747c8.023-.384 13.481-6.5 14.418-13h-26.165c-5.523 0-10 4.477-10 10z"/><path d="m336.29 278.374h-126.691c5.206 6.1 13.936 13 31.276 13h80.412c8.317 0 13.992-6.327 15.003-13z"/></g></g></g><g><g><path d="m440.591 213.047 17.059-41.313c6.688-16.194.706-34.606-14.225-43.778l-38.083-23.395-10.482-43.448c-4.11-17.034-19.78-28.414-37.24-27.057l-44.562 3.458-34.018-28.99c-13.336-11.365-32.695-11.365-46.032 0l-34.018 28.99-44.561-3.458c-17.47-1.349-33.131 10.023-37.241 27.057l-10.481 43.449-38.083 23.395c-14.93 9.172-20.913 27.584-14.225 43.778l17.059 41.313-17.059 41.312c-6.688 16.194-.706 34.606 14.225 43.778l38.083 23.395 10.481 43.449c3.568 14.788 15.85 25.307 30.452 26.939l-41.119 92.107c-2.916 6.531-1.696 13.838 3.182 19.068s12.081 6.958 18.799 4.503l26.586-9.704c1.835-.673 3.826-.596 5.604.208l27.384 12.388c2.297 1.039 4.746 1.558 7.192 1.558 2.644 0 5.285-.605 7.727-1.812 4.702-2.324 8.08-6.587 9.266-11.696l6.056-26.086c.937-4.035-1.575-8.065-5.61-9.002-4.034-.942-8.065 1.576-9.001 5.609l-6.056 26.086c-.228.981-.912 1.449-1.3 1.641s-1.176.448-2.092.036l-27.384-12.388c-5.375-2.433-11.388-2.656-16.929-.633l-26.587 9.705c-1.354.492-2.264-.19-2.685-.643-.422-.453-1.042-1.408-.455-2.725l44.14-98.874 23.117-1.794-14.567 43.701c-1.31 3.93.814 8.178 4.744 9.487 2.96.906 7.357-.001 9.487-4.743l15.43-46.289 15.956 13.598-6.928 29.844c-.937 4.035 1.575 8.065 5.61 9.002 3.122.733 7.514-.942 9.001-5.609l5.173-22.281c5.739 5.599 16.036 10.07 24.643 9.911 7.693.117 17.716-3.429 24.456-9.751l19.048 82.055c1.204 5.186 4.647 9.481 9.448 11.784 2.398 1.151 4.973 1.727 7.547 1.727 2.578 0 5.156-.577 7.557-1.731l24.651-11.846c1.782-.858 3.791-.97 5.657-.319l29.399 10.246c6.701 2.334 13.845.541 18.646-4.684s5.986-12.495 3.094-18.975l-14.837-33.234c-1.689-3.782-6.125-5.481-9.906-3.791-3.782 1.688-5.479 6.124-3.791 9.906l14.837 33.234c.583 1.305-.026 2.258-.442 2.71-.415.452-1.314 1.141-2.664.669l-29.4-10.246c-5.638-1.965-11.707-1.624-17.09.963l-24.652 11.847c-.92.442-1.722.19-2.118.001-.396-.19-1.094-.657-1.325-1.653l-20.804-89.618 17.701-15.085 15.872 47.616c1.048 3.143 3.974 5.13 7.114 5.13.786 0 1.586-.125 2.373-.387 3.93-1.31 6.053-5.558 4.744-9.487l-14.514-43.542 20.799 1.614 15.265 34.194c1.245 2.789 3.984 4.444 6.853 4.444 1.021 0 2.06-.21 3.053-.653 3.783-1.688 5.48-6.124 3.792-9.906l-12.221-27.376c14.712-1.541 27.107-12.099 30.694-26.969l10.481-43.449 38.083-23.395c14.93-9.172 20.913-27.584 14.225-43.778zm-5.018 72.31-38.967 23.938c-2.833 1.742-4.824 4.481-5.604 7.716l-10.724 44.454c-2.373 9.833-11.408 16.396-21.498 15.619l-45.595-3.538c-3.32-.258-6.536.791-9.069 2.948l-34.805 29.66c-7.697 6.562-18.874 6.561-26.573.001l-34.808-29.663c-1.637-1.384-5.292-3.211-9.07-2.946l-45.592 3.538c-10.085.78-19.126-5.785-21.498-15.619l-10.725-44.455c-.78-3.233-2.771-5.973-5.607-7.717l-38.964-23.936c-8.619-5.295-12.073-15.923-8.212-25.272l17.454-42.268c1.27-3.076 1.27-6.463 0-9.539l-17.453-42.268c-3.861-9.35-.407-19.978 8.212-25.272l38.967-23.938c2.833-1.742 4.824-4.481 5.604-7.716l10.724-44.454c2.372-9.833 11.406-16.399 21.498-15.619l45.595 3.538c3.323.263 6.536-.79 9.069-2.948l34.805-29.66c7.698-6.561 18.875-6.56 26.573-.001l34.808 29.663c2.532 2.155 5.756 3.198 9.07 2.946l45.592-3.538c10.09-.768 19.125 5.786 21.498 15.619l10.725 44.455c.78 3.233 2.771 5.973 5.607 7.717l38.964 23.936c8.619 5.295 12.073 15.923 8.212 25.272l-17.454 42.268c-1.27 3.076-1.27 6.463 0 9.539l17.454 42.268c3.86 9.349.407 19.977-8.213 25.272z"/><path d="m412.893 217.814c-1.269-3.074-1.269-6.459 0-9.533l17.97-43.519c2.356-5.705.249-12.189-5.009-15.419l-40.118-24.645c-2.834-1.741-4.824-4.48-5.604-7.713l-11.042-45.771c-1.448-6-6.97-10.015-13.115-9.527l-46.941 3.643c-3.321.254-6.537-.79-9.068-2.946l-35.836-30.539c-4.697-4.004-11.516-4.005-16.212 0l-35.836 30.538c-2.531 2.157-5.751 3.203-9.067 2.946l-46.94-3.643c-6.156-.467-11.669 3.527-13.118 9.528l-11.042 45.771c-.78 3.232-2.77 5.972-5.604 7.713l-40.118 24.645c-5.259 3.229-7.366 9.714-5.01 15.418l17.97 43.52c1.269 3.074 1.269 6.459 0 9.533l-17.97 43.519c-2.356 5.705-.249 12.189 5.009 15.419l40.118 24.645c2.834 1.741 4.824 4.48 5.604 7.713l11.042 45.771c1.448 6 6.975 10.022 13.115 9.527l46.941-3.643c3.323-.255 6.537.791 9.068 2.946l35.836 30.538c2.349 2.002 5.227 3.003 8.106 3.003 2.878-.001 5.758-1.001 8.106-3.003l35.836-30.538c2.531-2.156 5.754-3.203 9.067-2.946l46.94 3.643c6.15.457 11.669-3.528 13.118-9.528l11.042-45.771c.78-3.232 2.77-5.972 5.604-7.713l40.118-24.645c5.259-3.229 7.366-9.714 5.01-15.418zm4.106-58.778-.003.009c0-.003.002-.006.003-.009zm-39.115 129.579c-6.237 3.832-10.617 9.861-12.333 16.977l-10.541 43.696-44.817-3.478c-7.297-.57-14.385 1.738-19.956 6.485l-34.212 29.154-34.212-29.154c-4.55-3.769-12.293-7.231-19.957-6.485l-44.816 3.478-10.541-43.696c-1.717-7.115-6.097-13.145-12.334-16.977l-38.301-23.528 17.156-41.548c2.794-6.766 2.794-14.217 0-20.982l-17.156-41.548 38.301-23.528c6.237-3.832 10.617-9.861 12.333-16.977l10.541-43.696 44.817 3.478c7.296.572 14.385-1.737 19.956-6.485l34.212-29.154 34.212 29.154c5.571 4.747 12.661 7.051 19.957 6.485l44.816-3.478 10.541 43.696c1.717 7.115 6.097 13.145 12.334 16.977l38.301 23.528-17.156 41.548c-2.794 6.766-2.794 14.217 0 20.982l17.156 41.548z"/><path d="m350.513 197.577c2.634-3.722 4.183-8.262 4.183-13.157 0-12.588-10.241-22.828-22.828-22.828h-34.276c-9.983.166-19.654-9.615-17.399-21.397l3.622-19.412c2.844-15.239-4.856-30.651-18.724-37.479-4.078-2.009-8.825-2.158-13.023-.412-4.209 1.751-7.459 5.238-8.917 9.568l-7.437 22.101c-1.321 3.926.791 8.179 4.716 9.5 3.927 1.32 8.18-.79 9.5-4.717l7.436-22.1c.081-.24.237-.41.462-.504.323-.135.558-.017.636.021 7.858 3.869 12.219 12.615 10.604 21.271l-3.621 19.411c-4.026 18.82 11.385 39.571 32.145 39.149h34.276c4.316 0 7.828 3.512 7.828 7.828s-3.512 7.828-7.828 7.828h-21.008c-4.142 0-7.5 3.357-7.5 7.5s3.358 7.5 7.5 7.5h25.009c4.316 0 7.828 3.512 7.828 7.828 0 4.317-3.512 7.829-7.828 7.829h-25.009c-4.142 0-7.5 3.357-7.5 7.5s3.358 7.5 7.5 7.5h21.008c4.316 0 7.828 3.512 7.828 7.828s-3.512 7.828-7.828 7.828h-21.008c-4.142 0-7.5 3.357-7.5 7.5s3.358 7.5 7.5 7.5h10.426c4.222 0 7.656 3.435 7.656 7.656s-3.435 7.656-7.656 7.656h-80.412c-18.14 0-27.22-11.584-29.726-15.411v-80.574c11.438-7.319 21.241-19.748 27.292-34.824 1.543-3.844-.322-8.211-4.166-9.754-3.844-1.546-8.211.321-9.754 4.166-3.753 9.35-9.343 17.544-15.745 23.37-3.132-5.517-9.052-9.254-15.837-9.254h-13.747c-10.041 0-18.209 8.169-18.209 18.209v40.184c0 4.143 3.358 7.5 7.5 7.5s7.5-3.357 7.5-7.5v-40.185c0-1.77 1.44-3.209 3.209-3.209h13.747c1.77 0 3.209 1.439 3.209 3.209v100.864c0 1.77-1.44 3.209-3.209 3.209h-13.747c-1.77 0-3.209-1.439-3.209-3.209v-25.489c0-4.143-3.358-7.5-7.5-7.5s-7.5 3.357-7.5 7.5v25.489c0 10.04 8.169 18.209 18.209 18.209h13.747c7.304 0 13.6-4.333 16.499-10.554 7.042 5.52 17.324 10.554 31.436 10.554h80.412c12.493 0 22.656-10.163 22.656-22.656 0-3.536-.815-6.887-2.266-9.873 7.693-3.675 13.02-11.532 13.02-20.611 0-4.896-1.549-9.437-4.183-13.157 5-4.191 8.184-10.48 8.184-17.5.002-7.019-3.183-13.309-8.183-17.499z"/></g></g></g></svg>