<svg id="Capa_1" enable-background="new 0 0 512 512" height="512" viewBox="0 0 512 512" width="512" xmlns="http://www.w3.org/2000/svg"><g><g><path d="m131.594 127.856-32.798-27.912c-.73-.622-1.501-1.128-2.295-1.525-7.047-3.527-14.097 3.341-14.097 11.848l-.11 71.234h51.963l1.243-16v-29.19c0-3.255-1.428-6.345-3.906-8.455z" fill="#df646e"/><path d="m135.5 165.5v16l-28.766 2.197-26.234-2.197v-73.1c0-8.51 8.95-13.51 16-9.98v64.08c0 1.657 1.343 3 3 3z" fill="#dc4955"/><path d="m139.5 181.5h-56l-6 1c-3.866 0-7 3.134-7 7v23h75l1-14v-10c0-3.866-3.134-7-7-7z" fill="#f8f7f7"/><path d="m146.5 198.5v14l-38.5 3.784-38.5-3.784v-24c0-3.866 3.134-7 7-7h7v14c0 1.657 1.343 3 3 3z" fill="#e8e8e8"/><path d="m155.5 500.653-84.986.659c-3.866 0-7-3.134-7-7l-2.422-273.78c0-3.866 3.134-7 7-7l7.408-1.032h73c3.337 0 6.128 2.335 6.83 5.46.111.495-11.646 117.33-11.646 117.859l11.816 83.401v9.28l-1.757 4.665z" fill="#d6ccf2"/><path d="m155.5 219.5v199.72c-25.93-25.74-42-61.39-42-100.72 0-39.25 16-74.82 41.83-100.54.11.49.17 1.01.17 1.54z" fill="#c8b8f4"/><path d="m149.5 428.5c-19.85 0-36 16.15-36 36 .1 5.154.196 17.204.232 21.99.008 1.11-.89 2.01-2 2.01h-32.232c-2.209 0-4-1.791-4-4v-272h-8c-3.866 0-7 3.134-7 7v278c0 3.866 3.134 7 7 7h52.09 29.91l6-1.289v-14.711-60z" fill="#c8b8f4"/><path d="m451.5 60c0-41.697-29.101-52.5-65-52.5-8.318 0-16.272.58-23.583 1.99-24.24 4.675-39.495 19.282-39.495 51.317 0 31.628 39.881 91.703 39.881 91.703l24.688 1.517 23.009-1.527s40.5-60.872 40.5-92.5z" fill="#d6ccf2"/><path d="m380 152.5-12.486 1.528-5.514-1.528s-40.5-60.87-40.5-92.5c0-32.38 17.55-46.13 42.2-50.66-17.59 7.07-29.2 21.74-29.2 49.31 0 28.82 36.862 81.712 45.5 93.85z" fill="#c8b8f4"/><path d="m386.174 502.743c-13.667 0-22.148-9.241-22.624-22.899l-9.826-255.336c-.163-4.688.113-9.38.827-14.016l8.669-56.465 16.78-1.527h31l8.846 57.501-.232 8.513 1.124 6.487-8.886 255.015c-.111 3.172-.8 6.192-1.965 8.958-2.406 5.713-8.299 10.076-13.845 12.75-3.331 1.605-5.93 1.019-9.868 1.019z" fill="#e8e8e8"/><path d="m399.485 488.942c-1.101-.005-1.985-.899-1.985-2v-22.442c0-13.696-7.692-25.624-18.98-31.707-.634-.341-1.05-.98-1.075-1.7l-1.295-37.168c-.014-.39.089-.773.294-1.105 13.345-21.63 21.055-47.088 21.055-74.32 0-30.754-9.838-59.255-26.52-82.528-.227-.317-.356-.692-.37-1.081l-.36-10.34c-.17-4.69.11-9.38.82-14.02l8.931-58.031h-18l-8.848 57.5-.046 6.615-.84 8.385 8.884 255.01c.47 13.66 11.68 24.49 25.35 24.49 2.413 0 6.679-.815 10-2.104.339-.113.674-.24 1-.396 5.55-2.68 9.98-7.31 12.38-13.03-3.498-.004-6.998-.014-10.395-.028z" fill="#d8d8d8"/><path d="m381.5 318.5c0-69.588-56.412-126-126-126-18.319 0-35.741 5.745-51.445 12.775-43.951 19.675-71.615 62.046-71.615 113.315 0 60.044 40.321 108.164 95.945 120.795 8.841 2.008 17.571 5.115 27.115 5.115 69.588 0 126-56.412 126-126z" fill="#f8f7f7"/><path d="m261.99 444.34c-2.15.1-4.31.16-6.49.16-69.59 0-126-56.41-126-126s56.41-126 126-126c2.18 0 4.34.06 6.49.16-66.56 3.39-119.49 58.43-119.49 125.84s52.93 122.45 119.49 125.84z" fill="#e8e8e8"/><path d="m351.5 318.5c0-49.819-37.949-90.775-86.516-95.537-3.12-.306-6.591.478-9.791.478-53.019 0-92.862 42.04-92.862 95.06s40.15 95.661 93.17 95.661c3.291 0 6.543.174 9.748-.149 48.44-4.887 86.251-45.784 86.251-95.513z" fill="#bae6ef"/><path d="m265.5 413.98c-3.29.35-6.62.52-10 .52-53.02 0-96-42.98-96-96s42.98-96 96-96c3.38 0 6.71.17 10 .52-48.32 4.99-86 45.84-86 95.48s37.68 90.49 86 95.48z" fill="#94d8e6"/><path d="m361.5 444.5h-56l-52.784 3.638-47.216-3.638h-56c-1.37 0-2.708.138-4 .4-9.129 1.853-14.546 11.924-14.546 21.6l.834 16.243c0 11.046 8.954 20 20 20h206.616c9.665 0 20.825-5.099 22.69-14.212.266-1.302.406-2.65.406-4.031v-20c0-11.046-8.954-20-20-20z" fill="#f8f7f7"/><path d="m381.1 488.5c-1.85 9.13-9.92 16-19.6 16h-212c-11.046 0-20-8.954-20-20v-20c0-9.68 6.87-17.75 16-19.6v35.6c0 4.418 3.582 8 8 8z" fill="#e8e8e8"/><path d="m295.5 474.5h-80c-5.523 0-10-4.477-10-10v-20h100v20c0 5.523-4.477 10-10 10z" fill="#ffd163"/></g><g><path d="m418.851 154.207c8-12.424 40.149-64.219 40.149-94.207 0-21.945-7.52-38.132-22.352-48.109-11.894-8.001-28.297-11.891-50.148-11.891s-38.254 3.89-50.148 11.891c-14.832 9.977-22.352 26.164-22.352 48.109 0 7.188 1.793 16.045 5.329 26.322 1.348 3.916 5.615 6.002 9.532 4.651 3.917-1.348 6-5.615 4.652-9.532-2.994-8.703-4.513-15.917-4.513-21.441 0-31.121 17.734-45 57.5-45s57.5 13.879 57.5 45c0 21.647-23.177 63.337-37.061 85h-40.873c-3.687-5.778-11.31-18.101-18.798-32.509-1.909-3.677-6.438-5.108-10.113-3.197-3.675 1.91-5.106 6.438-3.196 10.113 8.261 15.897 16.7 29.371 20.191 34.799l-8.49 55.185c-.505 3.281-.79 6.604-.896 9.931-23.668-21.323-54.975-34.322-89.264-34.322-9.095 0-18.182.921-27.011 2.735-4.057.835-6.67 4.8-5.835 8.857s4.797 6.674 8.857 5.836c7.836-1.611 15.907-2.429 23.989-2.429 65.341 0 118.5 53.159 118.5 118.5s-53.159 118.501-118.5 118.501-118.5-53.159-118.5-118.5c0-44.357 24.459-84.655 63.833-105.167 3.673-1.913 5.1-6.443 3.186-10.116-1.914-3.674-6.442-5.103-10.117-3.187-11.496 5.989-21.851 13.486-30.903 22.162v-2.692c0-6.048-3.726-11.238-9-13.409v-17.591c0-6.786-4.693-12.483-11-14.055v-38.135c0-5.462-2.386-10.625-6.545-14.166l-32.798-27.913c-5.588-4.755-13.198-5.796-19.858-2.72-6.66 3.079-10.798 9.549-10.798 16.886v66.048c-6.307 1.572-11 7.269-11 14.055v17.591c-5.274 2.171-9 7.361-9 13.409v278c0 7.995 6.505 14.5 14.5 14.5 70.146-.001 247.334 0 319 0 17.8 0 32.229-13.935 32.849-31.725l2.826-81.103c.144-4.14-3.095-7.612-7.234-7.756-.089-.004-.177-.005-.266-.005-4.021 0-7.35 3.188-7.491 7.239l-2.826 81.103c-.337 9.672-8.181 17.247-17.858 17.247h-.518c1.924-3.753 3.018-8 3.018-12.5v-20c0-13.218-9.376-24.286-21.826-26.908l-1.524-43.753c14.722-21.457 23.35-47.408 23.35-75.339 0-31.256-10.801-60.034-28.861-82.807l-.373-10.693h53.468l-4.823 138.424c-.144 4.14 3.095 7.612 7.234 7.756.089.004.177.005.266.005 4.021 0 7.35-3.188 7.491-7.239l4.848-139.137c.179-5.144-.126-10.331-.91-15.418zm-224.782 282.793h-31.069v-22.334c9.195 8.847 19.651 16.391 31.069 22.334zm-117.069-248h62v16h-62zm13.091-83.871c.628-.291 2.261-.821 3.844.526l32.797 27.912c.806.686 1.268 1.686 1.268 2.743v37.69h-40v-65.603c0-2.078 1.462-2.978 2.091-3.268zm-22.091 114.871h80v19.256c-16.613 22.518-26 50.098-26 79.244 0 29.567 9.668 56.915 26 79.062v39.48c-14.469.782-26 12.798-26 27.458v20c0 4.5 1.093 8.747 3.018 12.5h-57.018zm306 244.5v20c0 6.893-5.607 12.5-12.5 12.5h-212c-6.893 0-12.5-5.607-12.5-12.5v-20c0-6.893 5.607-12.5 12.5-12.5h48.5v12.5c0 9.649 7.851 17.5 17.5 17.5h22.202c4.142 0 7.5-3.357 7.5-7.5s-3.358-7.5-7.5-7.5h-22.202c-1.378 0-2.5-1.121-2.5-2.5v-12.5h85v12.5c0 1.379-1.122 2.5-2.5 2.5h-22.947c-4.142 0-7.5 3.357-7.5 7.5s3.358 7.5 7.5 7.5h22.947c9.649 0 17.5-7.851 17.5-17.5v-12.5h48.5c6.893 0 12.5 5.607 12.5 12.5zm-21.856-27.5h-35.213c12.788-6.656 24.367-15.323 34.322-25.577zm16.291-277h36.131l7.693 50h-51.516z"/><path d="m152 318.5c0 57.07 46.43 103.5 103.5 103.5s103.5-46.43 103.5-103.5-46.43-103.5-103.5-103.5-103.5 46.43-103.5 103.5zm103.5-88.5c48.799 0 88.5 39.701 88.5 88.5s-39.701 88.5-88.5 88.5-88.5-39.701-88.5-88.5 39.701-88.5 88.5-88.5z"/><path d="m93.5 364.142c-4.142 0-7.5 3.357-7.5 7.5v36.858c0 4.143 3.358 7.5 7.5 7.5s7.5-3.357 7.5-7.5v-36.858c0-4.143-3.358-7.5-7.5-7.5z"/><path d="m93.5 254c-4.142 0-7.5 3.357-7.5 7.5v80.142c0 4.143 3.358 7.5 7.5 7.5s7.5-3.357 7.5-7.5v-80.142c0-4.143-3.358-7.5-7.5-7.5z"/></g></g></svg>