<svg id="Capa_1" enable-background="new 0 0 512 512" height="512" viewBox="0 0 512 512" width="512" xmlns="http://www.w3.org/2000/svg"><g><g><path d="m504.5 256c0-123.625-90.274-226.165-208.497-245.297-13.023-2.108-26.385-2.203-40.003-2.203-137.243 0-247.5 123.606-247.5 247.5 0 132.116 110.257 247.5 247.5 247.5 13.618 0 26.98-.095 40.003-2.203 118.223-19.132 208.497-121.672 208.497-245.297z" fill="#df646e"/><path d="m87.5 256c0-123.624 90.278-226.146 208.5-245.28-13.024-2.108-26.381-3.22-40-3.22-137.243 0-248.5 111.257-248.5 248.5s111.257 248.5 248.5 248.5c13.619 0 26.976-1.113 40-3.22-118.222-19.134-208.5-121.656-208.5-245.28z" fill="#dc4955"/><path d="m469.5 256c0 117.913-95.587 213.5-213.5 213.5-21.163 0-41.607-3.079-60.909-8.814-40.697-12.092-74.164-40.835-100.73-72.57-31.031-37.071-45.446-80.99-45.446-133.116 0-78.693 38.552-144.325 100.34-181.106 14.177-8.44 29.368-17.687 45.836-22.579 19.302-5.736 39.746-8.815 60.909-8.815 117.913 0 213.5 95.587 213.5 213.5z" fill="#f8f7f7"/><path d="m195.09 460.69c-88.23-26.22-152.59-107.94-152.59-204.69 0-76.069 39.786-142.847 99.678-180.663 16.283-10.281 34.052-18.422 52.912-24.027-64.99 44.81-107.59 119.77-107.59 204.69s42.6 159.88 107.59 204.69z" fill="#e8e8e8"/><g><path d="m326.813 164.723s-15.018-28.723-51.55-28.723h-111.353c-11.591 0-20.988 9.397-20.988 20.988 0 1.19-.154 2.429.289 3.492 3.648 8.746 10.297 17.496 20.699 17.496h11.438-26.091c-11.723 0-21.227 9.503-21.227 21.227 0 1.274-.101 2.58.327 3.734 2.629 7.076 7.876 14.318 20.899 17.493h25.902-31.443c-11.723 0-21.227 9.503-21.227 21.227 0 1.273.112 2.519.327 3.73 1.763 9.944 15.159 16.497 20.9 16.497l31.632 1h-26.091c-11.723 0-21.227 9.503-21.227 21.227 0 1.432.142 2.831.412 4.184 1.943 9.72 12.523 16.043 22.814 16.043h46.465c22.241 0 38.402 19.956 34.304 41.922l-5.015 27.881c-3.288 27.328 19.308 38.678 19.308 38.678 6.232 3.068 12.728 1.931 14.95-4.675l1.858-2.549 23.11-68.677c6.89-20.477 21.444-41.774 40.577-51.654l2.903-59.754z" fill="#f2d1a5"/><g><path d="m244.645 368.151 4.304-23.069c7.051-29.401-15.485-56.79-41.299-56.79 0 0-66.649 0-79.203 0 1.943 9.719 10.519 17.044 20.81 17.044h47.465c22.241 0 38.402 19.956 34.304 41.922l-5.015 26.881c-3.098 16.604 5.21 33.245 20.308 40.677 6.232 3.068 13.728-.069 15.95-6.675l.858-2.549c-13.699-8.54-21.617-20.634-18.482-37.441z" fill="#f2bb88"/></g><path d="m327.814 155.985c0-8.191 5.64-15.83 13.83-15.83h19.036c8.191 0 14.83 6.64 14.83 14.83v135.521c0 8.191-7.64 13.83-15.83 13.83h-17.036c-8.191 0-14.83-6.64-14.83-14.83z" fill="#ffd163"/><path d="m344.813 290.336c-1.657 0-3-1.343-3-3v-147.182h-.17c-8.191 0-14.83 6.64-14.83 14.83v135.521c0 8.191 6.64 14.83 14.83 14.83h19.036c8.191 0 14.83-6.64 14.83-14.83v-.17h-30.696z" fill="#ffb65f"/><g fill="#f2bb88"><path d="m163.849 245.383h-41.012c1.764 9.943 10.43 17.5 20.88 17.5h5.541 26.091c1.657 0 3-1.343 3-3 0-8.008-6.492-14.5-14.5-14.5z"/><path d="m175.16 220.434c1.657 0 3-1.343 3-3 0-8.008-6.492-14.5-14.5-14.5h-35.281c1.766 9.941 10.431 17.496 20.879 17.496z"/><path d="m163.902 177.976h11.447c1.657 0 3-1.343 3-3 0-8.008-6.492-14.5-14.5-14.5h-20.613c1.663 9.925 10.269 17.496 20.666 17.5z"/></g></g></g><g><path d="m426.77 65.277c-3.085-2.766-7.826-2.503-10.591.581-2.764 3.085-2.504 7.827.581 10.591 50.994 45.69 80.24 111.133 80.24 179.551 0 132.888-108.112 241-241 241s-241-108.112-241-241 108.112-241 241-241c47.938 0 94.242 14.037 133.905 40.594 3.44 2.303 8.1 1.383 10.405-2.06 2.304-3.442 1.382-8.101-2.06-10.405-42.14-28.215-91.329-43.129-142.25-43.129-68.38 0-132.668 26.629-181.02 74.98s-74.98 112.64-74.98 181.02 26.629 132.668 74.98 181.02 112.64 74.98 181.02 74.98 132.668-26.629 181.02-74.98 74.98-112.64 74.98-181.02c0-72.676-31.065-142.191-85.23-190.723z"/><path d="m131.746 438.787c36.707 24.999 79.673 38.213 124.254 38.213 59.031 0 114.529-22.988 156.271-64.729s64.729-97.24 64.729-156.271-22.988-114.529-64.729-156.271-97.24-64.729-156.271-64.729-114.529 22.988-156.271 64.729-64.729 97.24-64.729 156.271c0 30.751 6.197 60.515 18.42 88.465 11.805 26.995 28.645 51.039 50.053 71.462 2.996 2.859 7.744 2.747 10.604-.25s2.747-7.744-.25-10.604c-41.16-39.265-63.827-92.207-63.827-149.073 0-113.589 92.411-206 206-206s206 92.411 206 206-92.411 206-206 206c-41.557 0-81.604-12.314-115.811-35.611-3.423-2.331-8.089-1.446-10.421 1.978-2.33 3.423-1.446 8.088 1.978 10.42z"/><path d="m149.258 312.836h47.464c8.346 0 15.825 3.471 21.061 9.773 5.3 6.381 7.44 14.863 5.871 23.272l-5.016 26.883c-3.7 19.837 6.32 39.896 24.369 48.782 2.634 1.296 5.5 1.948 8.37 1.948 2.473 0 4.948-.483 7.282-1.455 5.06-2.106 8.966-6.3 10.718-11.506l23.968-71.227c5.629-16.729 15.66-31.581 27.354-41.06 3.155 8.508 11.353 14.588 20.944 14.588h19.036c12.313 0 22.331-10.018 22.331-22.33v-24.549c0-4.143-3.357-7.5-7.5-7.5s-7.5 3.357-7.5 7.5v24.549c0 4.042-3.289 7.33-7.331 7.33h-19.036c-4.042 0-7.33-3.288-7.33-7.33v-135.52c0-4.042 3.288-7.33 7.33-7.33h19.036c4.042 0 7.331 3.288 7.331 7.33v75.994c0 4.143 3.357 7.5 7.5 7.5s7.5-3.357 7.5-7.5v-75.994c0-12.313-10.018-22.33-22.331-22.33h-19.036c-9.128 0-16.99 5.509-20.449 13.374-9.244-8.54-24.142-17.528-45.931-17.528h-20.242c-4.143 0-7.5 3.357-7.5 7.5s3.357 7.5 7.5 7.5h20.242c27.776 0 41.045 18.522 44.05 23.383v113.999c-20.428 12.44-34.069 35.466-40.186 53.643l-23.968 71.227c-.51 1.516-1.639 2.18-2.266 2.44-.619.257-1.865.586-3.264-.103-12.038-5.927-18.72-19.321-16.247-32.573l5.016-26.883c2.389-12.808-.92-25.786-9.079-35.608-8.019-9.652-19.9-15.188-32.599-15.188h-47.464c-7.569 0-13.727-6.157-13.727-13.727 0-7.568 6.157-13.727 13.727-13.727h29.091c4.143 0 7.5-3.357 7.5-7.5s-3.357-7.5-7.5-7.5h-34.633c-7.569 0-13.727-6.157-13.727-13.727s6.157-13.727 13.727-13.727h34.633c4.143 0 7.5-3.357 7.5-7.5s-3.357-7.5-7.5-7.5h-29.091c-7.569 0-13.727-6.158-13.727-13.727s6.157-13.727 13.727-13.727h29.091c4.143 0 7.5-3.357 7.5-7.5s-3.357-7.5-7.5-7.5h-14.437c-7.438 0-13.488-6.051-13.488-13.488s6.051-13.488 13.488-13.488h56.133c4.143 0 7.5-3.357 7.5-7.5s-3.357-7.5-7.5-7.5h-56.133c-15.708 0-28.488 12.78-28.488 28.488 0 5.543 1.591 10.721 4.34 15.101-11.188 3.93-19.23 14.601-19.23 27.114 0 7.157 2.631 13.712 6.977 18.747-7.554 5.181-12.519 13.875-12.519 23.706s4.965 18.525 12.519 23.706c-4.346 5.035-6.977 11.59-6.977 18.747-.001 15.841 12.886 28.728 28.726 28.728z"/></g></g></svg>