<svg id="Capa_1" enable-background="new 0 0 512.234 512.234" height="512" viewBox="0 0 512.234 512.234" width="512" xmlns="http://www.w3.org/2000/svg"><g><g><path d="m48.617 352.713c-20.711 0-37.5-16.789-37.5-37.5l.729-187.628c0-12.268 1.412-25.362 10.52-32.204 6.268-4.708 14.059-7.498 22.501-7.498h392.133c20.711 0 37.5 16.789 37.5 37.5v198.984c0 6.481-1.644 11.99-4.538 16.501-6.354 9.905-22.009 12.866-36.239 12.866z" fill="#8e868e"/><path d="m434.5 117.867h-387.133c-5.523 0-10 4.477-10 10l.168 17.988c0 5.015 2.507 9.699 6.679 12.481l16.641 11.094c4.173 2.782 6.679 7.465 6.679 12.481l-.168 79.93c0 5.015-2.507 9.699-6.679 12.481l-16.641 11.094c-4.173 2.782-6.679 7.465-6.679 12.481v17.955c0 5.523 4.477 10 10 10h387.133c5.523 0 10-4.477 10-10v-187.985c0-5.523-4.477-10-10-10z" fill="#f8f7f7"/><path d="m469.96 340.867c-6.35 9.9-18.73 15-32.96 15h-392.133c-20.71 0-37.5-16.79-37.5-37.5v-192.984c0-12.27 5.89-23.16 15-30v223.468c0 12.41 10.09 22.5 22.5 22.5z" fill="#766d78"/><g><path d="m504.734 326.872c0-51.426-39.814-93.553-90.299-97.238-2.378-.174-3.896.142-6.318.142-53.848 0-96.585 43.353-96.585 97.201s42.753 96.874 96.601 96.874c2.15 0 3.385.452 5.501.315 50.865-3.297 91.1-45.597 91.1-97.294z" fill="#ffd163"/><path d="m415.234 424.052c-2.64.21-5.31.32-8 .32-53.85 0-97.5-43.65-97.5-97.5s43.65-97.5 97.5-97.5c2.69 0 5.36.11 8 .32-50.11 4.07-89.5 46.02-89.5 97.18s39.39 93.11 89.5 97.18z" fill="#ffb65f"/><path d="m408.027 393.255c-37.22 0-66.707-29.028-66.707-66.248s28.695-67.156 65.915-67.156c2.313 0 4.598-.362 6.852-.134 34.014 3.444 60.648 32.248 60.648 67.155 0 34.942-26.687 63.767-60.749 67.165-2.222.221-3.681-.782-5.959-.782z" fill="#ffb65f"/><path d="m415.234 393.902c-2.62.31-5.29.47-8 .47-37.22 0-67.5-30.28-67.5-67.5s30.28-67.5 67.5-67.5c2.71 0 5.38.16 8 .47-33.46 3.97-59.5 32.52-59.5 67.03s26.04 63.06 59.5 67.03z" fill="#ff9350"/></g></g><g><path d="m37.5 201.367c-4.143 0-7.5 3.357-7.5 7.5v50c0 4.143 3.357 7.5 7.5 7.5s7.5-3.357 7.5-7.5v-50c0-4.142-3.357-7.5-7.5-7.5z"/><path d="m153.763 229.034 3.639-9.564h24.335l3.598 9.543c1.133 3.005 3.987 4.856 7.019 4.856.88 0 1.773-.155 2.645-.484 3.876-1.461 5.834-5.788 4.372-9.663l-21.063-55.87c-1.353-3.579-4.831-5.984-8.657-5.984-3.815 0-7.291 2.396-8.649 5.963l-21.257 55.87c-1.473 3.871.472 8.204 4.343 9.677 3.868 1.471 8.202-.473 9.675-4.344zm15.862-41.69 6.457 17.126h-12.973z"/><path d="m242.902 233.866c17.629-.302 30.425-15.415 30.425-35.937 0-21.57-12.473-36.063-31.036-36.063h-16.389c-4.143 0-7.5 3.357-7.5 7.5v57c0 4.143 3.357 7.5 7.5 7.5h16.871c.043.001.086.001.129 0zm-9.5-14.999v-42h8.889c14.88 0 16.036 16.121 16.036 21.063 0 10.271-4.831 20.716-15.624 20.938h-9.301z"/><path d="m318.095 218.867c-5.561 0-10.909-2.238-14.307-5.987-2.782-3.068-7.524-3.3-10.595-.521-3.068 2.782-3.302 7.525-.521 10.595 6.286 6.936 15.553 10.913 25.422 10.913 12.195 0 22.438-7.796 24.355-18.536 1.446-8.098-2.211-18.668-16.81-24.053-7.445-2.747-12.277-4.78-13.302-5.217-2.031-1.064-2.936-2.461-2.764-4.263.156-1.646 1.327-3.7 3.526-4.318 8.492-2.39 14.88 3.001 15.252 3.324 3.059 2.747 7.766 2.521 10.545-.519 2.796-3.057 2.584-7.801-.472-10.597-.509-.465-12.658-11.349-29.382-6.65-7.837 2.202-13.625 9.169-14.402 17.338-.763 8.013 3.513 15.365 11.157 19.188.635.301 5.217 2.271 14.649 5.786 1.881.694 7.962 3.274 7.235 7.344-.538 3.035-4.274 6.173-9.586 6.173z"/><path d="m482 253.223v-127.856c0-24.813-20.187-45-45-45h-296.776c-4.143 0-7.5 3.357-7.5 7.5s3.357 7.5 7.5 7.5h296.776c16.542 0 30 13.458 30 30v115.22c-4.733-3.289-9.747-6.198-15-8.685v-32.785c0-4.143-3.357-7.5-7.5-7.5s-7.5 3.357-7.5 7.5v27.054c-9.441-2.796-19.43-4.304-29.766-4.304-40.21 0-75.207 22.724-92.841 56h-52.148c-4.143 0-7.5 3.357-7.5 7.5s3.357 7.5 7.5 7.5h45.642c-2.78 8.102-4.595 16.647-5.308 25.5h-255.079c-1.379 0-2.5-1.121-2.5-2.5v-17.973c0-2.513 1.249-4.846 3.34-6.24l16.641-11.094c6.274-4.182 10.019-11.181 10.019-18.72v-79.945c0-7.539-3.745-14.538-10.02-18.721l-16.64-11.094c-2.091-1.395-3.34-3.728-3.34-6.24v-17.973c0-1.379 1.121-2.5 2.5-2.5h387c1.379 0 2.5 1.121 2.5 2.5v35.952c0 4.143 3.357 7.5 7.5 7.5s7.5-3.357 7.5-7.5v-35.952c0-9.649-7.851-17.5-17.5-17.5h-387c-9.649 0-17.5 7.851-17.5 17.5v17.973c0 7.539 3.745 14.538 10.02 18.721l16.641 11.094c2.091 1.395 3.34 3.728 3.34 6.24v79.945c0 2.513-1.249 4.846-3.34 6.24l-16.641 11.094c-6.275 4.182-10.02 11.181-10.02 18.721v17.973c0 9.649 7.851 17.5 17.5 17.5h254.941c.313 5.106.989 10.115 2.01 15h-259.451c-16.542 0-30-13.458-30-30v-193c0-16.542 13.458-30 30-30h60.202c4.143 0 7.5-3.357 7.5-7.5s-3.357-7.5-7.5-7.5h-60.202c-24.813 0-45 20.187-45 45v193c0 24.813 20.187 45 45 45h263.782c14.861 39.957 53.384 68.5 98.453 68.5 57.897 0 105-47.103 105-105-.001-28.665-11.55-54.679-30.235-73.645zm-74.766 163.644c-49.626 0-90-40.374-90-90s40.374-90 90-90 90 40.374 90 90-40.374 90-90 90z"/><path d="m407.234 252.867c-40.804 0-74 33.196-74 74s33.196 74 74 74c11.706 0 23.364-2.805 33.713-8.11 3.686-1.89 5.142-6.409 3.252-10.096-1.89-3.686-6.408-5.142-10.096-3.252-8.358 4.285-17.398 6.458-26.869 6.458-32.532 0-59-26.468-59-59s26.468-59 59-59 59 26.468 59 59c0 11.257-3.18 22.199-9.194 31.645-2.225 3.493-1.196 8.129 2.298 10.354 3.49 2.223 8.129 1.196 10.354-2.298 7.551-11.856 11.542-25.585 11.542-39.701 0-40.804-33.196-74-74-74z"/><path d="m407.235 370.427c4.143 0 7.5-3.357 7.5-7.5v-3.078c8.006-2.975 13.125-10.224 14.33-17.398 1.711-10.188-3.811-19.389-13.739-22.894-2.354-1.019-9.768-2.17-12.078-4.998-.341-.405-.752-1.685-.406-3.391.18-.885.831-3.062 3.004-4.172 3.135-1.603 6.788 1.287 7.194 1.623 3.191 2.634 7.92 2.186 10.559-1.01 2.637-3.194 2.185-7.922-1.01-10.559-2.161-1.784-4.855-3.367-7.854-4.385v-1.712c0-4.143-3.357-7.5-7.5-7.5s-7.5 3.357-7.5 7.5v2.36c-.239.111-.478.205-.716.326-5.622 2.873-9.587 8.176-10.879 14.549-1.196 5.903.156 11.89 3.619 16.015 5.374 6.008 10.949 7.059 18.572 9.498 3.896 1.375 4.293 4.166 3.94 6.265-.506 3.015-3.047 6.51-7.431 6.54-5.152.027-6.366-.394-10.138-2.858-3.467-2.267-8.116-1.292-10.381 2.176-2.266 3.468-1.292 8.115 2.176 10.381 4.229 2.764 7.541 4.069 11.236 4.648v2.075c.002 4.141 3.36 7.499 7.502 7.499z"/><path d="m156.5 302.867c4.143 0 7.5-3.357 7.5-7.5v-2.5h63.139c4.143 0 7.5-3.357 7.5-7.5s-3.357-7.5-7.5-7.5h-63.139v-2.5c0-4.143-3.357-7.5-7.5-7.5s-7.5 3.357-7.5 7.5v2.5h-47.5c-4.143 0-7.5 3.357-7.5 7.5s3.357 7.5 7.5 7.5h47.5v2.5c0 4.143 3.357 7.5 7.5 7.5z"/><circle cx="37.5" cy="183.871" r="7.5"/></g></g></svg>