<svg id="Capa_1" enable-background="new 0 0 512 512" height="512" viewBox="0 0 512 512" width="512" xmlns="http://www.w3.org/2000/svg"><g><g><g><path d="m499.5 474.5c2.761 0 5 2.239 5 5v10l-1 9c0 2.761-2.239 5-5 5h-485c-2.761 0-5-2.239-5-5v-18c0-2.761 2.239-5 5-5l9-1z" fill="#f8f7f7"/><path d="m27.5 489.5c-2.761 0-5-2.239-5-5v-10h-10c-2.761 0-5 2.239-5 5v20c0 2.761 2.239 5 5 5h487c2.761 0 5-2.239 5-5v-10z" fill="#e8e8e8"/></g><g><g fill="#b3e59f"><path d="m478.5 438.5c0 2.761-2.239 5-5 5h-38c-2.761 0-5-2.239-5-5v-158c0-2.761 2.239-5 5-5l9-1h30c2.761 0 5 2.239 5 5v150z"/><path d="m473.5 182.683h-38c-2.761 0-5-2.239-5-5v-18c0-2.761 2.239-5 5-5l9-1h30c2.761 0 5 2.239 5 5v10l-1 9c0 2.762-2.239 5-5 5z"/><path d="m473.5 242.5h-38c-2.761 0-5-2.239-5-5v-18c0-2.761 2.239-5 5-5l9-1h30c2.761 0 5 2.239 5 5v10l-1 9c0 2.761-2.239 5-5 5z"/></g><path d="m383.5 443.5h-38c-2.761 0-5-2.239-5-5v-169c0-2.761 2.239-5 5-5l9-1h30c2.761 0 5 2.239 5 5v161l-1 9c0 2.761-2.239 5-5 5z" fill="#ccf49f"/><path d="m293.5 443.5h-38c-2.761 0-5-2.239-5-5v-85c0-2.761 2.239-5 5-5l9-1h30c2.761 0 5 2.239 5 5v77l-1 9c0 2.761-2.239 5-5 5z" fill="#ffd163"/><path d="m203.5 443.5h-38c-2.761 0-5-2.239-5-5v-59c0-2.761 2.239-5 5-5l9-1h30c2.761 0 5 2.239 5 5v51l-1 9c0 2.761-2.239 5-5 5z" fill="#ffb65f"/><path d="m113.5 443.5h-38c-2.761 0-5-2.239-5-5v-39c0-2.761 2.239-5 5-5l9-1h30c2.761 0 5 2.239 5 5v31l-1 9c0 2.761-2.239 5-5 5z" fill="#df646e"/><path d="m449.5 429.5c-2.761 0-5-2.239-5-5v-150h-10c-2.761 0-5 2.239-5 5v160c0 2.761 2.239 5 5 5h40c2.761 0 5-2.239 5-5v-10z" fill="#95d6a4"/><path d="m449.5 168.683c-2.761 0-5-2.239-5-5v-10h-10c-2.761 0-5 2.239-5 5v20c0 2.761 2.239 5 5 5h40c2.761 0 5-2.239 5-5v-10z" fill="#95d6a4"/><path d="m449.5 228.5c-2.761 0-5-2.239-5-5v-10h-10c-2.761 0-5 2.239-5 5v20c0 2.761 2.239 5 5 5h40c2.761 0 5-2.239 5-5v-10z" fill="#95d6a4"/><path d="m359.5 429.5c-2.761 0-5-2.239-5-5v-161h-10c-2.761 0-5 2.239-5 5v171c0 2.761 2.239 5 5 5h40c2.761 0 5-2.239 5-5v-10z" fill="#b3e59f"/><path d="m269.5 429.5c-2.761 0-5-2.239-5-5v-77h-10c-2.761 0-5 2.239-5 5v87c0 2.761 2.239 5 5 5h40c2.761 0 5-2.239 5-5v-10z" fill="#ffb65f"/><path d="m179.5 429.5c-2.761 0-5-2.239-5-5v-51h-10c-2.761 0-5 2.239-5 5v61c0 2.761 2.239 5 5 5h40c2.761 0 5-2.239 5-5v-10z" fill="#ff9350"/><path d="m89.5 429.5c-2.761 0-5-2.239-5-5v-31h-10c-2.761 0-5 2.239-5 5v41c0 2.761 2.239 5 5 5h40c2.761 0 5-2.239 5-5v-10z" fill="#dc4955"/><path d="m446.84 44.498-37.528 65c-3.849 6.667.962 13 8.66 13h73.056c7.698 0 12.509-7.333 8.66-14l.423-1-35.23-61.019-2.721-1.981c-3.849-6.667-11.471-6.667-15.32 0z" fill="#b3e59f"/><path d="m500.111 107.498h-65.263c-2.309 0-3.753-2.5-2.598-4.5l32.631-56.519-1.721-2.981c-3.849-6.667-13.472-6.667-17.321 0l-37.528 65c-3.849 6.667.962 15 8.66 15h75.055c7.698 0 12.509-8.333 8.661-15z" fill="#95d6a4"/></g><path d="m325.577 182.051c8.373-7.901 8.373-21.201 0-29.102-26.993-25.469-88.508-75.449-155.577-75.449-20.712 0-40.673 5.904-59.166 13.243-41.392 16.426-75.433 44.602-94.091 62.206-8.373 7.901-8.373 21.201 0 29.102 12.598 11.887 31.124 28.012 55.817 43.004 28.214 17.13 61.674 32.445 97.44 32.445 67.069 0 128.584-49.98 155.577-75.449z" fill="#f8f7f7"/><path d="m29.42 182.05c25.99 24.52 83.96 71.74 148.08 75.24-2.49.14-4.99.21-7.5.21-67.07 0-128.58-49.98-155.58-75.45-8.37-7.9-8.37-21.2 0-29.1 27-25.47 88.51-75.45 155.58-75.45 2.51 0 5.01.07 7.5.21-64.12 3.5-122.09 50.72-148.08 75.24-8.37 7.9-8.37 21.2 0 29.1z" fill="#e8e8e8"/><path d="m260 167.5c0-47.256-36.421-86.006-82.725-89.71-2.4-.192-4.826.348-7.275.348-49.706 0-87.862 39.781-87.862 89.487s38.157 89.057 87.862 89.057c2.277 0 4.535.734 6.77.568 46.543-3.462 83.23-42.322 83.23-89.75z" fill="#bae6ef"/><path d="m178 257.15c-2.63.23-5.3.35-8 .35-49.71 0-90-40.29-90-90s40.29-90 90-90c2.7 0 5.37.12 8 .35-45.96 4.05-82 42.64-82 89.65s36.04 85.6 82 89.65z" fill="#94d8e6"/><path d="m202.68 161.72c-14.316-.962-25.935-12.579-26.9-26.894-.364-5.409.761-10.525 3.003-14.983 1.292-2.567.049-5.539-2.37-6.68-.522-.246-1.236-.018-1.854-.071-1.548-.134-2.977.165-4.56.165-31.237 0-53.865 25.416-52.413 56.972 1.296 28.177 21.654 50.461 49.83 51.757 3.44.158 6.8.454 10.083.007 26.827-3.658 47.5-26.661 47.5-54.493 0-1.583-.069-3.15-.203-4.698-.301-3.481-4.019-5.655-7.14-4.085-4.455 2.241-9.569 3.366-14.976 3.003z" fill="#8e868e"/><path d="m177.5 221.99c-3.29.45-6.66.61-10.1.45-28.17-1.3-51.04-24.17-52.34-52.34-1.45-31.56 23.7-57.6 54.94-57.6 1.58 0 3.15.07 4.7.2.62.05 1.19.21 1.71.47-27.12 4.25-47.66 28.32-46.35 56.93 1.22 26.52 21.56 48.33 47.44 51.89z" fill="#766d78"/></g><g><path d="m499.5 467h-252.5c-4.142 0-7.5 3.357-7.5 7.5s3.358 7.5 7.5 7.5h250v15h-482v-15h196.958c4.142 0 7.5-3.357 7.5-7.5s-3.358-7.5-7.5-7.5h-199.458c-6.893 0-12.5 5.607-12.5 12.5v20c0 6.893 5.607 12.5 12.5 12.5h487c6.893 0 12.5-5.607 12.5-12.5v-20c0-6.893-5.607-12.5-12.5-12.5z"/><path d="m429.5 368.691c-4.142 0-7.5 3.357-7.5 7.5v63.309c0 6.893 5.607 12.5 12.5 12.5h40c6.893 0 12.5-5.607 12.5-12.5v-160c0-6.893-5.607-12.5-12.5-12.5h-40c-6.893 0-12.5 5.607-12.5 12.5v61.628c0 4.143 3.358 7.5 7.5 7.5s7.5-3.357 7.5-7.5v-59.128h35v155h-35v-60.809c0-4.142-3.358-7.5-7.5-7.5z"/><path d="m487 159.5c0-6.893-5.607-12.5-12.5-12.5h-40c-6.893 0-12.5 5.607-12.5 12.5v20c0 6.893 5.607 12.5 12.5 12.5h40c6.893 0 12.5-5.607 12.5-12.5zm-15 17.5h-35v-15h35z"/><path d="m487 219.5c0-6.893-5.607-12.5-12.5-12.5h-40c-6.893 0-12.5 5.607-12.5 12.5v20c0 6.893 5.607 12.5 12.5 12.5h40c6.893 0 12.5-5.607 12.5-12.5zm-15 17.5h-35v-15h35z"/><path d="m332 268.5v171c0 6.893 5.607 12.5 12.5 12.5h40c6.893 0 12.5-5.607 12.5-12.5v-171c0-6.893-5.607-12.5-12.5-12.5h-40c-6.893 0-12.5 5.607-12.5 12.5zm15 2.5h35v166h-35z"/><path d="m254.5 452h40c6.893 0 12.5-5.607 12.5-12.5v-87c0-6.893-5.607-12.5-12.5-12.5h-40c-6.893 0-12.5 5.607-12.5 12.5v87c0 6.893 5.607 12.5 12.5 12.5zm2.5-97h35v82h-35z"/><path d="m152 378.5v61c0 6.893 5.607 12.5 12.5 12.5h40c6.893 0 12.5-5.607 12.5-12.5v-61c0-6.893-5.607-12.5-12.5-12.5h-40c-6.893 0-12.5 5.607-12.5 12.5zm15 2.5h35v56h-35z"/><path d="m62 398.5v41c0 6.893 5.607 12.5 12.5 12.5h40c6.893 0 12.5-5.607 12.5-12.5v-41c0-6.893-5.607-12.5-12.5-12.5h-40c-6.893 0-12.5 5.607-12.5 12.5zm15 2.5h35v36h-35z"/><path d="m416.972 132h75.056c6.327 0 11.992-3.271 15.155-8.75 3.164-5.479 3.164-12.021 0-17.5l-37.528-65c-3.163-5.479-8.828-8.75-15.155-8.75s-11.992 3.271-15.155 8.75l-37.528 65c-3.164 5.479-3.164 12.021 0 17.5 3.163 5.479 8.829 8.75 15.155 8.75zm-2.165-18.75 37.528-65c.628-1.088 1.626-1.25 2.165-1.25s1.537.162 2.165 1.25l37.528 65c.628 1.088.27 2.033 0 2.5s-.909 1.25-2.165 1.25h-75.056c-1.256 0-1.896-.783-2.165-1.25s-.628-1.412 0-2.5z"/><path d="m225.881 152.282c-3.598-2.008-7.932-2.106-11.594-.266-3.403 1.711-7.244 2.479-11.104 2.22-10.639-.714-19.203-9.275-19.919-19.915-.26-3.862.508-7.703 2.221-11.108 1.842-3.662 1.742-7.997-.267-11.594-2.034-3.643-5.725-6.03-9.878-6.39-17.605-1.783-38.024 5.53-50.542 19.109-11.905 12.465-18.023 28.838-17.229 46.104.289 6.289 1.53 12.472 3.687 18.376 1.421 3.893 5.729 5.89 9.618 4.472 3.891-1.422 5.892-5.728 4.471-9.618-1.633-4.472-2.573-9.154-2.792-13.919-.604-13.133 4.045-25.582 13.092-35.054 9.176-9.608 21.571-14.866 34.895-14.696-1.823 4.856-2.594 10.086-2.241 15.326 1.219 18.097 15.784 32.659 33.88 33.874 5.238.348 10.466-.421 15.32-2.241.252 12.214-5.133 25.944-14.696 34.894-9.472 9.046-21.927 13.703-35.054 13.093-8.593-.396-16.935-3.16-24.122-7.997-3.436-2.312-8.097-1.401-10.41 2.036-2.312 3.437-1.401 8.097 2.036 10.409 9.469 6.371 20.467 10.015 31.807 10.536 15.774.901 34.125-5.371 46.104-17.229 13.406-12.881 20.744-31.283 19.108-50.547-.361-4.15-2.75-7.841-6.391-9.875z"/><path d="m9.276 187.506c30.674 28.941 92.343 77.494 160.724 77.494s130.05-48.553 160.724-77.494c5.486-5.177 8.633-12.469 8.633-20.006s-3.147-14.829-8.633-20.006c-30.674-28.941-92.343-77.494-160.724-77.494s-130.05 48.553-160.724 77.494c-5.486 5.177-8.633 12.469-8.633 20.006s3.147 14.829 8.633 20.006zm315.081-20.006c0 3.476-1.395 6.706-3.927 9.096-14.073 13.278-41.937 37.145-76.177 54.056 11.722-13.779 19.469-30.595 22.165-48.589.614-4.097-2.209-7.915-6.306-8.528-4.092-.615-7.915 2.209-8.528 6.306-5.994 39.997-41.067 70.159-81.584 70.159-45.491 0-82.5-37.01-82.5-82.5s37.009-82.5 82.5-82.5c38.283 0 71.267 25.955 80.212 63.117.97 4.027 5.021 6.503 9.047 5.537 4.027-.97 6.506-5.02 5.537-9.047-3.66-15.206-10.728-28.821-20.278-40.129 34.119 16.903 61.876 40.682 75.913 53.926 2.532 2.39 3.926 5.62 3.926 9.096zm-304.787-9.096c14.081-13.286 41.968-37.172 76.235-54.085-14.523 17.03-23.305 39.098-23.305 63.181s8.782 46.151 23.305 63.18c-34.266-16.913-62.154-40.799-76.235-54.085-2.533-2.39-3.927-5.62-3.927-9.096s1.394-6.705 3.927-9.095z"/><path d="m170 55c4.142 0 7.5-3.357 7.5-7.5v-40c0-4.143-3.358-7.5-7.5-7.5s-7.5 3.357-7.5 7.5v40c0 4.143 3.358 7.5 7.5 7.5z"/><path d="m170 335c4.142 0 7.5-3.357 7.5-7.5v-40c0-4.143-3.358-7.5-7.5-7.5s-7.5 3.357-7.5 7.5v40c0 4.143 3.358 7.5 7.5 7.5z"/><path d="m112.489 61.913c1.462 2.603 5.438 5.728 9.967 3.627 3.754-1.75 5.378-6.213 3.628-9.967l-16.905-36.253c-1.75-3.754-6.214-5.38-9.967-3.627-3.754 1.75-5.378 6.213-3.628 9.967z"/><path d="m237.624 320.012c1.061 0 2.14-.227 3.165-.705 3.754-1.75 5.378-6.213 3.628-9.967l-16.905-36.253c-1.751-3.754-6.215-5.38-9.967-3.627-3.754 1.75-5.378 6.213-3.628 9.967l16.905 36.253c1.272 2.728 3.977 4.332 6.802 4.332z"/><path d="m217.544 65.54c2.689 1.422 7.648.589 9.967-3.627l16.905-36.253c1.75-3.754.126-8.217-3.628-9.967-3.754-1.753-8.216-.127-9.967 3.627l-16.905 36.253c-1.75 3.754-.126 8.217 3.628 9.967z"/><path d="m102.376 320.012c2.825 0 5.53-1.604 6.802-4.332l16.905-36.253c1.75-3.754.126-8.217-3.628-9.967-3.753-1.752-8.216-.127-9.967 3.627l-16.904 36.253c-1.75 3.754-.126 8.217 3.628 9.967 1.025.478 2.103.705 3.164.705z"/></g></g></svg>