<svg id="Capa_1" enable-background="new 0 0 512 512" height="512" viewBox="0 0 512 512" width="512" xmlns="http://www.w3.org/2000/svg"><g><g><path d="m271.262 383.553h-28.491v95.538h28.491l1-31.262v-43.061z" fill="#8e868e"/><path d="m272.261 404.768v-21.214h-15.491-15v21.426 74.112h30.491v-31.262h-12.491c-1.657 0-3-1.343-3-3v-36.22c0-1.638 1.315-2.957 2.953-2.998 4.226-.106 8.407-.39 12.538-.844z" fill="#766d78"/><path d="m341.312 496.19-4.612-11.69-2.218-4.548c-5.111-10.477-15.747-17.123-27.404-17.123h-96.93-3.192c-11.657 0-22.294 8.646-27.404 19.123l-7.409 15.238c-1.647 3.376.811 6.31 4.567 6.31h160.035c3.755 0 6.213-3.934 4.567-7.31z" fill="#8e868e"/><path d="m336.7 484.5h-127.048c-4.653 0-7.698-4.874-5.658-9.056l6.154-12.615h-3.192c-11.657 0-22.293 6.646-27.404 17.123l-8.409 17.238c-1.647 3.376.811 7.31 4.567 7.31h162.613c3.756 0 6.214-3.934 4.567-7.31z" fill="#766d78"/><g><path d="m255.861 390.096c-75.936 0-146.461-64.641-146.461-146.027 0-8.433 5.836-16.269 14.269-16.269s15.269 6.836 15.269 15.269c0 64.548 52.514 117.061 117.061 117.061 70.271 0 118.061-51.514 118.061-116.061 0-8.433 5.836-16.269 14.269-16.269s15.269 6.836 15.269 15.269c0 78.723-61.951 143.25-139.661 147.388-2.628.14-5.413-.361-8.076-.361z" fill="#8e868e"/></g><g fill="#766d78"><path d="m123.669 227.8c-8.433 0-15.269 6.836-15.269 15.269 0 81.386 66.213 147.599 147.599 147.599 2.736 0 5.453-.081 8.153-.229-80.28-4.676-144.598-80.497-140.483-162.639z"/><path d="m272 360.13c66.896 0 120.346-64.582 116.33-132.33-8.433 0-15.269 6.836-15.269 15.269 0 61.859-48.231 112.656-109.062 116.783 2.645.179 5.312.278 8.001.278z"/></g><path d="m326.285 66.915v36.861l-.157 37.088v35.519h-139.241v-35.519l-.155-37.088v-36.861z" fill="#766d78"/><path d="m326.285 76.23h7.155c2.807 0 5.082-2.275 5.082-5.082v-5.892c0-31.898-25.858-57.756-57.756-57.756h-31.341l-17.174 1c-31.898 0-56.756 26.858-56.756 58.756v2.892c0 2.807 2.275 5.082 5.082 5.082l13.918 1h8.039c8.447 0 15.294 6.847 15.294 15.294 0 8.447-6.847 15.294-15.294 15.294h-8.039l-13.918 1c-2.807 0-5.082 2.275-5.082 5.082v18.104c0 2.807 2.275 5.082 5.082 5.082l13.918 1h7.638c8.42 0 15.245 6.826 15.245 15.245 0 8.42-6.826 15.245-15.245 15.245h-7.638l-13.918 1c-2.807 0-5.082 2.275-5.082 5.082l1 72.395c0 45.222 33.171 81.706 78.392 82.041 3.601.027 8.149.821 11.63.398 40.574-4.937 72.005-39.503 72.005-81.409v-11.516l-2-15 2-15v-32.909c0-2.807-2.275-5.082-5.082-5.082h-22.558c-8.42 0-15.245-6.826-15.245-15.245 0-8.42 6.826-15.245 15.245-15.245h22.558c2.807 0 5.082-2.275 5.082-5.082v-20.104c0-2.807-2.275-5.082-5.082-5.082h-7.155-.558-15.244c-8.447 0-15.294-6.847-15.294-15.294 0-8.447 6.847-15.294 15.294-15.294h15.244z" fill="#9e959e"/><g fill="#8e868e"><path d="m179.577 76.23h7.155.558 7.205v-10.974c0-31.898 25.858-57.756 57.756-57.756h-20c-31.898 0-57.756 25.858-57.756 57.756v5.892c0 2.807 2.275 5.082 5.082 5.082z"/><path d="m194.495 246.054v-10.486l-1-14.585 1-15.415v-37.991h-14.918c-2.807 0-5.082 2.275-5.082 5.082v32.909l1 15-1 15v10.486c0 45.222 36.171 82.706 81.392 83.041 3.603.027 7.145-.204 10.627-.628-40.741-5.026-72.019-40.365-72.019-82.413z"/><path d="m179.577 137.086h14.918v-30.268h-7.205-.558-7.155c-2.807 0-5.082 2.275-5.082 5.082v20.104c0 2.807 2.275 5.082 5.082 5.082z"/></g><path d="m338.523 205.568h-144.028l-19 1v28l19 1h144.028z" fill="#f8f7f7"/><path d="m174.495 205.568h20v30h-20z" fill="#e8e8e8"/><circle cx="257.009" cy="282.068" fill="#8e868e" r="16.5"/></g><g><path d="m251.419 84.318h10.179c4.143 0 7.5-3.357 7.5-7.5s-3.357-7.5-7.5-7.5h-10.179c-4.142 0-7.5 3.357-7.5 7.5s3.358 7.5 7.5 7.5z"/><path d="m251.419 114.712h10.179c4.143 0 7.5-3.357 7.5-7.5s-3.357-7.5-7.5-7.5h-10.179c-4.142 0-7.5 3.357-7.5 7.5s3.358 7.5 7.5 7.5z"/><path d="m251.419 145.3h10.179c4.143 0 7.5-3.357 7.5-7.5s-3.357-7.5-7.5-7.5h-10.179c-4.142 0-7.5 3.357-7.5 7.5s3.358 7.5 7.5 7.5z"/><path d="m251.419 179.953h10.179c4.143 0 7.5-3.357 7.5-7.5s-3.357-7.5-7.5-7.5h-10.179c-4.142 0-7.5 3.357-7.5 7.5s3.358 7.5 7.5 7.5z"/><path d="m257 255c-13.233 0-24 10.767-24 24s10.767 24 24 24 24-10.767 24-24-10.767-24-24-24zm0 33c-4.962 0-9-4.037-9-9s4.038-9 9-9c4.963 0 9 4.037 9 9s-4.037 9-9 9z"/><path d="m388.33 220.3c-9.927 0-18.386 6.389-21.493 15.269h-20.814v-62.91c0-6.874-5.543-12.47-12.394-12.572v-15.51c6.851-.102 12.394-5.698 12.394-12.573v-20.104c0-6.822-5.458-12.395-12.236-12.577v-15.598c6.778-.183 12.236-5.754 12.236-12.576v-5.893c-.001-35.983-29.274-65.256-65.257-65.256h-48.515c-6.19 0-12.32.868-18.219 2.579-3.978 1.154-6.268 5.315-5.113 9.293s5.317 6.265 9.293 5.113c4.54-1.317 9.263-1.985 14.039-1.985h48.515c27.711 0 50.256 22.545 50.256 50.256v3.474c-3.676.001-16.999 0-20.538 0-12.568 0-22.794 10.226-22.794 22.795 0 12.568 10.226 22.794 22.794 22.794 4.051 0 17.036-.001 20.538 0v15.268h-20.139c-12.542 0-22.746 10.203-22.746 22.745s10.204 22.746 22.746 22.746h20.139v19.922h-39.129c-4.143 0-7.5 3.357-7.5 7.5s3.357 7.5 7.5 7.5h39.129v15h-149.027v-15h74.983c4.143 0 7.5-3.357 7.5-7.5s-3.357-7.5-7.5-7.5h-74.983v-19.923h20.138c12.542 0 22.746-10.204 22.746-22.746s-10.204-22.745-22.746-22.745h-20.138v-15.268c3.676-.001 16.999 0 20.539 0 12.569 0 22.794-10.226 22.794-22.794 0-12.569-10.225-22.795-22.794-22.795-4.051 0-17.036.001-20.539 0v-3.474c0-11.528 3.796-22.371 10.978-31.354 2.586-3.235 2.06-7.955-1.175-10.542-3.236-2.586-7.954-2.061-10.542 1.175-9.196 11.504-14.261 25.966-14.261 40.721v5.893c0 6.822 5.458 12.394 12.237 12.576v15.599c-6.779.183-12.237 5.755-12.237 12.577v20.104c0 6.874 5.543 12.47 12.393 12.573v15.51c-6.85.103-12.393 5.698-12.393 12.572v62.91h-21.832c-3.108-8.88-11.567-15.269-21.494-15.269-12.555 0-22.769 10.214-22.769 22.769 0 78.148 58.099 142.97 133.37 153.57v58.69h-27.315c-14.42 0-27.822 8.374-34.145 21.335l-8.409 17.238c-1.915 3.925-1.676 8.479.638 12.183s6.303 5.915 10.67 5.915h162.613c4.367 0 8.355-2.211 10.67-5.914s2.553-8.258.639-12.184l-8.409-17.238c-6.322-12.961-19.726-21.335-34.146-21.335h-27.315v-58.972c24.212-3.72 47.12-13.131 67.25-27.764 3.351-2.436 4.092-7.126 1.656-10.477-2.436-3.35-7.125-4.09-10.477-1.656-24.035 17.473-52.457 26.708-82.191 26.708-77.251 0-140.099-62.849-140.099-140.1 0-4.283 3.485-7.769 7.769-7.769s7.769 3.485 7.769 7.769c0 22.258 5.97 44.119 17.265 63.219 2.109 3.566 6.708 4.748 10.273 2.639 3.565-2.108 4.747-6.708 2.638-10.273-8.656-14.639-13.752-31.126-14.916-48.084h20.616c3.817 46.056 42.057 82.615 88.517 82.959 23.129.281 46.968-9.124 63.737-25.979 15.498-15.384 24.643-35.42 26.193-56.979h19.539c-3.868 56.925-51.409 102.06-109.3 102.06-27.329 0-53.522-10.163-73.755-28.616-3.061-2.791-7.804-2.574-10.596.487-2.791 3.061-2.573 7.804.487 10.595 23.003 20.98 52.786 32.534 83.864 32.534 68.684 0 124.562-55.878 124.562-124.562 0-4.283 3.485-7.769 7.769-7.769s7.77 3.485 7.77 7.769c0 33.322-11.95 65.634-33.647 90.982-2.694 3.146-2.326 7.881.82 10.574 3.148 2.696 7.881 2.328 10.574-.82 24.023-28.064 37.253-63.84 37.253-100.736-.002-12.554-10.216-22.768-22.771-22.768zm-60.589 262.94 6.712 13.76h-154.873l6.712-13.76c3.826-7.843 11.937-12.911 20.664-12.911h100.122c8.725 0 16.837 5.068 20.663 12.911zm-62.98-85.319v57.408h-15.491v-57.316c2.773.135 9.294.263 15.491-.092zm37.929-306.397c0-4.298 3.496-7.795 7.794-7.795h8.302v15.589h-8.302c-4.298 0-7.794-3.496-7.794-7.794zm.447 60.807c0-4.271 3.475-7.745 7.746-7.745h7.745v15.491h-7.745c-4.271 0-7.746-3.474-7.746-7.746zm-93.259 0c0 4.271-3.475 7.746-7.746 7.746h-7.745v-15.491h7.745c4.272 0 7.746 3.475 7.746 7.745zm.449-60.807c0 4.298-3.497 7.794-7.794 7.794h-8.301v-15.589h8.301c4.298 0 7.794 3.498 7.794 7.795zm98.674 205.377c-13.46 13.508-33.31 21.924-53.058 21.626-40.775-.302-73.948-34.189-73.948-75.542v-2.985h149.027v4.016c0 20.007-7.82 38.79-22.021 52.885z"/></g></g></svg>