<svg id="Capa_1" enable-background="new 0 0 512 512" height="512" viewBox="0 0 512 512" width="512" xmlns="http://www.w3.org/2000/svg"><g><g><path d="m345.58 437.468c0 20.711-16.789 37.5-37.5 37.5h-213c-20.711 0-37.5-16.789-37.5-37.5v-392c0-20.711 16.789-37.5 37.5-37.5h213c20.711 0 37.5 16.789 37.5 37.5z" fill="#f8f7f7"/><path d="m340.842 455.968c-6.44 11.34-18.64 19-32.62 19h-213c-20.71 0-37.5-16.79-37.5-37.5v-392c0-13.98 7.65-26.18 19-32.62v424.62c0 10.2 8.3 18.5 18.5 18.5z" fill="#e8e8e8"/><g><path d="m292.149 275.298-185.399.202c-8.284 0-15-6.716-15-15v-172c0-8.284 6.716-15 15-15l106.01-1h79.99c8.284 0 15 6.716 15 15v107.85l-3.468 18.458 3.468 14.841v31.85l-.41 1.096c0 8.285-6.907 13.703-15.191 13.703z" fill="#ccf49f"/><path d="m212.76 72.5c-.94.82-1.6 1.39-1.72 1.49-11.47 9.8-14.2 20.88-15.44 32.19-1.8 16.37 1.974 35.864-15.706 49.884-11.94 9.47-25.644 7.546-36.704 6.426-12.085-1.214-23.983-4.662-36.44-1.4-5.087 1.332-9.471 2.019-14.795 6.198-.01.01-.16.13-.41.33l-.12-79.915c0-8.28 5.986-14.681 14.266-14.681l1.059-.521h106.01z" fill="#ffd163"/><path d="m226.5 147.5c0 23.75-19.25 43-43 43-18.41 0-34.13-11.58-40.25-27.85 0-.01-.02-.06-.06-.16 11.06 1.12 22.28.37 34.22-9.1 17.68-14.02 16.39-30.84 18.19-47.21 2.23.8 4.12 1.49 4.19 1.51 15.67 6.42 26.71 21.83 26.71 39.81z" fill="#ffb65f"/><g fill="#ffd163"><path d="m307.75 195.35v33.3c-5.57 8.92-15.47 14.85-26.75 14.85-17.4 0-31.5-14.1-31.5-31.5s14.1-31.5 31.5-31.5c11.28 0 21.18 5.93 26.75 14.85z"/><path d="m307.76 228.63c0 .01-.01.01-.01.02"/><path d="m307.76 195.37c0-.01-.01-.01-.01-.02"/><path d="m229.5 276.5-44.655-4.649-47.345 4.649c0-25.41 20.59-46 46-46s46 20.59 46 46z"/></g><path d="m140.36 260.5.555 9.223-3.415 6.777h-31.75c-8.28 0-15-6.72-15-15v-92.12c.25-.2 6.293-7.656 6.293-7.656l9.707-.634v92.41c0 3.87 3.13 7 7 7z" fill="#b3e59f"/><path d="m307.75 260.5v1c0 8.28-6.72 15-15 15h-63.25l-3.649-6.436.789-9.564z" fill="#b3e59f"/><path d="m106.75 72.5v88.59c-5.09 1.33-10.27 3.78-15.59 7.96-.01.01-.16.13-.41.33v-81.88c0-8.28 6.72-15 15-15z" fill="#ffb65f"/><path d="m229.5 276.5h-92c0-5.63 1.01-11.02 2.86-16h86.28c1.85 4.98 2.86 10.37 2.86 16z" fill="#ffb65f"/></g><path d="m456.782 399.968c0-55.002-42.29-100.126-96.127-104.63-2.925-.245-5.884.386-8.873.386-57.99 0-103.207 45.837-103.207 103.827s45.18 105.067 103.17 105.067c3.213 0 6.43.207 9.57-.076 53.522-4.817 95.467-49.797 95.467-104.574z" fill="#bae6ef"/><path d="m361.782 504.488c-3.29.32-6.63.48-10 .48-57.99 0-105-47.01-105-105s47.01-105 105-105c3.37 0 6.71.16 10 .48-53.3 5.03-95 49.9-95 104.52s41.7 99.49 95 104.52z" fill="#94d8e6"/><g><path d="m408.47 441.67c-1.8 1.75-4.26 2.83-6.97 2.83h-100c-2.71 0-5.17-1.08-6.97-2.83l21.874-23.436 23.286-18.714.23.22c6.53 6.06 16.63 6.06 23.16 0l.23-.22 22.711 17.863z" fill="#f8f7f7"/><path d="m339.69 399.52-45.16 42.15c-1.87-1.82-3.03-4.36-3.03-7.17v-63.4l.734-6.504c0-2.76.943-4.837 2.753-6.647z" fill="#e8e8e8"/><path d="m410.787 364.532.713 6.568v63.4c0 2.81-1.16 5.35-3.03 7.17l-45.16-42.15 45.16-40.946c1.81 1.811 2.317 3.198 2.317 5.958z" fill="#e8e8e8"/><path d="m339.69 399.52-8.8 8.21-39.39-36.63v-6.6c0-2.76 1.12-5.26 2.93-7.07l25.974 20.57z" fill="#d8d8d8"/><path d="m372.11 407.73-.56.52-.31.29c-5.38 4.99-12.39 7.75-19.74 7.75s-14.36-2.76-19.74-7.75l-.31-.29-.56-.52 7.301-8.411 2.234.064c6.53 6.06 15.938 6.06 22.468 0l1.426-.234z" fill="#e8e8e8"/><path d="m411.5 364.5v6.6l-39.39 36.63-8.8-8.21 15.988-19.243 29.272-22.847c1.81 1.81 2.93 4.31 2.93 7.07z" fill="#d8d8d8"/><path d="m408.57 357.43-45.26 42.09-.23.22c-6.53 6.06-16.63 6.06-23.16 0l-.23-.22-45.26-42.09c1.81-1.81 4.31-2.93 7.07-2.93h100c2.76 0 5.26 1.12 7.07 2.93z" fill="#f8f7f7"/></g></g><g><path d="m212.25 45c4.143 0 7.5-3.357 7.5-7.5s-3.357-7.5-7.5-7.5h-50c-4.143 0-7.5 3.357-7.5 7.5s3.357 7.5 7.5 7.5z"/><path d="m105.75 80h24.293c4.143 0 7.5-3.357 7.5-7.5s-3.357-7.5-7.5-7.5h-24.293c-12.406 0-22.5 10.094-22.5 22.5v174c0 12.406 10.094 22.5 22.5 22.5h187c12.406 0 22.5-10.094 22.5-22.5v-33.008c-.001-.049.002-.098 0-.147v-32.69c.002-.049-.001-.098 0-.147v-55.658c0-4.143-3.357-7.5-7.5-7.5s-7.5 3.357-7.5 7.5v38.206c-5.759-3.267-12.35-5.056-19.25-5.056-21.505 0-39 17.495-39 39s17.495 39 39 39c6.9 0 13.491-1.789 19.25-5.056v15.556c0 4.136-3.364 7.5-7.5 7.5h-56.286c-3.659-25.96-26.01-46-52.964-46s-49.304 20.04-52.964 46h-24.786c-4.136 0-7.5-3.364-7.5-7.5v-88.34c12.551-8.439 25.44-5.857 39.761-3.729 8.347 17.26 26.071 28.569 45.489 28.569 27.846 0 50.5-22.654 50.5-50.5 0-20.217-11.759-38.143-30.129-46.221 1.425-7.767 4.325-14.837 11.691-21.279h77.188c4.136 0 7.5 3.364 7.5 7.5v17.5c0 4.143 3.357 7.5 7.5 7.5s7.5-3.357 7.5-7.5v-17.5c0-12.406-10.094-22.5-22.5-22.5h-127.856c-4.143 0-7.5 3.357-7.5 7.5s3.357 7.5 7.5 7.5h31.074c-6.661 10.722-7.615 22.077-8.479 32.458-1.118 13.423-2.084 25.015-14.738 35.054s-24.159 8.34-37.483 6.376c-11.3-1.667-23.766-3.497-37.018 2.209v-68.597c0-4.136 3.364-7.5 7.5-7.5zm175.25 156c-13.233 0-24-10.767-24-24s10.767-24 24-24c7.672 0 14.725 3.586 19.25 9.677v28.647c-4.525 6.09-11.578 9.676-19.25 9.676zm-97.5 2c18.662 0 34.261 13.35 37.761 31h-75.522c3.5-17.65 19.099-31 37.761-31zm-1.427-78.736c16.323-12.949 18.806-28.142 20.056-41.982 10.406 6.38 16.871 17.663 16.871 30.218 0 19.575-15.925 35.5-35.5 35.5-10.72 0-20.692-4.916-27.329-12.895 8.275-.844 16.944-3.734 25.902-10.841z"/><path d="m152.543 313c-4.143 0-7.5 3.357-7.5 7.5s3.357 7.5 7.5 7.5h30.457c4.143 0 7.5-3.357 7.5-7.5s-3.357-7.5-7.5-7.5z"/><path d="m90.75 328h31.793c4.143 0 7.5-3.357 7.5-7.5s-3.357-7.5-7.5-7.5h-31.793c-4.143 0-7.5 3.357-7.5 7.5s3.357 7.5 7.5 7.5z"/><path d="m183.5 408c4.143 0 7.5-3.357 7.5-7.5s-3.357-7.5-7.5-7.5h-30.957c-4.143 0-7.5 3.357-7.5 7.5s3.357 7.5 7.5 7.5z"/><path d="m90.75 408h31.793c4.143 0 7.5-3.357 7.5-7.5s-3.357-7.5-7.5-7.5h-31.793c-4.143 0-7.5 3.357-7.5 7.5s3.357 7.5 7.5 7.5z"/><path d="m90.75 438h121.75c4.143 0 7.5-3.357 7.5-7.5s-3.357-7.5-7.5-7.5h-121.75c-4.143 0-7.5 3.357-7.5 7.5s3.357 7.5 7.5 7.5z"/><path d="m351.75 287c-.334 0-.667.013-1 .016v-242.016c0-24.813-20.187-45-45-45h-213c-24.813 0-45 20.187-45 45v316.979c0 4.143 3.357 7.5 7.5 7.5s7.5-3.357 7.5-7.5v-316.979c0-16.542 13.458-30 30-30h213c16.542 0 30 13.458 30 30v243.156c-13.896 1.992-27.345 6.551-39.553 13.496-3.6 2.048-4.858 6.627-2.81 10.228s6.626 4.856 10.228 2.81c14.593-8.302 31.238-12.69 48.135-12.69 53.762 0 97.5 43.738 97.5 97.5s-43.738 97.5-97.5 97.5-97.5-43.738-97.5-97.5c0-23.752 8.639-46.636 24.324-64.434 2.738-3.107 2.439-7.847-.668-10.586-3.108-2.738-7.848-2.438-10.586.668-9.824 11.148-17.247 24.026-21.987 37.852h-154.583c-4.143 0-7.5 3.357-7.5 7.5s3.357 7.5 7.5 7.5h150.576c-1.368 7.036-2.076 14.232-2.076 21.5 0 25.306 8.401 48.685 22.557 67.5h-169.057c-16.542 0-30-13.458-30-30v-39.957c0-4.143-3.357-7.5-7.5-7.5s-7.5 3.357-7.5 7.5v39.957c0 24.813 20.187 45 45 45h182.602c20.078 18.606 46.93 30 76.398 30 62.033 0 112.5-50.467 112.5-112.5s-50.467-112.5-112.5-112.5z"/><path d="m301.5 452h100c9.649 0 17.5-7.851 17.5-17.5v-70c0-9.649-7.851-17.5-17.5-17.5h-100c-9.649 0-17.5 7.851-17.5 17.5v70c0 9.649 7.851 17.5 17.5 17.5zm9.027-15 29.878-27.887c3.474 1.755 7.283 2.64 11.096 2.64 3.812 0 7.621-.885 11.094-2.639l29.878 27.886zm93.473-65.075v55.316l-29.689-27.71zm-11.354-9.925c-2.118 1.953-32.694 30.431-34.844 32.385-3.577 3.176-9.026 3.177-12.604 0-.789-.694-33.892-31.512-34.844-32.385zm-93.646 9.925 29.689 27.606-29.689 27.711z"/><circle cx="237.25" cy="37.5" r="7.5"/></g></g></svg>