<svg id="Capa_1" enable-background="new 0 0 512 512" height="512" viewBox="0 0 512 512" width="512" xmlns="http://www.w3.org/2000/svg"><g><g><path d="m474.286 416.392h-.429l-4.49-37.982 4.704-51.92h.429c16.569 0 30 13.431 30 30v19.967l-1.115 11.421c0 16.569-12.531 28.514-29.099 28.514z" fill="#ffd163"/><path d="m474.07 402.778-2.55 8.22 2.55 6.78h.43c16.57 0 30-13.43 30-30v-15c0 16.57-13.43 30-30 30z" fill="#ffb65f"/><path d="m37.5 416.776h.429l2.961-46.678-2.961-43.608h-.429c-16.569 0-30 13.431-30 30v19.962l.472 11.316c0 16.569 12.959 29.008 29.528 29.008z" fill="#ffd163"/><path d="m37.93 402.778 2.134 7.449-2.134 7.551h-.43c-16.57 0-30-13.43-30-30v-15c0 16.57 13.43 30 30 30z" fill="#ffb65f"/><g><path d="m432.993 272.733c-8.403 0-12.286-6.813-12.286-15.216 0-89.484-75.729-164.85-165.214-164.85s-164.071 75.366-164.071 164.851c0 8.403-5.027 15.216-13.429 15.216s-15.214-6.812-15.214-15.214c0-106.263 86.451-192.714 192.714-192.714s192.714 86.452 192.714 192.714c0 8.402-6.812 15.213-15.214 15.213z" fill="#e8e8e8"/></g><path d="m431.88 272.688c-7.88-.56-14.1-7.15-14.1-15.17 0-89.48-72.8-162.28-162.29-162.28-89.48 0-162.28 72.8-162.28 162.28 0 8.02-6.2 14.59-14.08 15.17.05-9.14.08-15.02.08-15.17 0-97.2 79.08-176.28 176.28-176.28 97.21 0 176.29 79.08 176.29 176.28 0 .17.04 6.22.1 15.17z" fill="#d8d8d8"/><g><path d="m453.279 350.833h-40.571l1-87.243c0-2.801 2.271-5.071 5.071-5.071l7.931-1h21.497c2.801 0 5.071 2.271 5.071 5.071v16.427l-.976 3.063z" fill="#855b51"/></g><path d="m393.714 445.176h15.429l1.875-69.999-2.875-71.001h-15.429c-3.951 0-7.688.917-11.01 2.549-8.286 4.071-12.99 13.595-12.99 23.451v90c0 13.807 11.193 25 25 25z" fill="#e8e8e8"/><path d="m408.14 432.178 2.878 7.884-2.878 6.116h-15.43c-13.8 0-25-11.19-25-25v-92c0-9.86 5.71-18.39 14-22.44v114.44c0 6.07 4.93 11 11 11z" fill="#d8d8d8"/><path d="m426.71 275.018v-17.5h-8.93c-2.8 0-5.07 2.27-5.07 5.07v88.25h40.57v-71.82h-22.57c-2.209 0-4-1.791-4-4z" fill="#724d44"/><g><path d="m98.278 350.833h-40.572l1-87.243c0-2.801 2.271-5.071 5.071-5.071l7.931-1h21.497c2.801 0 5.071 2.271 5.071 5.071v16.427l-1.737 4.384z" fill="#855b51"/></g><path d="m71.709 275.018v-17.5h-8.93c-2.8 0-5.07 2.27-5.07 5.07v88.25h40.57v-71.82h-22.57c-2.209 0-4-1.791-4-4z" fill="#724d44"/><path d="m419.143 456.333h27.986c9.593 0 19.867-4.403 24.059-12.333 1.841-3.483 2.884-7.453 2.884-11.667v-114.314c0-13.807-11.193-25-25-25h-3.001l-7.5 2.549-7.5-2.549h-8.93l-2.997 1c-5.523 0-10 4.477-10 10v142.314c-.001 5.523 4.476 10 9.999 10z" fill="#855b51"/><path d="m471.52 443.338c-4.06 8.29-12.59 14-22.45 14h-3l-7.5-2.964-7.5 2.964h-12.93c-5.52 0-10-4.48-10-10v-144.32c0-5.52 4.48-10 10-10h4v140.32c0 5.52 4.48 10 10 10z" fill="#724d44"/><g><path d="m144.881 138.201-9.721-9.393-11.095-11.862c-3.954-4.228-3.596-10.929.831-14.659 34.761-29.291 78.064-45.955 123.603-47.505 2.326-.079 4.668 3.042 7.005 3.042 2.675 0 5.334-3.109 7.995-3.006 45.167 1.761 88.084 18.392 122.588 47.463 4.427 3.73 4.786 10.431.832 14.659l-11.095 11.863-9.72 9.393c-3.686 3.941-9.776 4.263-13.939.832-27.191-22.412-61.161-34.651-96.671-34.651-35.513 0-69.484 12.241-96.675 34.655-4.162 3.431-10.252 3.109-13.938-.831z" fill="#855b51"/></g><g><path d="m375.83 128.808-9.72 10.39c-3.69 3.94-9.78 4.26-13.94.83-25.141-20.721-56.078-32.747-88.67-34.442-2.656-.138-5.319-2.184-7.995-2.184-2.341 0-4.679 2.029-7.005 2.135-32.967 1.498-64.282 13.558-89.68 34.491-4.16 3.44-10.25 3.11-13.94-.83l-9.72-10.39c31.52-29.49 73.86-47.57 120.33-47.57 46.48 0 88.82 18.08 120.34 47.57z" fill="#724d44"/></g><path d="m119.286 444.176h-15.429v-138l14.003-2h1.426c13.807 0 25 11.193 25 25v92c0 3.948-.915 7.682-2.545 11.002-4.07 8.291-12.596 11.998-22.455 11.998z" fill="#e8e8e8"/><path d="m141.74 432.178c-4.07 8.29-12.6 14-22.45 14h-15.43l-6.603-66.886 6.603-75.114h14v125c0 1.657 1.343 3 3 3z" fill="#d8d8d8"/><path d="m92.857 456.333h-28.928c-13.807 0-25-11.193-25-25l1.136-109.62c0-9.86 3.572-22.08 11.864-26.15 3.32-1.629 7.053-2.544 11.001-2.544h3.001l6.336 1.777 8.664-1.777h12.927c5.523 0 10 4.477 10 10v140.319l-1 2.996c-.001 5.522-4.478 9.999-10.001 9.999z" fill="#855b51"/><path d="m103.86 443.338v4c0 5.52-4.48 10-10 10h-12.93l-7.5-2.193-7.5 2.193h-3c-13.81 0-25-11.2-25-25v-114.32c0-9.86 5.71-18.39 14-22.45v136.77c0 6.06 4.93 11 11 11z" fill="#724d44"/></g><path d="m481.571 320.176v-2.156c0-13.794-8.642-25.6-20.793-30.31v-25.119c0-4.15-2.03-7.825-5.14-10.116-.647-26.313-6.348-51.789-16.98-75.792-10.194-23.012-24.428-43.632-42.347-61.362.649-2.047.95-4.207.821-6.38-.285-4.792-2.549-9.31-6.212-12.395-37.633-31.707-85.473-49.225-134.779-49.377-49.127-.251-98.373 17.473-136.076 49.382-3.663 3.086-5.927 7.604-6.212 12.396-.13 2.18.173 4.347.827 6.399-11.87 11.756-22.242 24.916-30.847 39.21-2.136 3.549-.991 8.158 2.558 10.294 1.211.729 2.544 1.075 3.861 1.075 2.544 0 5.025-1.295 6.433-3.633 7.592-12.611 16.665-24.272 27.012-34.762l10.542 11.271c-29.165 29.825-46.484 69.667-48.352 111.217h-15.451c.787-19.73 4.671-39.023 11.594-57.45 1.457-3.877-.506-8.202-4.383-9.659-3.876-1.456-8.202.505-9.658 4.383-7.845 20.883-12.09 42.787-12.644 65.182-3.108 2.291-5.137 5.966-5.137 10.114v25.524c-11.616 4.96-19.778 16.496-19.778 29.904v1.649c-17.309 3.321-30.43 18.565-30.43 36.825v31.286c0 18.26 13.121 33.505 30.429 36.822v7.735c0 17.92 14.579 32.5 32.5 32.5h30.929c7.411 0 13.745-4.638 16.292-11.157h9.136c17.921 0 32.5-14.58 32.5-32.5v-92c0-17.92-14.579-32.5-32.5-32.5h-9.136c-.964-2.466-2.468-4.656-4.371-6.433v-27.653c0-4.082-1.964-7.704-4.987-10.002 1.217-39.395 17-75.974 44.854-104 2.114.851 4.366 1.293 6.63 1.293 3.994 0 8.013-1.339 11.315-4.063 25.771-21.243 58.41-32.942 91.905-32.942 13.373 0 26.634 1.829 39.414 5.436 3.983 1.127 8.13-1.194 9.255-5.18 1.125-3.987-1.194-8.13-5.181-9.255-11.549-3.26-23.453-5.181-35.484-5.779v-35.766c43.155 1.773 84.699 17.833 117.756 45.685.728.613.878 1.4.902 1.814.025.428-.034 1.256-.716 1.986l-20.814 22.256c-.967 1.034-2.556 1.104-3.691.167-7.429-6.124-15.446-11.597-23.829-16.268-3.621-2.017-8.187-.717-10.202 2.901s-.717 8.186 2.901 10.202c7.594 4.231 14.857 9.19 21.589 14.739 5.173 4.263 12.091 5.114 17.936 2.764 27.85 28.019 43.645 64.61 44.866 104.007-3.025 2.298-4.99 5.921-4.99 10.004v28.684c-1.427 1.57-2.572 3.393-3.357 5.402h-9.136c-17.921 0-32.5 14.58-32.5 32.5v92c0 17.92 14.579 32.5 32.5 32.5h9.136c2.548 6.519 8.882 11.157 16.292 11.157h30.929c17.921 0 32.5-14.58 32.5-32.5v-7.228c17.307-3.316 30.428-18.561 30.428-36.821v-31.286c0-18.259-13.121-33.504-30.429-36.821zm-416.364-34.657v-20.5h25.571v20.5zm-50.207 102.258v-31.287c0-9.937 6.477-18.383 15.429-21.355v73.997c-8.952-2.972-15.429-11.419-15.429-21.355zm30.429 44.557v-114.315c0-9.649 7.851-17.5 17.5-17.5h3v149.314h-3c-9.65.001-17.5-7.85-17.5-17.499zm91.357-103.158v92c0 9.649-7.851 17.5-17.5 17.5h-7.929v-30.487c0-4.142-3.357-7.5-7.5-7.5s-7.5 3.358-7.5 7.5v39.145c0 1.378-1.121 2.5-2.5 2.5h-12.928v-149.315h12.929c1.379 0 2.5 1.122 2.5 2.5v70.191c0 4.142 3.357 7.5 7.5 7.5s7.5-3.358 7.5-7.5v-61.534h7.929c9.649 0 17.499 7.851 17.499 17.5zm17.264-194.932c-1.14.938-2.724.866-3.69-.167l-20.816-22.254c-.682-.729-.741-1.558-.716-1.986.024-.414.175-1.201.903-1.815 33.314-28.071 75.251-44.16 118.77-45.723v35.733c-34.496 1.52-67.798 14.242-94.451 36.212zm266.157 130.775h25.571v20.5h-25.571zm20.338-15h-15.442c-.918-21.219-5.722-41.769-14.34-61.179-8.287-18.667-19.72-35.468-34.015-50.045l10.537-11.267c32.728 33.104 51.435 76.134 53.26 122.491zm-65.331 171.157v-92c0-9.649 7.851-17.5 17.5-17.5h7.929v127h-7.929c-9.65 0-17.5-7.85-17.5-17.5zm91.357 11.158c0 9.649-7.851 17.5-17.5 17.5h-3v-76.496c0-4.142-3.357-7.5-7.5-7.5s-7.5 3.358-7.5 7.5v76.496h-12.929c-1.379 0-2.5-1.122-2.5-2.5 0-2.159 0-142.049 0-144.314 0-1.378 1.121-2.5 2.5-2.5h12.929v37.585c0 4.142 3.357 7.5 7.5 7.5s7.5-3.358 7.5-7.5v-37.585h3c9.649 0 17.5 7.851 17.5 17.5zm30.429-44.051c0 9.937-6.477 18.383-15.429 21.355v-73.996c8.952 2.972 15.429 11.419 15.429 21.355z"/></g></svg>