<svg id="Capa_1" enable-background="new 0 0 512 512" height="512" viewBox="0 0 512 512" width="512" xmlns="http://www.w3.org/2000/svg"><g><g><g><circle cx="256" cy="256" fill="#bae6ef" r="152"/><path d="m271 407.27c-4.93.48-9.94.73-15 .73-83.95 0-152-68.05-152-152s68.05-152 152-152c5.06 0 10.07.25 15 .73-76.91 7.54-137 72.38-137 151.27s60.09 143.73 137 151.27z" fill="#94d8e6"/></g><path d="m316.5 256.468c0-30.996-23.31-56.548-53.356-60.083-2.343-.276-4.727.529-7.144.529-33.413 0-58.404 25.672-58.404 59.085s24.991 60.564 58.404 60.564c2.838 0 5.631.209 8.365-.169 29.454-4.073 52.135-29.351 52.135-59.926z" fill="#df646e"/><path d="m264.5 316.37c-2.78.4-5.61.6-8.5.6-33.41 0-60.5-27.09-60.5-60.5 0-33.42 27.09-60.5 60.5-60.5 2.89 0 5.72.2 8.5.6-29.39 4.13-52 29.37-52 59.9 0 30.52 22.61 55.77 52 59.9z" fill="#dc4955"/><g><path d="m256 8.617c-17.949 0-31.511 13.434-31.511 31.383s13.562 31.426 31.511 31.426c2.581 0 5.093.774 7.5.205 14.333-3.386 25-16.262 25-31.63s-10.666-28.244-25-31.63c-2.407-.57-4.919.246-7.5.246z" fill="#df646e"/><path d="m264 71.51c-2.56.65-5.24.99-8 .99-17.95 0-32.5-14.55-32.5-32.5s14.55-32.5 32.5-32.5c2.76 0 5.44.34 8 .99-14.08 3.57-24.5 16.32-24.5 31.51s10.42 27.94 24.5 31.51z" fill="#dc4955"/></g><g><path d="m256 440.617c-17.949 0-31.511 13.434-31.511 31.383s13.561 31.426 31.511 31.426c2.581 0 5.093.773 7.5.205 14.333-3.386 25-16.262 25-31.63s-10.666-28.244-25-31.63c-2.407-.57-4.919.246-7.5.246z" fill="#df646e"/><path d="m264 503.51c-2.56.65-5.24.99-8 .99-17.95 0-32.5-14.55-32.5-32.5s14.55-32.5 32.5-32.5c2.76 0 5.44.34 8 .99-14.08 3.57-24.5 16.32-24.5 31.51s10.42 27.94 24.5 31.51z" fill="#dc4955"/></g><path d="m282.243 249.545-33.167-19.202c-5.333-3.088-12.008.761-12.008 6.923v38.404c0 6.163 6.675 10.011 12.008 6.923l33.167-19.202c5.323-3.081 5.323-10.765 0-13.846z" fill="#f8f7f7"/><g><path d="m472.235 224.617c-17.949 0-31.511 13.434-31.511 31.383s13.561 31.426 31.511 31.426c2.581 0 5.093.773 7.5.205 14.333-3.386 25-16.262 25-31.63s-10.666-28.244-25-31.63c-2.407-.57-4.919.246-7.5.246z" fill="#df646e"/><path d="m480.235 287.51c-2.56.65-5.24.99-8 .99-17.95 0-32.5-14.55-32.5-32.5s14.55-32.5 32.5-32.5c2.76 0 5.44.34 8 .99-14.08 3.57-24.5 16.32-24.5 31.51s10.42 27.94 24.5 31.51z" fill="#dc4955"/></g><g><path d="m40 224.617c-17.949 0-31.511 13.434-31.511 31.383s13.562 31.426 31.511 31.426c2.581 0 5.093.773 7.5.205 14.333-3.386 25-16.262 25-31.63s-10.666-28.244-25-31.63c-2.407-.57-4.919.246-7.5.246z" fill="#df646e"/><path d="m48 287.51c-2.56.65-5.24.99-8 .99-17.95 0-32.5-14.55-32.5-32.5s14.55-32.5 32.5-32.5c2.76 0 5.44.34 8 .99-14.08 3.57-24.5 16.32-24.5 31.51s10.42 27.94 24.5 31.51z" fill="#dc4955"/></g><g><path d="m103.266 71.882c-17.949 0-31.511 13.434-31.511 31.383s13.561 31.426 31.511 31.426c2.581 0 5.093.773 7.5.205 14.333-3.386 25-16.262 25-31.63s-10.666-28.244-25-31.63c-2.408-.57-4.919.246-7.5.246z" fill="#bae6ef"/><path d="m111.266 134.775c-2.56.65-5.24.99-8 .99-17.95 0-32.5-14.55-32.5-32.5s14.55-32.5 32.5-32.5c2.76 0 5.44.34 8 .99-14.08 3.57-24.5 16.32-24.5 31.51s10.419 27.94 24.5 31.51z" fill="#94d8e6"/></g><g><path d="m408.734 71.882c-17.949 0-31.511 13.434-31.511 31.383s13.561 31.426 31.511 31.426c2.581 0 5.093.773 7.5.205 14.333-3.386 25-16.262 25-31.63s-10.666-28.244-25-31.63c-2.407-.57-4.918.246-7.5.246z" fill="#bae6ef"/><path d="m416.734 134.775c-2.56.65-5.24.99-8 .99-17.95 0-32.5-14.55-32.5-32.5s14.55-32.5 32.5-32.5c2.76 0 5.44.34 8 .99-14.08 3.57-24.5 16.32-24.5 31.51s10.42 27.94 24.5 31.51z" fill="#94d8e6"/></g><g><path d="m103.266 377.352c-17.949 0-31.511 13.434-31.511 31.383s13.561 31.426 31.511 31.426c2.581 0 5.093.774 7.5.205 14.333-3.386 25-16.262 25-31.63s-10.666-28.244-25-31.63c-2.408-.57-4.919.246-7.5.246z" fill="#bae6ef"/><path d="m111.266 440.245c-2.56.65-5.24.99-8 .99-17.95 0-32.5-14.55-32.5-32.5s14.55-32.5 32.5-32.5c2.76 0 5.44.34 8 .99-14.08 3.57-24.5 16.32-24.5 31.51s10.419 27.94 24.5 31.51z" fill="#94d8e6"/></g><g><path d="m408.736 377.352c-17.949 0-31.511 13.434-31.511 31.383s13.561 31.426 31.511 31.426c2.581 0 5.093.774 7.5.205 14.333-3.386 25-16.262 25-31.63s-10.666-28.244-25-31.63c-2.408-.57-4.919.246-7.5.246z" fill="#bae6ef"/><path d="m416.736 440.245c-2.56.65-5.24.99-8 .99-17.95 0-32.5-14.55-32.5-32.5s14.55-32.5 32.5-32.5c2.76 0 5.44.34 8 .99-14.08 3.57-24.5 16.32-24.5 31.51s10.42 27.94 24.5 31.51z" fill="#94d8e6"/></g></g><g><path d="m492.929 221.907c-3.529-2.171-8.148-1.067-10.317 2.46-2.17 3.528-1.068 8.147 2.46 10.317 7.469 4.593 11.928 12.562 11.928 21.316 0 13.785-11.215 25-25 25s-25-11.215-25-25c0-8.78 4.479-16.761 11.982-21.349 3.533-2.161 4.646-6.777 2.485-10.312s-6.777-4.648-10.312-2.485c-9.816 6.003-16.389 15.644-18.455 26.646h-17.383c-1.784-38.334-17.157-73.176-41.409-99.802l12.351-12.351c14.686 10.105 36.953 9.21 50.759-4.797 14.926-14.27 15.832-41.365 0-56.568-14.27-14.928-41.364-15.832-56.569-.001-13.782 13.782-15.375 35.199-4.797 50.759l-12.351 12.351c-26.626-24.252-61.468-39.625-99.802-41.409v-17.397c18.483-3.522 32.501-19.793 32.501-39.285 0-22.056-17.944-40-40-40s-40 17.944-40 40c0 19.492 14.018 35.763 32.5 39.285v17.397c-38.334 1.784-73.176 17.157-99.802 41.409l-12.355-12.355c6.773-9.947 8.778-22.51 5.14-34.295-1.222-3.958-5.422-6.18-9.378-4.954-3.958 1.222-6.176 5.42-4.954 9.378 2.745 8.895.366 18.504-6.208 25.078-9.749 9.746-25.61 9.747-35.355 0-9.002-8.658-10.097-25.567 0-35.354 5.736-5.738 13.946-8.34 21.955-6.957 4.074.7 7.961-2.033 8.665-6.116.704-4.081-2.034-7.961-6.116-8.665-12.799-2.211-25.931 1.95-35.11 11.131-14.928 14.27-15.832 41.364-.001 56.569 13.331 13.339 34.487 15.516 50.759 4.797l12.351 12.351c-24.252 26.626-39.625 61.468-41.409 99.802h-17.397c-3.522-18.483-19.793-32.501-39.285-32.501-22.056 0-40 17.944-40 40s17.944 40 40 40c19.492 0 35.763-14.018 39.285-32.5h17.397c1.784 38.334 17.157 73.176 41.409 99.802l-12.351 12.351c-15.559-10.578-36.977-8.984-50.759 4.797-14.926 14.27-15.832 41.365 0 56.568 14.27 14.928 41.364 15.832 56.569.001 13.782-13.783 15.375-35.2 4.797-50.759l12.351-12.351c26.626 24.252 61.468 39.625 99.802 41.409v17.397c-18.482 3.522-32.5 19.793-32.5 39.285 0 22.056 17.944 40 40 40s40-17.944 40-40c0-19.492-14.018-35.763-32.5-39.285v-17.397c38.334-1.784 73.176-17.157 99.802-41.409l12.351 12.351c-10.578 15.559-8.985 36.976 4.797 50.759 14.27 14.926 41.365 15.832 56.568 0 14.928-14.27 15.832-41.364.001-56.569-13.784-13.781-35.201-15.375-50.759-4.797l-12.351-12.351c24.252-26.626 39.625-61.468 41.409-99.802h17.397c3.522 18.482 19.793 32.5 39.285 32.5 22.056 0 40-17.944 40-40 0-14.005-7.13-26.75-19.071-34.093zm-183.45 168.33c12.611-13.085 23.299-31.72 30.361-50.396 17.523-6.572 36.567-17.114 50.396-30.361-14.684 36.73-44.026 66.072-80.757 80.757zm-187.716-80.758c13.085 12.611 31.72 23.299 50.396 30.361 6.572 17.523 17.114 36.567 30.361 50.396-36.73-14.684-66.072-44.026-80.757-80.757zm80.758-187.716c-12.611 13.085-23.299 31.72-30.361 50.396-17.523 6.572-36.567 17.114-50.396 30.361 14.684-36.73 44.026-66.072 80.757-80.757zm187.716 80.758c-13.085-12.611-31.72-23.3-50.396-30.362-6.572-17.523-17.114-36.567-30.362-50.396 36.731 14.685 66.073 44.027 80.758 80.758zm-36.008 45.979c-.565-20.099-3.399-39.533-8.292-57.49 24.987 10.373 51.945 35.49 53.964 57.49zm-15.005 0h-15.706c-3.671-31.293-28.661-56.152-60.018-59.609v-16.114c23.019.682 45.005 4.52 64.596 11.127 6.607 19.591 10.446 41.577 11.128 64.596zm-75.724-90.729c0-11.092 0-34.719 0-45.672 22.817 2.662 45.942 27.624 57.49 53.964-17.957-4.893-37.391-7.728-57.49-8.292zm-15 0c-20.099.565-39.533 3.399-57.49 8.292 10.373-24.987 35.49-51.945 57.49-53.964zm0 15.005v16.114c-31.357 3.458-56.346 28.316-60.018 59.609h-15.706c.682-23.019 4.52-45.005 11.127-64.596 19.592-6.606 41.578-10.445 64.597-11.127zm-90.729 75.724h-45.672c2.662-22.817 27.624-45.942 53.964-57.49-4.893 17.957-7.728 37.391-8.292 57.49zm0 15c.565 20.099 3.399 39.533 8.292 57.49-24.987-10.373-51.945-35.49-53.964-57.49zm15.005 0h15.597c.904 8.684 3.464 17.16 7.548 24.844 1.942 3.656 6.481 5.049 10.143 3.102 3.657-1.943 5.046-6.485 3.102-10.143-4.033-7.588-6.165-16.176-6.165-24.835 0-29.225 23.775-53 53-53s53 23.775 53 53-23.775 53-53 53c-8.881 0-17.662-2.236-25.396-6.468-3.633-1.988-8.19-.653-10.18 2.98-1.987 3.634-.653 8.191 2.98 10.18 7.745 4.237 16.303 6.908 25.096 7.884v15.179c-23.019-.682-45.005-4.52-64.596-11.127-6.608-19.591-10.447-41.577-11.129-64.596zm75.724 90.729v45.672c-22.817-2.662-45.942-27.624-57.49-53.964 17.957 4.893 37.391 7.728 57.49 8.292zm15 0c20.099-.565 39.533-3.399 57.49-8.292-10.373 24.987-35.49 51.945-57.49 53.964zm0-15.005v-15.179c31.67-3.492 56.861-28.811 60.137-60.545h15.587c-.682 23.019-4.52 45.005-11.127 64.596-19.592 6.607-41.578 10.446-64.597 11.128zm90.729-75.724h45.672c-2.662 22.817-27.624 45.942-53.964 57.49 4.893-17.957 7.728-37.391 8.292-57.49zm36.829-177.912c8.66-9.002 25.567-10.097 35.355 0 9.001 8.659 10.096 25.567-.001 35.354-9.748 9.749-25.608 9.746-35.354.001-9.747-9.748-9.747-25.608 0-35.355zm-160.058-45.588c0-13.785 11.215-25 25-25s25 11.215 25 25-11.215 25-25 25-25-11.215-25-25zm-191 241c-13.785 0-25-11.215-25-25s11.215-25 25-25 25 11.215 25 25-11.215 25-25 25zm80.942 145.412c-8.659 9.002-25.567 10.097-35.355 0-9.001-8.659-10.096-25.567.001-35.354 9.105-9.06 25.12-10.137 35.354-.001 9.747 9.748 9.747 25.608 0 35.355zm160.058 45.588c0 13.785-11.215 25-25 25s-25-11.215-25-25 11.215-25 25-25 25 11.215 25 25zm145.412-80.942c9.002 8.659 10.097 25.567 0 35.355-8.659 9.001-25.567 10.096-35.354-.001-9.747-9.747-9.747-25.607 0-35.355 9.747-9.746 25.608-9.747 35.354.001z"/><path d="m237.325 289.098c3.869 2.064 9.329 3.252 15.509-.014l33.167-19.201c4.843-2.804 7.733-7.818 7.733-13.414 0-5.597-2.891-10.611-7.733-13.415v.001l-33.167-19.202c-4.854-2.812-10.65-2.815-15.508-.015-4.858 2.801-7.759 7.821-7.759 13.429v38.403c0 5.606 2.901 10.626 7.758 13.428zm7.242-51.831c0-.115 0-.289.251-.434.101-.059.186-.079.257-.079.106 0 .184.045.243.079l33.167 19.202v.001c.1.057.249.144.249.433 0 .288-.149.375-.249.433l-33.166 19.201c-.1.058-.25.146-.501 0-.251-.145-.251-.317-.251-.433z"/></g></g></svg>