<svg id="Capa_1" enable-background="new 0 0 512 512" height="512" viewBox="0 0 512 512" width="512" xmlns="http://www.w3.org/2000/svg"><g><g><path d="m281 441.864h-46.638v-69.728h46.638l-1.798 12.662 1.798 5.702z" fill="#9e959e"/><path d="m281 374.5-23.319-3.683-26.681 3.683v65h15v-46c0-1.657 1.343-3 3-3h32z" fill="#8e868e"/><g><path d="m285 374.5h-46.972l-10.028-1c-16.569 0-30-12.431-30-29v-35h115l2 29.27v5.73c0 16.569-13.431 30-30 30z" fill="#f8f7f7"/></g><path d="m346.5 473.5-181 1v-14c0-9.319 5.374-18.15 14-20.37 1.598-.411 3.273-.63 5-.63h143c10.71 0 19.454 8.419 19.975 19 .016.331-.975.665-.975 1z" fill="#9e959e"/><path d="m347.5 459.5v14l-88.06 5.757-94.94-5.757v-14c0-9.32 6.37-17.15 15-19.37v15.37c0 1.657 1.343 3 3 3h164.97c.02.33.03.67.03 1z" fill="#8e868e"/><path d="m398.5 503.5h-285c-5.523 0-9-3.477-9-9 0-9.76 4.658-17.965 13.68-20.32 1.699-.444 3.482-.68 5.32-.68h265c9.875 0 18.158 6.816 20.401 16 .391 1.603-.401 2.277-.401 4 0 5.523-4.477 10-10 10z" fill="#9e959e"/><path d="m409.5 494.5c0 2.76-1.12 5.26-2.93 7.07s-4.31 2.93-7.07 2.93h-287c-5.52 0-10-4.48-10-10 0-5.8 2.35-11.05 6.15-14.85 2.6-2.6 5.87-4.52 9.53-5.47-.44 1.7-.68 3.48-.68 5.32 0 5.52 4.48 10 10 10h281.4c.39 1.6.6 3.28.6 5z" fill="#8e868e"/><path d="m212 309.5h-15v29.27 5.73c0 16.569 13.431 30 30 30h15c-15.539.083-28.931-12.528-29.948-28.175-.087-1.345 1.201-2.354 2.507-2.02 13.257 3.389 27.139 5.195 41.442 5.195 20.76 0 40.64-3.79 59-10.73v-29.27z" fill="#e8e8e8"/><path d="m405.917 182c0-2.632 2.516-5.248 2.384-7.848-4.084-80.576-70.71-144.652-152.301-144.652-22.218 0-41.424 5.472-60 14.014-51.841 23.838-87.991 76.48-87.991 138.486 0 84.223 63.41 151.977 147.633 151.977 3.039 0 6.416.434 9.411.259 77.697-4.549 139.767-67.268 143.289-145.236.105-2.32-2.425-4.654-2.425-7z" fill="#9e959e"/><path d="m266 334.18c-3.3.21-6.64.32-10 .32-81.874 0-148.683-64.529-152.342-145.5-.105-2.32 2.37-4.765 2.37-7.111 0-2.632-2.461-5.137-2.329-7.736 4.084-80.574 70.713-144.653 152.301-144.653 3.36 0 6.7.11 10 .32-79.56 5.16-142.5 71.32-142.5 152.18s62.94 147.02 142.5 152.18z" fill="#8e868e"/><path d="m256 240.5c-33.413 0-60.5-27.087-60.5-60.5l2.234-149.477c0-9.319 4.14-20.173 12.766-22.393 1.598-.411 3.273-.63 5-.63h33l7.5 3.206 7.5-3.206h33c11.046 0 20 8.954 20 20v152.5c0 33.413-27.087 60.5-60.5 60.5z" fill="#f8f7f7"/><path d="m263.5 240.03c-2.45.31-4.96.47-7.5.47-33.41 0-60.5-27.09-60.5-60.5v-152.5c0-9.32 6.37-17.15 15-19.37v171.87c0 30.87 23.13 56.34 53 60.03z" fill="#e8e8e8"/><circle cx="256" cy="182" fill="#f8f7f7" r="90"/><path d="m266.5 271.39c-3.44.4-6.95.61-10.5.61-49.71 0-90-40.29-90-90s40.29-90 90-90c3.55 0 7.06.21 10.5.61-44.76 5.2-79.5 43.23-79.5 89.39s34.74 84.19 79.5 89.39z" fill="#e8e8e8"/><path d="m316 182c0-30.794-23.199-56.17-53.073-59.604-2.273-.261-4.505.494-6.848.494-33.137 0-58.345 25.862-58.345 58.999s25.208 59.46 58.345 59.46c2.3 0 4.492.522 6.725.27 29.933-3.379 53.196-28.782 53.196-59.619z" fill="#bae6ef"/><g fill="#94d8e6"><path d="m264 241.47c-2.62.35-5.29.53-8 .53-33.14 0-60-26.86-60-60s26.86-60 60-60c2.71 0 5.38.18 8 .53-29.36 3.91-52 29.04-52 59.47s22.64 55.56 52 59.47z"/><circle cx="256" cy="182" r="15"/></g></g><g><path d="m318.276 296.305c3.64-1.977 4.987-6.531 3.011-10.17s-6.528-4.987-10.171-3.01c-16.71 9.077-35.663 13.875-54.81 13.875-19.374 0-38.526-4.907-55.385-14.189-3.625-1.998-8.189-.676-10.188 2.952-1.997 3.628-.676 8.189 2.953 10.188 19.068 10.5 40.722 16.05 62.619 16.05 21.641-.001 43.071-5.428 61.971-15.696z"/><path d="m256 249.5c23.514 0 44.966-11.939 57.383-31.938 2.185-3.519 1.104-8.143-2.416-10.328-3.52-2.187-8.143-1.104-10.328 2.416-9.661 15.56-26.349 24.85-44.639 24.85-28.948 0-52.5-23.551-52.5-52.5s23.552-52.5 52.5-52.5c28.581 0 51.632 22.364 52.477 50.914.123 4.141 3.588 7.393 7.719 7.275 4.141-.123 7.397-3.578 7.275-7.718-.521-17.603-7.771-34.068-20.414-46.364-12.669-12.321-29.381-19.107-47.057-19.107-37.22 0-67.5 30.28-67.5 67.5s30.28 67.5 67.5 67.5z"/><path d="m233.5 182c0 12.407 10.094 22.5 22.5 22.5s22.5-10.093 22.5-22.5-10.094-22.5-22.5-22.5-22.5 10.093-22.5 22.5zm30 0c0 4.136-3.364 7.5-7.5 7.5s-7.5-3.364-7.5-7.5 3.364-7.5 7.5-7.5 7.5 3.364 7.5 7.5z"/><path d="m388.5 466h-33.5v-6.5c0-15.164-12.337-27.5-27.5-27.5h-39v-50.169c19.042-1.771 34-17.834 34-37.331v-16.99c55.121-25.291 93.5-81 93.5-145.51 0-62.195-35.959-118.526-92-144.853v-9.647c0-15.164-12.337-27.5-27.5-27.5h-81c-15.163 0-27.5 12.336-27.5 27.5v9.635c-18.054 8.477-34.199 20.131-48.035 34.701-2.853 3.003-2.729 7.75.273 10.603 1.451 1.378 3.31 2.062 5.164 2.062 1.984 0 3.965-.783 5.439-2.335 10.892-11.468 23.356-20.942 37.159-28.269v58.303c-16.394 15.975-27.199 37.655-29.17 61.8h-47.592c1.267-23.013 7.966-45.423 19.597-65.252 2.097-3.573.898-8.168-2.674-10.264-3.572-2.094-8.168-.898-10.264 2.674-14.325 24.421-21.897 52.376-21.897 80.842 0 64.51 38.379 120.219 93.5 145.51v16.99c0 19.497 14.958 35.56 34 37.331v50.169h-39c-15.163 0-27.5 12.336-27.5 27.5v6.5h-33.5c-15.715 0-28.5 12.785-28.5 28.5 0 9.649 7.851 17.5 17.5 17.5h287c9.649 0 17.5-7.851 17.5-17.5 0-15.715-12.785-28.5-28.5-28.5zm12.256-292h-47.586c-1.97-24.145-12.776-45.825-29.17-61.8v-58.295c44.783 23.78 73.965 69.31 76.756 120.095zm-197.756-146.5c0-6.893 5.607-12.5 12.5-12.5h33v16.5c0 4.142 3.357 7.5 7.5 7.5s7.5-3.358 7.5-7.5v-16.5h33c6.893 0 12.5 5.607 12.5 12.5v72.702c-15.268-9.926-33.471-15.702-53-15.702s-37.732 5.776-53 15.702zm53 72c45.49 0 82.5 37.009 82.5 82.5s-37.01 82.5-82.5 82.5-82.5-37.009-82.5-82.5 37.01-82.5 82.5-82.5zm-144.828 89.5h47.582c3.601 50.507 45.839 90.5 97.246 90.5s93.646-39.993 97.246-90.5h47.582c-3.665 76.715-67.222 138-144.828 138s-141.163-61.285-144.828-138zm93.328 155.5v-11.005c16.168 5.512 33.491 8.505 51.5 8.505s35.332-2.993 51.5-8.505v11.005c0 12.407-10.094 22.5-22.5 22.5h-58c-12.406 0-22.5-10.093-22.5-22.5zm34 37.5h35v50h-35zm161 115h-287c-1.379 0-2.5-1.122-2.5-2.5 0-7.444 6.056-13.5 13.5-13.5h83.543c4.143 0 7.5-3.358 7.5-7.5s-3.357-7.5-7.5-7.5h-35.043v-6.5c0-6.893 5.607-12.5 12.5-12.5h143c6.893 0 12.5 5.607 12.5 12.5v6.5h-97.979c-4.143 0-7.5 3.358-7.5 7.5s3.357 7.5 7.5 7.5h146.479c7.444 0 13.5 6.056 13.5 13.5 0 1.378-1.121 2.5-2.5 2.5z"/><circle cx="256" cy="62.502" r="7.499"/><circle cx="226" cy="62.502" r="7.499"/><circle cx="286" cy="62.502" r="7.499"/></g></g></svg>