<svg id="Capa_1" enable-background="new 0 0 512 512" height="512" viewBox="0 0 512 512" width="512" xmlns="http://www.w3.org/2000/svg"><g><g><path d="m410 467c0 20.711-16.789 37.5-37.5 37.5h-233c-20.711 0-37.5-16.789-37.5-37.5v-422c0-20.711 16.789-37.5 37.5-37.5h233c20.711 0 37.5 16.789 37.5 37.5z" fill="#f8f7f7"/><path d="m405.93 484c-6.2 12.17-18.84 20.5-33.43 20.5h-233c-20.71 0-37.5-16.79-37.5-37.5v-422c0-14.61 8.35-27.26 20.54-33.45v447.45c0 13.81 11.19 25 25 25z" fill="#e8e8e8"/><circle cx="195.5" cy="294.5" fill="#ffd163" r="15"/><circle cx="256.5" cy="320.5" fill="#ccf49f" r="15"/><circle cx="327.5" cy="269.5" fill="#c8b8f4" r="15"/></g><g><path d="m372.5 0h-233c-24.813 0-45 20.187-45 45v151.106c0 4.142 3.358 7.5 7.5 7.5s7.5-3.358 7.5-7.5v-151.106c0-16.542 13.458-30 30-30h233c16.542 0 30 13.458 30 30v41.191c0 4.142 3.358 7.5 7.5 7.5s7.5-3.358 7.5-7.5v-41.191c0-24.813-20.187-45-45-45z"/><path d="m410 113.415c-4.142 0-7.5 3.358-7.5 7.5v346.085c0 16.542-13.458 30-30 30h-233c-16.542 0-30-13.458-30-30v-236.042c0-4.142-3.358-7.5-7.5-7.5s-7.5 3.358-7.5 7.5v236.042c0 24.813 20.187 45 45 45h233c24.813 0 45-20.187 45-45v-346.085c0-4.142-3.358-7.5-7.5-7.5z"/><path d="m269 30h-50c-4.142 0-7.5 3.358-7.5 7.5s3.358 7.5 7.5 7.5h50c4.142 0 7.5-3.358 7.5-7.5s-3.358-7.5-7.5-7.5z"/><path d="m192.5 97h-51c-4.142 0-7.5 3.358-7.5 7.5s3.358 7.5 7.5 7.5h51c4.142 0 7.5-3.358 7.5-7.5s-3.358-7.5-7.5-7.5z"/><path d="m261 104.5c0 4.142 3.358 7.5 7.5 7.5h102c4.142 0 7.5-3.358 7.5-7.5s-3.358-7.5-7.5-7.5h-102c-4.142 0-7.5 3.358-7.5 7.5z"/><path d="m178 154.5c0 4.142 3.358 7.5 7.5 7.5h55c4.142 0 7.5-3.358 7.5-7.5s-3.358-7.5-7.5-7.5h-55c-4.142 0-7.5 3.358-7.5 7.5z"/><path d="m141.5 162h14c4.142 0 7.5-3.358 7.5-7.5s-3.358-7.5-7.5-7.5h-14c-4.142 0-7.5 3.358-7.5 7.5s3.358 7.5 7.5 7.5z"/><path d="m141.5 192h51c4.142 0 7.5-3.358 7.5-7.5s-3.358-7.5-7.5-7.5h-51c-4.142 0-7.5 3.358-7.5 7.5s3.358 7.5 7.5 7.5z"/><path d="m241 207c-4.142 0-7.5 3.358-7.5 7.5s3.358 7.5 7.5 7.5h27.5c4.142 0 7.5-3.358 7.5-7.5s-3.358-7.5-7.5-7.5z"/><path d="m141.5 222h69.5c4.142 0 7.5-3.358 7.5-7.5s-3.358-7.5-7.5-7.5h-69.5c-4.142 0-7.5 3.358-7.5 7.5s3.358 7.5 7.5 7.5z"/><path d="m370.5 147h-20.5c-4.142 0-7.5 3.358-7.5 7.5s3.358 7.5 7.5 7.5h20.5c4.142 0 7.5-3.358 7.5-7.5s-3.358-7.5-7.5-7.5z"/><path d="m370.5 177h-20.5c-4.142 0-7.5 3.358-7.5 7.5s3.358 7.5 7.5 7.5h20.5c4.142 0 7.5-3.358 7.5-7.5s-3.358-7.5-7.5-7.5z"/><path d="m370.5 207h-20.5c-4.142 0-7.5 3.358-7.5 7.5s3.358 7.5 7.5 7.5h20.5c4.142 0 7.5-3.358 7.5-7.5s-3.358-7.5-7.5-7.5z"/><path d="m134 385.5c0 4.142 3.358 7.5 7.5 7.5s7.5-3.358 7.5-7.5v-13.5h94.213c4.142 0 7.5-3.358 7.5-7.5s-3.358-7.5-7.5-7.5h-40.213v-17.5c0-4.142-3.358-7.5-7.5-7.5s-7.5 3.358-7.5 7.5v17.5h-39v-32.707l30.415-14.081c4.088 4.184 9.787 6.789 16.085 6.789 6.546 0 12.446-2.812 16.561-7.288l21.988 9.372c-.029.469-.049.94-.049 1.416 0 12.407 10.093 22.5 22.5 22.5s22.5-10.093 22.5-22.5c0-2.18-.318-4.287-.899-6.282l36.556-26.259c3.645 2.543 8.071 4.041 12.843 4.041 5.547 0 10.629-2.022 14.555-5.362l24.675 14.346c1.186.689 2.483 1.018 3.763 1.018 2.584 0 5.098-1.337 6.491-3.732 2.082-3.581.867-8.171-2.714-10.253l-24.664-14.34c.255-1.354.395-2.749.395-4.176 0-12.407-10.093-22.5-22.5-22.5s-22.501 10.091-22.501 22.498c0 2.18.318 4.287.899 6.282l-36.556 26.259c-3.645-2.543-8.071-4.041-12.843-4.041-6.546 0-12.446 2.812-16.561 7.288l-21.988-9.372c.029-.469.049-.94.049-1.416 0-12.407-10.093-22.5-22.5-22.5s-22.5 10.093-22.5 22.5c0 .71.037 1.411.102 2.105l-24.102 11.158v-53.263c0-4.142-3.358-7.5-7.5-7.5s-7.5 3.358-7.5 7.5zm193.5-123.5c4.136 0 7.5 3.364 7.5 7.5s-3.364 7.5-7.5 7.5-7.5-3.364-7.5-7.5 3.364-7.5 7.5-7.5zm-71 51c4.136 0 7.5 3.364 7.5 7.5s-3.364 7.5-7.5 7.5-7.5-3.364-7.5-7.5 3.364-7.5 7.5-7.5zm-61-26c4.136 0 7.5 3.364 7.5 7.5s-3.364 7.5-7.5 7.5-7.5-3.364-7.5-7.5 3.364-7.5 7.5-7.5z"/><path d="m370.5 357h-35.5v-42.5c0-4.142-3.358-7.5-7.5-7.5s-7.5 3.358-7.5 7.5v42.5h-41.681c-4.142 0-7.5 3.358-7.5 7.5s3.358 7.5 7.5 7.5h92.181c4.142 0 7.5-3.358 7.5-7.5s-3.358-7.5-7.5-7.5z"/><path d="m141.5 435h32.643c4.142 0 7.5-3.358 7.5-7.5s-3.358-7.5-7.5-7.5h-32.643c-4.142 0-7.5 3.358-7.5 7.5s3.358 7.5 7.5 7.5z"/><path d="m206.786 420c-4.142 0-7.5 3.358-7.5 7.5s3.358 7.5 7.5 7.5h32.643c4.142 0 7.5-3.358 7.5-7.5s-3.358-7.5-7.5-7.5z"/><path d="m272.071 420c-4.142 0-7.5 3.358-7.5 7.5s3.358 7.5 7.5 7.5h32.643c4.142 0 7.5-3.358 7.5-7.5s-3.358-7.5-7.5-7.5z"/><path d="m370 420h-32.643c-4.142 0-7.5 3.358-7.5 7.5s3.358 7.5 7.5 7.5h32.643c4.142 0 7.5-3.358 7.5-7.5s-3.358-7.5-7.5-7.5z"/><circle cx="294" cy="37.5" r="7.5"/></g></g></svg>