<svg id="Capa_1" enable-background="new 0 0 512 512" height="512" viewBox="0 0 512 512" width="512" xmlns="http://www.w3.org/2000/svg"><g><g><path d="m104.51 461.798c-1.76 1.26-3.63 2.37-5.58 3.33l-31.061 15.217-45.97 20.66c-1.28.62-2.64.93-4 .93-2.36 0-4.69-.92-6.44-2.67-2.75-2.75-2.591-3.556-.881-7.046l38.312-78.605c.96-1.95-.03-4.446 1.23-6.205l31.357 24.26z" fill="#f2d1a5"/><path d="m67.87 480.348-47.26 23.15c-.27.131-.543.248-.82.351-1.034.386-1.424-.125-2.497-.125-2.36 0-4.69-.92-6.44-2.67-2.75-2.75-3.228-6.171-1.518-9.661l22.245-47.335z" fill="#9e959e"/><path d="m230.02 337.098-120.4 120.4c-1.58 1.58-3.29 3.02-5.11 4.3l-27.19-27.19 125.1-125.11 16.672 12.96z" fill="#ccf49f"/><path d="m202.42 309.498-125.1 125.11-27.2-27.2c1.28-1.82 2.73-3.53 4.31-5.11l120.4-120.39 15.638 10.605z" fill="#b3e59f"/><path d="m62.19 419.478v.01c-1.26 1.76-2.37 3.63-3.33 5.58l-15.34 30.93-7.841-2.972-4.099-8.968 15.21-31.07c.96-1.95 2.07-3.82 3.33-5.58l8.68 2.46z" fill="#f2bb88"/><path d="m186.9 293.978-120.4 120.4c-1.58 1.58-3.02 3.28-4.31 5.1l-12.07-12.07c1.28-1.82 2.73-3.53 4.31-5.11l120.4-120.39 7.711 3.559z" fill="#95d6a4"/><path d="m43.52 455.998-23.73 47.85c-.846.258-1.486.559-3.18.58-2.36 0-4.69-.92-6.44-2.67-2.75-2.75-3.45-6.95-1.74-10.44l23.15-47.26z" fill="#8e868e"/><g><path d="m210.076 317.154-125.11 125.1-5.3-5.3-5.3-5.3 125.1-125.11 5.974 2.954z" fill="#b3e59f"/></g><path d="m467.35 223.952c49.96-49.96 49.53-131.228-1.289-180.649-14.736-14.33-32.619-22.876-51.115-28.58-43.613-13.448-91.568-2.156-125.835 32.119-28.726 28.733-40.022 67.503-35.38 104.914 3.281 26.448-6.683 53.846-25.528 72.691l27.797 33.277 32.14 25.854c18.708-18.708 45.448-27.453 71.643-23.742 38.128 5.402 78.24-6.557 107.567-35.884z" fill="#ffd163"/><path d="m231.653 337.732-57.46-57.46c-4.686-4.686-4.686-12.284 0-16.971l38.142-38.142c4.686-4.686 12.284-4.686 16.971 0l9.692 8.692 48.768 48.768c4.686 4.686 4.686 12.284 0 16.971l-35.607 35.607-3.535 2.535c-4.687 4.686-12.285 4.686-16.971 0z" fill="#f8f7f7"/><path d="m467.03 44.278c-.32-.34-.64-.65-.97-.97-14.417-14.026-31.413-23.907-49.466-29.668.002-.001.004-.001.006-.002-1.731-.031-11.189-5.159-37.222-6.024-11.45-.162-24.872 1.33-37.884 5.199-19.647 5.785-38.136 16.374-53.534 31.775-29.43 29.44-41.37 69.74-35.81 108 3.78 26.02-4.91 52.3-23.5 70.9l-.545.492 3.206 6.826 7.688 3.042 10.03-11.18c15.04-20.61 21.68-46.67 17.97-72.24-5.14-35.32 6.37-70.04 31.57-95.24 44.299-45.062 126.12-41.397 168.461-10.91z" fill="#ffb65f"/><path d="m197.75 275.131 41.27-41.263-9.71-9.71c-4.69-4.69-12.29-4.69-16.97 0l-39.15 39.14c-4.68 4.69-4.68 12.29 0 16.97l58.46 58.46c4.69 4.69 12.29 4.69 16.97 0l3.54-3.53-54.41-54.41c-1.562-1.562-1.562-4.095 0-5.657z" fill="#e8e8e8"/></g><path d="m471.29 37.926c-52.358-50.917-136.979-50.31-188.633 1.357-1.663 1.664-3.304 3.392-4.876 5.137-2.773 3.077-2.526 7.819.551 10.592 3.078 2.773 7.82 2.526 10.592-.551 1.399-1.553 2.86-3.092 4.34-4.573 45.887-45.898 121.058-46.439 167.568-1.208 23.097 22.461 35.941 52.558 36.166 84.745.225 32.194-12.188 62.46-34.951 85.224-26.735 26.736-63.577 39.046-101.071 33.781-26.582-3.734-52.534 3.699-72.321 20.472l-8.539-8.539 107.518-76.386c3.612-2.566 5.564-6.735 5.223-11.152s-2.91-8.237-6.873-10.218l-26.365-13.183c-.48-.24-.877-.637-1.118-1.117l-13.182-26.365c-1.981-3.962-5.801-6.532-10.218-6.873-4.418-.345-8.586 1.612-11.152 5.223l-76.386 107.518-8.543-8.543c16.655-19.712 24.297-46.002 20.555-71.758-3.497-24.074.305-48.272 10.995-69.979 1.83-3.716.301-8.212-3.415-10.042-3.716-1.831-8.212-.3-10.042 3.415-12.035 24.438-16.316 51.674-12.381 78.762 3.163 21.776-3.418 44.004-17.686 60.525-6.798-2.28-14.607-.738-20.012 4.667l-39.143 39.142c-6.33 6.331-7.37 15.959-3.158 23.396l-115.605 115.602c-3.71 3.71-6.763 7.981-9.071 12.694l-38.364 78.327c-3.122 6.373-1.847 14.025 3.17 19.043 4.6 4.188 11.602 6.606 19.043 3.17l78.327-38.364c4.712-2.308 8.983-5.359 12.694-9.07l30.804-30.803c2.929-2.929 2.929-7.678 0-10.606-2.929-2.93-7.678-2.929-10.606 0l-30.209 30.209-16.99-16.99 114.498-114.498 16.99 16.99-59.395 59.395c-2.929 2.929-2.929 7.678 0 10.606 1.464 1.464 3.384 2.197 5.303 2.197s3.839-.732 5.303-2.197l59.899-59.899c2.901 1.651 6.186 2.546 9.614 2.546 5.209 0 10.106-2.029 13.789-5.712l39.143-39.142c3.683-3.683 5.712-8.58 5.712-13.789 0-2.156-.366-4.252-1.035-6.237 16.599-14.363 38.584-20.754 61.143-17.583 6.412.9 12.798 1.344 19.139 1.344 35.394-.002 69.102-13.849 94.625-39.373 25.624-25.624 39.597-59.694 39.344-95.935-.254-36.233-14.711-70.111-40.708-95.394zm-137.525 98.447 11.32 22.642c1.683 3.364 4.462 6.144 7.826 7.825l22.64 11.32-106.194 75.445-11.038-11.038zm-241.575 323.711-22.809 11.172-28.713-28.713 11.172-22.809zm-74.881 36.677c-.616.301-1.354.178-1.839-.306s-.607-1.224-.306-1.839l18.531-37.834 21.448 21.448zm60.009-72.761-16.99-16.99 114.498-114.498 16.99 16.99zm205.144-129.714-14.268 14.268-18.583-18.583c-2.929-2.929-7.678-2.929-10.606 0-2.929 2.929-2.929 7.678 0 10.606l18.583 18.583-14.268 14.268c-.85.85-1.979 1.318-3.182 1.318-1.202 0-2.332-.468-3.181-1.318l-58.46-58.46c-1.754-1.754-1.754-4.609 0-6.364l14.268-14.268 21.688 21.688c2.345 2.163 6.713 3.401 10.606 0 2.929-2.929 2.929-7.678 0-10.606l-21.689-21.688 14.268-14.268c.877-.877 2.03-1.316 3.182-1.316s2.305.438 3.182 1.316l58.46 58.46c.85.85 1.318 1.979 1.318 3.182.001 1.202-.467 2.332-1.318 3.182z"/></g></svg>