<svg id="Capa_1" enable-background="new 0 0 512 512" height="512" viewBox="0 0 512 512" width="512" xmlns="http://www.w3.org/2000/svg"><g><g><g fill="#e8e8e8"><path d="m386.945 352.735-27.588 1.35 22.633-267.452c.722-8.253 7.51-15.858 15.763-15.136 8.253.722 14.358 7.998 13.636 16.25l-21.682 247.833z"/><path d="m455.954 354.865-28.565-2.877 46.418-260.511c1.439-8.158 8.012-17.386 16.171-15.948 8.158 1.439 13.606 9.218 12.167 17.377l-42.791 242.674-4.105 8.667z"/><path d="m153.894 354.022-28.858-1.303-23.531-263.36c-.712-8.144 4.297-16.964 12.385-17.846.108-.012.217-.022.325-.032 8.253-.722 15.528 5.383 16.25 13.636l21.822 250.464-2.787 8.008z"/><path d="m86.745 355.298-29.08-.44-46.573-261.014c-1.407-7.979 2.536-16.542 10.397-18.219.176-.038.354-.072.533-.104 8.158-1.439 15.938 4.009 17.377 12.167l43.857 247.89-1.155 9.109z"/></g><g fill="#d8d8d8"><path d="m398.219 71.549c-8.442-1.009-15.975 5.175-16.719 13.581l-23.54 268.96 30.25-1.36 1.5-17.15h-11.816c-1.762 0-3.145-1.512-2.988-3.267l23.314-260.763s-.001 0-.001-.001z"/><path d="m490.12 75.56c-.001-.002-.002-.003-.004-.005-8.209-1.525-16.068 3.94-17.516 12.145l-46.57 264.15 29.92 3.02 3.4-19.29h-11.414c-1.865 0-3.278-1.683-2.955-3.52z"/><path d="m137.023 332.845-23.133-261.325c-8.09.87-14.02 8.07-13.31 16.21l21.681 247.85h-.001l1.5 17.14 30.13 1.3-1.61-18.44h-12.269c-1.554 0-2.851-1.187-2.988-2.735z"/><path d="m83.25 335.58h-13.107c-1.455 0-2.7-1.044-2.954-2.476l-45.699-257.474c-7.86 1.67-13.04 9.29-11.64 17.27l46.2 261.96 15.04.22-.001-.004 15.651.224z"/></g><path d="m488.5 439.579h-465c-8.284 0-15-6.716-15-15v-58c0-8.284 5.716-16 14-16h467c8.284 0 15 6.716 15 15v7.502l-2.95 6.245 2.95 8.755v15.947l-2.95 7.83 2.95 6.223v7.498c0 8.284-7.716 14-16 14z" fill="#f8f7f7"/><path d="m504.5 425.58c0 8.28-6.72 15-15 15h-467c-8.284 0-15-6.716-15-15v-7.5l3.096-7.67-3.096-7.33v-15l3.096-8.333-3.096-6.667v-7.5c0-8.29 6.72-15 15-15v67c0 4.418 3.582 8 8 8z" fill="#e8e8e8"/><g><path d="m158.5 395.579c0-6.15-3.702-11.436-8.999-13.751-1.838-.803-3.867-.249-6.001-.249-8.284 0-14 5.716-14 14s5.716 14 14 14c2.071 0 4.044.58 5.839-.179 5.383-2.277 9.161-7.608 9.161-13.821z" fill="#df646e"/></g><g><path d="m149.5 409.33c-1.84.8-3.87 1.25-6 1.25-8.28 0-15-6.72-15-15 0-8.29 6.72-15 15-15 2.13 0 4.16.45 6 1.25-5.3 2.31-9 7.6-9 13.75s3.7 11.43 9 13.75z" fill="#dc4955"/></g><g><path d="m299.862 233.496c-3.057 0-6.142-.931-8.804-2.866-21.195-15.399-48.167-15.396-69.361.003-6.701 4.869-16.715 4.793-21.584-1.91-4.869-6.702-3.384-16.083 3.318-20.952 31.743-23.062 74.396-23.062 106.138 0 6.701 4.87 8.188 14.25 3.317 20.952-.161.221-.326.437-.497.647-2.938 3.622-8.142 4.126-12.527 4.126z" fill="#ccf49f"/></g><g><path d="m312.39 229.37c-2.94 3.62-7.26 5.54-11.65 5.54-3.06 0-6.14-.93-8.8-2.87-21.2-15.4-49.68-15.4-70.88 0-6.69 4.87-16.06 3.39-20.94-3.3 4.89-3.05 12.64-7.96 12.72-8.02 12.8-9.31 27.9-14.23 43.66-14.23s30.86 4.92 43.67 14.23c.09.06 8.45 6.05 12.22 8.65z" fill="#b3e59f"/></g><g><path d="m186.25 181.976c-4.321 0-9.853.192-12.789-3.329-.216-.259-.425-.527-.626-.803-4.869-6.702-3.384-16.083 3.318-20.952 48.057-34.915 112.634-34.917 160.691 0 6.702 4.869 8.188 14.25 3.319 20.952-.272.374-.558.732-.856 1.073-5.053 5.774-14.568 4.461-20.895-.137-37.512-27.253-85.848-26.923-123.358.33-2.661 1.934-5.747 2.866-8.804 2.866z" fill="#ccf49f"/></g><g><path d="m339.3 178.91c-5.05 5.79-13.76 6.85-20.09 2.25-37.51-27.25-87.91-27.25-125.42 0-2.66 1.94-5.75 2.87-8.81 2.87-4.32 0-8.59-1.87-11.51-5.39 4.88-3.52 12.02-8.75 12.09-8.8 20.81-15.13 45.34-23.12 70.94-23.12s50.13 7.99 70.94 23.12c.07.05 6.66 5.12 11.86 9.07z" fill="#b3e59f"/></g><path d="m271.5 265.579c0-5.955-3.47-11.099-8.498-13.522-1.967-.948-4.172-.947-6.502-.947-8.284 0-14.381 6.186-14.381 14.47s6.096 14.512 14.381 14.512c2.329 0 4.534-.044 6.5-.991 5.029-2.422 8.5-7.567 8.5-13.522z" fill="#ccf49f"/><path d="m263 279.1c-1.97.95-4.17 1.48-6.5 1.48-8.28 0-15-6.72-15-15 0-8.29 6.72-15 15-15 2.33 0 4.53.53 6.5 1.48-5.03 2.42-8.5 7.56-8.5 13.52 0 5.95 3.47 11.1 8.5 13.52z" fill="#b3e59f"/></g><g><path d="m489.5 343.078h-23.852l26.54-150.518c.72-4.079-2.004-7.969-6.083-8.688-4.085-.718-7.969 2.005-8.688 6.084l-26.999 153.122h-15.232l44.802-254.079c.718-4.073 4.618-6.806 8.688-6.083 4.072.718 6.802 4.616 6.084 8.688l-11.239 63.741c-.72 4.079 2.004 7.969 6.083 8.688 4.085.719 7.969-2.004 8.688-6.084l11.239-63.741c2.154-12.217-6.032-23.91-18.251-26.065-12.209-2.154-23.911 6.033-26.064 18.251l-45.261 256.684h-23.375l22.282-254.678c1.08-12.359-8.095-23.294-20.454-24.375-12.36-1.077-23.295 8.095-24.375 20.454l-22.625 258.6h-190.846l-22.625-258.617c-1.082-12.359-12.029-21.535-24.376-20.454-12.359 1.082-21.534 12.017-20.453 24.376l22.282 254.694h-23.343l-9.442-53.551c-.719-4.079-4.607-6.8-8.688-6.084-4.079.719-6.803 4.609-6.084 8.688l8.983 50.947h-15.232l-44.343-251.482c-.466-3.053 1.132-7.544 6.084-8.688 3.053-.466 7.543 1.132 8.688 6.083l29.792 168.96c.72 4.079 4.612 6.803 8.688 6.084 4.079-.719 6.803-4.609 6.084-8.688l-29.792-168.96c-1.736-10.931-13.473-20.635-26.065-18.25-10.931 1.734-20.637 13.471-18.252 26.064l43.884 248.877h-23.852c-12.407 0-22.5 10.093-22.5 22.5v60c0 12.407 10.093 22.5 22.5 22.5h176.075c4.142 0 7.5-3.358 7.5-7.5s-3.358-7.5-7.5-7.5h-176.075c-4.136 0-7.5-3.364-7.5-7.5v-7.5h83.5c4.142 0 7.5-3.358 7.5-7.5s-3.358-7.5-7.5-7.5h-83.5v-15h83.5c4.142 0 7.5-3.358 7.5-7.5s-3.358-7.5-7.5-7.5h-83.5v-7.5c0-4.136 3.364-7.5 7.5-7.5h467c4.136 0 7.5 3.364 7.5 7.5v7.5h-83.5c-4.143 0-7.5 3.358-7.5 7.5s3.357 7.5 7.5 7.5h83.5v15h-83.5c-4.143 0-7.5 3.358-7.5 7.5s3.357 7.5 7.5 7.5h83.5v7.5c0 4.136-3.364 7.5-7.5 7.5h-255.862c-4.142 0-7.5 3.358-7.5 7.5s3.358 7.5 7.5 7.5h255.862c12.406 0 22.5-10.093 22.5-22.5v-60c0-12.406-10.094-22.5-22.5-22.5zm-100.524-257.292c.34-3.069 3.046-6.993 8.125-6.817 4.119.36 7.178 4.005 6.817 8.125l-22.396 255.985h-15.057zm-280.925 1.29c-.361-4.12 2.698-7.765 6.817-8.125 4.12-.361 7.765 2.698 8.125 6.818l22.511 257.309h-15.057z"/><path d="m121 395.578c0 12.407 10.093 22.5 22.5 22.5s22.5-10.093 22.5-22.5-10.093-22.5-22.5-22.5-22.5 10.094-22.5 22.5zm30 0c0 4.136-3.364 7.5-7.5 7.5s-7.5-3.364-7.5-7.5 3.364-7.5 7.5-7.5 7.5 3.365 7.5 7.5z"/><path d="m383.5 403.078c4.143 0 7.5-3.358 7.5-7.5s-3.357-7.5-7.5-7.5h-75c-4.143 0-7.5 3.358-7.5 7.5s3.357 7.5 7.5 7.5z"/><path d="m300.739 242.408c7.187 0 13.996-3.468 18.215-9.275 7.293-10.036 5.061-24.135-4.977-31.428-34.379-24.979-80.575-24.978-114.955 0-10.037 7.292-12.27 21.391-4.978 31.428 6.659 9.284 20.678 12.538 31.429 4.978 18.557-13.483 43.496-13.484 62.053 0 3.87 2.81 8.439 4.297 13.213 4.297zm-84.082-16.434c-2.538 1.757-7.278 2.29-10.476-1.659-2.431-3.346-1.687-8.045 1.659-10.476 14.555-10.575 31.605-15.86 48.661-15.86 17.052 0 34.109 5.288 48.66 15.859 3.346 2.431 4.09 7.131 1.659 10.477-2.173 2.129-5.263 4.697-10.476 1.659-23.832-17.315-55.856-17.315-79.687 0z"/><path d="m184.983 191.528c4.774 0 9.343-1.486 13.213-4.298 34.873-25.336 81.735-25.337 116.608 0 8.604 6.608 24.071 5.543 31.429-4.977 6.658-8.841 5.485-24.027-4.979-31.428-12.704-9.23-26.686-16.287-41.557-20.974-3.955-1.244-8.163.948-9.408 4.899s.948 8.163 4.898 9.408c13.325 4.199 25.857 10.525 37.25 18.803 2.455 1.871 4.426 6.214 1.66 10.475-1.872 2.456-6.214 4.427-10.477 1.66-40.148-29.168-94.096-29.168-134.242 0-2.098 1.621-7.179 2.358-10.476-1.659-2.431-3.346-1.687-8.045 1.659-10.476 23.703-17.221 52.788-25.964 81.885-24.617 4.129.181 7.646-3.008 7.839-7.146.191-4.138-3.008-7.647-7.146-7.838-32.498-1.5-64.949 8.252-91.396 27.466-10.037 7.292-12.27 21.391-4.978 31.428 4.222 5.806 11.032 9.274 18.218 9.274z"/><path d="m234 265.578c0 12.407 10.093 22.5 22.5 22.5 12.406 0 22.5-10.093 22.5-22.5s-10.094-22.5-22.5-22.5c-12.407 0-22.5 10.094-22.5 22.5zm30 0c0 4.136-3.364 7.5-7.5 7.5s-7.5-3.364-7.5-7.5 3.364-7.5 7.5-7.5 7.5 3.365 7.5 7.5z"/><circle cx="278.5" cy="395.58" r="7.5"/><circle cx="248.5" cy="395.58" r="7.5"/><circle cx="218.5" cy="395.58" r="7.5"/><circle cx="188.5" cy="395.58" r="7.5"/></g></g></svg>