<svg id="Capa_1" enable-background="new 0 0 512.001 512.001" height="512" viewBox="0 0 512.001 512.001" width="512" xmlns="http://www.w3.org/2000/svg"><g><g><path d="m276.501 504.5h-30l-10-1c-2.761 0-5-2.239-5-5v-51h49l1 16v36c0 2.762-2.239 5-5 5z" fill="#8e868e"/><path d="m281.501 447.5v16h-32c-1.657 0-3 1.343-3 3v38h-11c-2.761 0-5-2.239-5-5v-52l24.66-4.17z" fill="#766d78"/><path d="m285.501 446.5h-59c-13.807 0-25-11.193-25-25v-25l55-4.252 55 4.252v26c0 3.174-.592 6.21-1.67 9.004-3.615 9.358-13.697 14.996-24.33 14.996z" fill="#9e959e"/><path d="m309.821 431.5c-3.6 9.36-12.68 16-23.32 16h-61c-13.81 0-25-11.19-25-25v-26l8.25-3.151 7.75 3.151v26c0 4.96 4.04 9 9 9z" fill="#8e868e"/><path d="m468.001 345.5h-424c-5.523 0-10-4.477-10-10v-293l209.018-4.417 235.982 4.417v287l-1 6c0 5.523-4.477 10-10 10z" fill="#f8f7f7"/><path d="m479.001 329.5v7c0 5.523-4.477 10-10 10h-426c-5.523 0-10-4.477-10-10v-294l7.56-4.417 9.44 4.417v282c0 2.761 2.239 5 5 5z" fill="#e8e8e8"/><g><path d="m360.501 196c0-54.519-41.751-99.287-95.023-104.076-3.121-.281-6.282.324-9.477.324-57.714 0-101.991 46.039-101.991 103.752s44.277 104.5 101.991 104.5 104.5-46.786 104.5-104.5z" fill="#ffd163"/></g><path d="m395.501 148.5h-46.39l-.61 1c-8.284 0-14 6.716-14 15v14h75l1-13v-2c0-8.284-6.716-15-15-15z" fill="#9e959e"/><path d="m410.501 165.5v13l-34.876 2.179-42.124-2.179v-15c0-8.284 6.716-15 15-15h.61v14c0 1.657 1.343 3 3 3z" fill="#8e868e"/><path d="m266.001 300.02c-3.29.32-6.63.48-10 .48-57.71 0-104.5-46.79-104.5-104.5s46.79-104.5 104.5-104.5c3.37 0 6.71.16 10 .48-53.02 5.03-94.5 49.68-94.5 104.02s41.48 98.99 94.5 104.02z" fill="#ffb65f"/><path d="m420.301 395.5h-328.6c-11.046 0-20-8.954-20-20v-176c0-9.319 5.374-18.15 14-20.37 1.598-.411 3.274-.63 5-.63h330.6c11.046 0 20 8.954 20 20v178c0 1.727-.219 3.402-.63 5-2.221 8.626-11.051 14-20.37 14z" fill="#9e959e"/><path d="m440.671 381.5c-2.22 8.63-10.05 15-19.37 15h-330.6c-11.05 0-20-8.95-20-20v-178c0-9.32 6.37-17.15 15-19.37v197.37c0 2.76 2.24 5 5 5z" fill="#8e868e"/><path d="m319.501 365.5h-212c-2.761 0-5-2.239-5-5v-146c0-2.761 2.239-5 5-5l6-1h207c2.761 0 5 2.239 5 5v141l-1 6c0 2.762-2.239 5-5 5z" fill="#f8f7f7"/><path d="m325.501 354.5v7c0 2.761-2.239 5-5 5h-214c-2.761 0-5-2.239-5-5v-148c0-2.761 2.239-5 5-5h7v143c0 1.657 1.343 3 3 3z" fill="#e8e8e8"/><path d="m411.501 338.5c0-12.683-8.433-23.397-19.997-26.84-2.536-.755-5.222-.16-8.003-.16-15.464 0-27 11.536-27 27s11.536 27 27 27c2.781 0 5.467.595 8.003-.16 11.564-3.443 19.997-14.157 19.997-26.84z" fill="#f8f7f7"/><path d="m391.501 365.33c-2.54.76-5.22 1.17-8 1.17-15.46 0-28-12.54-28-28s12.54-28 28-28c2.78 0 5.46.41 8 1.17-11.56 3.43-20 14.15-20 26.83s8.44 23.4 20 26.83z" fill="#e8e8e8"/><path d="m249.501 287.5c0-17.133-11.968-31.47-28.001-35.108-2.573-.584-5.25.108-7.999.108-19.882 0-35 15.118-35 35s15.118 35 35 35c2.485 0 4.912.748 7.255.269 16.405-3.357 28.745-17.872 28.745-35.269z" fill="#ffd163"/><path d="m221.501 322.61c-2.57.58-5.25.89-8 .89-19.88 0-36-16.12-36-36s16.12-36 36-36c2.75 0 5.43.31 8 .89-16.03 3.64-28 17.98-28 35.11s11.97 31.47 28 35.11z" fill="#ffb65f"/><path d="m486.001 41.5h-460c-9.665 0-17.5-6.835-17.5-16.5 0-8.816 5.519-16.109 14-17.323.817-.117 1.651-.177 2.5-.177h462c9.665 0 17.5 7.835 17.5 17.5 0 1.199-.121 2.37-.35 3.502-1.623 7.987-9.685 12.998-18.15 12.998z" fill="#855b51"/><path d="m504.141 28.5c-.69 3.43-2.39 6.49-4.77 8.87-3.17 3.17-7.54 5.13-12.37 5.13h-462c-9.66 0-17.5-7.84-17.5-17.5 0-4.83 1.96-9.2 5.13-12.37 2.61-2.61 6.04-4.4 9.87-4.95v3.32c0 9.66 7.84 17.5 17.5 17.5z" fill="#724d44"/></g><g><path d="m487.001 0h-462c-13.785 0-25 11.215-25 25-.106 13.443 11.581 25.256 25.5 25v286.5c0 9.649 7.851 17.5 17.5 17.5h20.2v22.5c0 15.164 12.337 27.5 27.5 27.5h102.3v18.5c0 17.078 13.244 31.112 30 32.394v44.606c0 6.893 5.607 12.5 12.5 12.5h41c6.893 0 12.5-5.607 12.5-12.5v-44.606c16.756-1.282 30-15.316 30-32.394v-18.5h35.915c4.143 0 7.5-3.358 7.5-7.5s-3.357-7.5-7.5-7.5h-43.415-111-109.8c-6.893 0-12.5-5.607-12.5-12.5v-178c0-6.893 5.607-12.5 12.5-12.5h330.6c6.893 0 12.5 5.607 12.5 12.5v178c0 6.893-5.607 12.5-12.5 12.5h-31.215c-4.143 0-7.5 3.358-7.5 7.5s3.357 7.5 7.5 7.5h31.215c15.163 0 27.5-12.336 27.5-27.5v-22.5h20.2c9.649 0 17.5-7.851 17.5-17.5v-189.67c0-4.142-3.357-7.5-7.5-7.5s-7.5 3.358-7.5 7.5v189.67c0 1.378-1.121 2.5-2.5 2.5h-20.2v-140.5c0-15.164-12.337-27.5-27.5-27.5h-3.3v-7.5c0-12.407-10.094-22.5-22.5-22.5h-41.917c-19.878-35.266-56.882-57-97.583-57-26.614 0-52.409 9.497-72.633 26.742-18.394 15.684-31.201 36.901-36.541 60.258h-56.126c-15.163 0-27.5 12.336-27.5 27.5v140.5h-20.2c-1.379 0-2.5-1.122-2.5-2.5v-286.5h82.628c4.143 0 7.5-3.358 7.5-7.5s-3.357-7.5-7.5-7.5h-98.128c-5.514 0-10-4.486-10-10s4.486-10 10-10h462c5.514 0 10 4.486 10 10s-4.486 10-10 10h-329.064c-4.143 0-7.5 3.358-7.5 7.5s3.357 7.5 7.5 7.5h313.563v61.915c0 4.142 3.357 7.5 7.5 7.5s7.5-3.358 7.5-7.5v-61.915c13.41.388 25.506-11.103 25.5-25 .001-13.785-11.214-25-24.999-25zm-249 497v-42h36v42zm66-93v18.5c0 9.649-7.851 17.5-17.5 17.5h-61c-9.649 0-17.5-7.851-17.5-17.5v-18.5zm99-240.5v7.5h-62v-7.5c0-4.136 3.364-7.5 7.5-7.5h47c4.135 0 7.5 3.365 7.5 7.5zm-147-64.5c33.434 0 63.982 16.94 81.734 44.748-6.986 3.823-11.734 11.242-11.734 19.752v7.5h-163.758c11.139-42.209 49.257-72 93.758-72z"/><path d="m101.501 277.33c-4.143 0-7.5 3.358-7.5 7.5v76.67c0 6.893 5.607 12.5 12.5 12.5h214c6.893 0 12.5-5.607 12.5-12.5v-148c0-6.893-5.607-12.5-12.5-12.5h-214c-6.893 0-12.5 5.607-12.5 12.5v36.734c0 4.142 3.357 7.5 7.5 7.5s7.5-3.358 7.5-7.5v-34.234h209v143h-209v-74.17c0-4.142-3.358-7.5-7.5-7.5z"/><path d="m131.501 276c4.143 0 7.5-3.358 7.5-7.5v-20c0-1.378 1.121-2.5 2.5-2.5h20c4.143 0 7.5-3.358 7.5-7.5s-3.357-7.5-7.5-7.5h-20c-9.649 0-17.5 7.851-17.5 17.5v20c0 4.142 3.357 7.5 7.5 7.5z"/><path d="m124.001 326.5c0 9.649 7.851 17.5 17.5 17.5h20c4.143 0 7.5-3.358 7.5-7.5s-3.357-7.5-7.5-7.5h-20c-1.379 0-2.5-1.122-2.5-2.5v-20c0-4.142-3.357-7.5-7.5-7.5s-7.5 3.358-7.5 7.5z"/><path d="m265.501 344h20c9.649 0 17.5-7.851 17.5-17.5v-20c0-4.142-3.357-7.5-7.5-7.5s-7.5 3.358-7.5 7.5v20c0 1.378-1.121 2.5-2.5 2.5h-20c-4.143 0-7.5 3.358-7.5 7.5s3.357 7.5 7.5 7.5z"/><path d="m295.501 276c4.143 0 7.5-3.358 7.5-7.5v-20c0-9.649-7.851-17.5-17.5-17.5h-20c-4.143 0-7.5 3.358-7.5 7.5s3.357 7.5 7.5 7.5h20c1.379 0 2.5 1.122 2.5 2.5v20c0 4.142 3.357 7.5 7.5 7.5z"/><path d="m383.501 374c19.575 0 35.5-15.925 35.5-35.5s-15.925-35.5-35.5-35.5-35.5 15.925-35.5 35.5 15.925 35.5 35.5 35.5zm0-56c11.304 0 20.5 9.196 20.5 20.5s-9.196 20.5-20.5 20.5-20.5-9.196-20.5-20.5 9.196-20.5 20.5-20.5z"/><path d="m355.501 280h56c4.143 0 7.5-3.358 7.5-7.5s-3.357-7.5-7.5-7.5h-56c-4.143 0-7.5 3.358-7.5 7.5s3.357 7.5 7.5 7.5z"/><path d="m355.501 250h56c4.143 0 7.5-3.358 7.5-7.5s-3.357-7.5-7.5-7.5h-56c-4.143 0-7.5 3.358-7.5 7.5s3.357 7.5 7.5 7.5z"/><path d="m257.001 287.5c0-23.986-19.514-43.5-43.5-43.5s-43.5 19.514-43.5 43.5 19.514 43.5 43.5 43.5 43.5-19.514 43.5-43.5zm-72 0c0-15.715 12.785-28.5 28.5-28.5s28.5 12.785 28.5 28.5-12.785 28.5-28.5 28.5-28.5-12.785-28.5-28.5z"/></g></g></svg>